<svg width="4098" height="1696" xmlns="http://www.w3.org/2000/svg" xmlns:xlink="http://www.w3.org/1999/xlink" xml:space="preserve" overflow="hidden"><defs><clipPath id="clip0"><rect x="155" y="545" width="4098" height="1696"/></clipPath><clipPath id="clip1"><rect x="155" y="545" width="4098" height="1696"/></clipPath></defs><g clip-path="url(#clip0)" transform="translate(-155 -545)"><g clip-path="url(#clip1)"><g><path d="M409.5 1916.56 4202.5 1916.56M409.5 1720.56 4202.5 1720.56M409.5 1524.55 4202.5 1524.55M409.5 1328.54 4202.5 1328.54M409.5 1132.54 4202.5 1132.54M409.5 936.531 4202.5 936.531M409.5 740.5 4202.5 740.5" stroke="#DDE2F3" stroke-width="3.4375" stroke-linecap="butt" stroke-linejoin="round" stroke-miterlimit="10" stroke-opacity="1" fill="none" fill-rule="nonzero"/></g><g><path d="M642.021 1544.05 855.028 1544.05 855.028 2113 642.021 2113ZM1590.05 1466.05 1803.06 1466.05 1803.06 2113 1590.05 2113ZM2539.08 1701.06 2751.09 1701.06 2751.09 2113 2539.08 2113ZM3487.11 976.032 3699.12 976.032 3699.12 2113 3487.11 2113Z" fill="#344A9A" fill-rule="nonzero" fill-opacity="1"/></g><g><path d="M912.03 1917.06 1125.04 1917.06 1125.04 2113 912.03 2113ZM1860.06 1936.06 2073.07 1936.06 2073.07 2113 1860.06 2113ZM2809.09 1975.06 3021.1 1975.06 3021.1 2113 2809.09 2113ZM3757.12 1819.06 3969.13 1819.06 3969.13 2113 3757.12 2113Z" fill="#FFE863" fill-rule="nonzero" fill-opacity="1"/></g><g><path d="M409.5 2112.5 4202.5 2112.5" stroke="#DDE2F3" stroke-width="3.4375" stroke-linecap="butt" stroke-linejoin="round" stroke-miterlimit="10" stroke-opacity="1" fill="none" fill-rule="evenodd"/></g><g><text fill="#556DC5" fill-opacity="1" font-family="Arial,Arial_MSFontService,sans-serif" font-style="normal" font-variant="normal" font-weight="400" font-stretch="normal" font-size="55" text-anchor="start" direction="ltr" writing-mode="lr-tb" unicode-bidi="normal" text-decoration="none" transform="matrix(1 0 0 1 717.814 1512)">29</text></g><g><text fill="#556DC5" fill-opacity="1" font-family="Arial,Arial_MSFontService,sans-serif" font-style="normal" font-variant="normal" font-weight="400" font-stretch="normal" font-size="55" text-anchor="start" direction="ltr" writing-mode="lr-tb" unicode-bidi="normal" text-decoration="none" transform="matrix(1 0 0 1 1666.1 1433)">33</text></g><g><text fill="#556DC5" fill-opacity="1" font-family="Arial,Arial_MSFontService,sans-serif" font-style="normal" font-variant="normal" font-weight="400" font-stretch="normal" font-size="55" text-anchor="start" direction="ltr" writing-mode="lr-tb" unicode-bidi="normal" text-decoration="none" transform="matrix(1 0 0 1 2614.39 1668)">21</text></g><g><text fill="#556DC5" fill-opacity="1" font-family="Arial,Arial_MSFontService,sans-serif" font-style="normal" font-variant="normal" font-weight="400" font-stretch="normal" font-size="55" text-anchor="start" direction="ltr" writing-mode="lr-tb" unicode-bidi="normal" text-decoration="none" transform="matrix(1 0 0 1 3562.68 943)">58</text></g><g><text fill="#556DC5" fill-opacity="1" font-family="Arial,Arial_MSFontService,sans-serif" font-style="normal" font-variant="normal" font-weight="400" font-stretch="normal" font-size="55" text-anchor="start" direction="ltr" writing-mode="lr-tb" unicode-bidi="normal" text-decoration="none" transform="matrix(1 0 0 1 987.842 1884)">10</text></g><g><text fill="#556DC5" fill-opacity="1" font-family="Arial,Arial_MSFontService,sans-serif" font-style="normal" font-variant="normal" font-weight="400" font-stretch="normal" font-size="55" text-anchor="start" direction="ltr" writing-mode="lr-tb" unicode-bidi="normal" text-decoration="none" transform="matrix(1 0 0 1 1951.38 1904)">9</text></g><g><text fill="#556DC5" fill-opacity="1" font-family="Arial,Arial_MSFontService,sans-serif" font-style="normal" font-variant="normal" font-weight="400" font-stretch="normal" font-size="55" text-anchor="start" direction="ltr" writing-mode="lr-tb" unicode-bidi="normal" text-decoration="none" transform="matrix(1 0 0 1 2899.67 1943)">7</text></g><g><text fill="#556DC5" fill-opacity="1" font-family="Arial,Arial_MSFontService,sans-serif" font-style="normal" font-variant="normal" font-weight="400" font-stretch="normal" font-size="55" text-anchor="start" direction="ltr" writing-mode="lr-tb" unicode-bidi="normal" text-decoration="none" transform="matrix(1 0 0 1 3832.71 1786)">15</text></g><g><text fill="#6B80CD" fill-opacity="1" font-family="Arial,Arial_MSFontService,sans-serif" font-style="normal" font-variant="normal" font-weight="400" font-stretch="normal" font-size="55" text-anchor="start" direction="ltr" writing-mode="lr-tb" unicode-bidi="normal" text-decoration="none" transform="matrix(1 0 0 1 331.49 2130)">0</text></g><g><text fill="#6B80CD" fill-opacity="1" font-family="Arial,Arial_MSFontService,sans-serif" font-style="normal" font-variant="normal" font-weight="400" font-stretch="normal" font-size="55" text-anchor="start" direction="ltr" writing-mode="lr-tb" unicode-bidi="normal" text-decoration="none" transform="matrix(1 0 0 1 300.988 1934)">10</text></g><g><text fill="#6B80CD" fill-opacity="1" font-family="Arial,Arial_MSFontService,sans-serif" font-style="normal" font-variant="normal" font-weight="400" font-stretch="normal" font-size="55" text-anchor="start" direction="ltr" writing-mode="lr-tb" unicode-bidi="normal" text-decoration="none" transform="matrix(1 0 0 1 300.988 1738)">20</text></g><g><text fill="#6B80CD" fill-opacity="1" font-family="Arial,Arial_MSFontService,sans-serif" font-style="normal" font-variant="normal" font-weight="400" font-stretch="normal" font-size="55" text-anchor="start" direction="ltr" writing-mode="lr-tb" unicode-bidi="normal" text-decoration="none" transform="matrix(1 0 0 1 300.988 1542)">30</text></g><g><text fill="#6B80CD" fill-opacity="1" font-family="Arial,Arial_MSFontService,sans-serif" font-style="normal" font-variant="normal" font-weight="400" font-stretch="normal" font-size="55" text-anchor="start" direction="ltr" writing-mode="lr-tb" unicode-bidi="normal" text-decoration="none" transform="matrix(1 0 0 1 300.988 1346)">40</text></g><g><text fill="#6B80CD" fill-opacity="1" font-family="Arial,Arial_MSFontService,sans-serif" font-style="normal" font-variant="normal" font-weight="400" font-stretch="normal" font-size="55" text-anchor="start" direction="ltr" writing-mode="lr-tb" unicode-bidi="normal" text-decoration="none" transform="matrix(1 0 0 1 300.988 1150)">50</text></g><g><text fill="#6B80CD" fill-opacity="1" font-family="Arial,Arial_MSFontService,sans-serif" font-style="normal" font-variant="normal" font-weight="400" font-stretch="normal" font-size="55" text-anchor="start" direction="ltr" writing-mode="lr-tb" unicode-bidi="normal" text-decoration="none" transform="matrix(1 0 0 1 300.988 954)">60</text></g><g><text fill="#6B80CD" fill-opacity="1" font-family="Arial,Arial_MSFontService,sans-serif" font-style="normal" font-variant="normal" font-weight="400" font-stretch="normal" font-size="55" text-anchor="start" direction="ltr" writing-mode="lr-tb" unicode-bidi="normal" text-decoration="none" transform="matrix(1 0 0 1 300.988 758)">70</text></g><g><text fill="#6B80CD" fill-opacity="1" font-family="Arial,Arial_MSFontService,sans-serif" font-style="normal" font-variant="normal" font-weight="400" font-stretch="normal" font-size="55" text-anchor="start" direction="ltr" writing-mode="lr-tb" unicode-bidi="normal" text-decoration="none" transform="matrix(1 0 0 1 770.523 2196)">Query #1</text></g><g><text fill="#6B80CD" fill-opacity="1" font-family="Arial,Arial_MSFontService,sans-serif" font-style="normal" font-variant="normal" font-weight="400" font-stretch="normal" font-size="55" text-anchor="start" direction="ltr" writing-mode="lr-tb" unicode-bidi="normal" text-decoration="none" transform="matrix(1 0 0 1 1718.81 2196)">Query #2</text></g><g><text fill="#6B80CD" fill-opacity="1" font-family="Arial,Arial_MSFontService,sans-serif" font-style="normal" font-variant="normal" font-weight="400" font-stretch="normal" font-size="55" text-anchor="start" direction="ltr" writing-mode="lr-tb" unicode-bidi="normal" text-decoration="none" transform="matrix(1 0 0 1 2667.1 2196)">Query #3</text></g><g><text fill="#6B80CD" fill-opacity="1" font-family="Arial,Arial_MSFontService,sans-serif" font-style="normal" font-variant="normal" font-weight="400" font-stretch="normal" font-size="55" text-anchor="start" direction="ltr" writing-mode="lr-tb" unicode-bidi="normal" text-decoration="none" transform="matrix(1 0 0 1 3615.39 2196)">Query #4</text></g><g><text fill="#6B80CD" fill-opacity="1" font-family="Arial,Arial_MSFontService,sans-serif" font-style="normal" font-variant="normal" font-weight="400" font-stretch="normal" font-size="61" text-anchor="start" direction="ltr" writing-mode="lr-tb" unicode-bidi="normal" text-decoration="none" transform="matrix(6.12323e-17 -1 1 6.12323e-17 274.13 1743)">Required triple patterns</text></g><g><text fill="#6B80CD" fill-opacity="1" font-family="Arial,Arial_MSFontService,sans-serif" font-style="normal" font-variant="normal" font-weight="400" font-stretch="normal" font-size="85" text-anchor="start" direction="ltr" writing-mode="lr-tb" unicode-bidi="normal" text-decoration="none" transform="matrix(1 0 0 1 1270.28 662)">Query complexity, before vs. after </text></g><g><text fill="#6B80CD" fill-opacity="1" font-family="Arial,Arial_MSFontService,sans-serif" font-style="italic" font-variant="normal" font-weight="400" font-stretch="normal" font-size="85" text-anchor="start" direction="ltr" writing-mode="lr-tb" unicode-bidi="normal" text-decoration="none" transform="matrix(1 0 0 1 2563.58 662)">construct</text></g><g><text fill="#6B80CD" fill-opacity="1" font-family="Arial,Arial_MSFontService,sans-serif" font-style="normal" font-variant="normal" font-weight="400" font-stretch="normal" font-size="85" text-anchor="start" direction="ltr" writing-mode="lr-tb" unicode-bidi="normal" text-decoration="none" transform="matrix(1 0 0 1 2933.55 662)">stage</text></g></g></g></svg>