<svg width="4098" height="1696" xmlns="http://www.w3.org/2000/svg" xmlns:xlink="http://www.w3.org/1999/xlink" xml:space="preserve" overflow="hidden"><defs><clipPath id="clip0"><rect x="155" y="545" width="4098" height="1696"/></clipPath><clipPath id="clip1"><rect x="155" y="545" width="4098" height="1696"/></clipPath></defs><g clip-path="url(#clip0)" transform="translate(-155 -545)"><g clip-path="url(#clip1)"><g><path d="M409.5 1758.56 4202.5 1758.56M409.5 1631.55 4202.5 1631.55M409.5 1503.55 4202.5 1503.55M409.5 1376.55 4202.5 1376.55M409.5 1249.54 4202.5 1249.54M409.5 1122.54 4202.5 1122.54M409.5 995.533 4202.5 995.533M409.5 867.529 4202.5 867.529M409.5 740.5 4202.5 740.5" stroke="#DDE2F3" stroke-width="3.4375" stroke-linecap="butt" stroke-linejoin="round" stroke-miterlimit="10" stroke-opacity="1" fill="none" fill-rule="nonzero"/></g><g><path d="M409.5 1885.5 4202.5 1885.5" stroke="#DDE2F3" stroke-width="3.4375" stroke-linecap="butt" stroke-linejoin="round" stroke-miterlimit="10" stroke-opacity="1" fill="none" fill-rule="evenodd"/></g><g><path d="M488.5 838.5 646.521 1355.54 804.527 1525.55 962.532 1613.55 1120.54 1667.55 1278.54 1702.56 1436.55 1726.56 1594.55 1745.56 1752.56 1759.56 1910.56 1770.56 2068.57 1780.56 2226.57 1785.56 2384.58 1787.56 2542.58 1788.56 2700.59 1789.56 2858.59 1791.56 3016.6 1788.56 3174.6 1790.56 3332.61 1791.56 3491.61 1791.56 3649.62 1793.56 3807.62 1790.56 3965.63 1792.56 4123.5 1794.5" stroke="#344A9A" stroke-width="4.58333" stroke-linecap="round" stroke-linejoin="round" stroke-miterlimit="10" stroke-opacity="1" fill="none" fill-rule="nonzero"/></g><g><path d="M499.343 838.3C499.343 844.375 494.418 849.299 488.343 849.299 482.268 849.299 477.344 844.375 477.344 838.3 477.344 832.225 482.268 827.3 488.343 827.3 494.418 827.3 499.343 832.225 499.343 838.3Z" stroke="#344A9A" stroke-width="3.4375" stroke-linecap="butt" stroke-linejoin="round" stroke-miterlimit="10" stroke-opacity="1" fill="#344A9A" fill-rule="nonzero" fill-opacity="1"/><path d="M657.343 1355.3C657.343 1361.37 652.418 1366.3 646.343 1366.3 640.269 1366.3 635.344 1361.37 635.344 1355.3 635.344 1349.22 640.269 1344.3 646.343 1344.3 652.418 1344.3 657.343 1349.22 657.343 1355.3Z" stroke="#344A9A" stroke-width="3.4375" stroke-linecap="butt" stroke-linejoin="round" stroke-miterlimit="10" stroke-opacity="1" fill="#344A9A" fill-rule="nonzero" fill-opacity="1"/><path d="M815.343 1525.3C815.343 1531.37 810.418 1536.3 804.343 1536.3 798.268 1536.3 793.344 1531.37 793.344 1525.3 793.344 1519.22 798.268 1514.3 804.343 1514.3 810.418 1514.3 815.343 1519.22 815.343 1525.3Z" stroke="#344A9A" stroke-width="3.4375" stroke-linecap="butt" stroke-linejoin="round" stroke-miterlimit="10" stroke-opacity="1" fill="#344A9A" fill-rule="nonzero" fill-opacity="1"/><path d="M973.343 1613.3C973.343 1619.37 968.418 1624.3 962.343 1624.3 956.268 1624.3 951.344 1619.37 951.344 1613.3 951.344 1607.22 956.268 1602.3 962.343 1602.3 968.418 1602.3 973.343 1607.22 973.343 1613.3Z" stroke="#344A9A" stroke-width="3.4375" stroke-linecap="butt" stroke-linejoin="round" stroke-miterlimit="10" stroke-opacity="1" fill="#344A9A" fill-rule="nonzero" fill-opacity="1"/><path d="M1131.34 1667.3C1131.34 1673.37 1126.42 1678.3 1120.34 1678.3 1114.27 1678.3 1109.34 1673.37 1109.34 1667.3 1109.34 1661.22 1114.27 1656.3 1120.34 1656.3 1126.42 1656.3 1131.34 1661.22 1131.34 1667.3Z" stroke="#344A9A" stroke-width="3.4375" stroke-linecap="butt" stroke-linejoin="round" stroke-miterlimit="10" stroke-opacity="1" fill="#344A9A" fill-rule="nonzero" fill-opacity="1"/><path d="M1289.34 1702.3C1289.34 1708.37 1284.42 1713.3 1278.34 1713.3 1272.27 1713.3 1267.34 1708.37 1267.34 1702.3 1267.34 1696.22 1272.27 1691.3 1278.34 1691.3 1284.42 1691.3 1289.34 1696.22 1289.34 1702.3Z" stroke="#344A9A" stroke-width="3.4375" stroke-linecap="butt" stroke-linejoin="round" stroke-miterlimit="10" stroke-opacity="1" fill="#344A9A" fill-rule="nonzero" fill-opacity="1"/><path d="M1447.34 1726.3C1447.34 1732.37 1442.42 1737.3 1436.34 1737.3 1430.27 1737.3 1425.34 1732.37 1425.34 1726.3 1425.34 1720.22 1430.27 1715.3 1436.34 1715.3 1442.42 1715.3 1447.34 1720.22 1447.34 1726.3Z" stroke="#344A9A" stroke-width="3.4375" stroke-linecap="butt" stroke-linejoin="round" stroke-miterlimit="10" stroke-opacity="1" fill="#344A9A" fill-rule="nonzero" fill-opacity="1"/><path d="M1605.34 1745.3C1605.34 1751.37 1600.42 1756.3 1594.34 1756.3 1588.27 1756.3 1583.34 1751.37 1583.34 1745.3 1583.34 1739.22 1588.27 1734.3 1594.34 1734.3 1600.42 1734.3 1605.34 1739.22 1605.34 1745.3Z" stroke="#344A9A" stroke-width="3.4375" stroke-linecap="butt" stroke-linejoin="round" stroke-miterlimit="10" stroke-opacity="1" fill="#344A9A" fill-rule="nonzero" fill-opacity="1"/><path d="M1763.34 1760.3C1763.34 1766.37 1758.42 1771.3 1752.34 1771.3 1746.27 1771.3 1741.34 1766.37 1741.34 1760.3 1741.34 1754.22 1746.27 1749.3 1752.34 1749.3 1758.42 1749.3 1763.34 1754.22 1763.34 1760.3Z" stroke="#344A9A" stroke-width="3.4375" stroke-linecap="butt" stroke-linejoin="round" stroke-miterlimit="10" stroke-opacity="1" fill="#344A9A" fill-rule="nonzero" fill-opacity="1"/><path d="M1921.34 1770.3C1921.34 1776.37 1916.42 1781.3 1910.34 1781.3 1904.27 1781.3 1899.34 1776.37 1899.34 1770.3 1899.34 1764.22 1904.27 1759.3 1910.34 1759.3 1916.42 1759.3 1921.34 1764.22 1921.34 1770.3Z" stroke="#344A9A" stroke-width="3.4375" stroke-linecap="butt" stroke-linejoin="round" stroke-miterlimit="10" stroke-opacity="1" fill="#344A9A" fill-rule="nonzero" fill-opacity="1"/><path d="M2079.34 1781.3C2079.34 1787.37 2074.42 1792.3 2068.34 1792.3 2062.27 1792.3 2057.34 1787.37 2057.34 1781.3 2057.34 1775.22 2062.27 1770.3 2068.34 1770.3 2074.42 1770.3 2079.34 1775.22 2079.34 1781.3Z" stroke="#344A9A" stroke-width="3.4375" stroke-linecap="butt" stroke-linejoin="round" stroke-miterlimit="10" stroke-opacity="1" fill="#344A9A" fill-rule="nonzero" fill-opacity="1"/><path d="M2237.34 1785.3C2237.34 1791.37 2232.42 1796.3 2226.34 1796.3 2220.27 1796.3 2215.34 1791.37 2215.34 1785.3 2215.34 1779.22 2220.27 1774.3 2226.34 1774.3 2232.42 1774.3 2237.34 1779.22 2237.34 1785.3Z" stroke="#344A9A" stroke-width="3.4375" stroke-linecap="butt" stroke-linejoin="round" stroke-miterlimit="10" stroke-opacity="1" fill="#344A9A" fill-rule="nonzero" fill-opacity="1"/><path d="M2395.34 1787.3C2395.34 1793.37 2390.42 1798.3 2384.34 1798.3 2378.27 1798.3 2373.34 1793.37 2373.34 1787.3 2373.34 1781.22 2378.27 1776.3 2384.34 1776.3 2390.42 1776.3 2395.34 1781.22 2395.34 1787.3Z" stroke="#344A9A" stroke-width="3.4375" stroke-linecap="butt" stroke-linejoin="round" stroke-miterlimit="10" stroke-opacity="1" fill="#344A9A" fill-rule="nonzero" fill-opacity="1"/><path d="M2553.34 1788.3C2553.34 1794.37 2548.42 1799.3 2542.34 1799.3 2536.27 1799.3 2531.34 1794.37 2531.34 1788.3 2531.34 1782.22 2536.27 1777.3 2542.34 1777.3 2548.42 1777.3 2553.34 1782.22 2553.34 1788.3Z" stroke="#344A9A" stroke-width="3.4375" stroke-linecap="butt" stroke-linejoin="round" stroke-miterlimit="10" stroke-opacity="1" fill="#344A9A" fill-rule="nonzero" fill-opacity="1"/><path d="M2711.34 1789.3C2711.34 1795.37 2706.42 1800.3 2700.34 1800.3 2694.27 1800.3 2689.34 1795.37 2689.34 1789.3 2689.34 1783.22 2694.27 1778.3 2700.34 1778.3 2706.42 1778.3 2711.34 1783.22 2711.34 1789.3Z" stroke="#344A9A" stroke-width="3.4375" stroke-linecap="butt" stroke-linejoin="round" stroke-miterlimit="10" stroke-opacity="1" fill="#344A9A" fill-rule="nonzero" fill-opacity="1"/><path d="M2869.34 1791.3C2869.34 1797.37 2864.42 1802.3 2858.34 1802.3 2852.27 1802.3 2847.34 1797.37 2847.34 1791.3 2847.34 1785.22 2852.27 1780.3 2858.34 1780.3 2864.42 1780.3 2869.34 1785.22 2869.34 1791.3Z" stroke="#344A9A" stroke-width="3.4375" stroke-linecap="butt" stroke-linejoin="round" stroke-miterlimit="10" stroke-opacity="1" fill="#344A9A" fill-rule="nonzero" fill-opacity="1"/><path d="M3027.34 1788.3C3027.34 1794.37 3022.42 1799.3 3016.34 1799.3 3010.27 1799.3 3005.34 1794.37 3005.34 1788.3 3005.34 1782.22 3010.27 1777.3 3016.34 1777.3 3022.42 1777.3 3027.34 1782.22 3027.34 1788.3Z" stroke="#344A9A" stroke-width="3.4375" stroke-linecap="butt" stroke-linejoin="round" stroke-miterlimit="10" stroke-opacity="1" fill="#344A9A" fill-rule="nonzero" fill-opacity="1"/><path d="M3186.34 1790.3C3186.34 1796.37 3181.42 1801.3 3175.34 1801.3 3169.27 1801.3 3164.34 1796.37 3164.34 1790.3 3164.34 1784.22 3169.27 1779.3 3175.34 1779.3 3181.42 1779.3 3186.34 1784.22 3186.34 1790.3Z" stroke="#344A9A" stroke-width="3.4375" stroke-linecap="butt" stroke-linejoin="round" stroke-miterlimit="10" stroke-opacity="1" fill="#344A9A" fill-rule="nonzero" fill-opacity="1"/><path d="M3344.34 1791.3C3344.34 1797.37 3339.42 1802.3 3333.34 1802.3 3327.27 1802.3 3322.34 1797.37 3322.34 1791.3 3322.34 1785.22 3327.27 1780.3 3333.34 1780.3 3339.42 1780.3 3344.34 1785.22 3344.34 1791.3Z" stroke="#344A9A" stroke-width="3.4375" stroke-linecap="butt" stroke-linejoin="round" stroke-miterlimit="10" stroke-opacity="1" fill="#344A9A" fill-rule="nonzero" fill-opacity="1"/><path d="M3502.34 1791.3C3502.34 1797.37 3497.42 1802.3 3491.34 1802.3 3485.27 1802.3 3480.34 1797.37 3480.34 1791.3 3480.34 1785.22 3485.27 1780.3 3491.34 1780.3 3497.42 1780.3 3502.34 1785.22 3502.34 1791.3Z" stroke="#344A9A" stroke-width="3.4375" stroke-linecap="butt" stroke-linejoin="round" stroke-miterlimit="10" stroke-opacity="1" fill="#344A9A" fill-rule="nonzero" fill-opacity="1"/><path d="M3660.34 1793.3C3660.34 1799.37 3655.42 1804.3 3649.34 1804.3 3643.27 1804.3 3638.34 1799.37 3638.34 1793.3 3638.34 1787.22 3643.27 1782.3 3649.34 1782.3 3655.42 1782.3 3660.34 1787.22 3660.34 1793.3Z" stroke="#344A9A" stroke-width="3.4375" stroke-linecap="butt" stroke-linejoin="round" stroke-miterlimit="10" stroke-opacity="1" fill="#344A9A" fill-rule="nonzero" fill-opacity="1"/><path d="M3818.34 1790.3C3818.34 1796.37 3813.42 1801.3 3807.34 1801.3 3801.27 1801.3 3796.34 1796.37 3796.34 1790.3 3796.34 1784.22 3801.27 1779.3 3807.34 1779.3 3813.42 1779.3 3818.34 1784.22 3818.34 1790.3Z" stroke="#344A9A" stroke-width="3.4375" stroke-linecap="butt" stroke-linejoin="round" stroke-miterlimit="10" stroke-opacity="1" fill="#344A9A" fill-rule="nonzero" fill-opacity="1"/><path d="M3976.34 1792.3C3976.34 1798.37 3971.42 1803.3 3965.34 1803.3 3959.27 1803.3 3954.34 1798.37 3954.34 1792.3 3954.34 1786.22 3959.27 1781.3 3965.34 1781.3 3971.42 1781.3 3976.34 1786.22 3976.34 1792.3Z" stroke="#344A9A" stroke-width="3.4375" stroke-linecap="butt" stroke-linejoin="round" stroke-miterlimit="10" stroke-opacity="1" fill="#344A9A" fill-rule="nonzero" fill-opacity="1"/><path d="M4134.34 1794.3C4134.34 1800.37 4129.42 1805.3 4123.34 1805.3 4117.27 1805.3 4112.34 1800.37 4112.34 1794.3 4112.34 1788.22 4117.27 1783.3 4123.34 1783.3 4129.42 1783.3 4134.34 1788.22 4134.34 1794.3Z" stroke="#344A9A" stroke-width="3.4375" stroke-linecap="butt" stroke-linejoin="round" stroke-miterlimit="10" stroke-opacity="1" fill="#344A9A" fill-rule="nonzero" fill-opacity="1"/></g><g><path d="M488.5 1047.5 646.521 1451.55 804.527 1593.55 962.532 1658.55 1120.54 1703.56 1278.54 1732.56 1436.55 1753.56 1594.55 1768.56 1752.56 1781.56 1910.56 1790.56 2068.57 1798.56 2226.57 1802.56 2384.58 1804.56 2542.58 1805.56 2700.59 1808.56 2858.59 1809.56 3016.6 1809.56 3174.6 1810.56 3332.61 1810.56 3491.61 1812.56 3649.62 1813.56 3807.62 1813.56 3965.63 1816.56 4123.5 1818.5" stroke="#FFE863" stroke-width="4.58333" stroke-linecap="round" stroke-linejoin="round" stroke-miterlimit="10" stroke-opacity="1" fill="none" fill-rule="nonzero"/></g><g><path d="M488.343 1036.3 499.343 1058.3 477.344 1058.3Z" stroke="#FFE863" stroke-width="3.4375" stroke-linecap="butt" stroke-linejoin="round" stroke-miterlimit="10" stroke-opacity="1" fill="#FFE863" fill-rule="nonzero" fill-opacity="1"/><path d="M646.343 1440.3 657.343 1462.3 635.344 1462.3Z" stroke="#FFE863" stroke-width="3.4375" stroke-linecap="butt" stroke-linejoin="round" stroke-miterlimit="10" stroke-opacity="1" fill="#FFE863" fill-rule="nonzero" fill-opacity="1"/><path d="M804.343 1582.3 815.343 1604.3 793.344 1604.3Z" stroke="#FFE863" stroke-width="3.4375" stroke-linecap="butt" stroke-linejoin="round" stroke-miterlimit="10" stroke-opacity="1" fill="#FFE863" fill-rule="nonzero" fill-opacity="1"/><path d="M962.343 1647.3 973.343 1669.3 951.344 1669.3Z" stroke="#FFE863" stroke-width="3.4375" stroke-linecap="butt" stroke-linejoin="round" stroke-miterlimit="10" stroke-opacity="1" fill="#FFE863" fill-rule="nonzero" fill-opacity="1"/><path d="M1120.34 1692.3 1131.34 1714.3 1109.34 1714.3Z" stroke="#FFE863" stroke-width="3.4375" stroke-linecap="butt" stroke-linejoin="round" stroke-miterlimit="10" stroke-opacity="1" fill="#FFE863" fill-rule="nonzero" fill-opacity="1"/><path d="M1278.34 1721.3 1289.34 1743.3 1267.34 1743.3Z" stroke="#FFE863" stroke-width="3.4375" stroke-linecap="butt" stroke-linejoin="round" stroke-miterlimit="10" stroke-opacity="1" fill="#FFE863" fill-rule="nonzero" fill-opacity="1"/><path d="M1436.34 1743.3 1447.34 1765.3 1425.34 1765.3Z" stroke="#FFE863" stroke-width="3.4375" stroke-linecap="butt" stroke-linejoin="round" stroke-miterlimit="10" stroke-opacity="1" fill="#FFE863" fill-rule="nonzero" fill-opacity="1"/><path d="M1594.34 1757.3 1605.34 1779.3 1583.34 1779.3Z" stroke="#FFE863" stroke-width="3.4375" stroke-linecap="butt" stroke-linejoin="round" stroke-miterlimit="10" stroke-opacity="1" fill="#FFE863" fill-rule="nonzero" fill-opacity="1"/><path d="M1752.34 1770.3 1763.34 1792.3 1741.34 1792.3Z" stroke="#FFE863" stroke-width="3.4375" stroke-linecap="butt" stroke-linejoin="round" stroke-miterlimit="10" stroke-opacity="1" fill="#FFE863" fill-rule="nonzero" fill-opacity="1"/><path d="M1910.34 1779.3 1921.34 1801.3 1899.34 1801.3Z" stroke="#FFE863" stroke-width="3.4375" stroke-linecap="butt" stroke-linejoin="round" stroke-miterlimit="10" stroke-opacity="1" fill="#FFE863" fill-rule="nonzero" fill-opacity="1"/><path d="M2068.34 1787.3 2079.34 1809.3 2057.34 1809.3Z" stroke="#FFE863" stroke-width="3.4375" stroke-linecap="butt" stroke-linejoin="round" stroke-miterlimit="10" stroke-opacity="1" fill="#FFE863" fill-rule="nonzero" fill-opacity="1"/><path d="M2226.34 1791.3 2237.34 1813.3 2215.34 1813.3Z" stroke="#FFE863" stroke-width="3.4375" stroke-linecap="butt" stroke-linejoin="round" stroke-miterlimit="10" stroke-opacity="1" fill="#FFE863" fill-rule="nonzero" fill-opacity="1"/><path d="M2384.34 1793.3 2395.34 1815.3 2373.34 1815.3Z" stroke="#FFE863" stroke-width="3.4375" stroke-linecap="butt" stroke-linejoin="round" stroke-miterlimit="10" stroke-opacity="1" fill="#FFE863" fill-rule="nonzero" fill-opacity="1"/><path d="M2542.34 1794.3 2553.34 1816.3 2531.34 1816.3Z" stroke="#FFE863" stroke-width="3.4375" stroke-linecap="butt" stroke-linejoin="round" stroke-miterlimit="10" stroke-opacity="1" fill="#FFE863" fill-rule="nonzero" fill-opacity="1"/><path d="M2700.34 1797.3 2711.34 1819.3 2689.34 1819.3Z" stroke="#FFE863" stroke-width="3.4375" stroke-linecap="butt" stroke-linejoin="round" stroke-miterlimit="10" stroke-opacity="1" fill="#FFE863" fill-rule="nonzero" fill-opacity="1"/><path d="M2858.34 1798.3 2869.34 1820.3 2847.34 1820.3Z" stroke="#FFE863" stroke-width="3.4375" stroke-linecap="butt" stroke-linejoin="round" stroke-miterlimit="10" stroke-opacity="1" fill="#FFE863" fill-rule="nonzero" fill-opacity="1"/><path d="M3016.34 1798.3 3027.34 1820.3 3005.34 1820.3Z" stroke="#FFE863" stroke-width="3.4375" stroke-linecap="butt" stroke-linejoin="round" stroke-miterlimit="10" stroke-opacity="1" fill="#FFE863" fill-rule="nonzero" fill-opacity="1"/><path d="M3175.34 1799.3 3186.34 1821.3 3164.34 1821.3Z" stroke="#FFE863" stroke-width="3.4375" stroke-linecap="butt" stroke-linejoin="round" stroke-miterlimit="10" stroke-opacity="1" fill="#FFE863" fill-rule="nonzero" fill-opacity="1"/><path d="M3333.34 1799.3 3344.34 1821.3 3322.34 1821.3Z" stroke="#FFE863" stroke-width="3.4375" stroke-linecap="butt" stroke-linejoin="round" stroke-miterlimit="10" stroke-opacity="1" fill="#FFE863" fill-rule="nonzero" fill-opacity="1"/><path d="M3491.34 1801.3 3502.34 1823.3 3480.34 1823.3Z" stroke="#FFE863" stroke-width="3.4375" stroke-linecap="butt" stroke-linejoin="round" stroke-miterlimit="10" stroke-opacity="1" fill="#FFE863" fill-rule="nonzero" fill-opacity="1"/><path d="M3649.34 1802.3 3660.34 1824.3 3638.34 1824.3Z" stroke="#FFE863" stroke-width="3.4375" stroke-linecap="butt" stroke-linejoin="round" stroke-miterlimit="10" stroke-opacity="1" fill="#FFE863" fill-rule="nonzero" fill-opacity="1"/><path d="M3807.34 1802.3 3818.34 1824.3 3796.34 1824.3Z" stroke="#FFE863" stroke-width="3.4375" stroke-linecap="butt" stroke-linejoin="round" stroke-miterlimit="10" stroke-opacity="1" fill="#FFE863" fill-rule="nonzero" fill-opacity="1"/><path d="M3965.34 1805.3 3976.34 1827.3 3954.34 1827.3Z" stroke="#FFE863" stroke-width="3.4375" stroke-linecap="butt" stroke-linejoin="round" stroke-miterlimit="10" stroke-opacity="1" fill="#FFE863" fill-rule="nonzero" fill-opacity="1"/><path d="M4123.34 1807.3 4134.34 1829.3 4112.34 1829.3Z" stroke="#FFE863" stroke-width="3.4375" stroke-linecap="butt" stroke-linejoin="round" stroke-miterlimit="10" stroke-opacity="1" fill="#FFE863" fill-rule="nonzero" fill-opacity="1"/></g><g><path d="M488.5 895.5 646.521 1372.55 804.527 1539.55 962.532 1624.55 1120.54 1675.56 1278.54 1707.56 1436.55 1732.56 1594.55 1750.56 1752.56 1765.56 1910.56 1775.56 2068.57 1784.56 2226.57 1790.56 2384.58 1790.56 2542.58 1793.56 2700.59 1795.56 2858.59 1795.56 3016.6 1796.56 3174.6 1796.56 3332.61 1798.56 3491.61 1799.56 3649.62 1799.56 3807.62 1800.56 3965.63 1802.56 4123.5 1802.5" stroke="#8F6B30" stroke-width="4.58333" stroke-linecap="round" stroke-linejoin="round" stroke-miterlimit="10" stroke-opacity="1" fill="none" fill-rule="nonzero"/></g><g><path d="M488.343 884.3 499.343 895.3 488.343 906.299 477.344 895.3Z" stroke="#8F6B30" stroke-width="3.4375" stroke-linecap="butt" stroke-linejoin="round" stroke-miterlimit="10" stroke-opacity="1" fill="#8F6B30" fill-rule="nonzero" fill-opacity="1"/><path d="M646.343 1361.3 657.343 1372.3 646.343 1383.3 635.344 1372.3Z" stroke="#8F6B30" stroke-width="3.4375" stroke-linecap="butt" stroke-linejoin="round" stroke-miterlimit="10" stroke-opacity="1" fill="#8F6B30" fill-rule="nonzero" fill-opacity="1"/><path d="M804.343 1528.3 815.343 1539.3 804.343 1550.3 793.344 1539.3Z" stroke="#8F6B30" stroke-width="3.4375" stroke-linecap="butt" stroke-linejoin="round" stroke-miterlimit="10" stroke-opacity="1" fill="#8F6B30" fill-rule="nonzero" fill-opacity="1"/><path d="M962.343 1613.3 973.343 1624.3 962.343 1635.3 951.344 1624.3Z" stroke="#8F6B30" stroke-width="3.4375" stroke-linecap="butt" stroke-linejoin="round" stroke-miterlimit="10" stroke-opacity="1" fill="#8F6B30" fill-rule="nonzero" fill-opacity="1"/><path d="M1120.34 1664.3 1131.34 1675.3 1120.34 1686.3 1109.34 1675.3Z" stroke="#8F6B30" stroke-width="3.4375" stroke-linecap="butt" stroke-linejoin="round" stroke-miterlimit="10" stroke-opacity="1" fill="#8F6B30" fill-rule="nonzero" fill-opacity="1"/><path d="M1278.34 1696.3 1289.34 1707.3 1278.34 1718.3 1267.34 1707.3Z" stroke="#8F6B30" stroke-width="3.4375" stroke-linecap="butt" stroke-linejoin="round" stroke-miterlimit="10" stroke-opacity="1" fill="#8F6B30" fill-rule="nonzero" fill-opacity="1"/><path d="M1436.34 1721.3 1447.34 1732.3 1436.34 1743.3 1425.34 1732.3Z" stroke="#8F6B30" stroke-width="3.4375" stroke-linecap="butt" stroke-linejoin="round" stroke-miterlimit="10" stroke-opacity="1" fill="#8F6B30" fill-rule="nonzero" fill-opacity="1"/><path d="M1594.34 1739.3 1605.34 1750.3 1594.34 1761.3 1583.34 1750.3Z" stroke="#8F6B30" stroke-width="3.4375" stroke-linecap="butt" stroke-linejoin="round" stroke-miterlimit="10" stroke-opacity="1" fill="#8F6B30" fill-rule="nonzero" fill-opacity="1"/><path d="M1752.34 1754.3 1763.34 1765.3 1752.34 1776.3 1741.34 1765.3Z" stroke="#8F6B30" stroke-width="3.4375" stroke-linecap="butt" stroke-linejoin="round" stroke-miterlimit="10" stroke-opacity="1" fill="#8F6B30" fill-rule="nonzero" fill-opacity="1"/><path d="M1910.34 1764.3 1921.34 1775.3 1910.34 1786.3 1899.34 1775.3Z" stroke="#8F6B30" stroke-width="3.4375" stroke-linecap="butt" stroke-linejoin="round" stroke-miterlimit="10" stroke-opacity="1" fill="#8F6B30" fill-rule="nonzero" fill-opacity="1"/><path d="M2068.34 1773.3 2079.34 1784.3 2068.34 1795.3 2057.34 1784.3Z" stroke="#8F6B30" stroke-width="3.4375" stroke-linecap="butt" stroke-linejoin="round" stroke-miterlimit="10" stroke-opacity="1" fill="#8F6B30" fill-rule="nonzero" fill-opacity="1"/><path d="M2226.34 1779.3 2237.34 1790.3 2226.34 1801.3 2215.34 1790.3Z" stroke="#8F6B30" stroke-width="3.4375" stroke-linecap="butt" stroke-linejoin="round" stroke-miterlimit="10" stroke-opacity="1" fill="#8F6B30" fill-rule="nonzero" fill-opacity="1"/><path d="M2384.34 1779.3 2395.34 1790.3 2384.34 1801.3 2373.34 1790.3Z" stroke="#8F6B30" stroke-width="3.4375" stroke-linecap="butt" stroke-linejoin="round" stroke-miterlimit="10" stroke-opacity="1" fill="#8F6B30" fill-rule="nonzero" fill-opacity="1"/><path d="M2542.34 1782.3 2553.34 1793.3 2542.34 1804.3 2531.34 1793.3Z" stroke="#8F6B30" stroke-width="3.4375" stroke-linecap="butt" stroke-linejoin="round" stroke-miterlimit="10" stroke-opacity="1" fill="#8F6B30" fill-rule="nonzero" fill-opacity="1"/><path d="M2700.34 1784.3 2711.34 1795.3 2700.34 1806.3 2689.34 1795.3Z" stroke="#8F6B30" stroke-width="3.4375" stroke-linecap="butt" stroke-linejoin="round" stroke-miterlimit="10" stroke-opacity="1" fill="#8F6B30" fill-rule="nonzero" fill-opacity="1"/><path d="M2858.34 1784.3 2869.34 1795.3 2858.34 1806.3 2847.34 1795.3Z" stroke="#8F6B30" stroke-width="3.4375" stroke-linecap="butt" stroke-linejoin="round" stroke-miterlimit="10" stroke-opacity="1" fill="#8F6B30" fill-rule="nonzero" fill-opacity="1"/><path d="M3016.34 1785.3 3027.34 1796.3 3016.34 1807.3 3005.34 1796.3Z" stroke="#8F6B30" stroke-width="3.4375" stroke-linecap="butt" stroke-linejoin="round" stroke-miterlimit="10" stroke-opacity="1" fill="#8F6B30" fill-rule="nonzero" fill-opacity="1"/><path d="M3175.34 1785.3 3186.34 1796.3 3175.34 1807.3 3164.34 1796.3Z" stroke="#8F6B30" stroke-width="3.4375" stroke-linecap="butt" stroke-linejoin="round" stroke-miterlimit="10" stroke-opacity="1" fill="#8F6B30" fill-rule="nonzero" fill-opacity="1"/><path d="M3333.34 1787.3 3344.34 1798.3 3333.34 1809.3 3322.34 1798.3Z" stroke="#8F6B30" stroke-width="3.4375" stroke-linecap="butt" stroke-linejoin="round" stroke-miterlimit="10" stroke-opacity="1" fill="#8F6B30" fill-rule="nonzero" fill-opacity="1"/><path d="M3491.34 1788.3 3502.34 1799.3 3491.34 1810.3 3480.34 1799.3Z" stroke="#8F6B30" stroke-width="3.4375" stroke-linecap="butt" stroke-linejoin="round" stroke-miterlimit="10" stroke-opacity="1" fill="#8F6B30" fill-rule="nonzero" fill-opacity="1"/><path d="M3649.34 1788.3 3660.34 1799.3 3649.34 1810.3 3638.34 1799.3Z" stroke="#8F6B30" stroke-width="3.4375" stroke-linecap="butt" stroke-linejoin="round" stroke-miterlimit="10" stroke-opacity="1" fill="#8F6B30" fill-rule="nonzero" fill-opacity="1"/><path d="M3807.34 1789.3 3818.34 1800.3 3807.34 1811.3 3796.34 1800.3Z" stroke="#8F6B30" stroke-width="3.4375" stroke-linecap="butt" stroke-linejoin="round" stroke-miterlimit="10" stroke-opacity="1" fill="#8F6B30" fill-rule="nonzero" fill-opacity="1"/><path d="M3965.34 1791.3 3976.34 1802.3 3965.34 1813.3 3954.34 1802.3Z" stroke="#8F6B30" stroke-width="3.4375" stroke-linecap="butt" stroke-linejoin="round" stroke-miterlimit="10" stroke-opacity="1" fill="#8F6B30" fill-rule="nonzero" fill-opacity="1"/><path d="M4123.34 1791.3 4134.34 1802.3 4123.34 1813.3 4112.34 1802.3Z" stroke="#8F6B30" stroke-width="3.4375" stroke-linecap="butt" stroke-linejoin="round" stroke-miterlimit="10" stroke-opacity="1" fill="#8F6B30" fill-rule="nonzero" fill-opacity="1"/></g><g><text fill="#6B80CD" fill-opacity="1" font-family="Arial,Arial_MSFontService,sans-serif" font-style="normal" font-variant="normal" font-weight="400" font-stretch="normal" font-size="55" text-anchor="start" direction="ltr" writing-mode="lr-tb" unicode-bidi="normal" text-decoration="none" transform="matrix(1 0 0 1 331.49 1903)">0</text></g><g><text fill="#6B80CD" fill-opacity="1" font-family="Arial,Arial_MSFontService,sans-serif" font-style="normal" font-variant="normal" font-weight="400" font-stretch="normal" font-size="55" text-anchor="start" direction="ltr" writing-mode="lr-tb" unicode-bidi="normal" text-decoration="none" transform="matrix(1 0 0 1 300.988 1776)">10</text></g><g><text fill="#6B80CD" fill-opacity="1" font-family="Arial,Arial_MSFontService,sans-serif" font-style="normal" font-variant="normal" font-weight="400" font-stretch="normal" font-size="55" text-anchor="start" direction="ltr" writing-mode="lr-tb" unicode-bidi="normal" text-decoration="none" transform="matrix(1 0 0 1 300.988 1648)">20</text></g><g><text fill="#6B80CD" fill-opacity="1" font-family="Arial,Arial_MSFontService,sans-serif" font-style="normal" font-variant="normal" font-weight="400" font-stretch="normal" font-size="55" text-anchor="start" direction="ltr" writing-mode="lr-tb" unicode-bidi="normal" text-decoration="none" transform="matrix(1 0 0 1 300.988 1521)">30</text></g><g><text fill="#6B80CD" fill-opacity="1" font-family="Arial,Arial_MSFontService,sans-serif" font-style="normal" font-variant="normal" font-weight="400" font-stretch="normal" font-size="55" text-anchor="start" direction="ltr" writing-mode="lr-tb" unicode-bidi="normal" text-decoration="none" transform="matrix(1 0 0 1 300.988 1394)">40</text></g><g><text fill="#6B80CD" fill-opacity="1" font-family="Arial,Arial_MSFontService,sans-serif" font-style="normal" font-variant="normal" font-weight="400" font-stretch="normal" font-size="55" text-anchor="start" direction="ltr" writing-mode="lr-tb" unicode-bidi="normal" text-decoration="none" transform="matrix(1 0 0 1 300.988 1267)">50</text></g><g><text fill="#6B80CD" fill-opacity="1" font-family="Arial,Arial_MSFontService,sans-serif" font-style="normal" font-variant="normal" font-weight="400" font-stretch="normal" font-size="55" text-anchor="start" direction="ltr" writing-mode="lr-tb" unicode-bidi="normal" text-decoration="none" transform="matrix(1 0 0 1 300.988 1139)">60</text></g><g><text fill="#6B80CD" fill-opacity="1" font-family="Arial,Arial_MSFontService,sans-serif" font-style="normal" font-variant="normal" font-weight="400" font-stretch="normal" font-size="55" text-anchor="start" direction="ltr" writing-mode="lr-tb" unicode-bidi="normal" text-decoration="none" transform="matrix(1 0 0 1 300.988 1012)">70</text></g><g><text fill="#6B80CD" fill-opacity="1" font-family="Arial,Arial_MSFontService,sans-serif" font-style="normal" font-variant="normal" font-weight="400" font-stretch="normal" font-size="55" text-anchor="start" direction="ltr" writing-mode="lr-tb" unicode-bidi="normal" text-decoration="none" transform="matrix(1 0 0 1 300.988 885)">80</text></g><g><text fill="#6B80CD" fill-opacity="1" font-family="Arial,Arial_MSFontService,sans-serif" font-style="normal" font-variant="normal" font-weight="400" font-stretch="normal" font-size="55" text-anchor="start" direction="ltr" writing-mode="lr-tb" unicode-bidi="normal" text-decoration="none" transform="matrix(1 0 0 1 300.988 758)">90</text></g><g><text fill="#6B80CD" fill-opacity="1" font-family="Arial,Arial_MSFontService,sans-serif" font-style="normal" font-variant="normal" font-weight="400" font-stretch="normal" font-size="55" text-anchor="start" direction="ltr" writing-mode="lr-tb" unicode-bidi="normal" text-decoration="none" transform="matrix(1 0 0 1 472.959 1969)">1</text></g><g><text fill="#6B80CD" fill-opacity="1" font-family="Arial,Arial_MSFontService,sans-serif" font-style="normal" font-variant="normal" font-weight="400" font-stretch="normal" font-size="55" text-anchor="start" direction="ltr" writing-mode="lr-tb" unicode-bidi="normal" text-decoration="none" transform="matrix(1 0 0 1 631.007 1969)">2</text></g><g><text fill="#6B80CD" fill-opacity="1" font-family="Arial,Arial_MSFontService,sans-serif" font-style="normal" font-variant="normal" font-weight="400" font-stretch="normal" font-size="55" text-anchor="start" direction="ltr" writing-mode="lr-tb" unicode-bidi="normal" text-decoration="none" transform="matrix(1 0 0 1 789.055 1969)">3</text></g><g><text fill="#6B80CD" fill-opacity="1" font-family="Arial,Arial_MSFontService,sans-serif" font-style="normal" font-variant="normal" font-weight="400" font-stretch="normal" font-size="55" text-anchor="start" direction="ltr" writing-mode="lr-tb" unicode-bidi="normal" text-decoration="none" transform="matrix(1 0 0 1 947.104 1969)">4</text></g><g><text fill="#6B80CD" fill-opacity="1" font-family="Arial,Arial_MSFontService,sans-serif" font-style="normal" font-variant="normal" font-weight="400" font-stretch="normal" font-size="55" text-anchor="start" direction="ltr" writing-mode="lr-tb" unicode-bidi="normal" text-decoration="none" transform="matrix(1 0 0 1 1105.15 1969)">5</text></g><g><text fill="#6B80CD" fill-opacity="1" font-family="Arial,Arial_MSFontService,sans-serif" font-style="normal" font-variant="normal" font-weight="400" font-stretch="normal" font-size="55" text-anchor="start" direction="ltr" writing-mode="lr-tb" unicode-bidi="normal" text-decoration="none" transform="matrix(1 0 0 1 1263.2 1969)">6</text></g><g><text fill="#6B80CD" fill-opacity="1" font-family="Arial,Arial_MSFontService,sans-serif" font-style="normal" font-variant="normal" font-weight="400" font-stretch="normal" font-size="55" text-anchor="start" direction="ltr" writing-mode="lr-tb" unicode-bidi="normal" text-decoration="none" transform="matrix(1 0 0 1 1421.25 1969)">7</text></g><g><text fill="#6B80CD" fill-opacity="1" font-family="Arial,Arial_MSFontService,sans-serif" font-style="normal" font-variant="normal" font-weight="400" font-stretch="normal" font-size="55" text-anchor="start" direction="ltr" writing-mode="lr-tb" unicode-bidi="normal" text-decoration="none" transform="matrix(1 0 0 1 1579.3 1969)">8</text></g><g><text fill="#6B80CD" fill-opacity="1" font-family="Arial,Arial_MSFontService,sans-serif" font-style="normal" font-variant="normal" font-weight="400" font-stretch="normal" font-size="55" text-anchor="start" direction="ltr" writing-mode="lr-tb" unicode-bidi="normal" text-decoration="none" transform="matrix(1 0 0 1 1737.34 1969)">9</text></g><g><text fill="#6B80CD" fill-opacity="1" font-family="Arial,Arial_MSFontService,sans-serif" font-style="normal" font-variant="normal" font-weight="400" font-stretch="normal" font-size="55" text-anchor="start" direction="ltr" writing-mode="lr-tb" unicode-bidi="normal" text-decoration="none" transform="matrix(1 0 0 1 1880.14 1969)">10</text></g><g><text fill="#6B80CD" fill-opacity="1" font-family="Arial,Arial_MSFontService,sans-serif" font-style="normal" font-variant="normal" font-weight="400" font-stretch="normal" font-size="55" text-anchor="start" direction="ltr" writing-mode="lr-tb" unicode-bidi="normal" text-decoration="none" transform="matrix(1 0 0 1 2038.19 1969)">11</text></g><g><text fill="#6B80CD" fill-opacity="1" font-family="Arial,Arial_MSFontService,sans-serif" font-style="normal" font-variant="normal" font-weight="400" font-stretch="normal" font-size="55" text-anchor="start" direction="ltr" writing-mode="lr-tb" unicode-bidi="normal" text-decoration="none" transform="matrix(1 0 0 1 2196.24 1969)">12</text></g><g><text fill="#6B80CD" fill-opacity="1" font-family="Arial,Arial_MSFontService,sans-serif" font-style="normal" font-variant="normal" font-weight="400" font-stretch="normal" font-size="55" text-anchor="start" direction="ltr" writing-mode="lr-tb" unicode-bidi="normal" text-decoration="none" transform="matrix(1 0 0 1 2354.29 1969)">13</text></g><g><text fill="#6B80CD" fill-opacity="1" font-family="Arial,Arial_MSFontService,sans-serif" font-style="normal" font-variant="normal" font-weight="400" font-stretch="normal" font-size="55" text-anchor="start" direction="ltr" writing-mode="lr-tb" unicode-bidi="normal" text-decoration="none" transform="matrix(1 0 0 1 2512.33 1969)">14</text></g><g><text fill="#6B80CD" fill-opacity="1" font-family="Arial,Arial_MSFontService,sans-serif" font-style="normal" font-variant="normal" font-weight="400" font-stretch="normal" font-size="55" text-anchor="start" direction="ltr" writing-mode="lr-tb" unicode-bidi="normal" text-decoration="none" transform="matrix(1 0 0 1 2670.38 1969)">15</text></g><g><text fill="#6B80CD" fill-opacity="1" font-family="Arial,Arial_MSFontService,sans-serif" font-style="normal" font-variant="normal" font-weight="400" font-stretch="normal" font-size="55" text-anchor="start" direction="ltr" writing-mode="lr-tb" unicode-bidi="normal" text-decoration="none" transform="matrix(1 0 0 1 2828.43 1969)">16</text></g><g><text fill="#6B80CD" fill-opacity="1" font-family="Arial,Arial_MSFontService,sans-serif" font-style="normal" font-variant="normal" font-weight="400" font-stretch="normal" font-size="55" text-anchor="start" direction="ltr" writing-mode="lr-tb" unicode-bidi="normal" text-decoration="none" transform="matrix(1 0 0 1 2986.48 1969)">17</text></g><g><text fill="#6B80CD" fill-opacity="1" font-family="Arial,Arial_MSFontService,sans-serif" font-style="normal" font-variant="normal" font-weight="400" font-stretch="normal" font-size="55" text-anchor="start" direction="ltr" writing-mode="lr-tb" unicode-bidi="normal" text-decoration="none" transform="matrix(1 0 0 1 3144.53 1969)">18</text></g><g><text fill="#6B80CD" fill-opacity="1" font-family="Arial,Arial_MSFontService,sans-serif" font-style="normal" font-variant="normal" font-weight="400" font-stretch="normal" font-size="55" text-anchor="start" direction="ltr" writing-mode="lr-tb" unicode-bidi="normal" text-decoration="none" transform="matrix(1 0 0 1 3302.58 1969)">19</text></g><g><text fill="#6B80CD" fill-opacity="1" font-family="Arial,Arial_MSFontService,sans-serif" font-style="normal" font-variant="normal" font-weight="400" font-stretch="normal" font-size="55" text-anchor="start" direction="ltr" writing-mode="lr-tb" unicode-bidi="normal" text-decoration="none" transform="matrix(1 0 0 1 3460.62 1969)">20</text></g><g><text fill="#6B80CD" fill-opacity="1" font-family="Arial,Arial_MSFontService,sans-serif" font-style="normal" font-variant="normal" font-weight="400" font-stretch="normal" font-size="55" text-anchor="start" direction="ltr" writing-mode="lr-tb" unicode-bidi="normal" text-decoration="none" transform="matrix(1 0 0 1 3618.67 1969)">21</text></g><g><text fill="#6B80CD" fill-opacity="1" font-family="Arial,Arial_MSFontService,sans-serif" font-style="normal" font-variant="normal" font-weight="400" font-stretch="normal" font-size="55" text-anchor="start" direction="ltr" writing-mode="lr-tb" unicode-bidi="normal" text-decoration="none" transform="matrix(1 0 0 1 3776.72 1969)">22</text></g><g><text fill="#6B80CD" fill-opacity="1" font-family="Arial,Arial_MSFontService,sans-serif" font-style="normal" font-variant="normal" font-weight="400" font-stretch="normal" font-size="55" text-anchor="start" direction="ltr" writing-mode="lr-tb" unicode-bidi="normal" text-decoration="none" transform="matrix(1 0 0 1 3934.77 1969)">23</text></g><g><text fill="#6B80CD" fill-opacity="1" font-family="Arial,Arial_MSFontService,sans-serif" font-style="normal" font-variant="normal" font-weight="400" font-stretch="normal" font-size="55" text-anchor="start" direction="ltr" writing-mode="lr-tb" unicode-bidi="normal" text-decoration="none" transform="matrix(1 0 0 1 4092.82 1969)">24</text></g><g><text fill="#6B80CD" fill-opacity="1" font-family="Arial,Arial_MSFontService,sans-serif" font-style="normal" font-variant="normal" font-weight="400" font-stretch="normal" font-size="61" text-anchor="start" direction="ltr" writing-mode="lr-tb" unicode-bidi="normal" text-decoration="none" transform="matrix(6.12323e-17 -1 1 6.12323e-17 274.13 1471)">Runtime (s)</text></g><g><text fill="#6B80CD" fill-opacity="1" font-family="Arial,Arial_MSFontService,sans-serif" font-style="normal" font-variant="normal" font-weight="400" font-stretch="normal" font-size="61" text-anchor="start" direction="ltr" writing-mode="lr-tb" unicode-bidi="normal" text-decoration="none" transform="matrix(1 0 0 1 2178.7 2051)"># threads</text></g><g><text fill="#6B80CD" fill-opacity="1" font-family="Arial,Arial_MSFontService,sans-serif" font-style="normal" font-variant="normal" font-weight="400" font-stretch="normal" font-size="85" text-anchor="start" direction="ltr" writing-mode="lr-tb" unicode-bidi="normal" text-decoration="none" transform="matrix(1 0 0 1 1575.45 662)">Conversion of 19,870 DICOM SR</text></g><g><path d="M1410.5 2165.5 1498.5 2165.5" stroke="#344A9A" stroke-width="4.58333" stroke-linecap="round" stroke-linejoin="round" stroke-miterlimit="10" stroke-opacity="1" fill="none" fill-rule="evenodd"/></g><g><path d="M1465 2165C1465 2171.07 1460.07 2176 1454 2176 1447.92 2176 1443 2171.07 1443 2165 1443 2158.92 1447.92 2154 1454 2154 1460.07 2154 1465 2158.92 1465 2165Z" stroke="#344A9A" stroke-width="3.4375" stroke-linecap="butt" stroke-linejoin="round" stroke-miterlimit="10" stroke-opacity="1" fill="#344A9A" fill-rule="nonzero" fill-opacity="1"/></g><g><text fill="#6B80CD" fill-opacity="1" font-family="Arial,Arial_MSFontService,sans-serif" font-style="normal" font-variant="normal" font-weight="400" font-stretch="normal" font-size="55" text-anchor="start" direction="ltr" writing-mode="lr-tb" unicode-bidi="normal" text-decoration="none" transform="matrix(1 0 0 1 1507.7 2182)">No compression</text></g><g><path d="M1990.5 2165.5 2078.5 2165.5" stroke="#FFE863" stroke-width="4.58333" stroke-linecap="round" stroke-linejoin="round" stroke-miterlimit="10" stroke-opacity="1" fill="none" fill-rule="evenodd"/></g><g><path d="M2034.5 2154.5 2045.5 2176.5 2023.5 2176.5Z" stroke="#FFE863" stroke-width="3.4375" stroke-linecap="butt" stroke-linejoin="round" stroke-miterlimit="10" stroke-opacity="1" fill="#FFE863" fill-rule="nonzero" fill-opacity="1"/></g><g><text fill="#6B80CD" fill-opacity="1" font-family="Arial,Arial_MSFontService,sans-serif" font-style="normal" font-variant="normal" font-weight="400" font-stretch="normal" font-size="55" text-anchor="start" direction="ltr" writing-mode="lr-tb" unicode-bidi="normal" text-decoration="none" transform="matrix(1 0 0 1 2087.68 2182)">compression=1</text></g><g><path d="M2547.5 2165.5 2635.5 2165.5" stroke="#8F6B30" stroke-width="4.58333" stroke-linecap="round" stroke-linejoin="round" stroke-miterlimit="10" stroke-opacity="1" fill="none" fill-rule="evenodd"/></g><g><path d="M2591.5 2154.5 2602.5 2165.5 2591.5 2176.5 2580.5 2165.5Z" stroke="#8F6B30" stroke-width="3.4375" stroke-linecap="butt" stroke-linejoin="round" stroke-miterlimit="10" stroke-opacity="1" fill="#8F6B30" fill-rule="nonzero" fill-opacity="1"/></g><g><text fill="#6B80CD" fill-opacity="1" font-family="Arial,Arial_MSFontService,sans-serif" font-style="normal" font-variant="normal" font-weight="400" font-stretch="normal" font-size="55" text-anchor="start" direction="ltr" writing-mode="lr-tb" unicode-bidi="normal" text-decoration="none" transform="matrix(1 0 0 1 2644.85 2182)">compression=2</text></g></g></g></svg>