<?xml version="1.0" encoding="UTF-8" standalone="no"?>
<svg
   width="453"
   height="221.67"
   version="1.1"
   id="svg151"
   sodipodi:docname="1_selection_of_items.svg"
   xmlns:inkscape="http://www.inkscape.org/namespaces/inkscape"
   xmlns:sodipodi="http://sodipodi.sourceforge.net/DTD/sodipodi-0.dtd"
   xmlns:xlink="http://www.w3.org/1999/xlink"
   xmlns="http://www.w3.org/2000/svg"
   xmlns:svg="http://www.w3.org/2000/svg"
   xmlns:lucid="lucid">
  <defs
     id="defs155" />
  <sodipodi:namedview
     id="namedview153"
     pagecolor="#ffffff"
     bordercolor="#000000"
     borderopacity="0.25"
     inkscape:showpageshadow="2"
     inkscape:pageopacity="0.0"
     inkscape:pagecheckerboard="0"
     inkscape:deskcolor="#d1d1d1"
     showgrid="false" />
  <g
     transform="translate(421.5,645.17)"
     lucid:page-tab-id="0_0"
     id="g149">
    <path
       d="m -420,-637.67 a 6,6 0 0 1 6,-6 H 24 a 6,6 0 0 1 6,6 v 108 a 6,6 0 0 1 -6,6 h -438 a 6,6 0 0 1 -6,-6 z"
       stroke="#3a414a"
       stroke-width="3"
       fill="#c3f7c8"
       id="path2" />
    <use
       xlink:href="#a"
       transform="translate(-317.57716,-596.55556)"
       id="use4" />
    <use
       xlink:href="#b"
       transform="translate(-277.4537,-596.55556)"
       id="use6" />
    <use
       xlink:href="#c"
       transform="translate(-194.07716,-596.55556)"
       id="use8" />
    <use
       xlink:href="#d"
       transform="translate(-158.92901,-596.55556)"
       id="use10" />
    <use
       xlink:href="#e"
       transform="translate(-91.682099,-596.55556)"
       id="use12" />
    <use
       xlink:href="#f"
       transform="translate(-226.9784,-561.88889)"
       id="use14" />
    <use
       xlink:href="#g"
       transform="translate(-218.9537,-561.88889)"
       id="use16" />
    <path
       d="m -420,-517.67 a 6,6 0 0 1 6,-6 H 24 a 6,6 0 0 1 6,6 V -431 a 6,6 0 0 1 -6,6 h -438 a 6,6 0 0 1 -6,-6 z"
       stroke="#3a414a"
       stroke-width="3"
       fill="#c3f7c8"
       id="path18" />
    <g
       id="g32">
      <use
         xlink:href="#h"
         transform="translate(-274.59259,-485.64583)"
         id="use20" />
      <use
         xlink:href="#i"
         transform="translate(-244.96296,-485.64583)"
         id="use22" />
      <use
         xlink:href="#j"
         transform="translate(-210.96296,-485.64583)"
         id="use24" />
      <use
         xlink:href="#k"
         transform="translate(-186.2963,-485.64583)"
         id="use26" />
      <use
         xlink:href="#l"
         transform="translate(-146.44444,-485.64583)"
         id="use28" />
      <use
         xlink:href="#m"
         transform="translate(-237.85185,-453.64583)"
         id="use30" />
    </g>
    <defs
       id="defs147">
      <path
         fill="#3a414a"
         d="M 133,-34 C 117,-15 103,5 69,4 32,3 11,-16 11,-54 c -1,-60 55,-63 116,-61 1,-26 -3,-47 -28,-47 -18,1 -26,9 -28,27 l -52,-2 c 7,-38 36,-58 82,-57 46,1 74,22 75,68 l 1,82 c -1,14 12,18 25,15 v 27 c -30,8 -71,5 -69,-32 z m -48,3 c 29,0 43,-24 42,-57 -32,0 -66,-3 -65,30 0,17 8,27 23,27"
         id="n" />
      <path
         fill="#3a414a"
         d="M 25,0 V -261 H 75 V 0 H 25"
         id="o" />
      <g
         id="a">
        <use
           transform="scale(0.08024691)"
           xlink:href="#n"
           id="use36" />
        <use
           transform="matrix(0.08024691,0,0,0.08024691,16.049383,0)"
           xlink:href="#o"
           id="use38" />
        <use
           transform="matrix(0.08024691,0,0,0.08024691,24.074074,0)"
           xlink:href="#o"
           id="use40" />
      </g>
      <path
         d="m 25,-224 v -37 h 50 v 37 z M 25,0 V -190 H 75 V 0 H 25"
         id="p" />
      <path
         d="M 115,-3 C 79,11 28,4 28,-45 V -157 H 4 v -33 h 27 l 15,-45 h 31 v 45 h 36 v 33 H 77 v 99 c -1,23 16,31 38,25 v 30"
         id="q" />
      <path
         d="M 185,-48 C 172,-18 148,5 103,4 43,2 14,-33 14,-96 c 0,-63 30,-98 90,-98 62,0 83,45 84,108 H 66 c 0,31 8,55 39,56 18,0 30,-7 34,-22 z m -45,-69 c 5,-46 -57,-63 -70,-21 -2,6 -4,13 -4,21 h 74"
         id="r" />
      <path
         d="m 220,-157 c -53,9 -28,100 -34,157 h -49 v -107 c 1,-27 -5,-49 -29,-50 C 55,-147 81,-57 75,0 H 25 l -1,-190 h 47 c 2,12 -1,28 3,38 10,-53 101,-56 108,0 13,-22 24,-43 59,-42 82,1 51,116 57,194 h -49 v -107 c -1,-25 -5,-48 -29,-50"
         id="s" />
      <path
         d="m 137,-138 c 1,-29 -70,-34 -71,-4 15,46 118,7 119,86 1,83 -164,76 -172,9 l 43,-7 c 4,19 20,25 44,25 33,8 57,-30 24,-41 -43,-14 -102,-11 -104,-66 -2,-80 154,-74 161,-7"
         id="t" />
      <g
         id="b">
        <use
           transform="scale(0.08024691)"
           xlink:href="#p"
           id="use48" />
        <use
           transform="matrix(0.08024691,0,0,0.08024691,8.0246914,0)"
           xlink:href="#q"
           id="use50" />
        <use
           transform="matrix(0.08024691,0,0,0.08024691,17.574074,0)"
           xlink:href="#r"
           id="use52" />
        <use
           transform="matrix(0.08024691,0,0,0.08024691,33.623457,0)"
           xlink:href="#s"
           id="use54" />
        <use
           transform="matrix(0.08024691,0,0,0.08024691,59.302469,0)"
           xlink:href="#t"
           id="use56" />
      </g>
      <path
         fill="#3a414a"
         d="m 110,-194 c 64,0 96,36 96,99 0,64 -35,99 -97,99 -61,0 -95,-36 -95,-99 0,-62 34,-99 96,-99 z m -1,164 c 35,0 45,-28 45,-65 0,-40 -10,-65 -43,-65 -34,0 -45,26 -45,65 0,36 10,65 43,65"
         id="u" />
      <path
         fill="#3a414a"
         d="m 121,-226 c -27,-7 -43,5 -38,36 h 38 v 33 H 83 V 0 H 34 V -157 H 6 v -33 h 28 c -9,-59 32,-81 87,-68 v 32"
         id="v" />
      <g
         id="c">
        <use
           transform="scale(0.08024691)"
           xlink:href="#u"
           id="use61" />
        <use
           transform="matrix(0.08024691,0,0,0.08024691,17.574074,0)"
           xlink:href="#v"
           id="use63" />
      </g>
      <path
         fill="#3a414a"
         d="M 115,-3 C 79,11 28,4 28,-45 V -157 H 4 v -33 h 27 l 15,-45 h 31 v 45 h 36 v 33 H 77 v 99 c -1,23 16,31 38,25 v 30"
         id="w" />
      <path
         fill="#3a414a"
         d="M 123,10 C 108,53 80,86 19,72 V 37 C 54,45 72,26 78,-2 L 3,-190 h 52 l 48,148 c 12,-52 28,-100 44,-148 h 51"
         id="x" />
      <path
         fill="#3a414a"
         d="m 135,-194 c 53,0 70,44 70,98 0,56 -19,98 -73,100 -31,1 -45,-17 -59,-34 3,33 2,69 2,105 H 25 l -1,-265 h 48 c 2,10 0,23 3,31 11,-24 29,-35 60,-35 z m -21,164 c 33,0 39,-31 40,-66 0,-38 -9,-64 -40,-64 -56,0 -55,130 0,130"
         id="y" />
      <path
         fill="#3a414a"
         d="M 185,-48 C 172,-18 148,5 103,4 43,2 14,-33 14,-96 c 0,-63 30,-98 90,-98 62,0 83,45 84,108 H 66 c 0,31 8,55 39,56 18,0 30,-7 34,-22 z m -45,-69 c 5,-46 -57,-63 -70,-21 -2,6 -4,13 -4,21 h 74"
         id="z" />
      <g
         id="d">
        <use
           transform="scale(0.08024691)"
           xlink:href="#w"
           id="use70" />
        <use
           transform="matrix(0.08024691,0,0,0.08024691,9.5493827,0)"
           xlink:href="#x"
           id="use72" />
        <use
           transform="matrix(0.08024691,0,0,0.08024691,25.598765,0)"
           xlink:href="#y"
           id="use74" />
        <use
           transform="matrix(0.08024691,0,0,0.08024691,43.17284,0)"
           xlink:href="#z"
           id="use76" />
      </g>
      <path
         fill="#3a414a"
         d="M 182,0 120,-99 58,0 H 3 L 89,-130 10,-248 h 55 l 55,88 55,-88 h 55 l -75,118 82,130 h -55"
         id="A" />
      <use
         transform="scale(0.08024691)"
         xlink:href="#A"
         id="e" />
      <path
         fill="#6f7681"
         d="M 87,75 C 49,33 22,-17 22,-94 c 0,-76 28,-126 65,-167 h 31 c -38,41 -64,92 -64,168 0,76 26,127 64,168 H 87"
         id="B" />
      <path
         fill="#6f7681"
         d="M 206,0 H 170 L 130,-164 89,0 H 53 L -1,-190 h 32 l 39,164 43,-164 h 34 l 41,164 42,-164 h 31"
         id="C" />
      <path
         fill="#6f7681"
         d="m 85,-194 c 31,0 48,13 60,33 l -1,-100 h 32 l 1,261 h -30 c -2,-10 0,-23 -3,-31 C 134,-8 116,4 85,4 32,4 16,-35 15,-94 c 0,-66 23,-100 70,-100 z m 9,24 c -40,0 -46,34 -46,75 0,40 6,74 45,74 42,0 51,-32 51,-76 0,-42 -9,-74 -50,-73"
         id="D" />
      <path
         fill="#6f7681"
         d="m 33,-261 c 38,41 65,92 65,168 C 98,-17 71,34 33,75 H 2 C 39,34 66,-17 66,-93 66,-169 39,-220 2,-261 h 31"
         id="E" />
      <g
         id="g">
        <use
           transform="scale(0.08024691)"
           xlink:href="#B"
           id="use85" />
        <use
           transform="matrix(0.08024691,0,0,0.08024691,9.5493827,0)"
           xlink:href="#C"
           id="use87" />
        <use
           transform="matrix(0.08024691,0,0,0.08024691,30.333333,0)"
           xlink:href="#D"
           id="use89" />
        <use
           transform="matrix(0.08024691,0,0,0.08024691,46.382716,0)"
           xlink:href="#E"
           id="use91" />
      </g>
      <path
         d="M 24,0 V -54 H 75 V 0 H 24"
         id="F" />
      <g
         id="h">
        <use
           transform="scale(0.07407407)"
           xlink:href="#F"
           id="use95" />
        <use
           transform="matrix(0.07407407,0,0,0.07407407,7.4074074,0)"
           xlink:href="#F"
           id="use97" />
        <use
           transform="matrix(0.07407407,0,0,0.07407407,14.814815,0)"
           xlink:href="#F"
           id="use99" />
      </g>
      <path
         d="m 110,-194 c 64,0 96,36 96,99 0,64 -35,99 -97,99 -61,0 -95,-36 -95,-99 0,-62 34,-99 96,-99 z m -1,164 c 35,0 45,-28 45,-65 0,-40 -10,-65 -43,-65 -34,0 -45,26 -45,65 0,36 10,65 43,65"
         id="G" />
      <path
         d="m 135,-150 c -39,-12 -60,13 -60,57 V 0 H 25 l -1,-190 h 47 c 2,13 -1,29 3,40 6,-28 27,-53 61,-41 v 41"
         id="H" />
      <g
         id="i">
        <use
           transform="scale(0.07407407)"
           xlink:href="#G"
           id="use104" />
        <use
           transform="matrix(0.07407407,0,0,0.07407407,16.222222,0)"
           xlink:href="#H"
           id="use106" />
      </g>
      <path
         d="M 137,-103 V 0 H 103 V -103 L 8,-248 h 37 l 75,118 75,-118 h 37"
         id="I" />
      <use
         transform="scale(0.07407407)"
         xlink:href="#I"
         id="j" />
      <path
         d="M 87,75 C 49,33 22,-17 22,-94 c 0,-76 28,-126 65,-167 h 31 c -38,41 -64,92 -64,168 0,76 26,127 64,168 H 87"
         id="J" />
      <path
         d="m 100,-194 c 62,-1 85,37 85,99 1,63 -27,99 -86,99 -59,0 -83,-39 -84,-99 0,-66 28,-99 85,-99 z m -1,174 c 44,1 53,-31 53,-75 0,-43 -8,-75 -51,-75 -43,0 -53,32 -53,75 0,43 10,74 51,75"
         id="K" />
      <path
         d="M 114,-163 C 36,-179 61,-72 57,0 H 25 l -1,-190 h 30 c 1,12 -1,29 2,39 6,-27 23,-49 58,-41 v 29"
         id="L" />
      <g
         id="k">
        <use
           transform="scale(0.07407407)"
           xlink:href="#J"
           id="use114" />
        <use
           transform="matrix(0.07407407,0,0,0.07407407,8.8148148,0)"
           xlink:href="#K"
           id="use116" />
        <use
           transform="matrix(0.07407407,0,0,0.07407407,23.62963,0)"
           xlink:href="#L"
           id="use118" />
      </g>
      <path
         d="M 33,0 V -38 H 67 V 0 H 33"
         id="M" />
      <path
         d="m 33,-261 c 38,41 65,92 65,168 C 98,-17 71,34 33,75 H 2 C 39,34 66,-17 66,-93 66,-169 39,-220 2,-261 h 31"
         id="N" />
      <g
         id="l">
        <use
           transform="scale(0.07407407)"
           xlink:href="#M"
           id="use123" />
        <use
           transform="matrix(0.07407407,0,0,0.07407407,7.4074074,0)"
           xlink:href="#M"
           id="use125" />
        <use
           transform="matrix(0.07407407,0,0,0.07407407,14.814815,0)"
           xlink:href="#M"
           id="use127" />
        <use
           transform="matrix(0.07407407,0,0,0.07407407,22.222222,0)"
           xlink:href="#N"
           id="use129" />
      </g>
      <path
         fill="#6f7681"
         d="M 232,-93 C 231,-28 192,4 128,4 67,4 28,-28 28,-90 v -158 h 33 c 8,89 -33,224 67,224 102,0 64,-133 71,-224 h 33 v 155"
         id="O" />
      <path
         fill="#6f7681"
         d="M 190,0 58,-211 59,0 H 30 v -248 h 39 l 133,213 -2,-213 h 31 V 0 h -41"
         id="P" />
      <path
         fill="#6f7681"
         d="M 33,0 V -248 H 67 V 0 H 33"
         id="Q" />
      <path
         fill="#6f7681"
         d="m 140,-251 c 81,0 123,46 123,126 C 263,-46 219,4 140,4 59,4 17,-45 17,-125 c 0,-80 42,-126 123,-126 z m 0,227 c 63,0 89,-41 89,-101 0,-60 -29,-99 -89,-99 -61,0 -89,39 -89,99 0,60 28,100 89,101"
         id="R" />
      <g
         id="m">
        <use
           transform="scale(0.07407407)"
           xlink:href="#O"
           id="use136" />
        <use
           transform="matrix(0.07407407,0,0,0.07407407,19.185185,0)"
           xlink:href="#P"
           id="use138" />
        <use
           transform="matrix(0.07407407,0,0,0.07407407,38.37037,0)"
           xlink:href="#Q"
           id="use140" />
        <use
           transform="matrix(0.07407407,0,0,0.07407407,45.777778,0)"
           xlink:href="#R"
           id="use142" />
        <use
           transform="matrix(0.07407407,0,0,0.07407407,66.518519,0)"
           xlink:href="#P"
           id="use144" />
      </g>
    </defs>
  </g>
</svg>
