<?xml version="1.0" encoding="UTF-8" standalone="no"?>
<svg
   width="1403"
   height="610.14001"
   version="1.1"
   id="svg899"
   sodipodi:docname="2_accessing_simple_property_values.svg"
   inkscape:export-filename="2_accessing_simple_property_values.png"
   inkscape:export-xdpi="96"
   inkscape:export-ydpi="96"
   xmlns:inkscape="http://www.inkscape.org/namespaces/inkscape"
   xmlns:sodipodi="http://sodipodi.sourceforge.net/DTD/sodipodi-0.dtd"
   xmlns:xlink="http://www.w3.org/1999/xlink"
   xmlns="http://www.w3.org/2000/svg"
   xmlns:svg="http://www.w3.org/2000/svg"
   xmlns:lucid="lucid">
  <defs
     id="defs903" />
  <sodipodi:namedview
     id="namedview901"
     pagecolor="#ffffff"
     bordercolor="#000000"
     borderopacity="0.25"
     inkscape:showpageshadow="2"
     inkscape:pageopacity="0.0"
     inkscape:pagecheckerboard="0"
     inkscape:deskcolor="#d1d1d1"
     showgrid="false" />
  <g
     transform="translate(-149.52,522.1)"
     lucid:page-tab-id="0_0"
     id="g897">
    <path
       d="m 151.02,-514.6 a 6,6 0 0 1 6,-6 h 1388 a 6,6 0 0 1 6,6 V 80.54 a 6,6 0 0 1 -6,6 h -1388 a 6,6 0 0 1 -6,-6 z"
       stroke="#000000"
       stroke-width="3"
       fill="#dfe3e8"
       id="path2" />
    <path
       d="m 198.16,-429.44 a 6,6 0 0 1 6,-6 h 796.3 a 6,6 0 0 1 6,6 v 106 a 6,6 0 0 1 -6,6 h -796.3 a 6,6 0 0 1 -6,-6 z"
       stroke="#000000"
       stroke-width="2"
       fill="#c3f7c8"
       id="path4" />
    <use
       xlink:href="#a"
       transform="translate(455.36733,-388.57719)"
       id="use6" />
    <use
       xlink:href="#b"
       transform="translate(487.4661,-388.57719)"
       id="use8" />
    <use
       xlink:href="#c"
       transform="translate(607.43523,-388.57719)"
       id="use10" />
    <use
       xlink:href="#d"
       transform="translate(732.29943,-388.57719)"
       id="use12" />
    <use
       xlink:href="#e"
       transform="translate(500.18523,-353.91052)"
       id="use14" />
    <use
       xlink:href="#f"
       transform="translate(568.95684,-353.91052)"
       id="use16" />
    <use
       xlink:href="#g"
       transform="translate(596.24079,-353.91052)"
       id="use18" />
    <use
       xlink:href="#h"
       transform="translate(661.96301,-353.91052)"
       id="use20" />
    <path
       d="m 199.17,-221.06 a 6,6 0 0 1 6,-6 h 367 a 6,6 0 0 1 6,6 v 60 a 6,6 0 0 1 -6,6 h -367 a 6,6 0 0 1 -6,-6 z"
       stroke="#3a414a"
       stroke-width="2"
       fill="#fff3d9"
       id="path22" />
    <use
       xlink:href="#i"
       transform="translate(250.48182,-184.72837)"
       id="use24" />
    <use
       xlink:href="#j"
       transform="translate(330.33368,-184.72837)"
       id="use26" />
    <use
       xlink:href="#k"
       transform="translate(467.81516,-184.72837)"
       id="use28" />
    <path
       d="m 699.17,-220 a 6,6 0 0 1 6,-6 h 295.3 a 6,6 0 0 1 6,6 v 108 a 6,6 0 0 1 -6,6 h -295.3 a 6,6 0 0 1 -6,-6 z"
       stroke="#3a414a"
       stroke-width="2"
       fill="#fff3d9"
       id="path30" />
    <use
       xlink:href="#l"
       transform="translate(721.61145,-189.65665)"
       id="use32" />
    <use
       xlink:href="#m"
       transform="translate(854.64849,-189.65665)"
       id="use34" />
    <use
       xlink:href="#n"
       transform="translate(766.68553,-157.65665)"
       id="use36" />
    <use
       xlink:href="#o"
       transform="translate(821.3522,-157.65665)"
       id="use38" />
    <use
       xlink:href="#p"
       transform="translate(793.24108,-125.65665)"
       id="use40" />
    <use
       xlink:href="#q"
       transform="translate(831.68553,-125.65665)"
       id="use42" />
    <use
       xlink:href="#r"
       transform="translate(874.64849,-125.65665)"
       id="use44" />
    <path
       d="m 1098.1,-429.44 a 6,6 0 0 1 6,-6 h 388 a 6,6 0 0 1 6,6 v 138 a 6,6 0 0 1 -6,6 h -388 a 6,6 0 0 1 -6,-6 z"
       stroke="#000000"
       stroke-width="2"
       fill="#c3f7c8"
       id="path46" />
    <use
       xlink:href="#s"
       transform="translate(1174.6496,-386.22997)"
       id="use48" />
    <use
       xlink:href="#t"
       transform="translate(1204.2792,-386.22997)"
       id="use50" />
    <use
       xlink:href="#u"
       transform="translate(1300.2052,-386.22997)"
       id="use52" />
    <use
       xlink:href="#v"
       transform="translate(1405.2422,-386.22997)"
       id="use54" />
    <use
       xlink:href="#w"
       transform="translate(1233.057,-354.22997)"
       id="use56" />
    <use
       xlink:href="#x"
       transform="translate(1267.057,-354.22997)"
       id="use58" />
    <use
       xlink:href="#y"
       transform="translate(1292.2422,-354.22997)"
       id="use60" />
    <use
       xlink:href="#z"
       transform="translate(1332.0941,-354.22997)"
       id="use62" />
    <use
       xlink:href="#A"
       transform="translate(1255.2422,-322.22997)"
       id="use64" />
    <path
       d="m 1100.76,-269.26 a 6,6 0 0 1 6,-6 h 388 a 6,6 0 0 1 6,6 v 140 a 6,6 0 0 1 -6,6 h -388 a 6,6 0 0 1 -6,-6 z"
       stroke="#000000"
       stroke-width="2"
       fill="#c3f7c8"
       id="path66" />
    <g
       id="g90">
      <use
         xlink:href="#B"
         transform="translate(1120.3884,-225.92748)"
         id="use68" />
      <use
         xlink:href="#C"
         transform="translate(1150.018,-225.92748)"
         id="use70" />
      <use
         xlink:href="#D"
         transform="translate(1245.944,-225.92748)"
         id="use72" />
      <use
         xlink:href="#E"
         transform="translate(1325.7958,-225.92748)"
         id="use74" />
      <use
         xlink:href="#F"
         transform="translate(1430.8329,-225.92748)"
         id="use76" />
      <use
         xlink:href="#G"
         transform="translate(1454.5366,-225.92748)"
         id="use78" />
      <use
         xlink:href="#H"
         transform="translate(1252.7217,-193.92748)"
         id="use80" />
      <use
         xlink:href="#I"
         transform="translate(1277.9069,-193.92748)"
         id="use82" />
      <use
         xlink:href="#J"
         transform="translate(1317.7588,-193.92748)"
         id="use84" />
      <use
         xlink:href="#K"
         transform="translate(1207.6477,-161.92748)"
         id="use86" />
      <use
         xlink:href="#L"
         transform="translate(1308.1662,-161.92748)"
         id="use88" />
    </g>
    <path
       d="m 1100.77,-107.08 a 6,6 0 0 1 6,-6 h 388 a 6,6 0 0 1 6,6 V 19.5 a 6,6 0 0 1 -6,6 h -388 a 6,6 0 0 1 -6,-6 z"
       stroke="#000000"
       stroke-width="2"
       fill="#c3f7c8"
       id="path92" />
    <g
       id="g120">
      <use
         xlink:href="#M"
         transform="translate(1122.654,-68.96875)"
         id="use94" />
      <use
         xlink:href="#N"
         transform="translate(1152.2836,-68.96875)"
         id="use96" />
      <use
         xlink:href="#O"
         transform="translate(1200.9503,-68.96875)"
         id="use98" />
      <use
         xlink:href="#P"
         transform="translate(1296.8762,-68.96875)"
         id="use100" />
      <use
         xlink:href="#Q"
         transform="translate(1401.9133,-68.96875)"
         id="use102" />
      <use
         xlink:href="#R"
         transform="translate(1425.617,-68.96875)"
         id="use104" />
      <use
         xlink:href="#S"
         transform="translate(1237.9133,-36.96875)"
         id="use106" />
      <use
         xlink:href="#T"
         transform="translate(1263.0984,-36.96875)"
         id="use108" />
      <use
         xlink:href="#U"
         transform="translate(1323.7651,-36.96875)"
         id="use110" />
      <use
         xlink:href="#V"
         transform="translate(1123.0984,-4.9687499)"
         id="use112" />
      <use
         xlink:href="#W"
         transform="translate(1223.617,-4.9687499)"
         id="use114" />
      <use
         xlink:href="#X"
         transform="translate(1320.654,-4.9687499)"
         id="use116" />
      <use
         xlink:href="#Y"
         transform="translate(1383.691,-4.9687499)"
         id="use118" />
    </g>
    <path
       d="m 1178.1,-476.6 a 6,6 0 0 1 6,-6 h 228 a 6,6 0 0 1 6,6 v 30.33 a 6,6 0 0 1 -6,6 h -228 a 6,6 0 0 1 -6,-6 z"
       stroke="#000000"
       stroke-opacity="0"
       fill="#ffffff"
       fill-opacity="0"
       id="path122" />
    <g
       id="g126">
      <use
         xlink:href="#Z"
         transform="translate(1236.7113,-455.98691)"
         id="use124" />
    </g>
    <g
       id="g132">
      <path
         d="m 1045.67,-517.02 a 0.75,0.75 0 0 1 0.75,0.75 V 85.06 a 0.75,0.75 0 0 1 -0.75,0.75 0.75,0.75 0 0 1 -0.75,-0.74 v -601.33 a 0.75,0.75 0 0 1 0.75,-0.75 z"
         fill="none"
         id="path128" />
      <path
         d="m 1045.67,-516.27 c -0.4,0 -0.75,-0.34 -0.75,-0.75 0,-0.42 0.34,-0.75 0.75,-0.75 0.42,0 0.75,0.33 0.75,0.75 0,0.4 -0.33,0.75 -0.75,0.75 z m 0.75,6.76 c -0.4,0 -0.75,-0.34 -0.75,-0.76 0,-0.4 0.34,-0.75 0.75,-0.75 0.42,0 0.75,0.33 0.75,0.74 0,0.42 -0.33,0.75 -0.75,0.75 z m 0,6 c -0.4,0 -0.75,-0.33 -0.75,-0.75 0,-0.4 0.34,-0.75 0.75,-0.75 0.42,0 0.75,0.34 0.75,0.75 0,0.42 -0.33,0.75 -0.75,0.75 z m 0,6.02 c -0.4,0 -0.75,-0.34 -0.75,-0.75 0,-0.42 0.34,-0.75 0.75,-0.75 0.42,0 0.75,0.33 0.75,0.75 0,0.4 -0.33,0.75 -0.75,0.75 z m 0,6 c -0.4,0 -0.75,-0.32 -0.75,-0.74 0,-0.4 0.34,-0.75 0.75,-0.75 0.42,0 0.75,0.34 0.75,0.75 0,0.42 -0.33,0.75 -0.75,0.75 z m 0,6.02 c -0.4,0 -0.75,-0.33 -0.75,-0.75 0,-0.42 0.34,-0.76 0.75,-0.76 0.42,0 0.75,0.34 0.75,0.75 0,0.4 -0.33,0.74 -0.75,0.74 z m 0,6.02 c -0.4,0 -0.75,-0.34 -0.75,-0.75 0,-0.4 0.34,-0.74 0.75,-0.74 0.42,0 0.75,0.33 0.75,0.75 0,0.42 -0.33,0.76 -0.75,0.76 z m 0,6 c -0.4,0 -0.75,-0.32 -0.75,-0.74 0,-0.4 0.34,-0.75 0.75,-0.75 0.42,0 0.75,0.34 0.75,0.75 0,0.42 -0.33,0.75 -0.75,0.75 z m 0,6.02 c -0.4,0 -0.75,-0.33 -0.75,-0.75 0,-0.4 0.34,-0.75 0.75,-0.75 0.42,0 0.75,0.34 0.75,0.75 0,0.42 -0.33,0.75 -0.75,0.75 z m 0,6.02 c -0.4,0 -0.75,-0.34 -0.75,-0.75 0,-0.42 0.34,-0.75 0.75,-0.75 0.42,0 0.75,0.33 0.75,0.75 0,0.4 -0.33,0.75 -0.75,0.75 z m 0,6 c -0.4,0 -0.75,-0.32 -0.75,-0.74 0,-0.4 0.34,-0.75 0.75,-0.75 0.42,0 0.75,0.35 0.75,0.76 0,0.42 -0.33,0.75 -0.75,0.75 z m 0,6.02 c -0.4,0 -0.75,-0.33 -0.75,-0.75 0,-0.4 0.34,-0.75 0.75,-0.75 0.42,0 0.75,0.34 0.75,0.75 0,0.42 -0.33,0.75 -0.75,0.75 z m 0,6.02 c -0.4,0 -0.75,-0.34 -0.75,-0.75 0,-0.43 0.34,-0.76 0.75,-0.76 0.42,0 0.75,0.33 0.75,0.75 0,0.4 -0.33,0.74 -0.75,0.74 z m 0,6 c -0.4,0 -0.75,-0.32 -0.75,-0.74 0,-0.4 0.34,-0.75 0.75,-0.75 0.42,0 0.75,0.34 0.75,0.75 0,0.42 -0.33,0.75 -0.75,0.75 z m 0,6.02 c -0.4,0 -0.75,-0.33 -0.75,-0.75 0,-0.4 0.34,-0.74 0.75,-0.74 0.42,0 0.75,0.34 0.75,0.75 0,0.43 -0.33,0.76 -0.75,0.76 z m 0,6.02 c -0.4,0 -0.75,-0.34 -0.75,-0.75 0,-0.42 0.34,-0.75 0.75,-0.75 0.42,0 0.75,0.33 0.75,0.75 0,0.4 -0.33,0.75 -0.75,0.75 z m 0,6 c -0.4,0 -0.75,-0.32 -0.75,-0.74 0,-0.4 0.34,-0.75 0.75,-0.75 0.42,0 0.75,0.33 0.75,0.74 0,0.42 -0.33,0.75 -0.75,0.75 z m 0,6.02 c -0.4,0 -0.75,-0.33 -0.75,-0.75 0,-0.4 0.34,-0.75 0.75,-0.75 0.42,0 0.75,0.34 0.75,0.75 0,0.42 -0.33,0.75 -0.75,0.75 z m 0,6.02 c -0.4,0 -0.75,-0.34 -0.75,-0.75 0,-0.42 0.34,-0.75 0.75,-0.75 0.42,0 0.75,0.33 0.75,0.75 0,0.4 -0.33,0.75 -0.75,0.75 z m 0,6 c -0.4,0 -0.75,-0.32 -0.75,-0.74 0,-0.4 0.34,-0.75 0.75,-0.75 0.42,0 0.75,0.34 0.75,0.75 0,0.42 -0.33,0.75 -0.75,0.75 z m 0,6.02 c -0.4,0 -0.75,-0.33 -0.75,-0.75 0,-0.42 0.34,-0.76 0.75,-0.76 0.42,0 0.75,0.34 0.75,0.75 0,0.4 -0.33,0.74 -0.75,0.74 z m 0,6.02 c -0.4,0 -0.75,-0.34 -0.75,-0.75 0,-0.4 0.34,-0.74 0.75,-0.74 0.42,0 0.75,0.33 0.75,0.75 0,0.42 -0.33,0.76 -0.75,0.76 z m 0,6 c -0.4,0 -0.75,-0.32 -0.75,-0.74 0,-0.4 0.34,-0.75 0.75,-0.75 0.42,0 0.75,0.34 0.75,0.75 0,0.42 -0.33,0.75 -0.75,0.75 z m 0,6.02 c -0.4,0 -0.75,-0.33 -0.75,-0.75 0,-0.4 0.34,-0.75 0.75,-0.75 0.42,0 0.75,0.34 0.75,0.75 0,0.42 -0.33,0.75 -0.75,0.75 z m 0,6.02 c -0.4,0 -0.75,-0.34 -0.75,-0.75 0,-0.42 0.34,-0.75 0.75,-0.75 0.42,0 0.75,0.33 0.75,0.75 0,0.4 -0.33,0.75 -0.75,0.75 z m 0,6 c -0.4,0 -0.75,-0.32 -0.75,-0.74 0,-0.4 0.34,-0.75 0.75,-0.75 0.42,0 0.75,0.35 0.75,0.76 0,0.42 -0.33,0.75 -0.75,0.75 z m 0,6.02 c -0.4,0 -0.75,-0.33 -0.75,-0.75 0,-0.4 0.34,-0.75 0.75,-0.75 0.42,0 0.75,0.34 0.75,0.75 0,0.42 -0.33,0.75 -0.75,0.75 z m 0,6.02 c -0.4,0 -0.75,-0.34 -0.75,-0.75 0,-0.43 0.34,-0.76 0.75,-0.76 0.42,0 0.75,0.33 0.75,0.75 0,0.4 -0.33,0.74 -0.75,0.74 z m 0,6 c -0.4,0 -0.75,-0.32 -0.75,-0.74 0,-0.4 0.34,-0.75 0.75,-0.75 0.42,0 0.75,0.34 0.75,0.75 0,0.42 -0.33,0.75 -0.75,0.75 z m 0,6.02 c -0.4,0 -0.75,-0.33 -0.75,-0.75 0,-0.4 0.34,-0.74 0.75,-0.74 0.42,0 0.75,0.34 0.75,0.75 0,0.43 -0.33,0.76 -0.75,0.76 z m 0,6.02 c -0.4,0 -0.75,-0.34 -0.75,-0.75 0,-0.42 0.34,-0.75 0.75,-0.75 0.42,0 0.75,0.33 0.75,0.75 0,0.4 -0.33,0.75 -0.75,0.75 z m 0,6 c -0.4,0 -0.75,-0.32 -0.75,-0.74 0,-0.4 0.34,-0.75 0.75,-0.75 0.42,0 0.75,0.33 0.75,0.74 0,0.42 -0.33,0.75 -0.75,0.75 z m 0,6.02 c -0.4,0 -0.75,-0.33 -0.75,-0.75 0,-0.4 0.34,-0.75 0.75,-0.75 0.42,0 0.75,0.34 0.75,0.75 0,0.42 -0.33,0.75 -0.75,0.75 z m 0,6.02 c -0.4,0 -0.75,-0.34 -0.75,-0.75 0,-0.42 0.34,-0.75 0.75,-0.75 0.42,0 0.75,0.33 0.75,0.75 0,0.4 -0.33,0.75 -0.75,0.75 z m 0,6 c -0.4,0 -0.75,-0.32 -0.75,-0.74 0,-0.4 0.34,-0.75 0.75,-0.75 0.42,0 0.75,0.34 0.75,0.75 0,0.42 -0.33,0.75 -0.75,0.75 z m 0,6.02 c -0.4,0 -0.75,-0.33 -0.75,-0.75 0,-0.42 0.34,-0.76 0.75,-0.76 0.42,0 0.75,0.34 0.75,0.75 0,0.4 -0.33,0.74 -0.75,0.74 z m 0,6.02 c -0.4,0 -0.75,-0.34 -0.75,-0.75 0,-0.4 0.34,-0.74 0.75,-0.74 0.42,0 0.75,0.33 0.75,0.75 0,0.42 -0.33,0.76 -0.75,0.76 z m 0,6 c -0.4,0 -0.75,-0.32 -0.75,-0.74 0,-0.4 0.34,-0.75 0.75,-0.75 0.42,0 0.75,0.34 0.75,0.75 0,0.42 -0.33,0.75 -0.75,0.75 z m 0,6.02 c -0.4,0 -0.75,-0.33 -0.75,-0.75 0,-0.4 0.34,-0.75 0.75,-0.75 0.42,0 0.75,0.34 0.75,0.75 0,0.42 -0.33,0.75 -0.75,0.75 z m 0,6.02 c -0.4,0 -0.75,-0.34 -0.75,-0.75 0,-0.42 0.34,-0.75 0.75,-0.75 0.42,0 0.75,0.33 0.75,0.75 0,0.4 -0.33,0.75 -0.75,0.75 z m 0,6 c -0.4,0 -0.75,-0.32 -0.75,-0.74 0,-0.4 0.34,-0.75 0.75,-0.75 0.42,0 0.75,0.35 0.75,0.76 0,0.42 -0.33,0.75 -0.75,0.75 z m 0,6.02 c -0.4,0 -0.75,-0.33 -0.75,-0.75 0,-0.4 0.34,-0.75 0.75,-0.75 0.42,0 0.75,0.34 0.75,0.75 0,0.42 -0.33,0.75 -0.75,0.75 z m 0,6.02 c -0.4,0 -0.75,-0.34 -0.75,-0.75 0,-0.43 0.34,-0.76 0.75,-0.76 0.42,0 0.75,0.33 0.75,0.75 0,0.4 -0.33,0.74 -0.75,0.74 z m 0,6 c -0.4,0 -0.75,-0.32 -0.75,-0.74 0,-0.4 0.34,-0.75 0.75,-0.75 0.42,0 0.75,0.34 0.75,0.75 0,0.42 -0.33,0.75 -0.75,0.75 z m 0,6.02 c -0.4,0 -0.75,-0.33 -0.75,-0.75 0,-0.4 0.34,-0.74 0.75,-0.74 0.42,0 0.75,0.34 0.75,0.75 0,0.43 -0.33,0.76 -0.75,0.76 z m 0,6.02 c -0.4,0 -0.75,-0.34 -0.75,-0.75 0,-0.42 0.34,-0.75 0.75,-0.75 0.42,0 0.75,0.33 0.75,0.75 0,0.4 -0.33,0.75 -0.75,0.75 z m 0,6 c -0.4,0 -0.75,-0.32 -0.75,-0.74 0,-0.4 0.34,-0.75 0.75,-0.75 0.42,0 0.75,0.33 0.75,0.74 0,0.42 -0.33,0.75 -0.75,0.75 z m 0,6.02 c -0.4,0 -0.75,-0.33 -0.75,-0.75 0,-0.4 0.34,-0.75 0.75,-0.75 0.42,0 0.75,0.34 0.75,0.75 0,0.42 -0.33,0.75 -0.75,0.75 z m 0,6.02 c -0.4,0 -0.75,-0.34 -0.75,-0.75 0,-0.42 0.34,-0.75 0.75,-0.75 0.42,0 0.75,0.33 0.75,0.75 0,0.4 -0.33,0.75 -0.75,0.75 z m 0,6 c -0.4,0 -0.75,-0.32 -0.75,-0.74 0,-0.4 0.34,-0.75 0.75,-0.75 0.42,0 0.75,0.34 0.75,0.75 0,0.42 -0.33,0.75 -0.75,0.75 z m 0,6.02 c -0.4,0 -0.75,-0.33 -0.75,-0.75 0,-0.42 0.34,-0.76 0.75,-0.76 0.42,0 0.75,0.34 0.75,0.75 0,0.4 -0.33,0.74 -0.75,0.74 z m 0,6.02 c -0.4,0 -0.75,-0.34 -0.75,-0.75 0,-0.4 0.34,-0.74 0.75,-0.74 0.42,0 0.75,0.33 0.75,0.75 0,0.42 -0.33,0.76 -0.75,0.76 z m 0,6 c -0.4,0 -0.75,-0.32 -0.75,-0.74 0,-0.4 0.34,-0.75 0.75,-0.75 0.42,0 0.75,0.34 0.75,0.75 0,0.42 -0.33,0.75 -0.75,0.75 z m 0,6.02 c -0.4,0 -0.75,-0.33 -0.75,-0.75 0,-0.4 0.34,-0.75 0.75,-0.75 0.42,0 0.75,0.34 0.75,0.75 0,0.42 -0.33,0.75 -0.75,0.75 z m 0,6.02 c -0.4,0 -0.75,-0.34 -0.75,-0.75 0,-0.42 0.34,-0.75 0.75,-0.75 0.42,0 0.75,0.33 0.75,0.75 0,0.4 -0.33,0.75 -0.75,0.75 z m 0,6 c -0.4,0 -0.75,-0.32 -0.75,-0.74 0,-0.4 0.34,-0.75 0.75,-0.75 0.42,0 0.75,0.35 0.75,0.76 0,0.42 -0.33,0.75 -0.75,0.75 z m 0,6.02 c -0.4,0 -0.75,-0.33 -0.75,-0.75 0,-0.4 0.34,-0.75 0.75,-0.75 0.42,0 0.75,0.34 0.75,0.75 0,0.42 -0.33,0.75 -0.75,0.75 z m 0,6.02 c -0.4,0 -0.75,-0.34 -0.75,-0.75 0,-0.43 0.34,-0.76 0.75,-0.76 0.42,0 0.75,0.33 0.75,0.75 0,0.4 -0.33,0.74 -0.75,0.74 z m 0,6 c -0.4,0 -0.75,-0.32 -0.75,-0.74 0,-0.4 0.34,-0.75 0.75,-0.75 0.42,0 0.75,0.34 0.75,0.75 0,0.42 -0.33,0.75 -0.75,0.75 z m 0,6.02 c -0.4,0 -0.75,-0.33 -0.75,-0.75 0,-0.4 0.34,-0.74 0.75,-0.74 0.42,0 0.75,0.34 0.75,0.75 0,0.43 -0.33,0.76 -0.75,0.76 z m 0,6.02 c -0.4,0 -0.75,-0.34 -0.75,-0.75 0,-0.42 0.34,-0.75 0.75,-0.75 0.42,0 0.75,0.33 0.75,0.75 0,0.4 -0.33,0.75 -0.75,0.75 z m 0,6 c -0.4,0 -0.75,-0.32 -0.75,-0.74 0,-0.4 0.34,-0.75 0.75,-0.75 0.42,0 0.75,0.33 0.75,0.74 0,0.42 -0.33,0.75 -0.75,0.75 z m 0,6.02 c -0.4,0 -0.75,-0.33 -0.75,-0.75 0,-0.4 0.34,-0.75 0.75,-0.75 0.42,0 0.75,0.34 0.75,0.75 0,0.42 -0.33,0.75 -0.75,0.75 z m 0,6.02 c -0.4,0 -0.75,-0.34 -0.75,-0.75 0,-0.42 0.34,-0.75 0.75,-0.75 0.42,0 0.75,0.33 0.75,0.75 0,0.4 -0.33,0.75 -0.75,0.75 z m 0,6 c -0.4,0 -0.75,-0.32 -0.75,-0.74 0,-0.4 0.34,-0.75 0.75,-0.75 0.42,0 0.75,0.34 0.75,0.75 0,0.42 -0.33,0.75 -0.75,0.75 z m 0,6.02 c -0.4,0 -0.75,-0.33 -0.75,-0.75 0,-0.42 0.34,-0.76 0.75,-0.76 0.42,0 0.75,0.34 0.75,0.75 0,0.4 -0.33,0.74 -0.75,0.74 z m 0,6.02 c -0.4,0 -0.75,-0.34 -0.75,-0.75 0,-0.4 0.34,-0.74 0.75,-0.74 0.42,0 0.75,0.33 0.75,0.75 0,0.42 -0.33,0.76 -0.75,0.76 z m 0,6 c -0.4,0 -0.75,-0.32 -0.75,-0.74 0,-0.4 0.34,-0.75 0.75,-0.75 0.42,0 0.75,0.34 0.75,0.75 0,0.42 -0.33,0.75 -0.75,0.75 z m 0,6.02 c -0.4,0 -0.75,-0.33 -0.75,-0.75 0,-0.4 0.34,-0.75 0.75,-0.75 0.42,0 0.75,0.34 0.75,0.75 0,0.42 -0.33,0.75 -0.75,0.75 z m 0,6.02 c -0.4,0 -0.75,-0.34 -0.75,-0.75 0,-0.42 0.34,-0.75 0.75,-0.75 0.42,0 0.75,0.33 0.75,0.75 0,0.4 -0.33,0.75 -0.75,0.75 z m 0,6 c -0.4,0 -0.75,-0.32 -0.75,-0.74 0,-0.4 0.34,-0.75 0.75,-0.75 0.42,0 0.75,0.35 0.75,0.76 0,0.42 -0.33,0.75 -0.75,0.75 z m 0,6.02 c -0.4,0 -0.75,-0.33 -0.75,-0.75 0,-0.4 0.34,-0.75 0.75,-0.75 0.42,0 0.75,0.34 0.75,0.75 0,0.42 -0.33,0.75 -0.75,0.75 z m 0,6.02 c -0.4,0 -0.75,-0.34 -0.75,-0.75 0,-0.43 0.34,-0.76 0.75,-0.76 0.42,0 0.75,0.33 0.75,0.75 0,0.4 -0.33,0.74 -0.75,0.74 z m 0,6 c -0.4,0 -0.75,-0.32 -0.75,-0.74 0,-0.4 0.34,-0.75 0.75,-0.75 0.42,0 0.75,0.34 0.75,0.75 0,0.42 -0.33,0.75 -0.75,0.75 z m 0,6.02 c -0.4,0 -0.75,-0.33 -0.75,-0.75 0,-0.4 0.34,-0.74 0.75,-0.74 0.42,0 0.75,0.34 0.75,0.75 0,0.43 -0.33,0.76 -0.75,0.76 z m 0,6.02 c -0.4,0 -0.75,-0.34 -0.75,-0.75 0,-0.42 0.34,-0.75 0.75,-0.75 0.42,0 0.75,0.33 0.75,0.75 0,0.4 -0.33,0.75 -0.75,0.75 z m 0,6 c -0.4,0 -0.75,-0.32 -0.75,-0.74 0,-0.4 0.34,-0.75 0.75,-0.75 0.42,0 0.75,0.33 0.75,0.74 0,0.42 -0.33,0.75 -0.75,0.75 z m 0,6.02 c -0.4,0 -0.75,-0.33 -0.75,-0.75 0,-0.4 0.34,-0.75 0.75,-0.75 0.42,0 0.75,0.34 0.75,0.75 0,0.42 -0.33,0.75 -0.75,0.75 z m 0,6.02 c -0.4,0 -0.75,-0.34 -0.75,-0.75 0,-0.42 0.34,-0.75 0.75,-0.75 0.42,0 0.75,0.33 0.75,0.75 0,0.4 -0.33,0.75 -0.75,0.75 z m 0,6 c -0.4,0 -0.75,-0.32 -0.75,-0.74 0,-0.4 0.34,-0.75 0.75,-0.75 0.42,0 0.75,0.34 0.75,0.75 0,0.42 -0.33,0.75 -0.75,0.75 z m 0,6.02 c -0.4,0 -0.75,-0.33 -0.75,-0.75 0,-0.42 0.34,-0.76 0.75,-0.76 0.42,0 0.75,0.34 0.75,0.75 0,0.4 -0.33,0.74 -0.75,0.74 z m 0,6.02 c -0.4,0 -0.75,-0.34 -0.75,-0.75 0,-0.4 0.34,-0.74 0.75,-0.74 0.42,0 0.75,0.33 0.75,0.75 0,0.42 -0.33,0.76 -0.75,0.76 z m 0,6 c -0.4,0 -0.75,-0.32 -0.75,-0.74 0,-0.4 0.34,-0.75 0.75,-0.75 0.42,0 0.75,0.34 0.75,0.75 0,0.42 -0.33,0.75 -0.75,0.75 z m 0,6.02 c -0.4,0 -0.75,-0.33 -0.75,-0.75 0,-0.4 0.34,-0.75 0.75,-0.75 0.42,0 0.75,0.34 0.75,0.75 0,0.42 -0.33,0.75 -0.75,0.75 z m 0,6.02 c -0.4,0 -0.75,-0.34 -0.75,-0.75 0,-0.42 0.34,-0.75 0.75,-0.75 0.42,0 0.75,0.33 0.75,0.75 0,0.4 -0.33,0.75 -0.75,0.75 z m 0,6 c -0.4,0 -0.75,-0.32 -0.75,-0.74 0,-0.4 0.34,-0.75 0.75,-0.75 0.42,0 0.75,0.35 0.75,0.76 0,0.42 -0.33,0.75 -0.75,0.75 z m 0,6.02 c -0.4,0 -0.75,-0.33 -0.75,-0.75 0,-0.4 0.34,-0.75 0.75,-0.75 0.42,0 0.75,0.34 0.75,0.75 0,0.42 -0.33,0.75 -0.75,0.75 z m 0,6.02 c -0.4,0 -0.75,-0.34 -0.75,-0.75 0,-0.43 0.34,-0.76 0.75,-0.76 0.42,0 0.75,0.33 0.75,0.75 0,0.4 -0.33,0.74 -0.75,0.74 z m 0,6 c -0.4,0 -0.75,-0.32 -0.75,-0.74 0,-0.4 0.34,-0.75 0.75,-0.75 0.42,0 0.75,0.34 0.75,0.75 0,0.42 -0.33,0.75 -0.75,0.75 z m 0,6.02 c -0.4,0 -0.75,-0.33 -0.75,-0.75 0,-0.4 0.34,-0.74 0.75,-0.74 0.42,0 0.75,0.34 0.75,0.75 0,0.43 -0.33,0.76 -0.75,0.76 z m 0,6.02 c -0.4,0 -0.75,-0.34 -0.75,-0.75 0,-0.42 0.34,-0.75 0.75,-0.75 0.42,0 0.75,0.33 0.75,0.75 0,0.4 -0.33,0.75 -0.75,0.75 z m 0,6 c -0.4,0 -0.75,-0.32 -0.75,-0.74 0,-0.4 0.34,-0.75 0.75,-0.75 0.42,0 0.75,0.33 0.75,0.74 0,0.42 -0.33,0.75 -0.75,0.75 z m 0,6.02 c -0.4,0 -0.75,-0.33 -0.75,-0.75 0,-0.4 0.34,-0.75 0.75,-0.75 0.42,0 0.75,0.34 0.75,0.75 0,0.42 -0.33,0.75 -0.75,0.75 z m 0,6.02 c -0.4,0 -0.75,-0.34 -0.75,-0.75 0,-0.42 0.34,-0.75 0.75,-0.75 0.42,0 0.75,0.33 0.75,0.75 0,0.4 -0.33,0.75 -0.75,0.75 z m 0,6 c -0.4,0 -0.75,-0.32 -0.75,-0.74 0,-0.4 0.34,-0.75 0.75,-0.75 0.42,0 0.75,0.34 0.75,0.75 0,0.42 -0.33,0.75 -0.75,0.75 z m 0,6.02 c -0.4,0 -0.75,-0.33 -0.75,-0.75 0,-0.42 0.34,-0.76 0.75,-0.76 0.42,0 0.75,0.34 0.75,0.75 0,0.4 -0.33,0.74 -0.75,0.74 z m 0,6.02 c -0.4,0 -0.75,-0.34 -0.75,-0.75 0,-0.4 0.34,-0.74 0.75,-0.74 0.42,0 0.75,0.33 0.75,0.75 0,0.42 -0.33,0.76 -0.75,0.76 z m 0,6 c -0.4,0 -0.75,-0.32 -0.75,-0.74 0,-0.4 0.34,-0.75 0.75,-0.75 0.42,0 0.75,0.34 0.75,0.75 0,0.42 -0.33,0.75 -0.75,0.75 z m 0,6.02 c -0.4,0 -0.75,-0.33 -0.75,-0.75 0,-0.4 0.34,-0.75 0.75,-0.75 0.42,0 0.75,0.34 0.75,0.75 0,0.42 -0.33,0.75 -0.75,0.75 z m 0,6.02 c -0.4,0 -0.75,-0.34 -0.75,-0.75 0,-0.42 0.34,-0.75 0.75,-0.75 0.42,0 0.75,0.33 0.75,0.75 0,0.4 -0.33,0.75 -0.75,0.75 z m 0,6 c -0.4,0 -0.75,-0.32 -0.75,-0.74 0,-0.4 0.34,-0.75 0.75,-0.75 0.42,0 0.75,0.35 0.75,0.76 0,0.42 -0.33,0.75 -0.75,0.75 z m -1.5,-6 c -0.4,0 -0.75,-0.34 -0.75,-0.75 0,-0.42 0.34,-0.75 0.75,-0.75 0.42,0 0.75,0.33 0.75,0.75 0,0.4 -0.33,0.75 -0.75,0.75 z m 0,-6.02 c -0.4,0 -0.75,-0.33 -0.75,-0.75 0,-0.4 0.34,-0.75 0.75,-0.75 0.42,0 0.75,0.34 0.75,0.75 0,0.42 -0.33,0.75 -0.75,0.75 z m 0,-6 c -0.4,0 -0.75,-0.34 -0.75,-0.76 0,-0.4 0.34,-0.75 0.75,-0.75 0.42,0 0.75,0.34 0.75,0.75 0,0.42 -0.33,0.75 -0.75,0.75 z m 0,-6.02 c -0.4,0 -0.75,-0.34 -0.75,-0.75 0,-0.4 0.34,-0.74 0.75,-0.74 0.42,0 0.75,0.33 0.75,0.75 0,0.42 -0.33,0.76 -0.75,0.76 z m 0,-6.02 c -0.4,0 -0.75,-0.33 -0.75,-0.75 0,-0.42 0.34,-0.76 0.75,-0.76 0.42,0 0.75,0.34 0.75,0.75 0,0.4 -0.33,0.74 -0.75,0.74 z m 0,-6 c -0.4,0 -0.75,-0.34 -0.75,-0.76 0,-0.4 0.34,-0.75 0.75,-0.75 0.42,0 0.75,0.34 0.75,0.75 0,0.42 -0.33,0.75 -0.75,0.75 z m 0,-6.02 c -0.4,0 -0.75,-0.34 -0.75,-0.75 0,-0.42 0.34,-0.75 0.75,-0.75 0.42,0 0.75,0.33 0.75,0.75 0,0.4 -0.33,0.75 -0.75,0.75 z m 0,-6.02 c -0.4,0 -0.75,-0.33 -0.75,-0.75 0,-0.4 0.34,-0.75 0.75,-0.75 0.42,0 0.75,0.34 0.75,0.75 0,0.42 -0.33,0.75 -0.75,0.75 z m 0,-6 c -0.4,0 -0.75,-0.34 -0.75,-0.76 0,-0.4 0.34,-0.75 0.75,-0.75 0.42,0 0.75,0.33 0.75,0.74 0,0.42 -0.33,0.75 -0.75,0.75 z m 0,-6.02 c -0.4,0 -0.75,-0.34 -0.75,-0.75 0,-0.42 0.34,-0.75 0.75,-0.75 0.42,0 0.75,0.33 0.75,0.75 0,0.4 -0.33,0.75 -0.75,0.75 z m 0,-6.02 c -0.4,0 -0.75,-0.33 -0.75,-0.75 0,-0.4 0.34,-0.74 0.75,-0.74 0.42,0 0.75,0.34 0.75,0.75 0,0.43 -0.33,0.76 -0.75,0.76 z m 0,-6 c -0.4,0 -0.75,-0.34 -0.75,-0.76 0,-0.4 0.34,-0.75 0.75,-0.75 0.42,0 0.75,0.34 0.75,0.75 0,0.42 -0.33,0.75 -0.75,0.75 z m 0,-6.02 c -0.4,0 -0.75,-0.34 -0.75,-0.75 0,-0.43 0.34,-0.76 0.75,-0.76 0.42,0 0.75,0.33 0.75,0.75 0,0.4 -0.33,0.74 -0.75,0.74 z m 0,-6.02 c -0.4,0 -0.75,-0.33 -0.75,-0.75 0,-0.4 0.34,-0.75 0.75,-0.75 0.42,0 0.75,0.34 0.75,0.75 0,0.42 -0.33,0.75 -0.75,0.75 z m 0,-6 c -0.4,0 -0.75,-0.34 -0.75,-0.76 0,-0.4 0.34,-0.75 0.75,-0.75 0.42,0 0.75,0.35 0.75,0.76 0,0.42 -0.33,0.75 -0.75,0.75 z m 0,-6.02 c -0.4,0 -0.75,-0.34 -0.75,-0.75 0,-0.42 0.34,-0.75 0.75,-0.75 0.42,0 0.75,0.33 0.75,0.75 0,0.4 -0.33,0.75 -0.75,0.75 z m 0,-6.02 c -0.4,0 -0.75,-0.33 -0.75,-0.75 0,-0.4 0.34,-0.75 0.75,-0.75 0.42,0 0.75,0.34 0.75,0.75 0,0.42 -0.33,0.75 -0.75,0.75 z m 0,-6 c -0.4,0 -0.75,-0.34 -0.75,-0.76 0,-0.4 0.34,-0.75 0.75,-0.75 0.42,0 0.75,0.34 0.75,0.75 0,0.42 -0.33,0.75 -0.75,0.75 z m 0,-6.02 c -0.4,0 -0.75,-0.34 -0.75,-0.75 0,-0.4 0.34,-0.74 0.75,-0.74 0.42,0 0.75,0.33 0.75,0.75 0,0.42 -0.33,0.76 -0.75,0.76 z m 0,-6.02 c -0.4,0 -0.75,-0.33 -0.75,-0.75 0,-0.42 0.34,-0.76 0.75,-0.76 0.42,0 0.75,0.34 0.75,0.75 0,0.4 -0.33,0.74 -0.75,0.74 z m 0,-6 c -0.4,0 -0.75,-0.34 -0.75,-0.76 0,-0.4 0.34,-0.75 0.75,-0.75 0.42,0 0.75,0.34 0.75,0.75 0,0.42 -0.33,0.75 -0.75,0.75 z m 0,-6.02 c -0.4,0 -0.75,-0.34 -0.75,-0.75 0,-0.42 0.34,-0.75 0.75,-0.75 0.42,0 0.75,0.33 0.75,0.75 0,0.4 -0.33,0.75 -0.75,0.75 z m 0,-6.02 c -0.4,0 -0.75,-0.33 -0.75,-0.75 0,-0.4 0.34,-0.75 0.75,-0.75 0.42,0 0.75,0.34 0.75,0.75 0,0.42 -0.33,0.75 -0.75,0.75 z m 0,-6 c -0.4,0 -0.75,-0.34 -0.75,-0.76 0,-0.4 0.34,-0.75 0.75,-0.75 0.42,0 0.75,0.33 0.75,0.74 0,0.42 -0.33,0.75 -0.75,0.75 z m 0,-6.02 c -0.4,0 -0.75,-0.34 -0.75,-0.75 0,-0.42 0.34,-0.75 0.75,-0.75 0.42,0 0.75,0.33 0.75,0.75 0,0.4 -0.33,0.75 -0.75,0.75 z m 0,-6.02 c -0.4,0 -0.75,-0.33 -0.75,-0.75 0,-0.4 0.34,-0.74 0.75,-0.74 0.42,0 0.75,0.34 0.75,0.75 0,0.43 -0.33,0.76 -0.75,0.76 z m 0,-6 c -0.4,0 -0.75,-0.34 -0.75,-0.76 0,-0.4 0.34,-0.75 0.75,-0.75 0.42,0 0.75,0.34 0.75,0.75 0,0.42 -0.33,0.75 -0.75,0.75 z m 0,-6.02 c -0.4,0 -0.75,-0.34 -0.75,-0.75 0,-0.43 0.34,-0.76 0.75,-0.76 0.42,0 0.75,0.33 0.75,0.75 0,0.4 -0.33,0.74 -0.75,0.74 z m 0,-6.02 c -0.4,0 -0.75,-0.33 -0.75,-0.75 0,-0.4 0.34,-0.75 0.75,-0.75 0.42,0 0.75,0.34 0.75,0.75 0,0.42 -0.33,0.75 -0.75,0.75 z m 0,-6 c -0.4,0 -0.75,-0.34 -0.75,-0.76 0,-0.4 0.34,-0.75 0.75,-0.75 0.42,0 0.75,0.35 0.75,0.76 0,0.42 -0.33,0.75 -0.75,0.75 z m 0,-6.02 c -0.4,0 -0.75,-0.34 -0.75,-0.75 0,-0.42 0.34,-0.75 0.75,-0.75 0.42,0 0.75,0.33 0.75,0.75 0,0.4 -0.33,0.75 -0.75,0.75 z m 0,-6.02 c -0.4,0 -0.75,-0.33 -0.75,-0.75 0,-0.4 0.34,-0.75 0.75,-0.75 0.42,0 0.75,0.34 0.75,0.75 0,0.42 -0.33,0.75 -0.75,0.75 z m 0,-6 c -0.4,0 -0.75,-0.34 -0.75,-0.76 0,-0.4 0.34,-0.75 0.75,-0.75 0.42,0 0.75,0.34 0.75,0.75 0,0.42 -0.33,0.75 -0.75,0.75 z m 0,-6.02 c -0.4,0 -0.75,-0.34 -0.75,-0.75 0,-0.4 0.34,-0.74 0.75,-0.74 0.42,0 0.75,0.33 0.75,0.75 0,0.42 -0.33,0.76 -0.75,0.76 z m 0,-6.02 c -0.4,0 -0.75,-0.33 -0.75,-0.75 0,-0.42 0.34,-0.76 0.75,-0.76 0.42,0 0.75,0.34 0.75,0.75 0,0.4 -0.33,0.74 -0.75,0.74 z m 0,-6 c -0.4,0 -0.75,-0.34 -0.75,-0.76 0,-0.4 0.34,-0.75 0.75,-0.75 0.42,0 0.75,0.34 0.75,0.75 0,0.42 -0.33,0.75 -0.75,0.75 z m 0,-6.02 c -0.4,0 -0.75,-0.34 -0.75,-0.75 0,-0.42 0.34,-0.75 0.75,-0.75 0.42,0 0.75,0.33 0.75,0.75 0,0.4 -0.33,0.75 -0.75,0.75 z m 0,-6.02 c -0.4,0 -0.75,-0.33 -0.75,-0.75 0,-0.4 0.34,-0.75 0.75,-0.75 0.42,0 0.75,0.34 0.75,0.75 0,0.42 -0.33,0.75 -0.75,0.75 z m 0,-6 c -0.4,0 -0.75,-0.34 -0.75,-0.76 0,-0.4 0.34,-0.75 0.75,-0.75 0.42,0 0.75,0.33 0.75,0.74 0,0.42 -0.33,0.75 -0.75,0.75 z m 0,-6.02 c -0.4,0 -0.75,-0.34 -0.75,-0.75 0,-0.42 0.34,-0.75 0.75,-0.75 0.42,0 0.75,0.33 0.75,0.75 0,0.4 -0.33,0.75 -0.75,0.75 z m 0,-6.02 c -0.4,0 -0.75,-0.33 -0.75,-0.75 0,-0.4 0.34,-0.74 0.75,-0.74 0.42,0 0.75,0.34 0.75,0.75 0,0.43 -0.33,0.76 -0.75,0.76 z m 0,-6 c -0.4,0 -0.75,-0.34 -0.75,-0.76 0,-0.4 0.34,-0.75 0.75,-0.75 0.42,0 0.75,0.34 0.75,0.75 0,0.42 -0.33,0.75 -0.75,0.75 z m 0,-6.02 c -0.4,0 -0.75,-0.34 -0.75,-0.75 0,-0.43 0.34,-0.76 0.75,-0.76 0.42,0 0.75,0.33 0.75,0.75 0,0.4 -0.33,0.74 -0.75,0.74 z m 0,-6.02 c -0.4,0 -0.75,-0.33 -0.75,-0.75 0,-0.4 0.34,-0.75 0.75,-0.75 0.42,0 0.75,0.34 0.75,0.75 0,0.42 -0.33,0.75 -0.75,0.75 z m 0,-6 c -0.4,0 -0.75,-0.34 -0.75,-0.76 0,-0.4 0.34,-0.75 0.75,-0.75 0.42,0 0.75,0.35 0.75,0.76 0,0.42 -0.33,0.75 -0.75,0.75 z m 0,-6.02 c -0.4,0 -0.75,-0.34 -0.75,-0.75 0,-0.42 0.34,-0.75 0.75,-0.75 0.42,0 0.75,0.33 0.75,0.75 0,0.4 -0.33,0.75 -0.75,0.75 z m 0,-6.02 c -0.4,0 -0.75,-0.33 -0.75,-0.75 0,-0.4 0.34,-0.75 0.75,-0.75 0.42,0 0.75,0.34 0.75,0.75 0,0.42 -0.33,0.75 -0.75,0.75 z m 0,-6 c -0.4,0 -0.75,-0.34 -0.75,-0.76 0,-0.4 0.34,-0.75 0.75,-0.75 0.42,0 0.75,0.34 0.75,0.75 0,0.42 -0.33,0.75 -0.75,0.75 z m 0,-6.02 c -0.4,0 -0.75,-0.34 -0.75,-0.75 0,-0.4 0.34,-0.74 0.75,-0.74 0.42,0 0.75,0.33 0.75,0.75 0,0.42 -0.33,0.76 -0.75,0.76 z m 0,-6.02 c -0.4,0 -0.75,-0.33 -0.75,-0.75 0,-0.42 0.34,-0.76 0.75,-0.76 0.42,0 0.75,0.34 0.75,0.75 0,0.4 -0.33,0.74 -0.75,0.74 z m 0,-6 c -0.4,0 -0.75,-0.34 -0.75,-0.76 0,-0.4 0.34,-0.75 0.75,-0.75 0.42,0 0.75,0.34 0.75,0.75 0,0.42 -0.33,0.75 -0.75,0.75 z m 0,-6.02 c -0.4,0 -0.75,-0.34 -0.75,-0.75 0,-0.42 0.34,-0.75 0.75,-0.75 0.42,0 0.75,0.33 0.75,0.75 0,0.4 -0.33,0.75 -0.75,0.75 z m 0,-6.02 c -0.4,0 -0.75,-0.33 -0.75,-0.75 0,-0.4 0.34,-0.75 0.75,-0.75 0.42,0 0.75,0.34 0.75,0.75 0,0.42 -0.33,0.75 -0.75,0.75 z m 0,-6 c -0.4,0 -0.75,-0.34 -0.75,-0.76 0,-0.4 0.34,-0.75 0.75,-0.75 0.42,0 0.75,0.33 0.75,0.74 0,0.42 -0.33,0.75 -0.75,0.75 z m 0,-6.02 c -0.4,0 -0.75,-0.34 -0.75,-0.75 0,-0.42 0.34,-0.75 0.75,-0.75 0.42,0 0.75,0.33 0.75,0.75 0,0.4 -0.33,0.75 -0.75,0.75 z m 0,-6.02 c -0.4,0 -0.75,-0.33 -0.75,-0.75 0,-0.4 0.34,-0.74 0.75,-0.74 0.42,0 0.75,0.34 0.75,0.75 0,0.43 -0.33,0.76 -0.75,0.76 z m 0,-6 c -0.4,0 -0.75,-0.34 -0.75,-0.76 0,-0.4 0.34,-0.75 0.75,-0.75 0.42,0 0.75,0.34 0.75,0.75 0,0.42 -0.33,0.75 -0.75,0.75 z m 0,-6.02 c -0.4,0 -0.75,-0.34 -0.75,-0.75 0,-0.43 0.34,-0.76 0.75,-0.76 0.42,0 0.75,0.33 0.75,0.75 0,0.4 -0.33,0.74 -0.75,0.74 z m 0,-6.02 c -0.4,0 -0.75,-0.33 -0.75,-0.75 0,-0.4 0.34,-0.75 0.75,-0.75 0.42,0 0.75,0.34 0.75,0.75 0,0.42 -0.33,0.75 -0.75,0.75 z m 0,-6 c -0.4,0 -0.75,-0.34 -0.75,-0.76 0,-0.4 0.34,-0.75 0.75,-0.75 0.42,0 0.75,0.35 0.75,0.76 0,0.42 -0.33,0.75 -0.75,0.75 z m 0,-6.02 c -0.4,0 -0.75,-0.34 -0.75,-0.75 0,-0.42 0.34,-0.75 0.75,-0.75 0.42,0 0.75,0.33 0.75,0.75 0,0.4 -0.33,0.75 -0.75,0.75 z m 0,-6.02 c -0.4,0 -0.75,-0.33 -0.75,-0.75 0,-0.4 0.34,-0.75 0.75,-0.75 0.42,0 0.75,0.34 0.75,0.75 0,0.42 -0.33,0.75 -0.75,0.75 z m 0,-6 c -0.4,0 -0.75,-0.34 -0.75,-0.76 0,-0.4 0.34,-0.75 0.75,-0.75 0.42,0 0.75,0.34 0.75,0.75 0,0.42 -0.33,0.75 -0.75,0.75 z m 0,-6.02 c -0.4,0 -0.75,-0.34 -0.75,-0.75 0,-0.4 0.34,-0.74 0.75,-0.74 0.42,0 0.75,0.33 0.75,0.75 0,0.42 -0.33,0.76 -0.75,0.76 z m 0,-6.02 c -0.4,0 -0.75,-0.33 -0.75,-0.75 0,-0.42 0.34,-0.76 0.75,-0.76 0.42,0 0.75,0.34 0.75,0.75 0,0.4 -0.33,0.74 -0.75,0.74 z m 0,-6 c -0.4,0 -0.75,-0.34 -0.75,-0.76 0,-0.4 0.34,-0.75 0.75,-0.75 0.42,0 0.75,0.34 0.75,0.75 0,0.42 -0.33,0.75 -0.75,0.75 z m 0,-6.02 c -0.4,0 -0.75,-0.34 -0.75,-0.75 0,-0.42 0.34,-0.75 0.75,-0.75 0.42,0 0.75,0.33 0.75,0.75 0,0.4 -0.33,0.75 -0.75,0.75 z m 0,-6.02 c -0.4,0 -0.75,-0.33 -0.75,-0.75 0,-0.4 0.34,-0.75 0.75,-0.75 0.42,0 0.75,0.34 0.75,0.75 0,0.42 -0.33,0.75 -0.75,0.75 z m 0,-6 c -0.4,0 -0.75,-0.34 -0.75,-0.76 0,-0.4 0.34,-0.75 0.75,-0.75 0.42,0 0.75,0.33 0.75,0.74 0,0.42 -0.33,0.75 -0.75,0.75 z m 0,-6.02 c -0.4,0 -0.75,-0.34 -0.75,-0.75 0,-0.42 0.34,-0.75 0.75,-0.75 0.42,0 0.75,0.33 0.75,0.75 0,0.4 -0.33,0.75 -0.75,0.75 z m 0,-6.02 c -0.4,0 -0.75,-0.33 -0.75,-0.75 0,-0.4 0.34,-0.74 0.75,-0.74 0.42,0 0.75,0.34 0.75,0.75 0,0.43 -0.33,0.76 -0.75,0.76 z m 0,-6 c -0.4,0 -0.75,-0.34 -0.75,-0.76 0,-0.4 0.34,-0.75 0.75,-0.75 0.42,0 0.75,0.34 0.75,0.75 0,0.42 -0.33,0.75 -0.75,0.75 z m 0,-6.02 c -0.4,0 -0.75,-0.34 -0.75,-0.75 0,-0.43 0.34,-0.76 0.75,-0.76 0.42,0 0.75,0.33 0.75,0.75 0,0.4 -0.33,0.74 -0.75,0.74 z m 0,-6.02 c -0.4,0 -0.75,-0.33 -0.75,-0.75 0,-0.4 0.34,-0.75 0.75,-0.75 0.42,0 0.75,0.34 0.75,0.75 0,0.42 -0.33,0.75 -0.75,0.75 z m 0,-6 c -0.4,0 -0.75,-0.34 -0.75,-0.76 0,-0.4 0.34,-0.75 0.75,-0.75 0.42,0 0.75,0.35 0.75,0.76 0,0.42 -0.33,0.75 -0.75,0.75 z m 0,-6.02 c -0.4,0 -0.75,-0.34 -0.75,-0.75 0,-0.42 0.34,-0.75 0.75,-0.75 0.42,0 0.75,0.33 0.75,0.75 0,0.4 -0.33,0.75 -0.75,0.75 z m 0,-6.02 c -0.4,0 -0.75,-0.33 -0.75,-0.75 0,-0.4 0.34,-0.75 0.75,-0.75 0.42,0 0.75,0.34 0.75,0.75 0,0.42 -0.33,0.75 -0.75,0.75 z m 0,-6 c -0.4,0 -0.75,-0.34 -0.75,-0.76 0,-0.4 0.34,-0.75 0.75,-0.75 0.42,0 0.75,0.34 0.75,0.75 0,0.42 -0.33,0.75 -0.75,0.75 z m 0,-6.02 c -0.4,0 -0.75,-0.34 -0.75,-0.75 0,-0.4 0.34,-0.74 0.75,-0.74 0.42,0 0.75,0.33 0.75,0.75 0,0.42 -0.33,0.76 -0.75,0.76 z m 0,-6.02 c -0.4,0 -0.75,-0.33 -0.75,-0.75 0,-0.42 0.34,-0.76 0.75,-0.76 0.42,0 0.75,0.34 0.75,0.75 0,0.4 -0.33,0.74 -0.75,0.74 z m 0,-6 c -0.4,0 -0.75,-0.34 -0.75,-0.76 0,-0.4 0.34,-0.75 0.75,-0.75 0.42,0 0.75,0.34 0.75,0.75 0,0.42 -0.33,0.75 -0.75,0.75 z m 0,-6.02 c -0.4,0 -0.75,-0.34 -0.75,-0.75 0,-0.42 0.34,-0.75 0.75,-0.75 0.42,0 0.75,0.33 0.75,0.75 0,0.4 -0.33,0.75 -0.75,0.75 z m 0,-6.02 c -0.4,0 -0.75,-0.33 -0.75,-0.75 0,-0.4 0.34,-0.75 0.75,-0.75 0.42,0 0.75,0.34 0.75,0.75 0,0.42 -0.33,0.75 -0.75,0.75 z m 0,-6 c -0.4,0 -0.75,-0.34 -0.75,-0.76 0,-0.4 0.34,-0.75 0.75,-0.75 0.42,0 0.75,0.33 0.75,0.74 0,0.42 -0.33,0.75 -0.75,0.75 z m 0,-6.02 c -0.4,0 -0.75,-0.34 -0.75,-0.75 0,-0.42 0.34,-0.75 0.75,-0.75 0.42,0 0.75,0.33 0.75,0.75 0,0.4 -0.33,0.75 -0.75,0.75 z m 0,-6.02 c -0.4,0 -0.75,-0.33 -0.75,-0.75 0,-0.4 0.34,-0.74 0.75,-0.74 0.42,0 0.75,0.34 0.75,0.75 0,0.43 -0.33,0.76 -0.75,0.76 z m 0,-6 c -0.4,0 -0.75,-0.34 -0.75,-0.76 0,-0.4 0.34,-0.75 0.75,-0.75 0.42,0 0.75,0.34 0.75,0.75 0,0.42 -0.33,0.75 -0.75,0.75 z m 0,-6.02 c -0.4,0 -0.75,-0.34 -0.75,-0.75 0,-0.43 0.34,-0.76 0.75,-0.76 0.42,0 0.75,0.33 0.75,0.75 0,0.4 -0.33,0.74 -0.75,0.74 z m 0,-6.02 c -0.4,0 -0.75,-0.33 -0.75,-0.75 0,-0.4 0.34,-0.75 0.75,-0.75 0.42,0 0.75,0.34 0.75,0.75 0,0.42 -0.33,0.75 -0.75,0.75 z m 0,-6 c -0.4,0 -0.75,-0.34 -0.75,-0.76 0,-0.4 0.34,-0.75 0.75,-0.75 0.42,0 0.75,0.35 0.75,0.76 0,0.42 -0.33,0.75 -0.75,0.75 z m 0,-6.02 c -0.4,0 -0.75,-0.34 -0.75,-0.75 0,-0.42 0.34,-0.75 0.75,-0.75 0.42,0 0.75,0.33 0.75,0.75 0,0.4 -0.33,0.75 -0.75,0.75 z m 0,-6.02 c -0.4,0 -0.75,-0.33 -0.75,-0.75 0,-0.4 0.34,-0.75 0.75,-0.75 0.42,0 0.75,0.34 0.75,0.75 0,0.42 -0.33,0.75 -0.75,0.75 z m 0,-6 c -0.4,0 -0.75,-0.34 -0.75,-0.76 0,-0.4 0.34,-0.75 0.75,-0.75 0.42,0 0.75,0.34 0.75,0.75 0,0.42 -0.33,0.75 -0.75,0.75 z m 0,-6.02 c -0.4,0 -0.75,-0.34 -0.75,-0.75 0,-0.4 0.34,-0.74 0.75,-0.74 0.42,0 0.75,0.33 0.75,0.75 0,0.42 -0.33,0.76 -0.75,0.76 z m 0,-6.02 c -0.4,0 -0.75,-0.33 -0.75,-0.75 0,-0.42 0.34,-0.76 0.75,-0.76 0.42,0 0.75,0.34 0.75,0.75 0,0.4 -0.33,0.74 -0.75,0.74 z m 0,-6 c -0.4,0 -0.75,-0.34 -0.75,-0.76 0,-0.4 0.34,-0.75 0.75,-0.75 0.42,0 0.75,0.34 0.75,0.75 0,0.42 -0.33,0.75 -0.75,0.75 z m 0,-6.02 c -0.4,0 -0.75,-0.34 -0.75,-0.75 0,-0.42 0.34,-0.75 0.75,-0.75 0.42,0 0.75,0.33 0.75,0.75 0,0.4 -0.33,0.75 -0.75,0.75 z m 0,-6.02 c -0.4,0 -0.75,-0.33 -0.75,-0.75 0,-0.4 0.34,-0.75 0.75,-0.75 0.42,0 0.75,0.34 0.75,0.75 0,0.42 -0.33,0.75 -0.75,0.75 z m 0,-6 c -0.4,0 -0.75,-0.34 -0.75,-0.76 0,-0.4 0.34,-0.75 0.75,-0.75 0.42,0 0.75,0.33 0.75,0.74 0,0.42 -0.33,0.75 -0.75,0.75 z m 0,-6.02 c -0.4,0 -0.75,-0.34 -0.75,-0.75 0,-0.42 0.34,-0.75 0.75,-0.75 0.42,0 0.75,0.33 0.75,0.75 0,0.4 -0.33,0.75 -0.75,0.75 z"
         fill="#3a414a"
         id="path130" />
    </g>
    <path
       d="m 602.27,-315.44 v 0.13 l -0.06,0.55 -0.07,0.55 -0.1,0.56 -0.14,0.55 -0.16,0.56 -0.2,0.56 -0.2,0.56 -0.24,0.58 -0.27,0.58 -0.32,0.6 -0.34,0.62 -0.4,0.64 -0.46,0.65 -0.52,0.7 -0.6,0.7 -0.67,0.76 -0.77,0.8 -0.9,0.85 -1.05,0.9 -1.22,0.97 -1.45,1.05 -1.72,1.15 -2.1,1.26 -2.57,1.42 -3.2,1.6 -4.13,1.82 -5.45,2.15 -7.53,2.6 -11.18,3.36 -19.48,4.96 -98,21.87 -11.15,3.35 -7.54,2.6 -5.45,2.16 -4.1,1.83 -3.23,1.6 -2.57,1.42 -2.1,1.26 -1.73,1.15 -0.6,0.44"
       stroke="#3a414a"
       stroke-width="2"
       stroke-linejoin="round"
       fill="none"
       id="path134" />
    <path
       d="m 603.3,-315.4 -2,-0.03 v -1 h 2 z"
       stroke="#3a414a"
       stroke-width="0.05"
       fill="#3a414a"
       id="path136" />
    <path
       d="m 390.4,-230.78 3.8,-14.5 7.82,5 z"
       stroke="#3a414a"
       stroke-width="2"
       fill="#3a414a"
       id="path138" />
    <path
       d="m 602.36,-315.44 0.05,0.48 0.08,0.5 0.1,0.48 0.1,0.48 0.14,0.5 0.16,0.5 0.2,0.5 0.2,0.5 0.25,0.53 0.28,0.54 0.34,0.55 0.36,0.57 0.4,0.6 0.48,0.6 0.54,0.66 0.6,0.68 0.72,0.72 0.82,0.77 0.96,0.83 1.13,0.9 1.33,0.95 1.6,1.07 1.92,1.17 2.38,1.3 2.98,1.48 3.8,1.7 5,1.96 6.84,2.37 9.85,2.96 15.62,4 32.34,6.75 99.67,19.03 15.6,3.98 9.86,2.96 6.84,2.37 5,1.96 3.8,1.7 2.98,1.47 2.38,1.3 1.93,1.17 0.63,0.42"
       stroke="#3a414a"
       stroke-width="2"
       stroke-linejoin="round"
       fill="none"
       id="path140" />
    <path
       d="m 603.34,-315.43 -2,0.04 -0.03,-1.04 h 2 z"
       stroke="#3a414a"
       stroke-width="0.05"
       fill="#3a414a"
       id="path142" />
    <path
       d="m 850.95,-229.63 -12,-9 7.56,-5.33 z"
       stroke="#3a414a"
       stroke-width="2"
       fill="#3a414a"
       id="path144" />
    <path
       d="m 199.17,-491.44 a 6,6 0 0 1 6,-6 h 795.3 a 6,6 0 0 1 6,6 v 60 a 6,6 0 0 1 -6,6 h -795.3 a 6,6 0 0 1 -6,-6 z"
       stroke="#000000"
       stroke-opacity="0"
       fill="#ffffff"
       fill-opacity="0"
       id="path146" />
    <g
       id="g162">
      <use
         xlink:href="#aa"
         transform="translate(255.51269,-457.13274)"
         id="use148" />
      <use
         xlink:href="#ab"
         transform="translate(407.33985,-457.13274)"
         id="use150" />
      <use
         xlink:href="#ac"
         transform="translate(504.98182,-457.13274)"
         id="use152" />
      <use
         xlink:href="#ad"
         transform="translate(645.53738,-457.13274)"
         id="use154" />
      <use
         xlink:href="#ae"
         transform="translate(749.42627,-457.13274)"
         id="use156" />
      <use
         xlink:href="#af"
         transform="translate(789.6238,-457.13274)"
         id="use158" />
      <use
         xlink:href="#ag"
         transform="translate(830.29664,-457.13274)"
         id="use160" />
    </g>
    <defs
       id="defs895">
      <path
         fill="#3a414a"
         d="M 33,0 V -38 H 67 V 0 H 33"
         id="ah" />
      <g
         id="a">
        <use
           transform="scale(0.08024691)"
           xlink:href="#ah"
           id="use165" />
        <use
           transform="matrix(0.08024691,0,0,0.08024691,8.0246914,0)"
           xlink:href="#ah"
           id="use167" />
        <use
           transform="matrix(0.08024691,0,0,0.08024691,16.049383,0)"
           xlink:href="#ah"
           id="use169" />
      </g>
      <path
         fill="#3a414a"
         d="m 121,-226 c -27,-7 -43,5 -38,36 h 38 v 33 H 83 V 0 H 34 V -157 H 6 v -33 h 28 c -9,-59 32,-81 87,-68 v 32"
         id="ai" />
      <path
         fill="#3a414a"
         d="M 85,4 C -2,5 27,-109 22,-190 h 50 c 7,57 -23,150 33,157 60,-5 35,-97 40,-157 h 50 l 1,190 h -47 c -2,-12 1,-28 -3,-38 -12,25 -28,42 -61,42"
         id="aj" />
      <path
         fill="#3a414a"
         d="M 25,0 V -261 H 75 V 0 H 25"
         id="ak" />
      <path
         fill="#3a414a"
         d="m 25,-224 v -37 h 50 v 37 z M 25,0 V -190 H 75 V 0 H 25"
         id="al" />
      <path
         fill="#3a414a"
         d="m 135,-194 c 87,-1 58,113 63,194 h -50 c -7,-57 23,-157 -34,-157 -59,0 -34,97 -39,157 H 25 l -1,-190 h 47 c 2,12 -1,28 3,38 12,-26 28,-41 61,-42"
         id="am" />
      <path
         fill="#3a414a"
         d="M 195,-6 C 206,82 75,100 31,46 27,40 25,33 23,25 l 49,-6 c 3,16 16,24 34,25 40,0 42,-37 40,-79 C 135,-13 116,0 85,0 32,0 15,-43 15,-97 c 0,-56 18,-96 73,-97 30,0 46,14 59,34 l 2,-30 h 47 z m -90,-29 c 32,0 41,-27 41,-63 0,-35 -9,-62 -40,-62 -32,0 -39,29 -40,63 0,36 9,62 39,62"
         id="an" />
      <g
         id="b">
        <use
           transform="scale(0.08024691)"
           xlink:href="#ai"
           id="use178" />
        <use
           transform="matrix(0.08024691,0,0,0.08024691,9.5493827,0)"
           xlink:href="#aj"
           id="use180" />
        <use
           transform="matrix(0.08024691,0,0,0.08024691,27.123457,0)"
           xlink:href="#ak"
           id="use182" />
        <use
           transform="matrix(0.08024691,0,0,0.08024691,35.148148,0)"
           xlink:href="#ai"
           id="use184" />
        <use
           transform="matrix(0.08024691,0,0,0.08024691,44.697531,0)"
           xlink:href="#al"
           id="use186" />
        <use
           transform="matrix(0.08024691,0,0,0.08024691,52.722222,0)"
           xlink:href="#ak"
           id="use188" />
        <use
           transform="matrix(0.08024691,0,0,0.08024691,60.746914,0)"
           xlink:href="#ak"
           id="use190" />
        <use
           transform="matrix(0.08024691,0,0,0.08024691,68.771605,0)"
           xlink:href="#al"
           id="use192" />
        <use
           transform="matrix(0.08024691,0,0,0.08024691,76.796296,0)"
           xlink:href="#am"
           id="use194" />
        <use
           transform="matrix(0.08024691,0,0,0.08024691,94.37037,0)"
           xlink:href="#an"
           id="use196" />
      </g>
      <path
         fill="#3a414a"
         d="m 135,-194 c 53,0 70,44 70,98 0,56 -19,98 -73,100 -31,1 -45,-17 -59,-34 3,33 2,69 2,105 H 25 l -1,-265 h 48 c 2,10 0,23 3,31 11,-24 29,-35 60,-35 z m -21,164 c 33,0 39,-31 40,-66 0,-38 -9,-64 -40,-64 -56,0 -55,130 0,130"
         id="ao" />
      <path
         fill="#3a414a"
         d="m 135,-150 c -39,-12 -60,13 -60,57 V 0 H 25 l -1,-190 h 47 c 2,13 -1,29 3,40 6,-28 27,-53 61,-41 v 41"
         id="ap" />
      <path
         fill="#3a414a"
         d="m 110,-194 c 64,0 96,36 96,99 0,64 -35,99 -97,99 -61,0 -95,-36 -95,-99 0,-62 34,-99 96,-99 z m -1,164 c 35,0 45,-28 45,-65 0,-40 -10,-65 -43,-65 -34,0 -45,26 -45,65 0,36 10,65 43,65"
         id="aq" />
      <path
         fill="#3a414a"
         d="M 185,-48 C 172,-18 148,5 103,4 43,2 14,-33 14,-96 c 0,-63 30,-98 90,-98 62,0 83,45 84,108 H 66 c 0,31 8,55 39,56 18,0 30,-7 34,-22 z m -45,-69 c 5,-46 -57,-63 -70,-21 -2,6 -4,13 -4,21 h 74"
         id="ar" />
      <path
         fill="#3a414a"
         d="M 115,-3 C 79,11 28,4 28,-45 V -157 H 4 v -33 h 27 l 15,-45 h 31 v 45 h 36 v 33 H 77 v 99 c -1,23 16,31 38,25 v 30"
         id="as" />
      <path
         fill="#3a414a"
         d="M 123,10 C 108,53 80,86 19,72 V 37 C 54,45 72,26 78,-2 L 3,-190 h 52 l 48,148 c 12,-52 28,-100 44,-148 h 51"
         id="at" />
      <g
         id="c">
        <use
           transform="scale(0.08024691)"
           xlink:href="#ao"
           id="use205" />
        <use
           transform="matrix(0.08024691,0,0,0.08024691,17.574074,0)"
           xlink:href="#ap"
           id="use207" />
        <use
           transform="matrix(0.08024691,0,0,0.08024691,28.808642,0)"
           xlink:href="#aq"
           id="use209" />
        <use
           transform="matrix(0.08024691,0,0,0.08024691,46.382716,0)"
           xlink:href="#ao"
           id="use211" />
        <use
           transform="matrix(0.08024691,0,0,0.08024691,63.95679,0)"
           xlink:href="#ar"
           id="use213" />
        <use
           transform="matrix(0.08024691,0,0,0.08024691,80.006173,0)"
           xlink:href="#ap"
           id="use215" />
        <use
           transform="matrix(0.08024691,0,0,0.08024691,91.240741,0)"
           xlink:href="#as"
           id="use217" />
        <use
           transform="matrix(0.08024691,0,0,0.08024691,100.79012,0)"
           xlink:href="#at"
           id="use219" />
      </g>
      <path
         fill="#3a414a"
         d="M 205,0 177,-72 H 64 L 36,0 H 1 l 101,-248 h 38 L 239,0 Z m -38,-99 -47,-123 c -12,45 -31,82 -46,123 h 93"
         id="au" />
      <use
         transform="scale(0.08024691)"
         xlink:href="#au"
         id="d" />
      <path
         fill="#3a414a"
         d="M 87,75 C 49,33 22,-17 22,-94 c 0,-76 28,-126 65,-167 h 31 c -38,41 -64,92 -64,168 0,76 26,127 64,168 H 87"
         id="av" />
      <path
         fill="#3a414a"
         d="M 133,-34 C 117,-15 103,5 69,4 32,3 11,-16 11,-54 c -1,-60 55,-63 116,-61 1,-26 -3,-47 -28,-47 -18,1 -26,9 -28,27 l -52,-2 c 7,-38 36,-58 82,-57 46,1 74,22 75,68 l 1,82 c -1,14 12,18 25,15 v 27 c -30,8 -71,5 -69,-32 z m -48,3 c 29,0 43,-24 42,-57 -32,0 -66,-3 -65,30 0,17 8,27 23,27"
         id="aw" />
      <path
         fill="#3a414a"
         d="m 88,-194 c 31,-1 46,15 58,34 l -1,-101 h 50 l 1,261 h -48 c -2,-10 0,-23 -3,-31 C 134,-8 116,4 84,4 32,4 16,-41 15,-95 c 0,-56 19,-97 73,-99 z m 17,164 c 33,0 40,-30 41,-66 1,-37 -9,-64 -41,-64 -32,0 -38,30 -39,65 0,43 13,65 39,65"
         id="ax" />
      <g
         id="e">
        <use
           transform="scale(0.08024691)"
           xlink:href="#av"
           id="use227" />
        <use
           transform="matrix(0.08024691,0,0,0.08024691,9.5493827,0)"
           xlink:href="#aw"
           id="use229" />
        <use
           transform="matrix(0.08024691,0,0,0.08024691,25.598765,0)"
           xlink:href="#am"
           id="use231" />
        <use
           transform="matrix(0.08024691,0,0,0.08024691,43.17284,0)"
           xlink:href="#ax"
           id="use233" />
      </g>
      <path
         fill="#3a414a"
         d="m 160,-131 c 35,5 61,23 61,61 0,87 -106,68 -191,70 v -248 c 76,3 177,-17 177,60 0,33 -19,50 -47,57 z m -97,-11 c 50,-1 110,9 110,-42 0,-47 -63,-36 -110,-37 z m 0,115 c 55,-2 124,14 124,-45 0,-56 -70,-42 -124,-44 v 89"
         id="ay" />
      <use
         transform="scale(0.08024691)"
         xlink:href="#ay"
         id="f" />
      <path
         fill="#3a414a"
         d="M 141,-36 C 126,-15 110,5 73,4 37,3 15,-17 15,-53 c -1,-64 63,-63 125,-63 3,-35 -9,-54 -41,-54 -24,1 -41,7 -42,31 l -33,-3 c 5,-37 33,-52 76,-52 45,0 72,20 72,64 v 82 c -1,20 7,32 28,27 V -1 C 169,8 139,-3 141,-36 Z M 48,-53 c 0,20 12,33 32,33 41,-3 63,-29 60,-74 -43,2 -92,-5 -92,41"
         id="az" />
      <path
         fill="#3a414a"
         d="m 117,-194 c 89,-4 53,116 60,194 h -32 v -121 c 0,-31 -8,-49 -39,-48 C 34,-167 62,-67 57,0 H 25 l -1,-190 h 30 c 1,10 -1,24 2,32 11,-22 29,-35 61,-36"
         id="aA" />
      <path
         fill="#3a414a"
         d="m 85,-194 c 31,0 48,13 60,33 l -1,-100 h 32 l 1,261 h -30 c -2,-10 0,-23 -3,-31 C 134,-8 116,4 85,4 32,4 16,-35 15,-94 c 0,-66 23,-100 70,-100 z m 9,24 c -40,0 -46,34 -46,75 0,40 6,74 45,74 42,0 51,-32 51,-76 0,-42 -9,-74 -50,-73"
         id="aB" />
      <g
         id="g">
        <use
           transform="scale(0.08024691)"
           xlink:href="#av"
           id="use241" />
        <use
           transform="matrix(0.08024691,0,0,0.08024691,9.5493827,0)"
           xlink:href="#az"
           id="use243" />
        <use
           transform="matrix(0.08024691,0,0,0.08024691,25.598765,0)"
           xlink:href="#aA"
           id="use245" />
        <use
           transform="matrix(0.08024691,0,0,0.08024691,41.648148,0)"
           xlink:href="#aB"
           id="use247" />
      </g>
      <path
         fill="#3a414a"
         d="m 33,-261 c 38,41 65,92 65,168 C 98,-17 71,34 33,75 H 2 C 39,34 66,-17 66,-93 66,-169 39,-220 2,-261 h 31"
         id="aC" />
      <g
         id="h">
        <use
           transform="scale(0.08024691)"
           xlink:href="#ah"
           id="use251" />
        <use
           transform="matrix(0.08024691,0,0,0.08024691,8.0246914,0)"
           xlink:href="#ah"
           id="use253" />
        <use
           transform="matrix(0.08024691,0,0,0.08024691,16.049383,0)"
           xlink:href="#ah"
           id="use255" />
        <use
           transform="matrix(0.08024691,0,0,0.08024691,24.074074,0)"
           xlink:href="#aC"
           id="use257" />
        <use
           transform="matrix(0.08024691,0,0,0.08024691,33.623457,0)"
           xlink:href="#aC"
           id="use259" />
      </g>
      <path
         fill="#3a414a"
         d="M 190,-63 C 183,-21 152,4 104,4 45,4 20,-34 14,-94 2,-204 168,-231 188,-130 l -49,2 c -2,-19 -15,-32 -35,-32 -30,0 -35,28 -38,64 -6,74 65,87 74,30"
         id="aD" />
      <g
         id="i">
        <use
           transform="scale(0.07407407)"
           xlink:href="#ax"
           id="use263" />
        <use
           transform="matrix(0.07407407,0,0,0.07407407,16.222222,0)"
           xlink:href="#al"
           id="use265" />
        <use
           transform="matrix(0.07407407,0,0,0.07407407,23.62963,0)"
           xlink:href="#ap"
           id="use267" />
        <use
           transform="matrix(0.07407407,0,0,0.07407407,34,0)"
           xlink:href="#ar"
           id="use269" />
        <use
           transform="matrix(0.07407407,0,0,0.07407407,48.814815,0)"
           xlink:href="#aD"
           id="use271" />
        <use
           transform="matrix(0.07407407,0,0,0.07407407,63.62963,0)"
           xlink:href="#as"
           id="use273" />
      </g>
      <path
         fill="#3a414a"
         d="m 137,-138 c 1,-29 -70,-34 -71,-4 15,46 118,7 119,86 1,83 -164,76 -172,9 l 43,-7 c 4,19 20,25 44,25 33,8 57,-30 24,-41 -43,-14 -102,-11 -104,-66 -2,-80 154,-74 161,-7"
         id="aE" />
      <g
         id="j">
        <use
           transform="scale(0.07407407)"
           xlink:href="#ao"
           id="use277" />
        <use
           transform="matrix(0.07407407,0,0,0.07407407,16.222222,0)"
           xlink:href="#ap"
           id="use279" />
        <use
           transform="matrix(0.07407407,0,0,0.07407407,26.592593,0)"
           xlink:href="#aq"
           id="use281" />
        <use
           transform="matrix(0.07407407,0,0,0.07407407,42.814815,0)"
           xlink:href="#ao"
           id="use283" />
        <use
           transform="matrix(0.07407407,0,0,0.07407407,59.037037,0)"
           xlink:href="#ar"
           id="use285" />
        <use
           transform="matrix(0.07407407,0,0,0.07407407,73.851852,0)"
           xlink:href="#ap"
           id="use287" />
        <use
           transform="matrix(0.07407407,0,0,0.07407407,84.222222,0)"
           xlink:href="#as"
           id="use289" />
        <use
           transform="matrix(0.07407407,0,0,0.07407407,93.037037,0)"
           xlink:href="#al"
           id="use291" />
        <use
           transform="matrix(0.07407407,0,0,0.07407407,100.44444,0)"
           xlink:href="#ar"
           id="use293" />
        <use
           transform="matrix(0.07407407,0,0,0.07407407,115.25926,0)"
           xlink:href="#aE"
           id="use295" />
      </g>
      <path
         fill="#6f7681"
         d="M 87,75 C 49,33 22,-17 22,-94 c 0,-76 28,-126 65,-167 h 31 c -38,41 -64,92 -64,168 0,76 26,127 64,168 H 87"
         id="aF" />
      <path
         fill="#6f7681"
         d="M 206,0 H 170 L 130,-164 89,0 H 53 L -1,-190 h 32 l 39,164 43,-164 h 34 l 41,164 42,-164 h 31"
         id="aG" />
      <path
         fill="#6f7681"
         d="m 85,-194 c 31,0 48,13 60,33 l -1,-100 h 32 l 1,261 h -30 c -2,-10 0,-23 -3,-31 C 134,-8 116,4 85,4 32,4 16,-35 15,-94 c 0,-66 23,-100 70,-100 z m 9,24 c -40,0 -46,34 -46,75 0,40 6,74 45,74 42,0 51,-32 51,-76 0,-42 -9,-74 -50,-73"
         id="aH" />
      <path
         fill="#6f7681"
         d="m 59,-47 c -2,24 18,29 38,22 V -1 C 64,9 27,4 27,-40 V -167 H 5 v -23 h 24 l 9,-43 h 21 v 43 h 35 v 23 H 59 v 120"
         id="aI" />
      <path
         fill="#6f7681"
         d="m 33,-261 c 38,41 65,92 65,168 C 98,-17 71,34 33,75 H 2 C 39,34 66,-17 66,-93 66,-169 39,-220 2,-261 h 31"
         id="aJ" />
      <g
         id="k">
        <use
           transform="scale(0.07407407)"
           xlink:href="#aF"
           id="use303" />
        <use
           transform="matrix(0.07407407,0,0,0.07407407,8.8148148,0)"
           xlink:href="#aG"
           id="use305" />
        <use
           transform="matrix(0.07407407,0,0,0.07407407,28,0)"
           xlink:href="#aH"
           id="use307" />
        <use
           transform="matrix(0.07407407,0,0,0.07407407,42.814815,0)"
           xlink:href="#aI"
           id="use309" />
        <use
           transform="matrix(0.07407407,0,0,0.07407407,50.222222,0)"
           xlink:href="#aJ"
           id="use311" />
      </g>
      <path
         fill="#3a414a"
         d="m 220,-157 c -53,9 -28,100 -34,157 h -49 v -107 c 1,-27 -5,-49 -29,-50 C 55,-147 81,-57 75,0 H 25 l -1,-190 h 47 c 2,12 -1,28 3,38 10,-53 101,-56 108,0 13,-22 24,-43 59,-42 82,1 51,116 57,194 h -49 v -107 c -1,-25 -5,-48 -29,-50"
         id="aK" />
      <g
         id="l">
        <use
           transform="scale(0.07407407)"
           xlink:href="#aE"
           id="use315" />
        <use
           transform="matrix(0.07407407,0,0,0.07407407,14.814815,0)"
           xlink:href="#as"
           id="use317" />
        <use
           transform="matrix(0.07407407,0,0,0.07407407,23.62963,0)"
           xlink:href="#aw"
           id="use319" />
        <use
           transform="matrix(0.07407407,0,0,0.07407407,38.444444,0)"
           xlink:href="#as"
           id="use321" />
        <use
           transform="matrix(0.07407407,0,0,0.07407407,47.259259,0)"
           xlink:href="#ar"
           id="use323" />
        <use
           transform="matrix(0.07407407,0,0,0.07407407,62.074074,0)"
           xlink:href="#aK"
           id="use325" />
        <use
           transform="matrix(0.07407407,0,0,0.07407407,85.777778,0)"
           xlink:href="#ar"
           id="use327" />
        <use
           transform="matrix(0.07407407,0,0,0.07407407,100.59259,0)"
           xlink:href="#am"
           id="use329" />
        <use
           transform="matrix(0.07407407,0,0,0.07407407,116.81481,0)"
           xlink:href="#as"
           id="use331" />
      </g>
      <g
         id="m">
        <use
           transform="scale(0.07407407)"
           xlink:href="#ao"
           id="use334" />
        <use
           transform="matrix(0.07407407,0,0,0.07407407,16.222222,0)"
           xlink:href="#ap"
           id="use336" />
        <use
           transform="matrix(0.07407407,0,0,0.07407407,26.592593,0)"
           xlink:href="#aq"
           id="use338" />
        <use
           transform="matrix(0.07407407,0,0,0.07407407,42.814815,0)"
           xlink:href="#ao"
           id="use340" />
        <use
           transform="matrix(0.07407407,0,0,0.07407407,59.037037,0)"
           xlink:href="#ar"
           id="use342" />
        <use
           transform="matrix(0.07407407,0,0,0.07407407,73.851852,0)"
           xlink:href="#ap"
           id="use344" />
        <use
           transform="matrix(0.07407407,0,0,0.07407407,84.222222,0)"
           xlink:href="#as"
           id="use346" />
        <use
           transform="matrix(0.07407407,0,0,0.07407407,93.037037,0)"
           xlink:href="#al"
           id="use348" />
        <use
           transform="matrix(0.07407407,0,0,0.07407407,100.44444,0)"
           xlink:href="#ar"
           id="use350" />
        <use
           transform="matrix(0.07407407,0,0,0.07407407,115.25926,0)"
           xlink:href="#aE"
           id="use352" />
      </g>
      <g
         id="n">
        <use
           transform="scale(0.07407407)"
           xlink:href="#aw"
           id="use355" />
        <use
           transform="matrix(0.07407407,0,0,0.07407407,14.814815,0)"
           xlink:href="#am"
           id="use357" />
        <use
           transform="matrix(0.07407407,0,0,0.07407407,31.037037,0)"
           xlink:href="#ax"
           id="use359" />
      </g>
      <path
         fill="#3a414a"
         d="M 84,4 C 32,4 15,-41 15,-95 c 0,-55 18,-99 73,-99 29,0 47,12 58,34 l 2,-30 h 48 L 195,75 H 146 V -32 C 136,-9 114,4 84,4 Z m 21,-34 c 32,0 41,-29 41,-66 0,-36 -9,-64 -40,-64 -33,0 -39,30 -40,65 0,43 13,65 39,65"
         id="aL" />
      <g
         id="o">
        <use
           transform="scale(0.07407407)"
           xlink:href="#aL"
           id="use363" />
        <use
           transform="matrix(0.07407407,0,0,0.07407407,16.222222,0)"
           xlink:href="#aj"
           id="use365" />
        <use
           transform="matrix(0.07407407,0,0,0.07407407,32.444444,0)"
           xlink:href="#aw"
           id="use367" />
        <use
           transform="matrix(0.07407407,0,0,0.07407407,47.259259,0)"
           xlink:href="#ak"
           id="use369" />
        <use
           transform="matrix(0.07407407,0,0,0.07407407,54.666667,0)"
           xlink:href="#al"
           id="use371" />
        <use
           transform="matrix(0.07407407,0,0,0.07407407,62.074074,0)"
           xlink:href="#ai"
           id="use373" />
        <use
           transform="matrix(0.07407407,0,0,0.07407407,70.888889,0)"
           xlink:href="#al"
           id="use375" />
        <use
           transform="matrix(0.07407407,0,0,0.07407407,78.296296,0)"
           xlink:href="#ar"
           id="use377" />
        <use
           transform="matrix(0.07407407,0,0,0.07407407,93.111111,0)"
           xlink:href="#ap"
           id="use379" />
        <use
           transform="matrix(0.07407407,0,0,0.07407407,103.48148,0)"
           xlink:href="#aE"
           id="use381" />
      </g>
      <path
         fill="#6f7681"
         d="m 115,-194 c 55,1 70,41 70,98 C 185,-39 169,2 115,4 84,4 66,-9 55,-30 L 56,75 H 24 l -1,-265 h 31 l 2,30 c 10,-21 28,-34 59,-34 z m -8,174 c 40,0 45,-34 45,-75 0,-41 -6,-73 -45,-74 -42,0 -51,32 -51,76 0,43 10,73 51,73"
         id="aM" />
      <path
         fill="#6f7681"
         d="m 68,-38 c 1,34 0,65 -14,84 H 32 C 41,33 49,20 49,0 H 33 v -38 h 35"
         id="aN" />
      <g
         id="p">
        <use
           transform="scale(0.07407407)"
           xlink:href="#aF"
           id="use386" />
        <use
           transform="matrix(0.07407407,0,0,0.07407407,8.8148148,0)"
           xlink:href="#aM"
           id="use388" />
        <use
           transform="matrix(0.07407407,0,0,0.07407407,23.62963,0)"
           xlink:href="#aN"
           id="use390" />
      </g>
      <path
         fill="#6f7681"
         d="m 135,-143 c -3,-34 -86,-38 -87,0 15,53 115,12 119,90 4,78 -150,74 -157,8 l 28,-5 c 4,36 97,45 98,0 -10,-56 -113,-15 -118,-90 -4,-57 82,-63 122,-42 12,7 21,19 24,35"
         id="aO" />
      <g
         id="q">
        <use
           transform="scale(0.07407407)"
           xlink:href="#aM"
           id="use394" />
        <use
           transform="matrix(0.07407407,0,0,0.07407407,14.814815,0)"
           xlink:href="#aO"
           id="use396" />
        <use
           transform="matrix(0.07407407,0,0,0.07407407,28.148148,0)"
           xlink:href="#aN"
           id="use398" />
      </g>
      <path
         fill="#6f7681"
         d="M 145,-31 C 134,-9 116,4 85,4 32,4 16,-35 15,-94 c 0,-59 17,-99 70,-100 32,-1 48,14 60,33 0,-11 -1,-24 2,-32 h 30 l -1,268 h -32 z m -52,10 c 41,0 51,-33 51,-76 0,-43 -8,-73 -50,-73 -40,0 -46,35 -46,75 0,40 5,74 45,74"
         id="aP" />
      <g
         id="r">
        <use
           transform="scale(0.07407407)"
           xlink:href="#aM"
           id="use402" />
        <use
           transform="matrix(0.07407407,0,0,0.07407407,14.814815,0)"
           xlink:href="#aP"
           id="use404" />
        <use
           transform="matrix(0.07407407,0,0,0.07407407,29.62963,0)"
           xlink:href="#aJ"
           id="use406" />
      </g>
      <g
         id="s">
        <use
           transform="scale(0.07407407)"
           xlink:href="#ah"
           id="use409" />
        <use
           transform="matrix(0.07407407,0,0,0.07407407,7.4074074,0)"
           xlink:href="#ah"
           id="use411" />
        <use
           transform="matrix(0.07407407,0,0,0.07407407,14.814815,0)"
           xlink:href="#ah"
           id="use413" />
      </g>
      <path
         fill="#3a414a"
         d="m 101,-234 c -31,-9 -42,10 -38,44 h 38 v 23 H 63 V 0 H 32 V -167 H 5 v -23 h 27 c -7,-52 17,-82 69,-68 v 24"
         id="aQ" />
      <path
         fill="#3a414a"
         d="M 84,4 C -5,8 30,-112 23,-190 h 32 v 120 c 0,31 7,50 39,49 72,-2 45,-101 50,-169 h 31 l 1,190 h -30 c -1,-10 1,-25 -2,-33 -11,22 -28,36 -60,37"
         id="aR" />
      <path
         fill="#3a414a"
         d="M 24,0 V -261 H 56 V 0 H 24"
         id="aS" />
      <path
         fill="#3a414a"
         d="m 24,-231 v -30 h 32 v 30 z M 24,0 V -190 H 56 V 0 H 24"
         id="aT" />
      <path
         fill="#3a414a"
         d="M 177,-190 C 167,-65 218,103 67,71 44,65 29,51 23,28 L 55,23 C 70,70 155,55 144,-5 V -35 C 133,-14 115,1 83,1 29,1 15,-40 15,-95 c 0,-56 16,-97 71,-98 29,-1 48,16 59,35 1,-10 0,-23 2,-32 z M 94,-22 c 36,0 50,-32 50,-73 0,-42 -14,-75 -50,-75 -39,0 -46,34 -46,75 0,41 6,73 46,73"
         id="aU" />
      <g
         id="t">
        <use
           transform="scale(0.07407407)"
           xlink:href="#aQ"
           id="use421" />
        <use
           transform="matrix(0.07407407,0,0,0.07407407,7.4074074,0)"
           xlink:href="#aR"
           id="use423" />
        <use
           transform="matrix(0.07407407,0,0,0.07407407,22.222222,0)"
           xlink:href="#aS"
           id="use425" />
        <use
           transform="matrix(0.07407407,0,0,0.07407407,28.074074,0)"
           xlink:href="#aQ"
           id="use427" />
        <use
           transform="matrix(0.07407407,0,0,0.07407407,35.481481,0)"
           xlink:href="#aT"
           id="use429" />
        <use
           transform="matrix(0.07407407,0,0,0.07407407,41.333333,0)"
           xlink:href="#aS"
           id="use431" />
        <use
           transform="matrix(0.07407407,0,0,0.07407407,47.185185,0)"
           xlink:href="#aS"
           id="use433" />
        <use
           transform="matrix(0.07407407,0,0,0.07407407,53.037037,0)"
           xlink:href="#aT"
           id="use435" />
        <use
           transform="matrix(0.07407407,0,0,0.07407407,58.888889,0)"
           xlink:href="#aA"
           id="use437" />
        <use
           transform="matrix(0.07407407,0,0,0.07407407,73.703704,0)"
           xlink:href="#aU"
           id="use439" />
      </g>
      <path
         fill="#3a414a"
         d="m 115,-194 c 55,1 70,41 70,98 C 185,-39 169,2 115,4 84,4 66,-9 55,-30 L 56,75 H 24 l -1,-265 h 31 l 2,30 c 10,-21 28,-34 59,-34 z m -8,174 c 40,0 45,-34 45,-75 0,-41 -6,-73 -45,-74 -42,0 -51,32 -51,76 0,43 10,73 51,73"
         id="aV" />
      <path
         fill="#3a414a"
         d="M 114,-163 C 36,-179 61,-72 57,0 H 25 l -1,-190 h 30 c 1,12 -1,29 2,39 6,-27 23,-49 58,-41 v 29"
         id="aW" />
      <path
         fill="#3a414a"
         d="m 100,-194 c 62,-1 85,37 85,99 1,63 -27,99 -86,99 -59,0 -83,-39 -84,-99 0,-66 28,-99 85,-99 z m -1,174 c 44,1 53,-31 53,-75 0,-43 -8,-75 -51,-75 -43,0 -53,32 -53,75 0,43 10,74 51,75"
         id="aX" />
      <path
         fill="#3a414a"
         d="m 100,-194 c 63,0 86,42 84,106 H 49 c 0,40 14,67 53,68 26,1 43,-12 49,-29 l 28,8 C 168,-13 142,4 102,4 44,4 14,-33 15,-96 c 1,-61 26,-98 85,-98 z m 52,81 c 6,-60 -76,-77 -97,-28 -3,7 -6,17 -6,28 h 103"
         id="aY" />
      <path
         fill="#3a414a"
         d="m 59,-47 c -2,24 18,29 38,22 V -1 C 64,9 27,4 27,-40 V -167 H 5 v -23 h 24 l 9,-43 h 21 v 43 h 35 v 23 H 59 v 120"
         id="aZ" />
      <path
         fill="#3a414a"
         d="M 179,-190 93,31 C 79,59 56,82 12,73 V 49 C 51,55 65,29 76,-1 L 1,-190 h 34 l 57,156 54,-156 h 33"
         id="ba" />
      <g
         id="u">
        <use
           transform="scale(0.07407407)"
           xlink:href="#aV"
           id="use448" />
        <use
           transform="matrix(0.07407407,0,0,0.07407407,14.814815,0)"
           xlink:href="#aW"
           id="use450" />
        <use
           transform="matrix(0.07407407,0,0,0.07407407,23.62963,0)"
           xlink:href="#aX"
           id="use452" />
        <use
           transform="matrix(0.07407407,0,0,0.07407407,38.444444,0)"
           xlink:href="#aV"
           id="use454" />
        <use
           transform="matrix(0.07407407,0,0,0.07407407,53.259259,0)"
           xlink:href="#aY"
           id="use456" />
        <use
           transform="matrix(0.07407407,0,0,0.07407407,68.074074,0)"
           xlink:href="#aW"
           id="use458" />
        <use
           transform="matrix(0.07407407,0,0,0.07407407,76.888889,0)"
           xlink:href="#aZ"
           id="use460" />
        <use
           transform="matrix(0.07407407,0,0,0.07407407,84.296296,0)"
           xlink:href="#ba"
           id="use462" />
      </g>
      <use
         transform="scale(0.07407407)"
         xlink:href="#au"
         id="v" />
      <g
         id="w">
        <use
           transform="scale(0.07407407)"
           xlink:href="#aq"
           id="use466" />
        <use
           transform="matrix(0.07407407,0,0,0.07407407,16.222222,0)"
           xlink:href="#ap"
           id="use468" />
      </g>
      <use
         transform="scale(0.07407407)"
         xlink:href="#ay"
         id="x" />
      <g
         id="y">
        <use
           transform="scale(0.07407407)"
           xlink:href="#av"
           id="use472" />
        <use
           transform="matrix(0.07407407,0,0,0.07407407,8.8148148,0)"
           xlink:href="#aX"
           id="use474" />
        <use
           transform="matrix(0.07407407,0,0,0.07407407,23.62963,0)"
           xlink:href="#aW"
           id="use476" />
      </g>
      <g
         id="z">
        <use
           transform="scale(0.07407407)"
           xlink:href="#ah"
           id="use479" />
        <use
           transform="matrix(0.07407407,0,0,0.07407407,7.4074074,0)"
           xlink:href="#ah"
           id="use481" />
        <use
           transform="matrix(0.07407407,0,0,0.07407407,14.814815,0)"
           xlink:href="#ah"
           id="use483" />
        <use
           transform="matrix(0.07407407,0,0,0.07407407,22.222222,0)"
           xlink:href="#aC"
           id="use485" />
      </g>
      <path
         fill="#6f7681"
         d="M 232,-93 C 231,-28 192,4 128,4 67,4 28,-28 28,-90 v -158 h 33 c 8,89 -33,224 67,224 102,0 64,-133 71,-224 h 33 v 155"
         id="bb" />
      <path
         fill="#6f7681"
         d="M 190,0 58,-211 59,0 H 30 v -248 h 39 l 133,213 -2,-213 h 31 V 0 h -41"
         id="bc" />
      <path
         fill="#6f7681"
         d="M 33,0 V -248 H 67 V 0 H 33"
         id="bd" />
      <path
         fill="#6f7681"
         d="m 140,-251 c 81,0 123,46 123,126 C 263,-46 219,4 140,4 59,4 17,-45 17,-125 c 0,-80 42,-126 123,-126 z m 0,227 c 63,0 89,-41 89,-101 0,-60 -29,-99 -89,-99 -61,0 -89,39 -89,99 0,60 28,100 89,101"
         id="be" />
      <g
         id="A">
        <use
           transform="scale(0.07407407)"
           xlink:href="#bb"
           id="use492" />
        <use
           transform="matrix(0.07407407,0,0,0.07407407,19.185185,0)"
           xlink:href="#bc"
           id="use494" />
        <use
           transform="matrix(0.07407407,0,0,0.07407407,38.37037,0)"
           xlink:href="#bd"
           id="use496" />
        <use
           transform="matrix(0.07407407,0,0,0.07407407,45.777778,0)"
           xlink:href="#be"
           id="use498" />
        <use
           transform="matrix(0.07407407,0,0,0.07407407,66.518519,0)"
           xlink:href="#bc"
           id="use500" />
      </g>
      <path
         d="M 33,0 V -38 H 67 V 0 H 33"
         id="bf" />
      <g
         id="B">
        <use
           transform="scale(0.07407407)"
           xlink:href="#bf"
           id="use504" />
        <use
           transform="matrix(0.07407407,0,0,0.07407407,7.4074074,0)"
           xlink:href="#bf"
           id="use506" />
        <use
           transform="matrix(0.07407407,0,0,0.07407407,14.814815,0)"
           xlink:href="#bf"
           id="use508" />
      </g>
      <path
         d="m 101,-234 c -31,-9 -42,10 -38,44 h 38 v 23 H 63 V 0 H 32 V -167 H 5 v -23 h 27 c -7,-52 17,-82 69,-68 v 24"
         id="bg" />
      <path
         d="M 84,4 C -5,8 30,-112 23,-190 h 32 v 120 c 0,31 7,50 39,49 72,-2 45,-101 50,-169 h 31 l 1,190 h -30 c -1,-10 1,-25 -2,-33 -11,22 -28,36 -60,37"
         id="bh" />
      <path
         d="M 24,0 V -261 H 56 V 0 H 24"
         id="bi" />
      <path
         d="m 24,-231 v -30 h 32 v 30 z M 24,0 V -190 H 56 V 0 H 24"
         id="bj" />
      <path
         d="m 117,-194 c 89,-4 53,116 60,194 h -32 v -121 c 0,-31 -8,-49 -39,-48 C 34,-167 62,-67 57,0 H 25 l -1,-190 h 30 c 1,10 -1,24 2,32 11,-22 29,-35 61,-36"
         id="bk" />
      <path
         d="M 177,-190 C 167,-65 218,103 67,71 44,65 29,51 23,28 L 55,23 C 70,70 155,55 144,-5 V -35 C 133,-14 115,1 83,1 29,1 15,-40 15,-95 c 0,-56 16,-97 71,-98 29,-1 48,16 59,35 1,-10 0,-23 2,-32 z M 94,-22 c 36,0 50,-32 50,-73 0,-42 -14,-75 -50,-75 -39,0 -46,34 -46,75 0,41 6,73 46,73"
         id="bl" />
      <g
         id="C">
        <use
           transform="scale(0.07407407)"
           xlink:href="#bg"
           id="use517" />
        <use
           transform="matrix(0.07407407,0,0,0.07407407,7.4074074,0)"
           xlink:href="#bh"
           id="use519" />
        <use
           transform="matrix(0.07407407,0,0,0.07407407,22.222222,0)"
           xlink:href="#bi"
           id="use521" />
        <use
           transform="matrix(0.07407407,0,0,0.07407407,28.074074,0)"
           xlink:href="#bg"
           id="use523" />
        <use
           transform="matrix(0.07407407,0,0,0.07407407,35.481481,0)"
           xlink:href="#bj"
           id="use525" />
        <use
           transform="matrix(0.07407407,0,0,0.07407407,41.333333,0)"
           xlink:href="#bi"
           id="use527" />
        <use
           transform="matrix(0.07407407,0,0,0.07407407,47.185185,0)"
           xlink:href="#bi"
           id="use529" />
        <use
           transform="matrix(0.07407407,0,0,0.07407407,53.037037,0)"
           xlink:href="#bj"
           id="use531" />
        <use
           transform="matrix(0.07407407,0,0,0.07407407,58.888889,0)"
           xlink:href="#bk"
           id="use533" />
        <use
           transform="matrix(0.07407407,0,0,0.07407407,73.703704,0)"
           xlink:href="#bl"
           id="use535" />
      </g>
      <path
         d="M 185,-48 C 172,-18 148,5 103,4 43,2 14,-33 14,-96 c 0,-63 30,-98 90,-98 62,0 83,45 84,108 H 66 c 0,31 8,55 39,56 18,0 30,-7 34,-22 z m -45,-69 c 5,-46 -57,-63 -70,-21 -2,6 -4,13 -4,21 h 74"
         id="bm" />
      <path
         d="m 25,-224 v -37 h 50 v 37 z M 25,0 V -190 H 75 V 0 H 25"
         id="bn" />
      <path
         d="M 115,-3 C 79,11 28,4 28,-45 V -157 H 4 v -33 h 27 l 15,-45 h 31 v 45 h 36 v 33 H 77 v 99 c -1,23 16,31 38,25 v 30"
         id="bo" />
      <path
         d="M 114,-157 C 55,-157 80,-60 75,0 H 25 v -261 h 50 l -1,109 c 12,-26 28,-41 61,-42 86,-1 58,113 63,194 h -50 c -7,-57 23,-157 -34,-157"
         id="bp" />
      <path
         d="m 135,-150 c -39,-12 -60,13 -60,57 V 0 H 25 l -1,-190 h 47 c 2,13 -1,29 3,40 6,-28 27,-53 61,-41 v 41"
         id="bq" />
      <g
         id="D">
        <use
           transform="scale(0.07407407)"
           xlink:href="#bm"
           id="use543" />
        <use
           transform="matrix(0.07407407,0,0,0.07407407,14.814815,0)"
           xlink:href="#bn"
           id="use545" />
        <use
           transform="matrix(0.07407407,0,0,0.07407407,22.222222,0)"
           xlink:href="#bo"
           id="use547" />
        <use
           transform="matrix(0.07407407,0,0,0.07407407,31.037037,0)"
           xlink:href="#bp"
           id="use549" />
        <use
           transform="matrix(0.07407407,0,0,0.07407407,47.259259,0)"
           xlink:href="#bm"
           id="use551" />
        <use
           transform="matrix(0.07407407,0,0,0.07407407,62.074074,0)"
           xlink:href="#bq"
           id="use553" />
      </g>
      <path
         d="m 115,-194 c 55,1 70,41 70,98 C 185,-39 169,2 115,4 84,4 66,-9 55,-30 L 56,75 H 24 l -1,-265 h 31 l 2,30 c 10,-21 28,-34 59,-34 z m -8,174 c 40,0 45,-34 45,-75 0,-41 -6,-73 -45,-74 -42,0 -51,32 -51,76 0,43 10,73 51,73"
         id="br" />
      <path
         d="M 114,-163 C 36,-179 61,-72 57,0 H 25 l -1,-190 h 30 c 1,12 -1,29 2,39 6,-27 23,-49 58,-41 v 29"
         id="bs" />
      <path
         d="m 100,-194 c 62,-1 85,37 85,99 1,63 -27,99 -86,99 -59,0 -83,-39 -84,-99 0,-66 28,-99 85,-99 z m -1,174 c 44,1 53,-31 53,-75 0,-43 -8,-75 -51,-75 -43,0 -53,32 -53,75 0,43 10,74 51,75"
         id="bt" />
      <path
         d="m 100,-194 c 63,0 86,42 84,106 H 49 c 0,40 14,67 53,68 26,1 43,-12 49,-29 l 28,8 C 168,-13 142,4 102,4 44,4 14,-33 15,-96 c 1,-61 26,-98 85,-98 z m 52,81 c 6,-60 -76,-77 -97,-28 -3,7 -6,17 -6,28 h 103"
         id="bu" />
      <path
         d="m 59,-47 c -2,24 18,29 38,22 V -1 C 64,9 27,4 27,-40 V -167 H 5 v -23 h 24 l 9,-43 h 21 v 43 h 35 v 23 H 59 v 120"
         id="bv" />
      <path
         d="M 179,-190 93,31 C 79,59 56,82 12,73 V 49 C 51,55 65,29 76,-1 L 1,-190 h 34 l 57,156 54,-156 h 33"
         id="bw" />
      <g
         id="E">
        <use
           transform="scale(0.07407407)"
           xlink:href="#br"
           id="use562" />
        <use
           transform="matrix(0.07407407,0,0,0.07407407,14.814815,0)"
           xlink:href="#bs"
           id="use564" />
        <use
           transform="matrix(0.07407407,0,0,0.07407407,23.62963,0)"
           xlink:href="#bt"
           id="use566" />
        <use
           transform="matrix(0.07407407,0,0,0.07407407,38.444444,0)"
           xlink:href="#br"
           id="use568" />
        <use
           transform="matrix(0.07407407,0,0,0.07407407,53.259259,0)"
           xlink:href="#bu"
           id="use570" />
        <use
           transform="matrix(0.07407407,0,0,0.07407407,68.074074,0)"
           xlink:href="#bs"
           id="use572" />
        <use
           transform="matrix(0.07407407,0,0,0.07407407,76.888889,0)"
           xlink:href="#bv"
           id="use574" />
        <use
           transform="matrix(0.07407407,0,0,0.07407407,84.296296,0)"
           xlink:href="#bw"
           id="use576" />
      </g>
      <path
         d="M 205,0 177,-72 H 64 L 36,0 H 1 l 101,-248 h 38 L 239,0 Z m -38,-99 -47,-123 c -12,45 -31,82 -46,123 h 93"
         id="bx" />
      <use
         transform="scale(0.07407407)"
         xlink:href="#bx"
         id="F" />
      <path
         d="m 110,-194 c 64,0 96,36 96,99 0,64 -35,99 -97,99 -61,0 -95,-36 -95,-99 0,-62 34,-99 96,-99 z m -1,164 c 35,0 45,-28 45,-65 0,-40 -10,-65 -43,-65 -34,0 -45,26 -45,65 0,36 10,65 43,65"
         id="by" />
      <g
         id="G">
        <use
           transform="scale(0.07407407)"
           xlink:href="#by"
           id="use582" />
        <use
           transform="matrix(0.07407407,0,0,0.07407407,16.222222,0)"
           xlink:href="#bq"
           id="use584" />
      </g>
      <path
         d="m 160,-131 c 35,5 61,23 61,61 0,87 -106,68 -191,70 v -248 c 76,3 177,-17 177,60 0,33 -19,50 -47,57 z m -97,-11 c 50,-1 110,9 110,-42 0,-47 -63,-36 -110,-37 z m 0,115 c 55,-2 124,14 124,-45 0,-56 -70,-42 -124,-44 v 89"
         id="bz" />
      <use
         transform="scale(0.07407407)"
         xlink:href="#bz"
         id="H" />
      <path
         d="M 87,75 C 49,33 22,-17 22,-94 c 0,-76 28,-126 65,-167 h 31 c -38,41 -64,92 -64,168 0,76 26,127 64,168 H 87"
         id="bA" />
      <g
         id="I">
        <use
           transform="scale(0.07407407)"
           xlink:href="#bA"
           id="use590" />
        <use
           transform="matrix(0.07407407,0,0,0.07407407,8.8148148,0)"
           xlink:href="#bt"
           id="use592" />
        <use
           transform="matrix(0.07407407,0,0,0.07407407,23.62963,0)"
           xlink:href="#bs"
           id="use594" />
      </g>
      <path
         d="m 33,-261 c 38,41 65,92 65,168 C 98,-17 71,34 33,75 H 2 C 39,34 66,-17 66,-93 66,-169 39,-220 2,-261 h 31"
         id="bB" />
      <g
         id="J">
        <use
           transform="scale(0.07407407)"
           xlink:href="#bf"
           id="use598" />
        <use
           transform="matrix(0.07407407,0,0,0.07407407,7.4074074,0)"
           xlink:href="#bf"
           id="use600" />
        <use
           transform="matrix(0.07407407,0,0,0.07407407,14.814815,0)"
           xlink:href="#bf"
           id="use602" />
        <use
           transform="matrix(0.07407407,0,0,0.07407407,22.222222,0)"
           xlink:href="#bB"
           id="use604" />
      </g>
      <g
         id="K">
        <use
           transform="scale(0.07407407)"
           xlink:href="#bb"
           id="use607" />
        <use
           transform="matrix(0.07407407,0,0,0.07407407,19.185185,0)"
           xlink:href="#bc"
           id="use609" />
        <use
           transform="matrix(0.07407407,0,0,0.07407407,38.37037,0)"
           xlink:href="#bd"
           id="use611" />
        <use
           transform="matrix(0.07407407,0,0,0.07407407,45.777778,0)"
           xlink:href="#be"
           id="use613" />
        <use
           transform="matrix(0.07407407,0,0,0.07407407,66.518519,0)"
           xlink:href="#bc"
           id="use615" />
        <use
           transform="matrix(0.07407407,0,0,0.07407407,85.703704,0)"
           xlink:href="#aN"
           id="use617" />
      </g>
      <path
         fill="#6f7681"
         d="m 240,0 2,-218 C 219,-142 188,-73 162,0 H 139 L 58,-218 59,0 H 30 v -248 h 44 l 77,211 c 21,-75 51,-140 76,-211 h 43 V 0 h -30"
         id="bC" />
      <path
         fill="#6f7681"
         d="m 185,-189 c -5,-48 -123,-54 -124,2 14,75 158,14 163,119 C 227,10 103,19 49,-13 32,-23 21,-39 16,-59 l 33,-7 c 5,56 141,63 141,-1 0,-78 -155,-14 -162,-118 -5,-82 145,-84 179,-34 5,7 8,16 11,25"
         id="bD" />
      <g
         id="L">
        <use
           transform="scale(0.07407407)"
           xlink:href="#bC"
           id="use622" />
        <use
           transform="matrix(0.07407407,0,0,0.07407407,22.148148,0)"
           xlink:href="#bd"
           id="use624" />
        <use
           transform="matrix(0.07407407,0,0,0.07407407,29.555556,0)"
           xlink:href="#bc"
           id="use626" />
        <use
           transform="matrix(0.07407407,0,0,0.07407407,48.740741,0)"
           xlink:href="#bb"
           id="use628" />
        <use
           transform="matrix(0.07407407,0,0,0.07407407,67.925926,0)"
           xlink:href="#bD"
           id="use630" />
      </g>
      <g
         id="M">
        <use
           transform="scale(0.07407407)"
           xlink:href="#bf"
           id="use633" />
        <use
           transform="matrix(0.07407407,0,0,0.07407407,7.4074074,0)"
           xlink:href="#bf"
           id="use635" />
        <use
           transform="matrix(0.07407407,0,0,0.07407407,14.814815,0)"
           xlink:href="#bf"
           id="use637" />
      </g>
      <path
         d="m 135,-194 c 87,-1 58,113 63,194 h -50 c -7,-57 23,-157 -34,-157 -59,0 -34,97 -39,157 H 25 l -1,-190 h 47 c 2,12 -1,28 3,38 12,-26 28,-41 61,-42"
         id="bE" />
      <g
         id="N">
        <use
           transform="scale(0.07407407)"
           xlink:href="#bE"
           id="use641" />
        <use
           transform="matrix(0.07407407,0,0,0.07407407,16.222222,0)"
           xlink:href="#by"
           id="use643" />
        <use
           transform="matrix(0.07407407,0,0,0.07407407,32.444444,0)"
           xlink:href="#bo"
           id="use645" />
      </g>
      <g
         id="O">
        <use
           transform="scale(0.07407407)"
           xlink:href="#bg"
           id="use648" />
        <use
           transform="matrix(0.07407407,0,0,0.07407407,7.4074074,0)"
           xlink:href="#bh"
           id="use650" />
        <use
           transform="matrix(0.07407407,0,0,0.07407407,22.222222,0)"
           xlink:href="#bi"
           id="use652" />
        <use
           transform="matrix(0.07407407,0,0,0.07407407,28.074074,0)"
           xlink:href="#bg"
           id="use654" />
        <use
           transform="matrix(0.07407407,0,0,0.07407407,35.481481,0)"
           xlink:href="#bj"
           id="use656" />
        <use
           transform="matrix(0.07407407,0,0,0.07407407,41.333333,0)"
           xlink:href="#bi"
           id="use658" />
        <use
           transform="matrix(0.07407407,0,0,0.07407407,47.185185,0)"
           xlink:href="#bi"
           id="use660" />
        <use
           transform="matrix(0.07407407,0,0,0.07407407,53.037037,0)"
           xlink:href="#bj"
           id="use662" />
        <use
           transform="matrix(0.07407407,0,0,0.07407407,58.888889,0)"
           xlink:href="#bk"
           id="use664" />
        <use
           transform="matrix(0.07407407,0,0,0.07407407,73.703704,0)"
           xlink:href="#bl"
           id="use666" />
      </g>
      <g
         id="P">
        <use
           transform="scale(0.07407407)"
           xlink:href="#br"
           id="use669" />
        <use
           transform="matrix(0.07407407,0,0,0.07407407,14.814815,0)"
           xlink:href="#bs"
           id="use671" />
        <use
           transform="matrix(0.07407407,0,0,0.07407407,23.62963,0)"
           xlink:href="#bt"
           id="use673" />
        <use
           transform="matrix(0.07407407,0,0,0.07407407,38.444444,0)"
           xlink:href="#br"
           id="use675" />
        <use
           transform="matrix(0.07407407,0,0,0.07407407,53.259259,0)"
           xlink:href="#bu"
           id="use677" />
        <use
           transform="matrix(0.07407407,0,0,0.07407407,68.074074,0)"
           xlink:href="#bs"
           id="use679" />
        <use
           transform="matrix(0.07407407,0,0,0.07407407,76.888889,0)"
           xlink:href="#bv"
           id="use681" />
        <use
           transform="matrix(0.07407407,0,0,0.07407407,84.296296,0)"
           xlink:href="#bw"
           id="use683" />
      </g>
      <use
         transform="scale(0.07407407)"
         xlink:href="#bx"
         id="Q" />
      <path
         d="M 141,-36 C 126,-15 110,5 73,4 37,3 15,-17 15,-53 c -1,-64 63,-63 125,-63 3,-35 -9,-54 -41,-54 -24,1 -41,7 -42,31 l -33,-3 c 5,-37 33,-52 76,-52 45,0 72,20 72,64 v 82 c -1,20 7,32 28,27 V -1 C 169,8 139,-3 141,-36 Z M 48,-53 c 0,20 12,33 32,33 41,-3 63,-29 60,-74 -43,2 -92,-5 -92,41"
         id="bF" />
      <path
         d="m 85,-194 c 31,0 48,13 60,33 l -1,-100 h 32 l 1,261 h -30 c -2,-10 0,-23 -3,-31 C 134,-8 116,4 85,4 32,4 16,-35 15,-94 c 0,-66 23,-100 70,-100 z m 9,24 c -40,0 -46,34 -46,75 0,40 6,74 45,74 42,0 51,-32 51,-76 0,-42 -9,-74 -50,-73"
         id="bG" />
      <g
         id="R">
        <use
           transform="scale(0.07407407)"
           xlink:href="#bA"
           id="use689" />
        <use
           transform="matrix(0.07407407,0,0,0.07407407,8.8148148,0)"
           xlink:href="#bF"
           id="use691" />
        <use
           transform="matrix(0.07407407,0,0,0.07407407,23.62963,0)"
           xlink:href="#bk"
           id="use693" />
        <use
           transform="matrix(0.07407407,0,0,0.07407407,38.444444,0)"
           xlink:href="#bG"
           id="use695" />
      </g>
      <use
         transform="scale(0.07407407)"
         xlink:href="#bz"
         id="S" />
      <g
         id="T">
        <use
           transform="scale(0.07407407)"
           xlink:href="#bA"
           id="use699" />
        <use
           transform="matrix(0.07407407,0,0,0.07407407,8.8148148,0)"
           xlink:href="#bF"
           id="use701" />
        <use
           transform="matrix(0.07407407,0,0,0.07407407,23.62963,0)"
           xlink:href="#bk"
           id="use703" />
        <use
           transform="matrix(0.07407407,0,0,0.07407407,38.444444,0)"
           xlink:href="#bG"
           id="use705" />
      </g>
      <g
         id="U">
        <use
           transform="scale(0.07407407)"
           xlink:href="#bf"
           id="use708" />
        <use
           transform="matrix(0.07407407,0,0,0.07407407,7.4074074,0)"
           xlink:href="#bf"
           id="use710" />
        <use
           transform="matrix(0.07407407,0,0,0.07407407,14.814815,0)"
           xlink:href="#bf"
           id="use712" />
        <use
           transform="matrix(0.07407407,0,0,0.07407407,22.222222,0)"
           xlink:href="#bB"
           id="use714" />
        <use
           transform="matrix(0.07407407,0,0,0.07407407,31.037037,0)"
           xlink:href="#bB"
           id="use716" />
      </g>
      <g
         id="V">
        <use
           transform="scale(0.07407407)"
           xlink:href="#bC"
           id="use719" />
        <use
           transform="matrix(0.07407407,0,0,0.07407407,22.148148,0)"
           xlink:href="#bd"
           id="use721" />
        <use
           transform="matrix(0.07407407,0,0,0.07407407,29.555556,0)"
           xlink:href="#bc"
           id="use723" />
        <use
           transform="matrix(0.07407407,0,0,0.07407407,48.740741,0)"
           xlink:href="#bb"
           id="use725" />
        <use
           transform="matrix(0.07407407,0,0,0.07407407,67.925926,0)"
           xlink:href="#bD"
           id="use727" />
        <use
           transform="matrix(0.07407407,0,0,0.07407407,85.703704,0)"
           xlink:href="#aN"
           id="use729" />
      </g>
      <path
         fill="#6f7681"
         d="m 63,-220 v 92 h 138 v 28 H 63 V 0 H 30 v -248 h 175 v 28 H 63"
         id="bH" />
      <path
         fill="#6f7681"
         d="M 30,0 V -248 H 63 V -27 H 188 V 0 H 30"
         id="bI" />
      <path
         fill="#6f7681"
         d="M 127,-220 V 0 H 93 V -220 H 8 v -28 h 204 v 28 h -85"
         id="bJ" />
      <path
         fill="#6f7681"
         d="m 30,0 v -248 h 187 v 28 H 63 v 79 h 144 v 27 H 63 v 87 H 225 V 0 H 30"
         id="bK" />
      <path
         fill="#6f7681"
         d="m 233,-177 c -1,41 -23,64 -60,70 L 243,0 H 205 L 140,-103 H 63 V 0 H 30 v -248 c 88,3 205,-21 203,71 z m -170,48 c 60,-2 137,13 137,-47 0,-61 -80,-42 -137,-45 v 92"
         id="bL" />
      <g
         id="W">
        <use
           transform="scale(0.07407407)"
           xlink:href="#bH"
           id="use737" />
        <use
           transform="matrix(0.07407407,0,0,0.07407407,16.222222,0)"
           xlink:href="#bd"
           id="use739" />
        <use
           transform="matrix(0.07407407,0,0,0.07407407,23.62963,0)"
           xlink:href="#bI"
           id="use741" />
        <use
           transform="matrix(0.07407407,0,0,0.07407407,36.444444,0)"
           xlink:href="#bJ"
           id="use743" />
        <use
           transform="matrix(0.07407407,0,0,0.07407407,52.666667,0)"
           xlink:href="#bK"
           id="use745" />
        <use
           transform="matrix(0.07407407,0,0,0.07407407,70.444444,0)"
           xlink:href="#bL"
           id="use747" />
      </g>
      <g
         id="X">
        <use
           transform="scale(0.07407407)"
           xlink:href="#bc"
           id="use750" />
        <use
           transform="matrix(0.07407407,0,0,0.07407407,19.185185,0)"
           xlink:href="#be"
           id="use752" />
        <use
           transform="matrix(0.07407407,0,0,0.07407407,39.925926,0)"
           xlink:href="#bJ"
           id="use754" />
      </g>
      <path
         fill="#6f7681"
         d="M 195,0 121,-108 45,0 H 8 l 94,-129 -87,-119 h 37 l 69,98 67,-98 h 37 l -84,118 92,130 h -38"
         id="bM" />
      <g
         id="Y">
        <use
           transform="scale(0.07407407)"
           xlink:href="#bK"
           id="use758" />
        <use
           transform="matrix(0.07407407,0,0,0.07407407,17.777778,0)"
           xlink:href="#bM"
           id="use760" />
        <use
           transform="matrix(0.07407407,0,0,0.07407407,35.555556,0)"
           xlink:href="#bd"
           id="use762" />
        <use
           transform="matrix(0.07407407,0,0,0.07407407,42.962963,0)"
           xlink:href="#bD"
           id="use764" />
        <use
           transform="matrix(0.07407407,0,0,0.07407407,60.740741,0)"
           xlink:href="#bJ"
           id="use766" />
        <use
           transform="matrix(0.07407407,0,0,0.07407407,76.962963,0)"
           xlink:href="#bD"
           id="use768" />
      </g>
      <path
         fill="#3a414a"
         d="M 147,0 H 94 L 2,-248 h 55 l 64,206 c 17,-72 42,-137 63,-206 h 54"
         id="bN" />
      <path
         fill="#3a414a"
         d="M 199,0 177,-63 H 83 L 61,0 H 9 l 90,-248 h 61 L 250,0 Z m -33,-102 -36,-108 c -10,38 -24,72 -36,108 h 72"
         id="bO" />
      <path
         fill="#3a414a"
         d="m 240,-174 c 0,40 -23,61 -54,70 L 253,0 H 194 L 137,-94 H 76 V 0 H 24 v -248 c 93,4 217,-23 216,74 z m -164,40 c 48,-2 112,12 112,-38 0,-48 -66,-32 -112,-35 v 73"
         id="bP" />
      <path
         fill="#3a414a"
         d="M 24,0 V -248 H 76 V 0 H 24"
         id="bQ" />
      <path
         fill="#3a414a"
         d="M 175,0 67,-191 c 6,58 2,128 3,191 H 24 v -248 h 59 l 110,193 c -6,-58 -2,-129 -3,-193 h 46 V 0 h -61"
         id="bR" />
      <path
         fill="#3a414a"
         d="M 136,-208 V 0 H 84 V -208 H 4 v -40 h 212 v 40 h -80"
         id="bS" />
      <path
         fill="#3a414a"
         d="m 169,-182 c -1,-43 -94,-46 -97,-3 18,66 151,10 154,114 3,95 -165,93 -204,36 -6,-8 -10,-19 -12,-30 l 50,-8 c 3,46 112,56 116,5 -17,-69 -150,-10 -154,-114 -4,-87 153,-88 188,-35 5,8 8,18 10,28"
         id="bT" />
      <g
         id="Z">
        <use
           transform="scale(0.06790123)"
           xlink:href="#bN"
           id="use778" />
        <use
           transform="matrix(0.06790123,0,0,0.06790123,14.462963,0)"
           xlink:href="#bO"
           id="use780" />
        <use
           transform="matrix(0.06790123,0,0,0.06790123,32.049383,0)"
           xlink:href="#bP"
           id="use782" />
        <use
           transform="matrix(0.06790123,0,0,0.06790123,49.635802,0)"
           xlink:href="#bQ"
           id="use784" />
        <use
           transform="matrix(0.06790123,0,0,0.06790123,56.425926,0)"
           xlink:href="#bO"
           id="use786" />
        <use
           transform="matrix(0.06790123,0,0,0.06790123,74.012346,0)"
           xlink:href="#bR"
           id="use788" />
        <use
           transform="matrix(0.06790123,0,0,0.06790123,91.598765,0)"
           xlink:href="#bS"
           id="use790" />
        <use
           transform="matrix(0.06790123,0,0,0.06790123,106.46914,0)"
           xlink:href="#bT"
           id="use792" />
      </g>
      <path
         fill="#3a414a"
         d="m 67,-125 c 0,53 21,87 73,88 37,1 54,-22 65,-47 l 45,17 C 233,-25 199,4 140,4 58,4 20,-42 15,-125 8,-235 124,-281 211,-232 c 18,10 29,29 36,50 l -46,12 c -8,-25 -30,-41 -62,-41 -52,0 -71,34 -72,86"
         id="bU" />
      <path
         fill="#3a414a"
         d="m 24,0 v -248 h 195 v 40 H 76 v 63 h 132 v 40 H 76 v 65 H 226 V 0 H 24"
         id="bV" />
      <path
         fill="#3a414a"
         d="m 67,-125 c 0,54 23,88 75,88 28,0 53,-7 68,-21 v -34 h -60 v -39 h 108 v 91 C 232,-14 192,4 140,4 58,4 20,-42 15,-125 8,-236 126,-280 215,-234 c 19,10 29,26 37,47 l -47,15 c -11,-23 -29,-39 -63,-39 -53,1 -75,33 -75,86"
         id="bW" />
      <g
         id="aa">
        <use
           transform="scale(0.06790123)"
           xlink:href="#bO"
           id="use798" />
        <use
           transform="matrix(0.06790123,0,0,0.06790123,17.58642,0)"
           xlink:href="#bU"
           id="use800" />
        <use
           transform="matrix(0.06790123,0,0,0.06790123,35.17284,0)"
           xlink:href="#bU"
           id="use802" />
        <use
           transform="matrix(0.06790123,0,0,0.06790123,52.759259,0)"
           xlink:href="#bV"
           id="use804" />
        <use
           transform="matrix(0.06790123,0,0,0.06790123,69.055556,0)"
           xlink:href="#bT"
           id="use806" />
        <use
           transform="matrix(0.06790123,0,0,0.06790123,85.351852,0)"
           xlink:href="#bT"
           id="use808" />
        <use
           transform="matrix(0.06790123,0,0,0.06790123,101.64815,0)"
           xlink:href="#bQ"
           id="use810" />
        <use
           transform="matrix(0.06790123,0,0,0.06790123,108.43827,0)"
           xlink:href="#bR"
           id="use812" />
        <use
           transform="matrix(0.06790123,0,0,0.06790123,126.02469,0)"
           xlink:href="#bW"
           id="use814" />
      </g>
      <path
         fill="#3a414a"
         d="M 230,0 232,-204 168,0 H 131 L 68,-204 70,0 H 24 v -248 h 70 l 56,185 57,-185 h 69 V 0 h -46"
         id="bX" />
      <path
         fill="#3a414a"
         d="m 24,-248 c 93,1 206,-16 204,79 -1,75 -69,88 -152,82 V 0 H 24 Z m 52,121 c 47,0 100,7 100,-41 0,-47 -54,-39 -100,-39 v 80"
         id="bY" />
      <path
         fill="#3a414a"
         d="M 24,0 V -248 H 76 V -40 H 209 V 0 H 24"
         id="bZ" />
      <g
         id="ab">
        <use
           transform="scale(0.06790123)"
           xlink:href="#bT"
           id="use820" />
        <use
           transform="matrix(0.06790123,0,0,0.06790123,16.296296,0)"
           xlink:href="#bQ"
           id="use822" />
        <use
           transform="matrix(0.06790123,0,0,0.06790123,23.08642,0)"
           xlink:href="#bX"
           id="use824" />
        <use
           transform="matrix(0.06790123,0,0,0.06790123,43.388889,0)"
           xlink:href="#bY"
           id="use826" />
        <use
           transform="matrix(0.06790123,0,0,0.06790123,59.685185,0)"
           xlink:href="#bZ"
           id="use828" />
        <use
           transform="matrix(0.06790123,0,0,0.06790123,74.555556,0)"
           xlink:href="#bV"
           id="use830" />
      </g>
      <path
         fill="#3a414a"
         d="m 140,-251 c 80,0 125,45 125,126 C 265,-44 219,4 139,4 58,4 15,-44 15,-125 c 0,-81 44,-126 125,-126 z m -1,214 c 52,0 73,-35 73,-88 0,-50 -21,-86 -72,-86 -52,0 -73,35 -73,86 0,51 22,88 72,88"
         id="ca" />
      <path
         fill="#3a414a"
         d="M 146,-102 V 0 H 94 V -102 L 6,-248 h 54 l 60,105 60,-105 h 54"
         id="cb" />
      <g
         id="ac">
        <use
           transform="scale(0.06790123)"
           xlink:href="#bY"
           id="use835" />
        <use
           transform="matrix(0.06790123,0,0,0.06790123,16.296296,0)"
           xlink:href="#bP"
           id="use837" />
        <use
           transform="matrix(0.06790123,0,0,0.06790123,33.882716,0)"
           xlink:href="#ca"
           id="use839" />
        <use
           transform="matrix(0.06790123,0,0,0.06790123,52.895062,0)"
           xlink:href="#bY"
           id="use841" />
        <use
           transform="matrix(0.06790123,0,0,0.06790123,69.191358,0)"
           xlink:href="#bV"
           id="use843" />
        <use
           transform="matrix(0.06790123,0,0,0.06790123,85.487654,0)"
           xlink:href="#bP"
           id="use845" />
        <use
           transform="matrix(0.06790123,0,0,0.06790123,103.07407,0)"
           xlink:href="#bS"
           id="use847" />
        <use
           transform="matrix(0.06790123,0,0,0.06790123,117.94444,0)"
           xlink:href="#cb"
           id="use849" />
      </g>
      <path
         fill="#3a414a"
         d="M 238,-95 C 238,-26 194,4 127,4 63,4 22,-25 22,-93 v -155 h 51 v 151 c -1,38 19,59 55,60 90,1 49,-130 58,-211 h 52 v 153"
         id="cc" />
      <g
         id="ad">
        <use
           transform="scale(0.06790123)"
           xlink:href="#bN"
           id="use853" />
        <use
           transform="matrix(0.06790123,0,0,0.06790123,14.462963,0)"
           xlink:href="#bO"
           id="use855" />
        <use
           transform="matrix(0.06790123,0,0,0.06790123,32.049383,0)"
           xlink:href="#bZ"
           id="use857" />
        <use
           transform="matrix(0.06790123,0,0,0.06790123,46.919753,0)"
           xlink:href="#cc"
           id="use859" />
        <use
           transform="matrix(0.06790123,0,0,0.06790123,64.506173,0)"
           xlink:href="#bV"
           id="use861" />
        <use
           transform="matrix(0.06790123,0,0,0.06790123,80.802469,0)"
           xlink:href="#bT"
           id="use863" />
      </g>
      <g
         id="ae">
        <use
           transform="scale(0.06790123)"
           xlink:href="#bS"
           id="use866" />
        <use
           transform="matrix(0.06790123,0,0,0.06790123,14.395062,0)"
           xlink:href="#ca"
           id="use868" />
      </g>
      <path
         fill="#3a414a"
         d="m 182,-130 c 37,4 62,22 62,59 0,94 -128,67 -220,71 v -248 c 84,5 203,-23 205,63 0,31 -19,50 -47,55 z M 76,-148 c 40,-3 101,13 101,-30 0,-44 -60,-28 -101,-31 z m 0,110 c 48,-3 116,14 116,-37 0,-48 -69,-32 -116,-35 v 72"
         id="cd" />
      <g
         id="af">
        <use
           transform="scale(0.06790123)"
           xlink:href="#cd"
           id="use872" />
        <use
           transform="matrix(0.06790123,0,0,0.06790123,17.58642,0)"
           xlink:href="#bV"
           id="use874" />
      </g>
      <path
         fill="#3a414a"
         d="M 186,0 V -106 H 76 V 0 H 24 v -248 h 52 v 99 h 110 v -99 h 50 V 0 h -50"
         id="ce" />
      <path
         fill="#3a414a"
         d="M 195,0 107,-114 76,-90 V 0 H 24 v -248 h 52 v 113 l 112,-113 h 60 L 142,-143 257,0 h -62"
         id="cf" />
      <path
         fill="#3a414a"
         d="m 24,-248 c 120,-7 223,5 221,122 C 244,-46 201,0 124,0 H 24 Z m 52,208 c 74,7 117,-18 117,-86 0,-67 -45,-88 -117,-82 v 168"
         id="cg" />
      <g
         id="ag">
        <use
           transform="scale(0.06790123)"
           xlink:href="#bU"
           id="use880" />
        <use
           transform="matrix(0.06790123,0,0,0.06790123,17.58642,0)"
           xlink:href="#ce"
           id="use882" />
        <use
           transform="matrix(0.06790123,0,0,0.06790123,35.17284,0)"
           xlink:href="#bV"
           id="use884" />
        <use
           transform="matrix(0.06790123,0,0,0.06790123,51.469136,0)"
           xlink:href="#bU"
           id="use886" />
        <use
           transform="matrix(0.06790123,0,0,0.06790123,69.055556,0)"
           xlink:href="#cf"
           id="use888" />
        <use
           transform="matrix(0.06790123,0,0,0.06790123,86.641975,0)"
           xlink:href="#bV"
           id="use890" />
        <use
           transform="matrix(0.06790123,0,0,0.06790123,102.93827,0)"
           xlink:href="#cg"
           id="use892" />
      </g>
    </defs>
  </g>
</svg>
