<?xml version="1.0" encoding="UTF-8"?>
<svg width="644.59" height="343.97" version="1.1" viewBox="0 0 644.59 343.97" xml:space="preserve" xmlns="http://www.w3.org/2000/svg" xmlns:cc="http://creativecommons.org/ns#" xmlns:dc="http://purl.org/dc/elements/1.1/" xmlns:rdf="http://www.w3.org/1999/02/22-rdf-syntax-ns#"><metadata><rdf:RDF><cc:Work rdf:about=""><dc:format>image/svg+xml</dc:format><dc:type rdf:resource="http://purl.org/dc/dcmitype/StillImage"/><dc:title/></cc:Work></rdf:RDF></metadata>


<path d="m386.21 131.1-249.61 100.27c-5.348 2.149-5.348 9.718 0 11.867l249.61 100.27c1.529 0.615 3.237 0.615 4.766 0l249.61-100.27c5.348-2.148 5.348-9.718 0-11.867l-249.61-100.27c-1.529-0.615-3.236-0.615-4.765 0z" fill="#acdfea"/>

<path d="m386.21 212.87-249.61-100.27c-5.348-2.148-5.348-9.718 0-11.866l249.61-100.27c1.529-0.615 3.237-0.615 4.766 0l249.61 100.27c5.348 2.148 5.348 9.718 0 11.866l-249.61 100.27c-1.53 0.614-3.237 0.614-4.766 0z" fill="#f9c526" opacity=".5"/><g>















<path d="m295.84 233.96 15.534-0.854c-3.12 3.937-2.113 6.972 3.02 9.106 4.899 2.037 12.123 2.855 21.675 2.454 9.628-0.404 24.163-2.158 43.608-5.261l69.7-11.071c-3.069-1.746-5.903-3.161-8.502-4.243-6.965-2.901-14.614-4.199-22.948-3.894-8.257 0.301-16.572 2.194-24.944 5.68l-16.076-1.465c8.744-3.114 17.204-5.18 25.379-6.197 9.082-1.145 17.026-1.343 23.831-0.595s14.657 2.67 23.556 5.765c1.761 0.627 4.464 1.555 8.108 2.785l12.593 3.249-20.93 9.241-41.825 19.795c-9.723 4.595-15.643 7.831-17.763 9.708-2.043 1.872-1.483 3.466 1.678 4.78 0.566 0.236 2.642 0.991 6.227 2.267l-4.913 1.503-27.821-7.486 29.811-14.098-27.226-11.326c-17.068 2.725-30.318 4.096-39.752 4.116-9.39 1e-3 -17.333-1.35-23.832-4.051-6.165-2.563-8.895-5.866-8.188-9.908zm78.705 8.746 24.729 10.288 45.412-21.545z" style="font-variant-caps:normal;font-variant-east-asian:normal;font-variant-ligatures:normal;font-variant-numeric:normal"/><path d="m288.03 106.58 4.921-1.395 1.318 0.492c4.344 1.622 7.398 2.466 9.163 2.534 1.854 0.067 8.219-0.413 19.097-1.442l134.35-13.607 4.8 2-66.832 40.685c-4.911 2.988-7.576 5.042-7.994 6.162-0.375 1.138 1.056 2.454 4.293 3.948l1.574 0.71-4.989 1.363-36.455-15.155 4.99-1.364 2.036 0.847c6.352 2.64 10.594 3.517 12.729 2.629 2.268-0.943 5.076-2.42 8.423-4.431l11.053-6.673-40.495-16.845-21.499 2.11c-8.756 0.838-13.912 1.581-15.468 2.229-1.733 0.722 0.097 2.205 5.49 4.447l1.643 0.683-4.988 1.366zm70.423-0.866 36.618 15.234 38.097-22.848z" opacity=".4" style="font-variant-caps:normal;font-variant-east-asian:normal;font-variant-ligatures:normal;font-variant-numeric:normal"/><text x="62.968651" y="233.27835" fill="#000000" font-family="sans-serif" font-size="21.333px" letter-spacing="0px" stroke-width="1px" text-anchor="middle" word-spacing="0px" style="line-height:125%" xml:space="preserve"><tspan x="62.968651" y="233.27835" text-align="center">Opaque</tspan><tspan x="62.968651" y="259.94498" text-align="center">Canvas</tspan></text><text x="63.291565" y="105.59482" fill="#000000" font-family="sans-serif" font-size="21.333px" letter-spacing="0px" stroke-width="1px" text-anchor="middle" word-spacing="0px" style="line-height:125%" xml:space="preserve"><tspan x="63.291565" y="105.59482" text-align="center">Transparent</tspan><tspan x="63.291565" y="132.26144" text-align="center">Text-Layer</tspan></text></g></svg>
