<svg width="2379" height="1755" xmlns="http://www.w3.org/2000/svg" xmlns:xlink="http://www.w3.org/1999/xlink" xml:space="preserve" overflow="hidden"><g transform="translate(-1947 -316)"><g><rect x="1967" y="779" width="673" height="133" fill="#344A9A" fill-opacity="1"/><text fill="#FFFFFF" fill-opacity="1" font-family="Arial,Arial_MSFontService,sans-serif" font-style="normal" font-variant="normal" font-weight="400" font-stretch="normal" font-size="83" text-anchor="start" direction="ltr" writing-mode="lr-tb" unicode-bidi="normal" text-decoration="none" transform="matrix(1 0 0 1 1999.76 876)">dose</text><text fill="#FFFFFF" fill-opacity="1" font-family="Arial,Arial_MSFontService,sans-serif" font-style="normal" font-variant="normal" font-weight="400" font-stretch="normal" font-size="83" text-anchor="start" direction="ltr" writing-mode="lr-tb" unicode-bidi="normal" text-decoration="none" transform="matrix(1 0 0 1 2178.51 876)">-</text><text fill="#FFFFFF" fill-opacity="1" font-family="Arial,Arial_MSFontService,sans-serif" font-style="normal" font-variant="normal" font-weight="400" font-stretch="normal" font-size="83" text-anchor="start" direction="ltr" writing-mode="lr-tb" unicode-bidi="normal" text-decoration="none" transform="matrix(1 0 0 1 2206.01 876)">report.dcm</text><text fill="#344A9A" fill-opacity="1" font-family="Arial,Arial_MSFontService,sans-serif" font-style="normal" font-variant="normal" font-weight="400" font-stretch="normal" font-size="64" text-anchor="start" direction="ltr" writing-mode="lr-tb" unicode-bidi="normal" text-decoration="none" transform="matrix(0.933786 -0.357832 0.357832 0.933786 2971.38 681)">(0010,0010)</text><rect x="3435" y="1451" width="635" height="134" fill="#344A9A" fill-opacity="1"/><text fill="#FFFFFF" fill-opacity="1" font-family="Arial,Arial_MSFontService,sans-serif" font-style="normal" font-variant="normal" font-weight="400" font-stretch="normal" font-size="83" text-anchor="start" direction="ltr" writing-mode="lr-tb" unicode-bidi="normal" text-decoration="none" transform="matrix(1 0 0 1 3473.41 1548)">Patient’s Name</text><rect x="3755" y="328" width="554" height="133" fill="#344A9A" fill-opacity="1"/><text fill="#FFFFFF" fill-opacity="1" font-family="Arial,Arial_MSFontService,sans-serif" font-style="normal" font-variant="normal" font-weight="400" font-stretch="normal" font-size="83" text-anchor="start" direction="ltr" writing-mode="lr-tb" unicode-bidi="normal" text-decoration="none" transform="matrix(1 0 0 1 3790.39 424)">“DOE^JANE”</text><text fill="#344A9A" fill-opacity="1" font-family="Arial,Arial_MSFontService,sans-serif" font-style="normal" font-variant="normal" font-weight="400" font-stretch="normal" font-size="64" text-anchor="start" direction="ltr" writing-mode="lr-tb" unicode-bidi="normal" text-decoration="none" transform="matrix(0.99098 -0.134012 0.134012 0.99098 2972.2 777)">(0010,1010)</text><rect x="3435" y="1673" width="635" height="133" fill="#344A9A" fill-opacity="1"/><text fill="#FFFFFF" fill-opacity="1" font-family="Arial,Arial_MSFontService,sans-serif" font-style="normal" font-variant="normal" font-weight="400" font-stretch="normal" font-size="83" text-anchor="start" direction="ltr" writing-mode="lr-tb" unicode-bidi="normal" text-decoration="none" transform="matrix(1 0 0 1 3512.36 1770)">Patient’s Age</text><rect x="3435" y="1902" width="635" height="133" fill="#344A9A" fill-opacity="1"/><text fill="#FFFFFF" fill-opacity="1" font-family="Arial,Arial_MSFontService,sans-serif" font-style="normal" font-variant="normal" font-weight="400" font-stretch="normal" font-size="83" text-anchor="start" direction="ltr" writing-mode="lr-tb" unicode-bidi="normal" text-decoration="none" transform="matrix(1 0 0 1 3503.21 1999)">Patient’s Size</text><rect x="3755" y="609" width="315" height="133" fill="#344A9A" fill-opacity="1"/><text fill="#FFFFFF" fill-opacity="1" font-family="Arial,Arial_MSFontService,sans-serif" font-style="normal" font-variant="normal" font-weight="400" font-stretch="normal" font-size="83" text-anchor="start" direction="ltr" writing-mode="lr-tb" unicode-bidi="normal" text-decoration="none" transform="matrix(1 0 0 1 3788.71 706)">“042Y”</text><text fill="#344A9A" fill-opacity="1" font-family="Arial,Arial_MSFontService,sans-serif" font-style="normal" font-variant="normal" font-weight="400" font-stretch="normal" font-size="64" text-anchor="start" direction="ltr" writing-mode="lr-tb" unicode-bidi="normal" text-decoration="none" transform="matrix(0.994748 0.102349 -0.102349 0.994748 2966.18 866)">(0010,1020)</text><path d="M2.57724-6.37365 1086.43 431.891 1081.28 444.638-2.57724 6.37365ZM1085.21 416.566 1115.72 451.151 1069.75 454.808Z" fill="#344A9A" fill-rule="nonzero" fill-opacity="1" transform="matrix(1 0 0 -1 2640 846.151)"/><path d="M1.03539-6.79659 1082.78 157.995 1080.71 171.588-1.03539 6.79659ZM1078.05 143.366 1115.72 169.968 1071.84 184.146Z" fill="#344A9A" fill-rule="nonzero" fill-opacity="1" transform="matrix(1 0 0 -1 2640 845.969)"/><rect x="3755" y="890" width="234" height="134" fill="#344A9A" fill-opacity="1"/><text fill="#FFFFFF" fill-opacity="1" font-family="Arial,Arial_MSFontService,sans-serif" font-style="normal" font-variant="normal" font-weight="400" font-stretch="normal" font-size="83" text-anchor="start" direction="ltr" writing-mode="lr-tb" unicode-bidi="normal" text-decoration="none" transform="matrix(1 0 0 1 3792.12 987)">1.62</text><path d="M2640.68 839.159 3722.2 946.963 3720.84 960.646 2639.32 852.841ZM3716.72 932.599 3755.72 957.214 3712.63 973.646Z" fill="#344A9A" fill-rule="nonzero" fill-opacity="1"/><rect x="2039" y="1451" width="521" height="134" fill="#344A9A" fill-opacity="1"/><text fill="#FFFFFF" fill-opacity="1" font-family="Arial,Arial_MSFontService,sans-serif" font-style="normal" font-variant="normal" font-weight="400" font-stretch="normal" font-size="83" text-anchor="start" direction="ltr" writing-mode="lr-tb" unicode-bidi="normal" text-decoration="none" transform="matrix(1 0 0 1 2077.02 1548)">(0010,0010)</text><rect x="2042" y="1678" width="514" height="133" fill="#344A9A" fill-opacity="1"/><text fill="#FFFFFF" fill-opacity="1" font-family="Arial,Arial_MSFontService,sans-serif" font-style="normal" font-variant="normal" font-weight="400" font-stretch="normal" font-size="83" text-anchor="start" direction="ltr" writing-mode="lr-tb" unicode-bidi="normal" text-decoration="none" transform="matrix(1 0 0 1 2077.02 1775)">(0010,1010)</text><rect x="2039" y="1902" width="515" height="133" fill="#344A9A" fill-opacity="1"/><text fill="#FFFFFF" fill-opacity="1" font-family="Arial,Arial_MSFontService,sans-serif" font-style="normal" font-variant="normal" font-weight="400" font-stretch="normal" font-size="83" text-anchor="start" direction="ltr" writing-mode="lr-tb" unicode-bidi="normal" text-decoration="none" transform="matrix(1 0 0 1 2074.28 1999)">(0010,1020)</text><path d="M2560 1511.12 3400.79 1511.13 3400.79 1524.88 2560 1524.88ZM3393.91 1497.38 3435.16 1518 3393.91 1538.63Z" fill="#344A9A" fill-rule="nonzero" fill-opacity="1"/><path d="M2556.04 1738.12 3400.42 1743.07 3400.34 1756.82 2555.96 1751.87ZM3393.62 1729.28 3434.75 1750.14 3393.38 1770.53Z" fill="#344A9A" fill-rule="nonzero" fill-opacity="1"/><path d="M2554 1962.12 3400.27 1962.13 3400.27 1975.88 2554 1975.88ZM3393.39 1948.38 3434.64 1969 3393.39 1989.63Z" fill="#344A9A" fill-rule="nonzero" fill-opacity="1"/><text fill="#344A9A" fill-opacity="1" font-family="Arial,Arial_MSFontService,sans-serif" font-style="normal" font-variant="normal" font-weight="400" font-stretch="normal" font-size="64" text-anchor="start" direction="ltr" writing-mode="lr-tb" unicode-bidi="normal" text-decoration="none" transform="matrix(1 0 0 1 2867.63 1493)">rdfs:label</text><text fill="#344A9A" fill-opacity="1" font-family="Arial,Arial_MSFontService,sans-serif" font-style="normal" font-variant="normal" font-weight="400" font-stretch="normal" font-size="64" text-anchor="start" direction="ltr" writing-mode="lr-tb" unicode-bidi="normal" text-decoration="none" transform="matrix(1 0 0 1 2864.89 1722)">rdfs:label</text><text fill="#344A9A" fill-opacity="1" font-family="Arial,Arial_MSFontService,sans-serif" font-style="normal" font-variant="normal" font-weight="400" font-stretch="normal" font-size="64" text-anchor="start" direction="ltr" writing-mode="lr-tb" unicode-bidi="normal" text-decoration="none" transform="matrix(1 0 0 1 2867.63 1948)">rdfs:label</text><rect x="3758" y="1171" width="234" height="133" fill="#344A9A" fill-opacity="1"/><text fill="#FFFFFF" fill-opacity="1" font-family="Arial,Arial_MSFontService,sans-serif" font-style="normal" font-variant="normal" font-weight="400" font-stretch="normal" font-size="83" text-anchor="start" direction="ltr" writing-mode="lr-tb" unicode-bidi="normal" text-decoration="none" transform="matrix(1 0 0 1 3851.83 1267)">?</text><path d="M2642.27 839.512 3727.97 1219.88 3723.43 1232.86 2637.73 852.488ZM3726.03 1204.63 3758.14 1237.74 3712.39 1243.56Z" fill="#344A9A" fill-rule="nonzero" fill-opacity="1"/><text fill="#344A9A" fill-opacity="1" font-family="Arial,Arial_MSFontService,sans-serif" font-style="normal" font-variant="normal" font-weight="400" font-stretch="normal" font-size="64" text-anchor="start" direction="ltr" writing-mode="lr-tb" unicode-bidi="normal" text-decoration="none" transform="matrix(0.942541 0.33409 -0.33409 0.942541 2951.49 937)">(0040,A730)…?</text></g></g></svg>