<svg width="4231" height="2200" xmlns="http://www.w3.org/2000/svg" xmlns:xlink="http://www.w3.org/1999/xlink" xml:space="preserve" overflow="hidden"><g transform="translate(-22 -64)"><g><rect x="35.0001" y="527" width="773" height="123" fill="#344A9A" fill-opacity="1"/><text fill="#FFFFFF" fill-opacity="1" font-family="Arial,Arial_MSFontService,sans-serif" font-style="normal" font-variant="normal" font-weight="400" font-stretch="normal" font-size="73" text-anchor="start" direction="ltr" writing-mode="lr-tb" unicode-bidi="normal" text-decoration="none" transform="matrix(1 0 0 1 67.5349 615)">d2r:dose</text><text fill="#FFFFFF" fill-opacity="1" font-family="Arial,Arial_MSFontService,sans-serif" font-style="normal" font-variant="normal" font-weight="400" font-stretch="normal" font-size="73" text-anchor="start" direction="ltr" writing-mode="lr-tb" unicode-bidi="normal" text-decoration="none" transform="matrix(1 0 0 1 352.847 615)">-</text><text fill="#FFFFFF" fill-opacity="1" font-family="Arial,Arial_MSFontService,sans-serif" font-style="normal" font-variant="normal" font-weight="400" font-stretch="normal" font-size="73" text-anchor="start" direction="ltr" writing-mode="lr-tb" unicode-bidi="normal" text-decoration="none" transform="matrix(1 0 0 1 377.483 615)">report.dcm</text><text fill="#344A9A" fill-opacity="1" font-family="Arial,Arial_MSFontService,sans-serif" font-style="normal" font-variant="normal" font-weight="400" font-stretch="normal" font-size="64" text-anchor="start" direction="ltr" writing-mode="lr-tb" unicode-bidi="normal" text-decoration="none" transform="matrix(0.933786 -0.357832 0.357832 0.933786 1115.94 438)">d2r:00100010</text><rect x="1923" y="76" width="554" height="134" fill="#344A9A" fill-opacity="1"/><text fill="#FFFFFF" fill-opacity="1" font-family="Arial,Arial_MSFontService,sans-serif" font-style="normal" font-variant="normal" font-weight="400" font-stretch="normal" font-size="83" text-anchor="start" direction="ltr" writing-mode="lr-tb" unicode-bidi="normal" text-decoration="none" transform="matrix(1 0 0 1 1958.23 173)">“DOE^JANE”</text><text fill="#344A9A" fill-opacity="1" font-family="Arial,Arial_MSFontService,sans-serif" font-style="normal" font-variant="normal" font-weight="400" font-stretch="normal" font-size="64" text-anchor="start" direction="ltr" writing-mode="lr-tb" unicode-bidi="normal" text-decoration="none" transform="matrix(0.99098 -0.134012 0.134012 0.99098 1115.34 528)">d2r:00101010</text><rect x="1923" y="358" width="314" height="133" fill="#344A9A" fill-opacity="1"/><text fill="#FFFFFF" fill-opacity="1" font-family="Arial,Arial_MSFontService,sans-serif" font-style="normal" font-variant="normal" font-weight="400" font-stretch="normal" font-size="83" text-anchor="start" direction="ltr" writing-mode="lr-tb" unicode-bidi="normal" text-decoration="none" transform="matrix(1 0 0 1 1956.55 454)">“042Y”</text><text fill="#344A9A" fill-opacity="1" font-family="Arial,Arial_MSFontService,sans-serif" font-style="normal" font-variant="normal" font-weight="400" font-stretch="normal" font-size="64" text-anchor="start" direction="ltr" writing-mode="lr-tb" unicode-bidi="normal" text-decoration="none" transform="matrix(0.994748 0.102349 -0.102349 0.994748 1109.22 612)">d2r:00101020</text><text fill="#344A9A" fill-opacity="1" font-family="Arial,Arial_MSFontService,sans-serif" font-style="normal" font-variant="normal" font-weight="400" font-stretch="normal" font-size="64" text-anchor="start" direction="ltr" writing-mode="lr-tb" unicode-bidi="normal" text-decoration="none" transform="matrix(0.938351 0.345684 -0.345684 0.938351 1095.4 680)">d2r:0040A730</text><path d="M2.5499-6.38464 1086.35 426.463 1081.25 439.232-2.5499 6.38464ZM1085.06 411.144 1115.72 445.597 1069.77 449.452Z" fill="#344A9A" fill-rule="nonzero" fill-opacity="1" transform="matrix(1 0 0 -1 808 588.597)"/><path d="M1.00229-6.80155 1082.72 152.602 1080.71 166.205-1.00229 6.80155ZM1077.92 137.996 1115.72 164.415 1071.91 178.806Z" fill="#344A9A" fill-rule="nonzero" fill-opacity="1" transform="matrix(1 0 0 -1 808 588.414)"/><rect x="1923" y="639" width="836" height="133" fill="#344A9A" fill-opacity="1"/><text fill="#FFFFFF" fill-opacity="1" font-family="Arial,Arial_MSFontService,sans-serif" font-style="normal" font-variant="normal" font-weight="400" font-stretch="normal" font-size="83" text-anchor="start" direction="ltr" writing-mode="lr-tb" unicode-bidi="normal" text-decoration="none" transform="matrix(1 0 0 1 1976.72 735)">“1.62”^^</text><text fill="#FFFFFF" fill-opacity="1" font-family="Arial,Arial_MSFontService,sans-serif" font-style="normal" font-variant="normal" font-weight="400" font-stretch="normal" font-size="83" text-anchor="start" direction="ltr" writing-mode="lr-tb" unicode-bidi="normal" text-decoration="none" transform="matrix(1 0 0 1 2270.05 735)">xsd:decimal</text><path d="M808.716 582.162 1890.25 695.352 1888.82 709.027 807.285 595.837ZM1884.84 680.961 1923.72 705.768 1880.55 721.987Z" fill="#344A9A" fill-rule="nonzero" fill-opacity="1"/><rect x="1923" y="920" width="836" height="133" fill="#344A9A" fill-opacity="1"/><text fill="#FFFFFF" fill-opacity="1" font-family="Arial,Arial_MSFontService,sans-serif" font-style="normal" font-variant="normal" font-weight="400" font-stretch="normal" font-size="83" text-anchor="start" direction="ltr" writing-mode="lr-tb" unicode-bidi="normal" text-decoration="none" transform="matrix(1 0 0 1 2237.97 1016)">_:bn1</text><path d="M810.31 582.524 1893.66 968.927 1889.04 981.878 805.691 595.475ZM1891.8 953.666 1923.72 986.95 1877.94 992.519Z" fill="#344A9A" fill-rule="nonzero" fill-opacity="1"/><rect x="3417" y="920" width="836" height="133" fill="#344A9A" fill-opacity="1"/><text fill="#FFFFFF" fill-opacity="1" font-family="Arial,Arial_MSFontService,sans-serif" font-style="normal" font-variant="normal" font-weight="400" font-stretch="normal" font-size="83" text-anchor="start" direction="ltr" writing-mode="lr-tb" unicode-bidi="normal" text-decoration="none" transform="matrix(1 0 0 1 3731.78 1016)">_:bn2</text><path d="M2759 980.125 3382.72 980.125 3382.72 993.875 2759 993.875ZM3375.85 966.375 3417.1 987 3375.85 1007.63Z" fill="#344A9A" fill-rule="nonzero" fill-opacity="1"/><text fill="#344A9A" fill-opacity="1" font-family="Arial,Arial_MSFontService,sans-serif" font-style="normal" font-variant="normal" font-weight="400" font-stretch="normal" font-size="64" text-anchor="start" direction="ltr" writing-mode="lr-tb" unicode-bidi="normal" text-decoration="none" transform="matrix(1 0 0 1 2972.56 975)">d2r:item</text><rect x="3417" y="635" width="836" height="133" fill="#344A9A" fill-opacity="1"/><text fill="#FFFFFF" fill-opacity="1" font-family="Arial,Arial_MSFontService,sans-serif" font-style="normal" font-variant="normal" font-weight="400" font-stretch="normal" font-size="83" text-anchor="start" direction="ltr" writing-mode="lr-tb" unicode-bidi="normal" text-decoration="none" transform="matrix(1 0 0 1 3543.86 731)">“1”^^</text><text fill="#FFFFFF" fill-opacity="1" font-family="Arial,Arial_MSFontService,sans-serif" font-style="normal" font-variant="normal" font-weight="400" font-stretch="normal" font-size="83" text-anchor="start" direction="ltr" writing-mode="lr-tb" unicode-bidi="normal" text-decoration="none" transform="matrix(1 0 0 1 3722.61 731)">xsd:integer</text><path d="M2.73441-6.30782 629.29 265.301 623.821 277.917-2.73441 6.30782ZM628.451 249.952 658.095 285.281 612.045 287.798Z" fill="#344A9A" fill-rule="nonzero" fill-opacity="1" transform="matrix(1 0 0 -1 2759 986.281)"/><text fill="#344A9A" fill-opacity="1" font-family="Arial,Arial_MSFontService,sans-serif" font-style="normal" font-variant="normal" font-weight="400" font-stretch="normal" font-size="64" text-anchor="start" direction="ltr" writing-mode="lr-tb" unicode-bidi="normal" text-decoration="none" transform="matrix(0.911721 -0.41081 0.41081 0.911721 2964.2 874)">d2r:index</text><rect x="1923" y="2098" width="836" height="134" fill="#344A9A" fill-opacity="1"/><text fill="#FFFFFF" fill-opacity="1" font-family="Arial,Arial_MSFontService,sans-serif" font-style="normal" font-variant="normal" font-weight="400" font-stretch="normal" font-size="83" text-anchor="start" direction="ltr" writing-mode="lr-tb" unicode-bidi="normal" text-decoration="none" transform="matrix(1 0 0 1 2178.39 2195)">_:bn2n</text><text fill="#FFFFFF" fill-opacity="1" font-family="Arial,Arial_MSFontService,sans-serif" font-style="normal" font-variant="normal" font-weight="400" font-stretch="normal" font-size="83" text-anchor="start" direction="ltr" writing-mode="lr-tb" unicode-bidi="normal" text-decoration="none" transform="matrix(1 0 0 1 2430.47 2195)">-</text><text fill="#FFFFFF" fill-opacity="1" font-family="Arial,Arial_MSFontService,sans-serif" font-style="normal" font-variant="normal" font-weight="400" font-stretch="normal" font-size="83" text-anchor="start" direction="ltr" writing-mode="lr-tb" unicode-bidi="normal" text-decoration="none" transform="matrix(1 0 0 1 2457.97 2195)">1</text><path d="M811.589 583.136 823.317 590.312 816.14 602.041 804.412 594.864ZM835.046 597.489 846.774 604.665 839.598 616.394 827.869 609.217ZM858.503 611.842 870.231 619.019 863.055 630.747 851.326 623.571ZM881.96 626.195 893.688 633.372 886.512 645.1 874.783 637.924ZM905.417 640.548 917.145 647.725 909.969 659.454 898.24 652.277ZM928.874 654.902 940.602 662.078 933.426 673.807 921.697 666.63ZM952.331 669.255 964.06 676.431 956.883 688.16 945.154 680.983ZM975.788 683.608 987.517 690.785 980.34 702.513 968.611 695.337ZM999.245 697.961 1010.97 705.138 1003.8 716.867 992.069 709.69ZM1022.7 712.315 1034.43 719.491 1027.25 731.22 1015.53 724.043ZM1046.16 726.668 1057.89 733.844 1050.71 745.573 1038.98 738.396ZM1069.62 741.021 1081.34 748.198 1074.17 759.926 1062.44 752.75ZM1093.07 755.374 1104.8 762.551 1097.63 774.279 1085.9 767.103ZM1116.53 769.727 1128.26 776.904 1121.08 788.633 1109.35 781.456ZM1139.99 784.081 1151.72 791.257 1144.54 802.986 1132.81 795.809ZM1163.44 798.434 1175.17 805.611 1168 817.339 1156.27 810.162ZM1186.9 812.787 1198.63 819.964 1191.45 831.692 1179.73 824.516ZM1210.36 827.14 1222.09 834.317 1214.91 846.046 1203.18 838.869ZM1233.82 841.494 1245.54 848.67 1238.37 860.399 1226.64 853.222ZM1257.27 855.847 1269 863.023 1261.83 874.752 1250.1 867.575ZM1280.73 870.2 1292.46 877.377 1285.28 889.105 1273.55 881.929ZM1304.19 884.553 1315.92 891.73 1308.74 903.458 1297.01 896.282ZM1327.64 898.907 1339.37 906.083 1332.2 917.812 1320.47 910.635ZM1351.1 913.26 1362.83 920.436 1355.65 932.165 1343.93 924.988ZM1374.56 927.613 1386.29 934.79 1379.11 946.518 1367.38 939.342ZM1398.02 941.966 1409.74 949.143 1402.57 960.871 1390.84 953.695ZM1421.47 956.32 1433.2 963.496 1426.02 975.225 1414.3 968.048ZM1444.93 970.673 1456.66 977.849 1449.48 989.578 1437.75 982.401ZM1468.39 985.026 1480.12 992.203 1472.94 1003.93 1461.21 996.755ZM1491.84 999.379 1503.57 1006.56 1496.4 1018.28 1484.67 1011.11ZM1515.3 1013.73 1527.03 1020.91 1519.85 1032.64 1508.12 1025.46ZM1538.76 1028.09 1550.49 1035.26 1543.31 1046.99 1531.58 1039.81ZM1562.22 1042.44 1573.94 1049.62 1566.77 1061.34 1555.04 1054.17ZM1585.67 1056.79 1597.4 1063.97 1590.22 1075.7 1578.5 1068.52ZM1609.13 1071.15 1620.86 1078.32 1613.68 1090.05 1601.95 1082.87ZM1632.59 1085.5 1644.32 1092.68 1637.14 1104.4 1625.41 1097.23ZM1656.04 1099.85 1667.77 1107.03 1660.6 1118.76 1648.87 1111.58ZM1679.5 1114.21 1691.23 1121.38 1684.05 1133.11 1672.32 1125.93ZM1702.96 1128.56 1714.69 1135.73 1707.51 1147.46 1695.78 1140.29ZM1726.42 1142.91 1738.14 1150.09 1730.97 1161.82 1719.24 1154.64ZM1749.87 1157.26 1761.6 1164.44 1754.42 1176.17 1742.7 1168.99ZM1773.33 1171.62 1785.06 1178.79 1777.88 1190.52 1766.15 1183.35ZM1796.79 1185.97 1808.52 1193.15 1801.34 1204.88 1789.61 1197.7ZM1820.24 1200.32 1831.97 1207.5 1824.8 1219.23 1813.07 1212.05ZM1843.7 1214.68 1855.43 1221.85 1848.25 1233.58 1836.52 1226.41ZM1867.16 1229.03 1878.89 1236.21 1871.71 1247.94 1859.98 1240.76ZM1883.88 1223.15 1908.3 1262.27 1862.35 1258.33Z" fill="#344A9A" fill-rule="nonzero" fill-opacity="1"/><path d="M812.493 583.796 822.9 592.783 813.914 603.19 803.507 594.203ZM833.307 601.77 843.714 610.756 834.728 621.163 824.321 612.176ZM854.121 619.743 864.528 628.729 855.541 639.136 845.135 630.15ZM874.935 637.716 885.342 646.702 876.355 657.109 865.948 648.123ZM895.749 655.689 906.156 664.676 897.169 675.083 886.762 666.096ZM916.563 673.662 926.969 682.649 917.983 693.056 907.576 684.069ZM937.376 691.635 947.783 700.622 938.797 711.029 928.39 702.042ZM958.19 709.609 968.597 718.595 959.61 729.002 949.204 720.016ZM979.004 727.582 989.411 736.568 980.424 746.975 970.017 737.989ZM999.818 745.555 1010.22 754.542 1001.24 764.948 990.831 755.962ZM1020.63 763.528 1031.04 772.515 1022.05 782.922 1011.65 773.935ZM1041.45 781.501 1051.85 790.488 1042.87 800.895 1032.46 791.908ZM1062.26 799.474 1072.67 808.461 1063.68 818.868 1053.27 809.881ZM1083.07 817.448 1093.48 826.434 1084.49 836.841 1074.09 827.855ZM1103.89 835.421 1114.29 844.407 1105.31 854.814 1094.9 845.828ZM1124.7 853.394 1135.11 862.381 1126.12 872.787 1115.71 863.801ZM1145.51 871.367 1155.92 880.354 1146.93 890.761 1136.53 881.774ZM1166.33 889.34 1176.74 898.327 1167.75 908.734 1157.34 899.747ZM1187.14 907.313 1197.55 916.3 1188.56 926.707 1178.16 917.72ZM1207.96 925.287 1218.36 934.273 1209.38 944.68 1198.97 935.694ZM1228.77 943.26 1239.18 952.246 1230.19 962.653 1219.78 953.667ZM1249.58 961.233 1259.99 970.22 1251 980.626 1240.6 971.64ZM1270.4 979.206 1280.8 988.193 1271.82 998.6 1261.41 989.613ZM1291.21 997.179 1301.62 1006.17 1292.63 1016.57 1282.22 1007.59ZM1312.03 1015.15 1322.43 1024.14 1313.45 1034.55 1303.04 1025.56ZM1332.84 1033.13 1343.25 1042.11 1334.26 1052.52 1323.85 1043.53ZM1353.65 1051.1 1364.06 1060.09 1355.07 1070.49 1344.67 1061.51ZM1374.47 1069.07 1384.87 1078.06 1375.89 1088.47 1365.48 1079.48ZM1395.28 1087.05 1405.69 1096.03 1396.7 1106.44 1386.29 1097.45ZM1416.09 1105.02 1426.5 1114 1417.51 1124.41 1407.11 1115.43ZM1436.91 1122.99 1447.32 1131.98 1438.33 1142.38 1427.92 1133.4ZM1457.72 1140.96 1468.13 1149.95 1459.14 1160.36 1448.74 1151.37ZM1478.54 1158.94 1488.94 1167.92 1479.96 1178.33 1469.55 1169.34ZM1499.35 1176.91 1509.76 1185.9 1500.77 1196.3 1490.36 1187.32ZM1520.16 1194.88 1530.57 1203.87 1521.58 1214.28 1511.18 1205.29ZM1540.98 1212.86 1551.38 1221.84 1542.4 1232.25 1531.99 1223.26ZM1561.79 1230.83 1572.2 1239.82 1563.21 1250.22 1552.8 1241.24ZM1582.6 1248.8 1593.01 1257.79 1584.03 1268.2 1573.62 1259.21ZM1603.42 1266.78 1613.83 1275.76 1604.84 1286.17 1594.43 1277.18ZM1624.23 1284.75 1634.64 1293.74 1625.65 1304.14 1615.25 1295.16ZM1645.05 1302.72 1655.45 1311.71 1646.47 1322.12 1636.06 1313.13ZM1665.86 1320.7 1676.27 1329.68 1667.28 1340.09 1656.87 1331.1ZM1686.67 1338.67 1697.08 1347.66 1688.09 1358.06 1677.69 1349.08ZM1707.49 1356.64 1717.89 1365.63 1708.91 1376.04 1698.5 1367.05ZM1728.3 1374.62 1738.71 1383.6 1729.72 1394.01 1719.31 1385.02ZM1749.11 1392.59 1759.52 1401.58 1750.54 1411.98 1740.13 1403ZM1769.93 1410.56 1780.34 1419.55 1771.35 1429.96 1760.94 1420.97ZM1790.74 1428.54 1801.15 1437.52 1792.16 1447.93 1781.76 1438.94ZM1811.56 1446.51 1821.96 1455.5 1812.98 1465.9 1802.57 1456.92ZM1832.37 1464.48 1842.78 1473.47 1833.79 1483.88 1823.38 1474.89ZM1853.18 1482.46 1863.59 1491.44 1854.6 1501.85 1844.2 1492.86ZM1874 1500.43 1884.4 1509.42 1875.42 1519.82 1865.01 1510.84ZM1890.56 1496.57 1908.3 1539.14 1863.6 1527.79Z" fill="#344A9A" fill-rule="nonzero" fill-opacity="1"/><path d="M813.123 584.415 822.293 594.66 812.047 603.83 802.877 593.585ZM831.463 604.906 840.633 615.152 830.388 624.322 821.218 614.076ZM849.803 625.397 858.973 635.643 848.728 644.813 839.558 634.567ZM868.143 645.888 877.314 656.134 867.068 665.304 857.898 655.058ZM886.484 666.379 895.654 676.625 885.408 685.795 876.238 675.55ZM904.824 686.871 913.994 697.116 903.748 706.286 894.578 696.041ZM923.164 707.362 932.334 717.607 922.089 726.777 912.918 716.532ZM941.504 727.853 950.674 738.099 940.429 747.269 931.259 737.023ZM959.844 748.344 969.014 758.59 958.769 767.76 949.599 757.514ZM978.185 768.835 987.355 779.081 977.109 788.251 967.939 778.005ZM996.525 789.327 1005.69 799.572 995.449 808.742 986.279 798.497ZM1014.86 809.818 1024.03 820.063 1013.79 829.233 1004.62 818.988ZM1033.21 830.309 1042.38 840.554 1032.13 849.724 1022.96 839.479ZM1051.55 850.8 1060.72 861.046 1050.47 870.216 1041.3 859.97ZM1069.89 871.291 1079.06 881.537 1068.81 890.707 1059.64 880.461ZM1088.23 891.782 1097.4 902.028 1087.15 911.198 1077.98 900.952ZM1106.57 912.273 1115.74 922.519 1105.49 931.689 1096.32 921.444ZM1124.91 932.765 1134.08 943.01 1123.83 952.18 1114.66 941.935ZM1143.25 953.256 1152.42 963.501 1142.17 972.671 1133 962.426ZM1161.59 973.747 1170.76 983.993 1160.51 993.163 1151.34 982.917ZM1179.93 994.238 1189.1 1004.48 1178.85 1013.65 1169.68 1003.41ZM1198.27 1014.73 1207.44 1024.97 1197.19 1034.15 1188.02 1023.9ZM1216.61 1035.22 1225.78 1045.47 1215.53 1054.64 1206.36 1044.39ZM1234.95 1055.71 1244.12 1065.96 1233.87 1075.13 1224.7 1064.88ZM1253.29 1076.2 1262.46 1086.45 1252.21 1095.62 1243.04 1085.37ZM1271.63 1096.69 1280.8 1106.94 1270.55 1116.11 1261.38 1105.86ZM1289.97 1117.19 1299.14 1127.43 1288.89 1136.6 1279.72 1126.36ZM1308.31 1137.68 1317.48 1147.92 1307.23 1157.09 1298.06 1146.85ZM1326.65 1158.17 1335.82 1168.41 1325.57 1177.58 1316.4 1167.34ZM1344.99 1178.66 1354.16 1188.9 1343.91 1198.07 1334.74 1187.83ZM1363.33 1199.15 1372.5 1209.4 1362.25 1218.57 1353.08 1208.32ZM1381.67 1219.64 1390.84 1229.89 1380.59 1239.06 1371.42 1228.81ZM1400.01 1240.13 1409.18 1250.38 1398.93 1259.55 1389.76 1249.3ZM1418.35 1260.62 1427.52 1270.87 1417.27 1280.04 1408.1 1269.79ZM1436.69 1281.11 1445.86 1291.36 1435.61 1300.53 1426.44 1290.29ZM1455.03 1301.61 1464.2 1311.85 1453.95 1321.02 1444.78 1310.78ZM1473.37 1322.1 1482.54 1332.34 1472.29 1341.51 1463.12 1331.27ZM1491.71 1342.59 1500.88 1352.83 1490.63 1362 1481.46 1351.76ZM1510.05 1363.08 1519.22 1373.33 1508.97 1382.5 1499.8 1372.25ZM1528.39 1383.57 1537.56 1393.82 1527.31 1402.99 1518.14 1392.74ZM1546.73 1404.06 1555.9 1414.31 1545.65 1423.48 1536.48 1413.23ZM1565.07 1424.55 1574.24 1434.8 1563.99 1443.97 1554.82 1433.72ZM1583.41 1445.04 1592.58 1455.29 1582.34 1464.46 1573.17 1454.21ZM1601.75 1465.54 1610.92 1475.78 1600.68 1484.95 1591.51 1474.71ZM1620.09 1486.03 1629.26 1496.27 1619.02 1505.44 1609.85 1495.2ZM1638.43 1506.52 1647.6 1516.76 1637.36 1525.93 1628.19 1515.69ZM1656.77 1527.01 1665.94 1537.25 1655.7 1546.42 1646.53 1536.18ZM1675.11 1547.5 1684.28 1557.75 1674.04 1566.92 1664.87 1556.67ZM1693.45 1567.99 1702.62 1578.24 1692.38 1587.41 1683.21 1577.16ZM1711.79 1588.48 1720.96 1598.73 1710.72 1607.9 1701.55 1597.65ZM1730.13 1608.97 1739.3 1619.22 1729.06 1628.39 1719.89 1618.14ZM1748.47 1629.46 1757.64 1639.71 1747.4 1648.88 1738.23 1638.63ZM1766.81 1649.96 1775.98 1660.2 1765.74 1669.37 1756.57 1659.13ZM1785.15 1670.45 1794.32 1680.69 1784.08 1689.86 1774.91 1679.62ZM1803.49 1690.94 1812.66 1701.18 1802.42 1710.35 1793.25 1700.11ZM1821.83 1711.43 1831 1721.67 1820.76 1730.84 1811.59 1720.6ZM1840.17 1731.92 1849.34 1742.17 1839.1 1751.34 1829.93 1741.09ZM1858.51 1752.41 1867.68 1762.66 1857.44 1771.83 1848.27 1761.58ZM1876.85 1772.9 1886.02 1783.15 1875.78 1792.32 1866.61 1782.07ZM1896.16 1773.86 1908.3 1818.35 1865.43 1801.37Z" fill="#344A9A" fill-rule="nonzero" fill-opacity="1"/><path d="M813.612 585.028 1909.48 2133.49 1898.25 2141.43 802.388 592.971ZM1916.73 2119.93 1923.72 2165.51 1883.06 2143.76Z" fill="#344A9A" fill-rule="nonzero" fill-opacity="1"/><rect x="3417" y="2097" width="836" height="133" fill="#344A9A" fill-opacity="1"/><text fill="#FFFFFF" fill-opacity="1" font-family="Arial,Arial_MSFontService,sans-serif" font-style="normal" font-variant="normal" font-weight="400" font-stretch="normal" font-size="83" text-anchor="start" direction="ltr" writing-mode="lr-tb" unicode-bidi="normal" text-decoration="none" transform="matrix(1 0 0 1 3708.86 2193)">_:bn2n</text><path d="M2759 2156.12 3382.72 2156.12 3382.72 2169.88 2759 2169.87ZM3375.85 2142.38 3417.1 2163 3375.85 2183.62Z" fill="#344A9A" fill-rule="nonzero" fill-opacity="1"/><text fill="#344A9A" fill-opacity="1" font-family="Arial,Arial_MSFontService,sans-serif" font-style="normal" font-variant="normal" font-weight="400" font-stretch="normal" font-size="64" text-anchor="start" direction="ltr" writing-mode="lr-tb" unicode-bidi="normal" text-decoration="none" transform="matrix(1 0 0 1 2972.56 2152)">d2r:item</text><rect x="3417" y="1812" width="836" height="133" fill="#344A9A" fill-opacity="1"/><text fill="#FFFFFF" fill-opacity="1" font-family="Arial,Arial_MSFontService,sans-serif" font-style="normal" font-variant="normal" font-weight="400" font-stretch="normal" font-size="83" text-anchor="start" direction="ltr" writing-mode="lr-tb" unicode-bidi="normal" text-decoration="none" transform="matrix(1 0 0 1 3543.86 1908)">“n”^^</text><text fill="#FFFFFF" fill-opacity="1" font-family="Arial,Arial_MSFontService,sans-serif" font-style="normal" font-variant="normal" font-weight="400" font-stretch="normal" font-size="83" text-anchor="start" direction="ltr" writing-mode="lr-tb" unicode-bidi="normal" text-decoration="none" transform="matrix(1 0 0 1 3722.61 1908)">xsd:integer</text><path d="M2.73441-6.30782 629.29 265.301 623.821 277.917-2.73441 6.30782ZM628.451 249.952 658.095 285.281 612.045 287.798Z" fill="#344A9A" fill-rule="nonzero" fill-opacity="1" transform="matrix(1 0 0 -1 2759 2163.28)"/><text fill="#344A9A" fill-opacity="1" font-family="Arial,Arial_MSFontService,sans-serif" font-style="normal" font-variant="normal" font-weight="400" font-stretch="normal" font-size="64" text-anchor="start" direction="ltr" writing-mode="lr-tb" unicode-bidi="normal" text-decoration="none" transform="matrix(0.911721 -0.41081 0.41081 0.911721 2964.2 2051)">d2r:index</text><text fill="#344A9A" fill-opacity="1" font-family="Arial,Arial_MSFontService,sans-serif" font-style="normal" font-variant="normal" font-weight="400" font-stretch="normal" font-size="83" text-anchor="start" direction="ltr" writing-mode="lr-tb" unicode-bidi="normal" text-decoration="none" transform="matrix(1 0 0 1 2912.35 1597)">(n times)</text><path d="M2759 1028C2792.97 1028 2820.5 1085.94 2820.5 1157.41L2820.5 1444.09C2820.5 1515.56 2848.03 1573.5 2882 1573.5 2848.03 1573.5 2820.5 1631.44 2820.5 1702.91L2820.5 1989.59C2820.5 2061.06 2792.97 2119 2759 2119" stroke="#344A9A" stroke-width="13.75" stroke-linecap="butt" stroke-linejoin="miter" stroke-miterlimit="8" stroke-opacity="1" fill="none" fill-rule="evenodd"/><text fill="#344A9A" fill-opacity="1" font-family="Arial,Arial_MSFontService,sans-serif" font-style="normal" font-variant="normal" font-weight="400" font-stretch="normal" font-size="64" text-anchor="start" direction="ltr" writing-mode="lr-tb" unicode-bidi="normal" text-decoration="none" transform="matrix(0.569225 0.822181 -0.822181 0.569225 1267.31 1200)">d2r:0040A730</text></g></g></svg>