<svg width="2190" height="2191" xmlns="http://www.w3.org/2000/svg" xmlns:xlink="http://www.w3.org/1999/xlink" xml:space="preserve" overflow="hidden"><g transform="translate(-2145 -68)"><g><rect x="2490" y="76" width="529" height="85.9999" fill="#344A9A" fill-opacity="1"/><text fill="#FFFFFF" fill-opacity="1" font-family="Arial,Arial_MSFontService,sans-serif" font-style="normal" font-variant="normal" font-weight="400" font-stretch="normal" font-size="55" text-anchor="start" direction="ltr" writing-mode="lr-tb" unicode-bidi="normal" text-decoration="none" transform="matrix(1 0 0 1 2554.86 139)">dose</text><text fill="#FFFFFF" fill-opacity="1" font-family="Arial,Arial_MSFontService,sans-serif" font-style="normal" font-variant="normal" font-weight="400" font-stretch="normal" font-size="55" text-anchor="start" direction="ltr" writing-mode="lr-tb" unicode-bidi="normal" text-decoration="none" transform="matrix(1 0 0 1 2673.46 139)">-</text><text fill="#FFFFFF" fill-opacity="1" font-family="Arial,Arial_MSFontService,sans-serif" font-style="normal" font-variant="normal" font-weight="400" font-stretch="normal" font-size="55" text-anchor="start" direction="ltr" writing-mode="lr-tb" unicode-bidi="normal" text-decoration="none" transform="matrix(1 0 0 1 2691.79 139)">report.dcm</text><rect x="2490" y="279" width="529" height="142" fill="#344A9A" fill-opacity="1"/><text fill="#FFFFFF" fill-opacity="1" font-family="Arial,Arial_MSFontService,sans-serif" font-style="normal" font-variant="normal" font-weight="400" font-stretch="normal" font-size="55" text-anchor="start" direction="ltr" writing-mode="lr-tb" unicode-bidi="normal" text-decoration="none" transform="matrix(1 0 0 1 2561.17 337)">CT </text><text fill="#FFFFFF" fill-opacity="1" font-family="Arial,Arial_MSFontService,sans-serif" font-style="normal" font-variant="normal" font-weight="400" font-stretch="normal" font-size="55" text-anchor="start" direction="ltr" writing-mode="lr-tb" unicode-bidi="normal" text-decoration="none" transform="matrix(1 0 0 1 2645.96 337)">Acq</text><text fill="#FFFFFF" fill-opacity="1" font-family="Arial,Arial_MSFontService,sans-serif" font-style="normal" font-variant="normal" font-weight="400" font-stretch="normal" font-size="55" text-anchor="start" direction="ltr" writing-mode="lr-tb" unicode-bidi="normal" text-decoration="none" transform="matrix(1 0 0 1 2755.96 337)">Content </text><text fill="#FFFFFF" fill-opacity="1" font-family="Arial,Arial_MSFontService,sans-serif" font-style="normal" font-variant="normal" font-weight="400" font-stretch="normal" font-size="55" text-anchor="start" direction="ltr" writing-mode="lr-tb" unicode-bidi="normal" text-decoration="none" transform="matrix(1 0 0 1 2631.34 403)">Sequence</text><rect x="2490" y="540" width="529" height="85.9999" fill="#344A9A" fill-opacity="1"/><text fill="#FFFFFF" fill-opacity="1" font-family="Arial,Arial_MSFontService,sans-serif" font-style="normal" font-variant="normal" font-weight="400" font-stretch="normal" font-size="55" text-anchor="start" direction="ltr" writing-mode="lr-tb" unicode-bidi="normal" text-decoration="none" transform="matrix(1 0 0 1 2603.56 603)">CT </text><text fill="#FFFFFF" fill-opacity="1" font-family="Arial,Arial_MSFontService,sans-serif" font-style="normal" font-variant="normal" font-weight="400" font-stretch="normal" font-size="55" text-anchor="start" direction="ltr" writing-mode="lr-tb" unicode-bidi="normal" text-decoration="none" transform="matrix(1 0 0 1 2688.35 603)">Acq</text><text fill="#FFFFFF" fill-opacity="1" font-family="Arial,Arial_MSFontService,sans-serif" font-style="normal" font-variant="normal" font-weight="400" font-stretch="normal" font-size="55" text-anchor="start" direction="ltr" writing-mode="lr-tb" unicode-bidi="normal" text-decoration="none" transform="matrix(1 0 0 1 2798.35 603)">Item</text><rect x="2490" y="745" width="529" height="143" fill="#344A9A" fill-opacity="1"/><text fill="#FFFFFF" fill-opacity="1" font-family="Arial,Arial_MSFontService,sans-serif" font-style="normal" font-variant="normal" font-weight="400" font-stretch="normal" font-size="55" text-anchor="start" direction="ltr" writing-mode="lr-tb" unicode-bidi="normal" text-decoration="none" transform="matrix(1 0 0 1 2543.04 803)">CT Dose Content </text><text fill="#FFFFFF" fill-opacity="1" font-family="Arial,Arial_MSFontService,sans-serif" font-style="normal" font-variant="normal" font-weight="400" font-stretch="normal" font-size="55" text-anchor="start" direction="ltr" writing-mode="lr-tb" unicode-bidi="normal" text-decoration="none" transform="matrix(1 0 0 1 2631.34 869)">Sequence</text><rect x="2490" y="1008" width="529" height="85.0002" fill="#344A9A" fill-opacity="1"/><text fill="#FFFFFF" fill-opacity="1" font-family="Arial,Arial_MSFontService,sans-serif" font-style="normal" font-variant="normal" font-weight="400" font-stretch="normal" font-size="55" text-anchor="start" direction="ltr" writing-mode="lr-tb" unicode-bidi="normal" text-decoration="none" transform="matrix(1 0 0 1 2585.43 1071)">CT Dose Item</text><rect x="2490" y="1212" width="529" height="143" fill="#344A9A" fill-opacity="1"/><text fill="#FFFFFF" fill-opacity="1" font-family="Arial,Arial_MSFontService,sans-serif" font-style="normal" font-variant="normal" font-weight="400" font-stretch="normal" font-size="55" text-anchor="start" direction="ltr" writing-mode="lr-tb" unicode-bidi="normal" text-decoration="none" transform="matrix(1 0 0 1 2551.71 1270)">CTDIvol</text><text fill="#FFFFFF" fill-opacity="1" font-family="Arial,Arial_MSFontService,sans-serif" font-style="normal" font-variant="normal" font-weight="400" font-stretch="normal" font-size="55" text-anchor="start" direction="ltr" writing-mode="lr-tb" unicode-bidi="normal" text-decoration="none" transform="matrix(1 0 0 1 2765.41 1270)">Content </text><text fill="#FFFFFF" fill-opacity="1" font-family="Arial,Arial_MSFontService,sans-serif" font-style="normal" font-variant="normal" font-weight="400" font-stretch="normal" font-size="55" text-anchor="start" direction="ltr" writing-mode="lr-tb" unicode-bidi="normal" text-decoration="none" transform="matrix(1 0 0 1 2631.35 1336)">Sequence</text><rect x="2490" y="1473" width="529" height="85.9999" fill="#344A9A" fill-opacity="1"/><text fill="#FFFFFF" fill-opacity="1" font-family="Arial,Arial_MSFontService,sans-serif" font-style="normal" font-variant="normal" font-weight="400" font-stretch="normal" font-size="55" text-anchor="start" direction="ltr" writing-mode="lr-tb" unicode-bidi="normal" text-decoration="none" transform="matrix(1 0 0 1 2594.11 1536)">CTDIvol</text><text fill="#FFFFFF" fill-opacity="1" font-family="Arial,Arial_MSFontService,sans-serif" font-style="normal" font-variant="normal" font-weight="400" font-stretch="normal" font-size="55" text-anchor="start" direction="ltr" writing-mode="lr-tb" unicode-bidi="normal" text-decoration="none" transform="matrix(1 0 0 1 2807.81 1536)">Item</text><rect x="2490" y="1677" width="529" height="143" fill="#344A9A" fill-opacity="1"/><text fill="#FFFFFF" fill-opacity="1" font-family="Arial,Arial_MSFontService,sans-serif" font-style="normal" font-variant="normal" font-weight="400" font-stretch="normal" font-size="55" text-anchor="start" direction="ltr" writing-mode="lr-tb" unicode-bidi="normal" text-decoration="none" transform="matrix(1 0 0 1 2525.93 1736)">CTDIvol</text><text fill="#FFFFFF" fill-opacity="1" font-family="Arial,Arial_MSFontService,sans-serif" font-style="normal" font-variant="normal" font-weight="400" font-stretch="normal" font-size="55" text-anchor="start" direction="ltr" writing-mode="lr-tb" unicode-bidi="normal" text-decoration="none" transform="matrix(1 0 0 1 2739.63 1736)">Measured </text><text fill="#FFFFFF" fill-opacity="1" font-family="Arial,Arial_MSFontService,sans-serif" font-style="normal" font-variant="normal" font-weight="400" font-stretch="normal" font-size="55" text-anchor="start" direction="ltr" writing-mode="lr-tb" unicode-bidi="normal" text-decoration="none" transform="matrix(1 0 0 1 2555.77 1802)">Value Sequence</text><rect x="2148" y="1939" width="529" height="84.9999" fill="#344A9A" fill-opacity="1"/><text fill="#FFFFFF" fill-opacity="1" font-family="Arial,Arial_MSFontService,sans-serif" font-style="normal" font-variant="normal" font-weight="400" font-stretch="normal" font-size="55" text-anchor="start" direction="ltr" writing-mode="lr-tb" unicode-bidi="normal" text-decoration="none" transform="matrix(1 0 0 1 2319.82 2002)">?</text><text fill="#FFFFFF" fill-opacity="1" font-family="Arial,Arial_MSFontService,sans-serif" font-style="normal" font-variant="normal" font-weight="400" font-stretch="normal" font-size="55" text-anchor="start" direction="ltr" writing-mode="lr-tb" unicode-bidi="normal" text-decoration="none" transform="matrix(1 0 0 1 2350.19 2002)">ctdivol</text><path d="M2756.15 162 2756.15 255.531 2753.85 255.531 2753.85 162ZM2768.75 250.948 2755 278.448 2741.25 250.948Z" fill="#344A9A" fill-rule="nonzero" fill-opacity="1"/><text fill="#344A9A" fill-opacity="1" font-family="Arial,Arial_MSFontService,sans-serif" font-style="normal" font-variant="normal" font-weight="400" font-stretch="normal" font-size="46" text-anchor="start" direction="ltr" writing-mode="lr-tb" unicode-bidi="normal" text-decoration="none" transform="matrix(1 0 0 1 2787.52 234)">d2r:0040A730</text><path d="M2756.15 366 2756.15 516.549 2753.86 516.549 2753.85 366ZM2768.75 511.965 2755 539.465 2741.25 511.965Z" fill="#344A9A" fill-rule="nonzero" fill-opacity="1"/><rect x="2807" y="1939" width="529" height="143" fill="#344A9A" fill-opacity="1"/><text fill="#FFFFFF" fill-opacity="1" font-family="Arial,Arial_MSFontService,sans-serif" font-style="normal" font-variant="normal" font-weight="400" font-stretch="normal" font-size="55" text-anchor="start" direction="ltr" writing-mode="lr-tb" unicode-bidi="normal" text-decoration="none" transform="matrix(1 0 0 1 2842.96 1997)">CTDIvol</text><text fill="#FFFFFF" fill-opacity="1" font-family="Arial,Arial_MSFontService,sans-serif" font-style="normal" font-variant="normal" font-weight="400" font-stretch="normal" font-size="55" text-anchor="start" direction="ltr" writing-mode="lr-tb" unicode-bidi="normal" text-decoration="none" transform="matrix(1 0 0 1 3056.66 1997)">Measured </text><text fill="#FFFFFF" fill-opacity="1" font-family="Arial,Arial_MSFontService,sans-serif" font-style="normal" font-variant="normal" font-weight="400" font-stretch="normal" font-size="55" text-anchor="start" direction="ltr" writing-mode="lr-tb" unicode-bidi="normal" text-decoration="none" transform="matrix(1 0 0 1 2963.27 2063)">Units CS</text><path d="M2756.15 626 2756.15 722.351 2753.85 722.351 2753.85 626ZM2768.75 717.768 2755 745.268 2741.25 717.768Z" fill="#344A9A" fill-rule="nonzero" fill-opacity="1"/><path d="M2756.15 888 2756.15 984.813 2753.85 984.813 2753.85 888ZM2768.75 980.229 2755 1007.73 2741.25 980.23Z" fill="#344A9A" fill-rule="nonzero" fill-opacity="1"/><path d="M2756.15 1093 2756.15 1188.42 2753.85 1188.42 2753.85 1093ZM2768.75 1183.84 2755 1211.34 2741.25 1183.84Z" fill="#344A9A" fill-rule="nonzero" fill-opacity="1"/><path d="M1.14583-1.39776e-05 1.147 95.4217-1.14467 95.4218-1.14583 1.39776e-05ZM13.7511 90.8382 0.00144357 118.338-13.7489 90.8386Z" fill="#344A9A" fill-rule="nonzero" fill-opacity="1" transform="matrix(-1 0 0 1 2755 1355)"/><path d="M2756.15 1559 2756.15 1654.42 2753.85 1654.42 2753.85 1559ZM2768.75 1649.84 2755 1677.34 2741.25 1649.84Z" fill="#344A9A" fill-rule="nonzero" fill-opacity="1"/><path d="M0.37479-1.08281 320.61 109.76 319.861 111.925-0.37479 1.08281ZM320.402 96.3498 341.892 118.338 311.407 122.337Z" fill="#344A9A" fill-rule="nonzero" fill-opacity="1" transform="matrix(-1 0 0 1 2754.89 1820)"/><path d="M2755.4 1818.93 3050.96 1929.25 3050.16 1931.4 2754.6 1821.07ZM3051.08 1915.84 3072.03 1938.34 3041.46 1941.6Z" fill="#344A9A" fill-rule="nonzero" fill-opacity="1"/><text fill="#344A9A" fill-opacity="1" font-family="Arial,Arial_MSFontService,sans-serif" font-style="normal" font-variant="normal" font-weight="400" font-stretch="normal" font-size="46" text-anchor="start" direction="ltr" writing-mode="lr-tb" unicode-bidi="normal" text-decoration="none" transform="matrix(1 0 0 1 2787.52 491)">d2r:item</text><text fill="#344A9A" fill-opacity="1" font-family="Arial,Arial_MSFontService,sans-serif" font-style="normal" font-variant="normal" font-weight="400" font-stretch="normal" font-size="46" text-anchor="start" direction="ltr" writing-mode="lr-tb" unicode-bidi="normal" text-decoration="none" transform="matrix(1 0 0 1 2787.52 696)">d2r:0040A730</text><text fill="#344A9A" fill-opacity="1" font-family="Arial,Arial_MSFontService,sans-serif" font-style="normal" font-variant="normal" font-weight="400" font-stretch="normal" font-size="46" text-anchor="start" direction="ltr" writing-mode="lr-tb" unicode-bidi="normal" text-decoration="none" transform="matrix(1 0 0 1 2787.52 961)">d2r:item</text><text fill="#344A9A" fill-opacity="1" font-family="Arial,Arial_MSFontService,sans-serif" font-style="normal" font-variant="normal" font-weight="400" font-stretch="normal" font-size="46" text-anchor="start" direction="ltr" writing-mode="lr-tb" unicode-bidi="normal" text-decoration="none" transform="matrix(1 0 0 1 2787.52 1162)">d2r:0040A730</text><text fill="#344A9A" fill-opacity="1" font-family="Arial,Arial_MSFontService,sans-serif" font-style="normal" font-variant="normal" font-weight="400" font-stretch="normal" font-size="46" text-anchor="start" direction="ltr" writing-mode="lr-tb" unicode-bidi="normal" text-decoration="none" transform="matrix(1 0 0 1 2787.52 1424)">d2r:item</text><text fill="#344A9A" fill-opacity="1" font-family="Arial,Arial_MSFontService,sans-serif" font-style="normal" font-variant="normal" font-weight="400" font-stretch="normal" font-size="46" text-anchor="start" direction="ltr" writing-mode="lr-tb" unicode-bidi="normal" text-decoration="none" transform="matrix(1 0 0 1 2787.52 1627)">d2r:0040A300</text><text fill="#344A9A" fill-opacity="1" font-family="Arial,Arial_MSFontService,sans-serif" font-style="normal" font-variant="normal" font-weight="400" font-stretch="normal" font-size="46" text-anchor="start" direction="ltr" writing-mode="lr-tb" unicode-bidi="normal" text-decoration="none" transform="matrix(1 0 0 1 2239.06 1897)">d2r:0040A30A</text><text fill="#344A9A" fill-opacity="1" font-family="Arial,Arial_MSFontService,sans-serif" font-style="normal" font-variant="normal" font-weight="400" font-stretch="normal" font-size="46" text-anchor="start" direction="ltr" writing-mode="lr-tb" unicode-bidi="normal" text-decoration="none" transform="matrix(1 0 0 1 2988.64 1891)">d2r:004008EA</text><rect x="3431" y="540" width="529" height="85.9999" fill="#344A9A" fill-opacity="1"/><text fill="#FFFFFF" fill-opacity="1" font-family="Arial,Arial_MSFontService,sans-serif" font-style="normal" font-variant="normal" font-weight="400" font-stretch="normal" font-size="55" text-anchor="start" direction="ltr" writing-mode="lr-tb" unicode-bidi="normal" text-decoration="none" transform="matrix(1 0 0 1 3520.44 603)">CT </text><text fill="#FFFFFF" fill-opacity="1" font-family="Arial,Arial_MSFontService,sans-serif" font-style="normal" font-variant="normal" font-weight="400" font-stretch="normal" font-size="55" text-anchor="start" direction="ltr" writing-mode="lr-tb" unicode-bidi="normal" text-decoration="none" transform="matrix(1 0 0 1 3605.24 603)">Acq</text><text fill="#FFFFFF" fill-opacity="1" font-family="Arial,Arial_MSFontService,sans-serif" font-style="normal" font-variant="normal" font-weight="400" font-stretch="normal" font-size="55" text-anchor="start" direction="ltr" writing-mode="lr-tb" unicode-bidi="normal" text-decoration="none" transform="matrix(1 0 0 1 3715.24 603)">CNCS</text><rect x="3072" y="773" width="529" height="85.9999" fill="#344A9A" fill-opacity="1"/><text fill="#FFFFFF" fill-opacity="1" font-family="Arial,Arial_MSFontService,sans-serif" font-style="normal" font-variant="normal" font-weight="400" font-stretch="normal" font-size="55" text-anchor="start" direction="ltr" writing-mode="lr-tb" unicode-bidi="normal" text-decoration="none" transform="matrix(1 0 0 1 3228.99 836)">“113819”</text><rect x="3801" y="773" width="529" height="85.9999" fill="#344A9A" fill-opacity="1"/><text fill="#FFFFFF" fill-opacity="1" font-family="Arial,Arial_MSFontService,sans-serif" font-style="normal" font-variant="normal" font-weight="400" font-stretch="normal" font-size="55" text-anchor="start" direction="ltr" writing-mode="lr-tb" unicode-bidi="normal" text-decoration="none" transform="matrix(1 0 0 1 3984.82 836)">“DCM”</text><path d="M2.0108e-06-1.14583 388.385-1.14515 388.385 1.14651-2.0108e-06 1.14583ZM383.802-13.7493 411.301 0.000721785 383.801 13.7507Z" fill="#344A9A" fill-rule="nonzero" fill-opacity="1" transform="matrix(1 0 0 -1 3019 583.001)"/><path d="M0.436209-1.05955 338.338 138.052 337.466 140.171-0.436209 1.05955ZM338.899 124.652 359.093 147.836 328.43 150.081Z" fill="#344A9A" fill-rule="nonzero" fill-opacity="1" transform="matrix(-1 0 0 1 3695.09 626)"/><path d="M3695.43 624.936 4044.28 764.271 4043.43 766.399 3694.57 627.064ZM4044.7 750.866 4065.14 773.835 4034.5 776.404Z" fill="#344A9A" fill-rule="nonzero" fill-opacity="1"/><text fill="#344A9A" fill-opacity="1" font-family="Arial,Arial_MSFontService,sans-serif" font-style="normal" font-variant="normal" font-weight="400" font-stretch="normal" font-size="46" text-anchor="start" direction="ltr" writing-mode="lr-tb" unicode-bidi="normal" text-decoration="none" transform="matrix(1 0 0 1 3049.9 562)">d2r:0040A043</text><text fill="#344A9A" fill-opacity="1" font-family="Arial,Arial_MSFontService,sans-serif" font-style="normal" font-variant="normal" font-weight="400" font-stretch="normal" font-size="46" text-anchor="start" direction="ltr" writing-mode="lr-tb" unicode-bidi="normal" text-decoration="none" transform="matrix(1 0 0 1 3227.27 697)">d2r:00080100</text><text fill="#344A9A" fill-opacity="1" font-family="Arial,Arial_MSFontService,sans-serif" font-style="normal" font-variant="normal" font-weight="400" font-stretch="normal" font-size="46" text-anchor="start" direction="ltr" writing-mode="lr-tb" unicode-bidi="normal" text-decoration="none" transform="matrix(1 0 0 1 3890.32 696)">d2r:00080102</text><rect x="3431" y="1005" width="529" height="85.9999" fill="#344A9A" fill-opacity="1"/><text fill="#FFFFFF" fill-opacity="1" font-family="Arial,Arial_MSFontService,sans-serif" font-style="normal" font-variant="normal" font-weight="400" font-stretch="normal" font-size="55" text-anchor="start" direction="ltr" writing-mode="lr-tb" unicode-bidi="normal" text-decoration="none" transform="matrix(1 0 0 1 3502.32 1068)">CT Dose CNCS</text><rect x="3072" y="1239" width="529" height="86.0002" fill="#344A9A" fill-opacity="1"/><text fill="#FFFFFF" fill-opacity="1" font-family="Arial,Arial_MSFontService,sans-serif" font-style="normal" font-variant="normal" font-weight="400" font-stretch="normal" font-size="55" text-anchor="start" direction="ltr" writing-mode="lr-tb" unicode-bidi="normal" text-decoration="none" transform="matrix(1 0 0 1 3228.99 1302)">“113829”</text><rect x="3801" y="1239" width="529" height="86.0002" fill="#344A9A" fill-opacity="1"/><text fill="#FFFFFF" fill-opacity="1" font-family="Arial,Arial_MSFontService,sans-serif" font-style="normal" font-variant="normal" font-weight="400" font-stretch="normal" font-size="55" text-anchor="start" direction="ltr" writing-mode="lr-tb" unicode-bidi="normal" text-decoration="none" transform="matrix(1 0 0 1 3984.82 1302)">“DCM”</text><path d="M2.0108e-06-1.14583 388.385-1.14515 388.385 1.14651-2.0108e-06 1.14583ZM383.802-13.7493 411.301 0.000721785 383.801 13.7507Z" fill="#344A9A" fill-rule="nonzero" fill-opacity="1" transform="matrix(1 0 0 -1 3019 1048)"/><path d="M0.436209-1.05955 338.338 138.052 337.466 140.171-0.436209 1.05955ZM338.899 124.652 359.093 147.836 328.43 150.081Z" fill="#344A9A" fill-rule="nonzero" fill-opacity="1" transform="matrix(-1 0 0 1 3695.09 1091)"/><path d="M3695.43 1089.94 4044.28 1229.27 4043.43 1231.4 3694.57 1092.06ZM4044.7 1215.87 4065.14 1238.84 4034.5 1241.4Z" fill="#344A9A" fill-rule="nonzero" fill-opacity="1"/><text fill="#344A9A" fill-opacity="1" font-family="Arial,Arial_MSFontService,sans-serif" font-style="normal" font-variant="normal" font-weight="400" font-stretch="normal" font-size="46" text-anchor="start" direction="ltr" writing-mode="lr-tb" unicode-bidi="normal" text-decoration="none" transform="matrix(1 0 0 1 3049.9 1028)">d2r:0040A043</text><text fill="#344A9A" fill-opacity="1" font-family="Arial,Arial_MSFontService,sans-serif" font-style="normal" font-variant="normal" font-weight="400" font-stretch="normal" font-size="46" text-anchor="start" direction="ltr" writing-mode="lr-tb" unicode-bidi="normal" text-decoration="none" transform="matrix(1 0 0 1 3227.27 1163)">d2r:00080100</text><text fill="#344A9A" fill-opacity="1" font-family="Arial,Arial_MSFontService,sans-serif" font-style="normal" font-variant="normal" font-weight="400" font-stretch="normal" font-size="46" text-anchor="start" direction="ltr" writing-mode="lr-tb" unicode-bidi="normal" text-decoration="none" transform="matrix(1 0 0 1 3890.32 1162)">d2r:00080102</text><rect x="3433" y="1472" width="530" height="85.9999" fill="#344A9A" fill-opacity="1"/><text fill="#FFFFFF" fill-opacity="1" font-family="Arial,Arial_MSFontService,sans-serif" font-style="normal" font-variant="normal" font-weight="400" font-stretch="normal" font-size="55" text-anchor="start" direction="ltr" writing-mode="lr-tb" unicode-bidi="normal" text-decoration="none" transform="matrix(1 0 0 1 3513.44 1535)">CTDIvol</text><text fill="#FFFFFF" fill-opacity="1" font-family="Arial,Arial_MSFontService,sans-serif" font-style="normal" font-variant="normal" font-weight="400" font-stretch="normal" font-size="55" text-anchor="start" direction="ltr" writing-mode="lr-tb" unicode-bidi="normal" text-decoration="none" transform="matrix(1 0 0 1 3727.14 1535)">CNCS</text><rect x="3074" y="1706" width="530" height="85.9999" fill="#344A9A" fill-opacity="1"/><text fill="#FFFFFF" fill-opacity="1" font-family="Arial,Arial_MSFontService,sans-serif" font-style="normal" font-variant="normal" font-weight="400" font-stretch="normal" font-size="55" text-anchor="start" direction="ltr" writing-mode="lr-tb" unicode-bidi="normal" text-decoration="none" transform="matrix(1 0 0 1 3231.44 1769)">“113830”</text><rect x="3803" y="1706" width="530" height="85.9999" fill="#344A9A" fill-opacity="1"/><text fill="#FFFFFF" fill-opacity="1" font-family="Arial,Arial_MSFontService,sans-serif" font-style="normal" font-variant="normal" font-weight="400" font-stretch="normal" font-size="55" text-anchor="start" direction="ltr" writing-mode="lr-tb" unicode-bidi="normal" text-decoration="none" transform="matrix(1 0 0 1 3987.27 1769)">“DCM”</text><path d="M2.0108e-06-1.14583 388.385-1.14515 388.385 1.14651-2.0108e-06 1.14583ZM383.802-13.7493 411.301 0.000721785 383.801 13.7507Z" fill="#344A9A" fill-rule="nonzero" fill-opacity="1" transform="matrix(1 0 0 -1 3022 1515)"/><path d="M0.436209-1.05955 338.338 138.052 337.466 140.171-0.436209 1.05955ZM338.899 124.652 359.093 147.836 328.43 150.081Z" fill="#344A9A" fill-rule="nonzero" fill-opacity="1" transform="matrix(-1 0 0 1 3698.09 1558)"/><path d="M3698.43 1556.94 4047.28 1696.27 4046.43 1698.4 3697.57 1559.06ZM4047.7 1682.87 4068.14 1705.84 4037.5 1708.4Z" fill="#344A9A" fill-rule="nonzero" fill-opacity="1"/><text fill="#344A9A" fill-opacity="1" font-family="Arial,Arial_MSFontService,sans-serif" font-style="normal" font-variant="normal" font-weight="400" font-stretch="normal" font-size="46" text-anchor="start" direction="ltr" writing-mode="lr-tb" unicode-bidi="normal" text-decoration="none" transform="matrix(1 0 0 1 3052.35 1494)">d2r:0040A043</text><text fill="#344A9A" fill-opacity="1" font-family="Arial,Arial_MSFontService,sans-serif" font-style="normal" font-variant="normal" font-weight="400" font-stretch="normal" font-size="46" text-anchor="start" direction="ltr" writing-mode="lr-tb" unicode-bidi="normal" text-decoration="none" transform="matrix(1 0 0 1 3229.72 1630)">d2r:00080100</text><text fill="#344A9A" fill-opacity="1" font-family="Arial,Arial_MSFontService,sans-serif" font-style="normal" font-variant="normal" font-weight="400" font-stretch="normal" font-size="46" text-anchor="start" direction="ltr" writing-mode="lr-tb" unicode-bidi="normal" text-decoration="none" transform="matrix(1 0 0 1 3892.77 1629)">d2r:00080102</text><rect x="3677" y="1966" width="530" height="85.9999" fill="#344A9A" fill-opacity="1"/><text fill="#FFFFFF" fill-opacity="1" font-family="Arial,Arial_MSFontService,sans-serif" font-style="normal" font-variant="normal" font-weight="400" font-stretch="normal" font-size="55" text-anchor="start" direction="ltr" writing-mode="lr-tb" unicode-bidi="normal" text-decoration="none" transform="matrix(1 0 0 1 3865.55 2029)">“</text><text fill="#FFFFFF" fill-opacity="1" font-family="Arial,Arial_MSFontService,sans-serif" font-style="normal" font-variant="normal" font-weight="400" font-stretch="normal" font-size="55" text-anchor="start" direction="ltr" writing-mode="lr-tb" unicode-bidi="normal" text-decoration="none" transform="matrix(1 0 0 1 3883.89 2029)">mGy</text><text fill="#FFFFFF" fill-opacity="1" font-family="Arial,Arial_MSFontService,sans-serif" font-style="normal" font-variant="normal" font-weight="400" font-stretch="normal" font-size="55" text-anchor="start" direction="ltr" writing-mode="lr-tb" unicode-bidi="normal" text-decoration="none" transform="matrix(1 0 0 1 4000.19 2029)">”</text><rect x="3677" y="2149" width="530" height="86" fill="#344A9A" fill-opacity="1"/><text fill="#FFFFFF" fill-opacity="1" font-family="Arial,Arial_MSFontService,sans-serif" font-style="normal" font-variant="normal" font-weight="400" font-stretch="normal" font-size="55" text-anchor="start" direction="ltr" writing-mode="lr-tb" unicode-bidi="normal" text-decoration="none" transform="matrix(1 0 0 1 3841.49 2212)">“UCUM”</text><path d="M0.00358879-1.14583 317.924-0.150084 317.917 2.14157-0.00358879 1.14583ZM313.38-12.7685 340.837 1.06752 313.294 14.7313Z" fill="#344A9A" fill-rule="nonzero" fill-opacity="1" transform="matrix(1 0 0 -1 3336 2010.07)"/><path d="M3336.54 2008.99 3657.16 2180.06 3656.08 2182.08 3335.46 2011.01ZM3659.05 2166.78 3676.84 2191.86 3646.1 2191.04Z" fill="#344A9A" fill-rule="nonzero" fill-opacity="1"/><text fill="#344A9A" fill-opacity="1" font-family="Arial,Arial_MSFontService,sans-serif" font-style="normal" font-variant="normal" font-weight="400" font-stretch="normal" font-size="46" text-anchor="start" direction="ltr" writing-mode="lr-tb" unicode-bidi="normal" text-decoration="none" transform="matrix(1 0 0 1 3360.68 2000)">d2r:00080100</text><text fill="#344A9A" fill-opacity="1" font-family="Arial,Arial_MSFontService,sans-serif" font-style="normal" font-variant="normal" font-weight="400" font-stretch="normal" font-size="46" text-anchor="start" direction="ltr" writing-mode="lr-tb" unicode-bidi="normal" text-decoration="none" transform="matrix(0.887261 0.461268 -0.461268 0.887261 3358.39 2079)">d2r:00080102</text></g></g></svg>