<svg width="1852" height="990" xmlns="http://www.w3.org/2000/svg" xmlns:xlink="http://www.w3.org/1999/xlink" xml:space="preserve" overflow="hidden"><g transform="translate(-1411 -362)"><g><rect x="1418" y="540" width="529" height="85.9999" fill="#344A9A" fill-opacity="1"/><text fill="#FFFFFF" fill-opacity="1" font-family="Arial,Arial_MSFontService,sans-serif" font-style="normal" font-variant="normal" font-weight="400" font-stretch="normal" font-size="55" text-anchor="start" direction="ltr" writing-mode="lr-tb" unicode-bidi="normal" text-decoration="none" transform="matrix(1 0 0 1 1531.5 603)">CT </text><text fill="#FFFFFF" fill-opacity="1" font-family="Arial,Arial_MSFontService,sans-serif" font-style="normal" font-variant="normal" font-weight="400" font-stretch="normal" font-size="55" text-anchor="start" direction="ltr" writing-mode="lr-tb" unicode-bidi="normal" text-decoration="none" transform="matrix(1 0 0 1 1616.29 603)">Acq</text><text fill="#FFFFFF" fill-opacity="1" font-family="Arial,Arial_MSFontService,sans-serif" font-style="normal" font-variant="normal" font-weight="400" font-stretch="normal" font-size="55" text-anchor="start" direction="ltr" writing-mode="lr-tb" unicode-bidi="normal" text-decoration="none" transform="matrix(1 0 0 1 1726.29 603)">Item</text><rect x="1418.5" y="745.5" width="529" height="143" stroke="#344A9A" stroke-width="4.58333" stroke-linecap="butt" stroke-linejoin="miter" stroke-miterlimit="8" stroke-opacity="1" fill="#FFFFFF" fill-opacity="1"/><text fill="#344A9A" fill-opacity="1" font-family="Arial,Arial_MSFontService,sans-serif" font-style="normal" font-variant="normal" font-weight="400" font-stretch="normal" font-size="55" text-anchor="start" direction="ltr" writing-mode="lr-tb" unicode-bidi="normal" text-decoration="none" transform="matrix(1 0 0 1 1470.98 803)">CT Dose Content </text><text fill="#344A9A" fill-opacity="1" font-family="Arial,Arial_MSFontService,sans-serif" font-style="normal" font-variant="normal" font-weight="400" font-stretch="normal" font-size="55" text-anchor="start" direction="ltr" writing-mode="lr-tb" unicode-bidi="normal" text-decoration="none" transform="matrix(1 0 0 1 1559.27 869)">Sequence</text><rect x="1418.5" y="1008.5" width="529" height="84.9999" stroke="#344A9A" stroke-width="4.58333" stroke-linecap="butt" stroke-linejoin="miter" stroke-miterlimit="8" stroke-opacity="1" fill="#FFFFFF" fill-opacity="1"/><text fill="#344A9A" fill-opacity="1" font-family="Arial,Arial_MSFontService,sans-serif" font-style="normal" font-variant="normal" font-weight="400" font-stretch="normal" font-size="55" text-anchor="start" direction="ltr" writing-mode="lr-tb" unicode-bidi="normal" text-decoration="none" transform="matrix(1 0 0 1 1513.37 1071)">CT Dose Item</text><path d="M1683.15 366 1683.15 516.549 1680.86 516.549 1680.85 366ZM1695.75 511.965 1682 539.465 1668.25 511.965Z" fill="#344A9A" fill-rule="nonzero" fill-opacity="1"/><path d="M1683.15 626 1683.15 722.351 1680.85 722.351 1680.85 626ZM1695.75 717.768 1682 745.268 1668.25 717.768Z" fill="#344A9A" fill-rule="nonzero" fill-opacity="1"/><path d="M1683.15 888 1683.15 984.813 1680.85 984.813 1680.85 888ZM1695.75 980.229 1682 1007.73 1668.25 980.23Z" fill="#344A9A" fill-rule="nonzero" fill-opacity="1"/><path d="M1683.15 1093 1683.15 1188.42 1680.85 1188.42 1680.85 1093ZM1695.75 1183.84 1682 1211.34 1668.25 1183.84Z" fill="#344A9A" fill-rule="nonzero" fill-opacity="1"/><text fill="#344A9A" fill-opacity="1" font-family="Arial,Arial_MSFontService,sans-serif" font-style="normal" font-variant="normal" font-weight="400" font-stretch="normal" font-size="46" text-anchor="start" direction="ltr" writing-mode="lr-tb" unicode-bidi="normal" text-decoration="none" transform="matrix(1 0 0 1 1715.46 696)">d2r:0040A730</text><text fill="#344A9A" fill-opacity="1" font-family="Arial,Arial_MSFontService,sans-serif" font-style="normal" font-variant="normal" font-weight="400" font-stretch="normal" font-size="46" text-anchor="start" direction="ltr" writing-mode="lr-tb" unicode-bidi="normal" text-decoration="none" transform="matrix(1 0 0 1 1715.46 961)">d2r:item</text><text fill="#344A9A" fill-opacity="1" font-family="Arial,Arial_MSFontService,sans-serif" font-style="normal" font-variant="normal" font-weight="400" font-stretch="normal" font-size="46" text-anchor="start" direction="ltr" writing-mode="lr-tb" unicode-bidi="normal" text-decoration="none" transform="matrix(1 0 0 1 1715.46 1162)">d2r:0040A730</text><rect x="2359.5" y="1005.5" width="529" height="85.9999" stroke="#344A9A" stroke-width="4.58333" stroke-linecap="butt" stroke-linejoin="miter" stroke-miterlimit="8" stroke-opacity="1" fill="#FFFFFF" fill-opacity="1"/><text fill="#344A9A" fill-opacity="1" font-family="Arial,Arial_MSFontService,sans-serif" font-style="normal" font-variant="normal" font-weight="400" font-stretch="normal" font-size="55" text-anchor="start" direction="ltr" writing-mode="lr-tb" unicode-bidi="normal" text-decoration="none" transform="matrix(1 0 0 1 2430.25 1068)">CT Dose CNCS</text><rect x="1999.5" y="1239.5" width="530" height="85.9999" stroke="#344A9A" stroke-width="4.58333" stroke-linecap="butt" stroke-linejoin="miter" stroke-miterlimit="8" stroke-opacity="1" fill="#FFFFFF" fill-opacity="1"/><text fill="#344A9A" fill-opacity="1" font-family="Arial,Arial_MSFontService,sans-serif" font-style="normal" font-variant="normal" font-weight="400" font-stretch="normal" font-size="55" text-anchor="start" direction="ltr" writing-mode="lr-tb" unicode-bidi="normal" text-decoration="none" transform="matrix(1 0 0 1 2156.93 1302)">“113829”</text><rect x="2729.5" y="1239.5" width="529" height="85.9999" stroke="#344A9A" stroke-width="4.58333" stroke-linecap="butt" stroke-linejoin="miter" stroke-miterlimit="8" stroke-opacity="1" fill="#FFFFFF" fill-opacity="1"/><text fill="#344A9A" fill-opacity="1" font-family="Arial,Arial_MSFontService,sans-serif" font-style="normal" font-variant="normal" font-weight="400" font-stretch="normal" font-size="55" text-anchor="start" direction="ltr" writing-mode="lr-tb" unicode-bidi="normal" text-decoration="none" transform="matrix(1 0 0 1 2912.76 1302)">“DCM”</text><path d="M2.0108e-06-1.14583 388.385-1.14515 388.385 1.14651-2.0108e-06 1.14583ZM383.802-13.7493 411.301 0.000721785 383.801 13.7507Z" fill="#344A9A" fill-rule="nonzero" fill-opacity="1" transform="matrix(1 0 0 -1 1947 1048)"/><path d="M0.436209-1.05955 338.338 138.052 337.466 140.171-0.436209 1.05955ZM338.899 124.652 359.093 147.836 328.43 150.081Z" fill="#344A9A" fill-rule="nonzero" fill-opacity="1" transform="matrix(-1 0 0 1 2623.09 1091)"/><path d="M2623.43 1089.94 2972.28 1229.27 2971.43 1231.4 2622.58 1092.06ZM2972.7 1215.87 2993.14 1238.84 2962.5 1241.4Z" fill="#344A9A" fill-rule="nonzero" fill-opacity="1"/><text fill="#344A9A" fill-opacity="1" font-family="Arial,Arial_MSFontService,sans-serif" font-style="normal" font-variant="normal" font-weight="400" font-stretch="normal" font-size="46" text-anchor="start" direction="ltr" writing-mode="lr-tb" unicode-bidi="normal" text-decoration="none" transform="matrix(1 0 0 1 1977.83 1028)">d2r:0040A043</text><text fill="#344A9A" fill-opacity="1" font-family="Arial,Arial_MSFontService,sans-serif" font-style="normal" font-variant="normal" font-weight="400" font-stretch="normal" font-size="46" text-anchor="start" direction="ltr" writing-mode="lr-tb" unicode-bidi="normal" text-decoration="none" transform="matrix(1 0 0 1 2155.21 1163)">d2r:00080100</text><text fill="#344A9A" fill-opacity="1" font-family="Arial,Arial_MSFontService,sans-serif" font-style="normal" font-variant="normal" font-weight="400" font-stretch="normal" font-size="46" text-anchor="start" direction="ltr" writing-mode="lr-tb" unicode-bidi="normal" text-decoration="none" transform="matrix(1 0 0 1 2818.26 1162)">d2r:00080102</text></g></g></svg>