<svg version="1.1" xmlns="http://www.w3.org/2000/svg" viewBox="0 0 441.7721086757921 460.88960409968325" width="441.7721086757921" height="460.88960409968325" class="excalidraw-svg"><!-- svg-source:excalidraw --><metadata></metadata><defs><style class="style-fonts">
      </style></defs><rect x="0" y="0" width="441.7721086757921" height="460.88960409968325" fill="#ffffff"></rect><g stroke-linecap="round" transform="translate(98.66734283944015 10) rotate(0 27.730496776793473 24.402825297472077)"><path d="M21.14 1.54 C26.49 0.26, 33.39 0.96, 38.66 3.17 C43.94 5.39, 50.08 10.14, 52.79 14.84 C55.51 19.54, 56.52 26.33, 54.94 31.37 C53.36 36.42, 48.19 42.32, 43.32 45.11 C38.46 47.9, 31.7 48.68, 25.76 48.1 C19.82 47.53, 11.88 45.38, 7.68 41.68 C3.48 37.97, 1.08 31.07, 0.57 25.88 C0.05 20.68, 0.45 14.86, 4.6 10.49 C8.75 6.11, 21.42 1.34, 25.47 -0.38 C29.52 -2.11, 29 -0.47, 28.89 0.13 M39.21 3.84 C44.18 5.71, 50.92 9.32, 53.34 14.1 C55.77 18.88, 55.78 27.41, 53.78 32.51 C51.77 37.61, 46.26 41.95, 41.31 44.71 C36.36 47.48, 29.81 49.49, 24.08 49.1 C18.36 48.7, 10.92 46.04, 6.94 42.33 C2.95 38.62, 0.53 32.27, 0.16 26.84 C-0.22 21.41, 1.32 14.2, 4.68 9.76 C8.04 5.33, 14.11 1.27, 20.3 0.24 C26.48 -0.79, 38.31 3.28, 41.78 3.59 C45.25 3.9, 41.76 2.08, 41.13 2.1" stroke="none" stroke-width="0" fill="#a5d8ff"></path><path d="M24.34 -0.78 C29.81 -1.56, 38.07 1.86, 42.98 5.11 C47.88 8.36, 52.2 13.91, 53.78 18.72 C55.36 23.53, 54.82 29.2, 52.46 33.96 C50.1 38.73, 44.87 44.97, 39.6 47.3 C34.33 49.62, 26.71 49.31, 20.83 47.92 C14.96 46.52, 7.95 43.2, 4.33 38.93 C0.72 34.66, -1.5 27.56, -0.85 22.3 C-0.2 17.03, 2.78 11.08, 8.22 7.33 C13.66 3.58, 27.09 0.6, 31.79 -0.2 C36.49 -0.99, 36.53 1.94, 36.42 2.57 M17.6 0.24 C22.71 -1.44, 32.08 0.89, 37.93 2.66 C43.79 4.43, 49.89 6.64, 52.74 10.86 C55.59 15.07, 56.33 22.41, 55.03 27.96 C53.74 33.5, 49.39 40.49, 44.96 44.13 C40.53 47.78, 34.28 50.08, 28.46 49.83 C22.64 49.58, 14.5 46.07, 10.06 42.63 C5.62 39.19, 3.12 34.18, 1.83 29.18 C0.54 24.18, -0.59 17.13, 2.31 12.63 C5.21 8.14, 16.41 4.01, 19.24 2.2 C22.07 0.4, 19.13 1.68, 19.3 1.83" stroke="#1e1e1e" stroke-width="2" fill="none"></path></g><g stroke-linecap="round" transform="translate(19.912826922196018 156.41698145009786) rotate(0 27.730496776793473 24.402825297472077)"><path d="M15.76 2.82 C20.71 0.53, 29.57 0.17, 35.51 1.61 C41.44 3.05, 48.09 7.09, 51.36 11.46 C54.63 15.83, 55.79 22.82, 55.13 27.83 C54.47 32.85, 51.77 38.03, 47.42 41.55 C43.08 45.06, 35.03 48.58, 29.07 48.91 C23.11 49.23, 16.47 46.62, 11.66 43.51 C6.86 40.41, 1.56 35.37, 0.22 30.28 C-1.12 25.18, 0.66 17.8, 3.62 12.95 C6.57 8.1, 15.37 2.97, 17.94 1.2 C20.52 -0.57, 18.76 1.74, 19.08 2.31 M27.15 -0.94 C32.94 -1.4, 40.29 2.79, 44.7 6.18 C49.1 9.57, 52.37 14.33, 53.59 19.41 C54.8 24.49, 54.68 31.79, 51.98 36.65 C49.28 41.52, 42.9 46.54, 37.39 48.58 C31.88 50.61, 24.66 50.74, 18.93 48.85 C13.19 46.96, 6.31 41.99, 2.98 37.24 C-0.36 32.49, -2.37 25.39, -1.08 20.33 C0.22 15.27, 5.89 10.45, 10.74 6.88 C15.59 3.32, 25.49 0.19, 28.02 -1.07 C30.55 -2.34, 26.28 -1.42, 25.9 -0.7" stroke="none" stroke-width="0" fill="#a5d8ff"></path><path d="M37.23 2.48 C42.62 4.26, 48.44 9.11, 51.3 13.45 C54.16 17.79, 55.45 23.39, 54.41 28.52 C53.37 33.65, 49.6 40.88, 45.07 44.23 C40.55 47.59, 33.32 48.84, 27.26 48.66 C21.2 48.48, 13.35 46.58, 8.71 43.14 C4.07 39.69, 0.17 33.21, -0.57 27.99 C-1.31 22.78, 0.96 16.36, 4.27 11.85 C7.58 7.35, 13.16 2.3, 19.31 0.98 C25.46 -0.33, 36.81 2.98, 41.15 3.96 C45.48 4.95, 45.59 6.5, 45.31 6.89 M20.11 2.51 C25.61 0.7, 33.87 -1.01, 39.2 0.66 C44.53 2.32, 49.64 7.49, 52.11 12.48 C54.58 17.48, 55.16 25.27, 54.02 30.62 C52.88 35.98, 49.81 41.69, 45.27 44.61 C40.72 47.53, 32.53 48.44, 26.75 48.14 C20.97 47.84, 15.21 46.18, 10.59 42.84 C5.97 39.49, -0.11 33.17, -0.96 28.06 C-1.81 22.94, 1.94 16.68, 5.47 12.17 C9.01 7.66, 17.72 2.89, 20.25 1.02 C22.77 -0.86, 20.9 0.24, 20.63 0.9" stroke="#1e1e1e" stroke-width="2" fill="none"></path></g><g stroke-linecap="round" transform="translate(161.89292295495397 150.50110456171205) rotate(0 27.730496776793473 24.402825297472077)"><path d="M2.03 15.02 C2.03 15.02, 2.03 15.02, 2.03 15.02 M2.03 15.02 C2.03 15.02, 2.03 15.02, 2.03 15.02 M1.51 27.81 C9.61 20.62, 15.64 10.63, 23.16 2.91 M1.51 27.81 C8.21 21.95, 12.89 13.73, 23.16 2.91 M5.58 35.32 C16.05 23.89, 25.81 9.82, 35.1 1.36 M5.58 35.32 C15.16 25.42, 23.86 14.58, 35.1 1.36 M10.3 42.08 C22.2 31.93, 31.52 18.03, 41.79 5.86 M10.3 42.08 C17.92 35.31, 25.01 26.28, 41.79 5.86 M17.65 45.82 C25.03 38.47, 33.37 30.41, 48.49 10.35 M17.65 45.82 C29.27 31.55, 41.98 18.79, 48.49 10.35 M26.31 48.05 C34.9 38.75, 43.56 31.29, 52.56 17.86 M26.31 48.05 C36.37 37.22, 44.64 26.41, 52.56 17.86 M40.22 44.24 C43.39 41.81, 48.44 33.64, 55.97 26.13 M40.22 44.24 C43.79 40, 50.15 34.19, 55.97 26.13 M12.78 44.75 C12.78 44.75, 12.78 44.75, 12.78 44.75 M12.78 44.75 C12.78 44.75, 12.78 44.75, 12.78 44.75 M28.59 47.9 C19.43 37.69, 6.65 29.34, 2.17 24.93 M28.59 47.9 C21.54 41.78, 16.66 37.23, 2.17 24.93 M37.61 45.14 C28.25 37.32, 16.4 25.73, 2.14 14.3 M37.61 45.14 C30.42 38.62, 23.81 33.51, 2.14 14.3 M45.88 41.73 C32.25 30.38, 20.85 18.37, 8.14 8.92 M45.88 41.73 C37.81 34.37, 28.79 26.47, 8.14 8.92 M50.37 35.03 C38.94 26.65, 30.45 17.67, 14.15 3.54 M50.37 35.03 C41.44 28.12, 33.24 20.89, 14.15 3.54 M54.11 27.68 C48.06 22.72, 40.31 15.19, 23.92 1.44 M54.11 27.68 C44.13 18.3, 32.88 8.53, 23.92 1.44 M52.57 15.74 C44.62 11.35, 39.05 6.68, 34.45 -0.01 M52.57 15.74 C46.09 9.57, 38.33 3.34, 34.45 -0.01" stroke="#e9ecef" stroke-width="1" fill="none"></path><path d="M14.97 3.41 C19.86 0.74, 28.07 -0.98, 33.91 0.28 C39.75 1.55, 46.43 6.72, 50 11.01 C53.56 15.29, 55.84 20.89, 55.3 26 C54.76 31.1, 51.02 37.91, 46.75 41.63 C42.48 45.36, 35.37 47.87, 29.67 48.36 C23.97 48.85, 17.21 47.5, 12.56 44.56 C7.91 41.62, 3.54 35.63, 1.77 30.72 C0 25.82, -0.83 19.82, 1.93 15.13 C4.7 10.43, 15.35 4.69, 18.34 2.54 C21.33 0.38, 19.87 2.03, 19.87 2.21 M16.93 1.3 C21.69 -1.41, 29.16 -1.31, 34.58 0.38 C40 2.07, 45.91 6.95, 49.44 11.44 C52.97 15.93, 56.11 22.42, 55.77 27.32 C55.44 32.22, 51.43 37.23, 47.42 40.84 C43.42 44.44, 37.87 48.29, 31.76 48.94 C25.66 49.58, 15.71 47.6, 10.81 44.71 C5.9 41.81, 3.52 36.68, 2.33 31.58 C1.13 26.48, 1.19 19.1, 3.66 14.1 C6.13 9.11, 15.31 3.25, 17.15 1.61 C18.98 -0.03, 14.81 4, 14.65 4.29" stroke="#868e96" stroke-width="2" fill="none"></path></g><g stroke-linecap="round"><g transform="translate(126.29783961623389 63.80551336310373) rotate(0 -39.37725795862215 43.80580265941717)"><path d="M0 0 C-0.85 12.14, -1.43 22.63, 0 27.81 M0 0 C0.8 6.69, -0.27 12.65, 0 27.81 M0 27.81 C0.52 36.62, -5.96 44.53, -16 43.81 M0 27.81 C-0.13 40.09, -6.2 42.71, -16 43.81 M-16 43.81 C-34.64 46.02, -51.66 43.83, -62.75 43.81 M-16 43.81 C-25.08 43.48, -35.75 43.95, -62.75 43.81 M-62.75 43.81 C-74.56 45.44, -78.23 50.51, -78.75 59.81 M-62.75 43.81 C-73.58 42.8, -76.69 49.52, -78.75 59.81 M-78.75 59.81 C-77.88 67.41, -78.99 73.73, -78.75 87.61 M-78.75 59.81 C-79.51 65.86, -79.82 73.99, -78.75 87.61" stroke="#1e1e1e" stroke-width="2" fill="none"></path></g><g transform="translate(126.29783961623389 63.80551336310373) rotate(0 -39.37725795862215 43.80580265941717)"><path d="M-87.39 67.48 C-84.98 76.84, -82.34 84.47, -78.75 87.61 M-87.39 67.48 C-84.46 72.32, -83.41 76.41, -78.75 87.61" stroke="#1e1e1e" stroke-width="2" fill="none"></path></g><g transform="translate(126.29783961623389 63.80551336310373) rotate(0 -39.37725795862215 43.80580265941717)"><path d="M-72.44 66.64 C-75.6 76.18, -78.53 84.12, -78.75 87.61 M-72.44 66.64 C-73.15 71.65, -75.75 75.95, -78.75 87.61" stroke="#1e1e1e" stroke-width="2" fill="none"></path></g></g><mask></mask><g stroke-linecap="round"><g transform="translate(126.29783961623389 63.80551336310373) rotate(0 31.612790057756712 40.84786421522438)"><path d="M0 0 C-1.35 7.12, -1.21 9.51, 0 24.85 M0 0 C0.09 6.08, 0.49 13.04, 0 24.85 M0 24.85 C-0.63 36.24, 5.22 42.25, 16 40.85 M0 24.85 C-0.87 34.42, 6.89 41.66, 16 40.85 M16 40.85 C27.15 40.14, 39.07 41.95, 47.23 40.85 M16 40.85 C28.01 40.81, 39.54 41.89, 47.23 40.85 M47.23 40.85 C58.42 42.22, 63.09 45.31, 63.23 56.85 M47.23 40.85 C59.96 41.23, 61.32 46.45, 63.23 56.85 M63.23 56.85 C63.06 68.31, 62.29 74.29, 63.23 81.7 M63.23 56.85 C62.28 67.11, 63.85 75.62, 63.23 81.7" stroke="#1e1e1e" stroke-width="2" fill="none"></path></g><g transform="translate(126.29783961623389 63.80551336310373) rotate(0 31.612790057756712 40.84786421522438)"><path d="M56.55 62.39 C56.61 68.29, 58.15 69.52, 63.23 81.7 M56.55 62.39 C58.46 66.92, 60.74 72.33, 63.23 81.7" stroke="#1e1e1e" stroke-width="2" fill="none"></path></g><g transform="translate(126.29783961623389 63.80551336310373) rotate(0 31.612790057756712 40.84786421522438)"><path d="M70.52 62.62 C67.66 68.59, 66.27 69.78, 63.23 81.7 M70.52 62.62 C68.5 67.07, 66.85 72.41, 63.23 81.7" stroke="#1e1e1e" stroke-width="2" fill="none"></path></g></g><mask></mask><g stroke-linecap="round"><g transform="translate(168.72590273113838 190.14290842687933) rotate(0 -49.77712901594907 8.649108335178084)"><path d="M1.15 -0.67 C-5.62 2.3, -22.94 15.7, -39.54 17.07 C-56.14 18.45, -88.42 9.33, -98.45 7.58" stroke="#fa5252" stroke-width="2.5" fill="none" stroke-dasharray="8 10"></path></g><g transform="translate(168.72590273113838 190.14290842687933) rotate(0 -49.77712901594907 8.649108335178084)"><path d="M-73.67 4.27 C-84.45 4.9, -93.35 8.93, -98.45 7.58" stroke="#fa5252" stroke-width="2.5" fill="none"></path></g><g transform="translate(168.72590273113838 190.14290842687933) rotate(0 -49.77712901594907 8.649108335178084)"><path d="M-77.34 20.97 C-86.59 15.07, -94.06 12.6, -98.45 7.58" stroke="#fa5252" stroke-width="2.5" fill="none"></path></g></g><mask></mask><g stroke-linecap="round" transform="translate(314.59541320438075 13.641113162272177) rotate(0 27.730496776793473 24.402825297472077)"><path d="M35.8 1.28 C41.26 2.5, 48.46 6.41, 51.61 10.84 C54.76 15.26, 55.44 22.66, 54.69 27.84 C53.94 33.02, 51.42 38.47, 47.12 41.89 C42.83 45.32, 35.01 47.99, 28.92 48.41 C22.83 48.83, 15.12 47.39, 10.57 44.4 C6.02 41.41, 2.85 35.83, 1.61 30.47 C0.36 25.12, 0.39 17.02, 3.11 12.25 C5.82 7.48, 11.86 3.53, 17.88 1.85 C23.9 0.17, 34.94 1.87, 39.22 2.18 C43.5 2.5, 43.68 3.34, 43.56 3.74 M32.42 1.68 C37.94 1.98, 44.17 5.05, 47.77 8.74 C51.38 12.43, 53.62 18.5, 54.06 23.83 C54.5 29.17, 53.81 36.84, 50.41 40.75 C47.02 44.67, 39.94 46.7, 33.67 47.31 C27.41 47.93, 18.39 46.71, 12.83 44.45 C7.27 42.19, 2 38.25, 0.32 33.75 C-1.37 29.25, 0.62 22.69, 2.73 17.47 C4.84 12.26, 8.08 5.36, 12.98 2.47 C17.87 -0.41, 28.91 0.3, 32.11 0.16 C35.31 0.02, 32.1 1.02, 32.17 1.64" stroke="none" stroke-width="0" fill="#a5d8ff"></path><path d="M39.16 2.8 C44.24 4.71, 49.63 9.58, 52.22 14.32 C54.81 19.06, 56.1 26.24, 54.69 31.24 C53.29 36.25, 48.86 41.34, 43.77 44.35 C38.68 47.37, 30.12 49.69, 24.16 49.33 C18.19 48.97, 12.14 45.96, 8 42.21 C3.86 38.45, -0.13 32.23, -0.67 26.81 C-1.2 21.39, 1.28 13.94, 4.78 9.7 C8.28 5.46, 13.89 2.23, 20.32 1.37 C26.75 0.51, 39.46 3.84, 43.36 4.53 C47.26 5.22, 44.15 5.38, 43.72 5.5 M38.65 1.36 C44.13 2.92, 51.41 8.92, 53.88 13.73 C56.35 18.55, 54.85 25.1, 53.46 30.25 C52.07 35.4, 49.93 41.58, 45.56 44.63 C41.19 47.68, 33.16 49.11, 27.24 48.56 C21.32 48.01, 14.78 44.66, 10.05 41.34 C5.31 38.03, -0.13 33.93, -1.17 28.65 C-2.2 23.38, 0.53 14.2, 3.83 9.69 C7.12 5.18, 12.59 3.12, 18.6 1.6 C24.61 0.07, 36.36 0.45, 39.89 0.56 C43.41 0.66, 39.98 1.49, 39.76 2.23" stroke="#1e1e1e" stroke-width="2" fill="none"></path></g><g stroke-linecap="round" transform="translate(374.8631290388653 147.48684510007615) rotate(0 27.730496776793473 24.402825297472077)"><path d="M20.11 0.59 C25.36 -1.15, 32.54 0.13, 38.04 2.17 C43.55 4.21, 50.33 8.25, 53.12 12.81 C55.91 17.37, 56.25 24.23, 54.76 29.52 C53.27 34.81, 48.75 41.21, 44.16 44.55 C39.57 47.9, 33.13 50.12, 27.23 49.59 C21.33 49.06, 13.15 45.08, 8.77 41.38 C4.39 37.68, 1.76 32.46, 0.94 27.37 C0.12 22.28, -0.54 15.54, 3.85 10.83 C8.24 6.13, 22.3 0.75, 27.26 -0.88 C32.22 -2.51, 33.62 0.54, 33.6 1.05 M39.35 2.89 C44.28 4.6, 49.19 9.66, 51.88 14.59 C54.58 19.52, 56.87 27.57, 55.5 32.44 C54.13 37.32, 49.05 41.33, 43.64 43.83 C38.23 46.32, 29.3 47.76, 23.02 47.42 C16.74 47.08, 9.59 45.22, 5.95 41.78 C2.31 38.35, 1.34 32.32, 1.18 26.81 C1.01 21.31, 1.6 13.15, 4.97 8.75 C8.33 4.35, 15.49 1.31, 21.39 0.44 C27.28 -0.43, 37.12 2.88, 40.36 3.51 C43.6 4.15, 40.82 4.18, 40.83 4.27" stroke="none" stroke-width="0" fill="#a5d8ff"></path><path d="M24.85 -0.25 C30.66 -0.97, 39.29 1.53, 44.37 4.59 C49.45 7.65, 54.03 12.91, 55.33 18.1 C56.64 23.3, 54.85 30.83, 52.19 35.76 C49.53 40.69, 44.85 45.5, 39.39 47.67 C33.92 49.83, 25.27 50.38, 19.39 48.75 C13.51 47.11, 7.48 42.21, 4.12 37.85 C0.76 33.48, -1.61 27.6, -0.74 22.56 C0.12 17.53, 4.21 11.39, 9.31 7.64 C14.41 3.9, 25.61 1.22, 29.88 0.09 C34.15 -1.04, 34.73 0.39, 34.94 0.84 M38.39 1.67 C43.64 3.18, 47.42 7.67, 50.42 12.24 C53.41 16.82, 56.97 24.03, 56.38 29.12 C55.79 34.21, 51.38 39.64, 46.86 42.79 C42.35 45.94, 35.65 47.72, 29.29 48.03 C22.93 48.34, 13.62 48.07, 8.69 44.65 C3.76 41.24, 0.74 32.81, -0.31 27.52 C-1.36 22.23, -0.85 17.5, 2.4 12.92 C5.66 8.34, 13.23 2.02, 19.21 0.07 C25.19 -1.89, 35.18 0.77, 38.27 1.19 C41.36 1.61, 37.99 2.21, 37.75 2.59" stroke="#1e1e1e" stroke-width="2" fill="none"></path></g><g stroke-linecap="round" transform="translate(251.36995174992853 154.14221772398423) rotate(0 27.730496776793473 24.402825297472077)"><path d="M12.03 3.83 C12.03 3.83, 12.03 3.83, 12.03 3.83 M12.03 3.83 C12.03 3.83, 12.03 3.83, 12.03 3.83 M1.67 27.95 C8.69 18.71, 14.94 13.21, 24.63 1.54 M1.67 27.95 C6.87 22.16, 12.32 16.94, 24.63 1.54 M4.43 36.97 C14.82 22.65, 30.41 10.4, 35.26 1.5 M4.43 36.97 C14.93 23.57, 27.29 12.59, 35.26 1.5 M10.46 42.22 C22.61 28.13, 35.03 15.39, 42.61 5.24 M10.46 42.22 C20.76 29.32, 31.97 15.81, 42.61 5.24 M17.16 46.71 C27.55 34.53, 39.32 21.59, 49.96 8.98 M17.16 46.71 C29.55 32.07, 41.59 18.87, 49.96 8.98 M26.47 48.19 C34.05 39.5, 38.99 35.14, 52.72 18 M26.47 48.19 C35.76 37.2, 43.47 28.78, 52.72 18 M38.42 46.65 C43.75 38.7, 52.35 31.5, 54.16 28.53 M38.42 46.65 C43.08 41.66, 48.45 35.52, 54.16 28.53 M1.58 34.77 C1.58 34.77, 1.58 34.77, 1.58 34.77 M1.58 34.77 C1.58 34.77, 1.58 34.77, 1.58 34.77 M19.65 39.88 C15.02 33.85, 9.05 30.97, 1.54 24.14 M19.65 39.88 C15.57 35.68, 9.91 30.53, 1.54 24.14 M36.98 44.34 C24.88 32.06, 11.9 23.67, 3.77 15.48 M36.98 44.34 C26.93 34.29, 15.72 24.99, 3.77 15.48 M44.49 40.27 C31.58 29.29, 18.06 18.8, 9.02 9.44 M44.49 40.27 C33.24 30.42, 20.55 19.71, 9.02 9.44 M52.76 36.86 C40.28 23.69, 26.6 14.41, 13.51 2.75 M52.76 36.86 C37.51 24.42, 23.22 10.71, 13.51 2.75 M55.74 28.85 C44.69 21.65, 33.51 11.95, 23.29 0.64 M55.74 28.85 C47.98 22.27, 40.68 15.71, 23.29 0.64 M57.97 20.19 C48.56 11.69, 42.3 6.18, 33.07 -1.46 M57.97 20.19 C51.57 15.38, 46.65 9.62, 33.07 -1.46" stroke="#e9ecef" stroke-width="1" fill="none"></path><path d="M31.65 0.15 C37.57 0.46, 44.96 3.53, 48.84 7.5 C52.72 11.47, 54.74 18.52, 54.95 23.96 C55.17 29.41, 53.77 36.01, 50.12 40.2 C46.47 44.39, 39.03 48.15, 33.07 49.1 C27.1 50.04, 19.65 48.29, 14.34 45.85 C9.04 43.42, 3.28 39.14, 1.24 34.48 C-0.8 29.82, 0.32 23, 2.13 17.89 C3.93 12.78, 7.04 6.82, 12.06 3.81 C17.08 0.79, 28.52 0.21, 32.25 -0.2 C35.97 -0.62, 34.33 0.83, 34.41 1.31 M20.5 0.75 C25.93 -0.56, 36.18 1.04, 41.85 3.39 C47.52 5.74, 52.24 10.27, 54.53 14.87 C56.81 19.47, 57.77 25.71, 55.56 30.97 C53.35 36.23, 46.64 43.72, 41.27 46.45 C35.9 49.17, 29.21 48.16, 23.34 47.33 C17.47 46.5, 9.75 45.35, 6.05 41.47 C2.36 37.58, 1 29.36, 1.15 24 C1.3 18.64, 3.38 13.09, 6.95 9.31 C10.53 5.52, 20.02 2.7, 22.62 1.29 C25.23 -0.12, 22.47 0.39, 22.58 0.83" stroke="#868e96" stroke-width="2" fill="none"></path></g><g stroke-linecap="round"><g transform="translate(342.225909981174 67.4466265253759) rotate(0 30.133857917242295 37.52017790327034)"><path d="M0 0 C-2.04 5.52, 0.53 12.19, 0 21.52 M0 0 C0.6 8.32, 0.9 15.22, 0 21.52 M0 21.52 C1.76 30.92, 4.9 35.74, 16 37.52 M0 21.52 C1.58 34.16, 7.12 35.85, 16 37.52 M16 37.52 C26 38.21, 34.09 37.54, 44.27 37.52 M16 37.52 C22.42 37.59, 31.37 37.89, 44.27 37.52 M44.27 37.52 C56.5 37.25, 62.11 41.81, 60.27 53.52 M44.27 37.52 C52.86 39.76, 59.1 40.91, 60.27 53.52 M60.27 53.52 C58.41 59.84, 60.04 64.1, 60.27 75.04 M60.27 53.52 C60.98 61.65, 59.78 68.18, 60.27 75.04" stroke="#1e1e1e" stroke-width="2" fill="none"></path></g><g transform="translate(342.225909981174 67.4466265253759) rotate(0 30.133857917242295 37.52017790327034)"><path d="M53.62 57.5 C53.63 61.91, 57.94 67.4, 60.27 75.04 M53.62 57.5 C56.65 64.36, 59.4 69.84, 60.27 75.04" stroke="#1e1e1e" stroke-width="2" fill="none"></path></g><g transform="translate(342.225909981174 67.4466265253759) rotate(0 30.133857917242295 37.52017790327034)"><path d="M66.45 57.33 C62.79 61.82, 63.44 67.36, 60.27 75.04 M66.45 57.33 C64.73 64.19, 62.72 69.74, 60.27 75.04" stroke="#1e1e1e" stroke-width="2" fill="none"></path></g></g><mask></mask><g stroke-linecap="round"><g transform="translate(342.225909981174 67.4466265253759) rotate(0 -31.612730727226193 40.84786421522438)"><path d="M0 0 C0.49 7.98, 1.18 15.43, 0 24.85 M0 0 C1.15 5.55, 1.05 11.9, 0 24.85 M0 24.85 C-0.44 33.73, -3.96 42.57, -16 40.85 M0 24.85 C1.79 33.84, -5.43 40.25, -16 40.85 M-16 40.85 C-22.22 40.79, -32.06 42.72, -47.23 40.85 M-16 40.85 C-25.01 41.3, -34.98 40.75, -47.23 40.85 M-47.23 40.85 C-56.05 39.81, -65.03 48.13, -63.23 56.85 M-47.23 40.85 C-59.06 38.9, -65.1 47.08, -63.23 56.85 M-63.23 56.85 C-63.78 67.35, -62.52 76.46, -63.23 81.7 M-63.23 56.85 C-63.67 63.64, -62.93 71.5, -63.23 81.7" stroke="#1e1e1e" stroke-width="2" fill="none"></path></g><g transform="translate(342.225909981174 67.4466265253759) rotate(0 -31.612730727226193 40.84786421522438)"><path d="M-70.1 62.47 C-67.32 68.64, -64.39 74.26, -63.23 81.7 M-70.1 62.47 C-67.26 66.57, -65.62 71.51, -63.23 81.7" stroke="#1e1e1e" stroke-width="2" fill="none"></path></g><g transform="translate(342.225909981174 67.4466265253759) rotate(0 -31.612730727226193 40.84786421522438)"><path d="M-56.13 62.54 C-57.9 68.65, -59.53 74.24, -63.23 81.7 M-56.13 62.54 C-56.81 66.68, -58.7 71.59, -63.23 81.7" stroke="#1e1e1e" stroke-width="2" fill="none"></path></g></g><mask></mask><g stroke-linecap="round"><g transform="translate(266.66476525108965 156.00038635985902) rotate(0 21.775386185262363 -51.743300660970704)"><path d="M-0.07 0.84 C0.41 -10.23, -4.91 -48.71, 2.5 -66.03 C9.9 -83.34, 37.33 -96.68, 44.36 -103.06" stroke="#fa5252" stroke-width="2.5" fill="none" stroke-dasharray="8 10"></path></g><g transform="translate(266.66476525108965 156.00038635985902) rotate(0 21.775386185262363 -51.743300660970704)"><path d="M30.05 -82.57 C35.23 -88.82, 36.71 -92.21, 44.36 -103.06" stroke="#fa5252" stroke-width="2.5" fill="none"></path></g><g transform="translate(266.66476525108965 156.00038635985902) rotate(0 21.775386185262363 -51.743300660970704)"><path d="M20.22 -96.56 C28.09 -99.05, 32.21 -98.69, 44.36 -103.06" stroke="#fa5252" stroke-width="2.5" fill="none"></path></g></g><mask></mask><g stroke-linecap="round" transform="translate(64.99044130038419 230.04371264896395) rotate(0 27.730496776793473 24.402825297472077)"><path d="M23.5 1.25 C29.02 -0.24, 36.08 -0.18, 41.23 2.24 C46.37 4.66, 52.38 10.76, 54.39 15.75 C56.4 20.74, 55.28 27.38, 53.29 32.17 C51.3 36.95, 47.48 41.76, 42.45 44.47 C37.42 47.19, 29.01 49.18, 23.12 48.45 C17.22 47.72, 10.76 44.03, 7.06 40.09 C3.37 36.16, 0.94 30.12, 0.95 24.82 C0.96 19.52, 3.01 12.56, 7.15 8.28 C11.29 4, 22.22 0.29, 25.79 -0.87 C29.36 -2.02, 28.44 0.7, 28.55 1.35 M16.52 2.35 C22.08 0.71, 32.34 1.13, 38.08 2.59 C43.81 4.04, 48.13 6.79, 50.93 11.06 C53.74 15.33, 55.77 22.76, 54.91 28.21 C54.04 33.66, 50.11 40.13, 45.75 43.75 C41.38 47.37, 34.44 50.16, 28.72 49.94 C23 49.72, 16.09 46.06, 11.43 42.43 C6.77 38.8, 2.19 33.1, 0.75 28.17 C-0.69 23.25, -0.18 17.32, 2.8 12.9 C5.77 8.47, 16.09 3.37, 18.61 1.6 C21.13 -0.17, 17.8 1.9, 17.93 2.26" stroke="none" stroke-width="0" fill="#a5d8ff"></path><path d="M36.23 2.27 C41.5 3.43, 47.97 7.3, 50.97 11.77 C53.96 16.24, 54.92 23.76, 54.19 29.09 C53.47 34.41, 51.11 40.43, 46.63 43.71 C42.14 46.99, 33.41 48.93, 27.29 48.76 C21.16 48.59, 14.19 45.96, 9.86 42.69 C5.53 39.42, 2.22 34.2, 1.29 29.15 C0.36 24.09, 1.55 16.79, 4.26 12.35 C6.97 7.9, 11.73 4.3, 17.55 2.45 C23.36 0.61, 35.28 0.97, 39.16 1.28 C43.04 1.58, 40.96 3.62, 40.82 4.26 M24.5 1.51 C29.75 0.79, 38.49 0.48, 43.31 3.42 C48.13 6.36, 51.69 14.09, 53.43 19.13 C55.17 24.18, 55.97 29.13, 53.76 33.69 C51.55 38.25, 45.65 44.01, 40.17 46.49 C34.7 48.96, 26.71 50.01, 20.92 48.56 C15.13 47.11, 8.74 42.08, 5.43 37.79 C2.12 33.49, 0.71 28.01, 1.08 22.77 C1.44 17.54, 3.45 10.04, 7.62 6.37 C11.79 2.7, 23.14 1.87, 26.07 0.77 C29 -0.33, 25.12 -0.71, 25.18 -0.25" stroke="#1e1e1e" stroke-width="2" fill="none"></path></g><g stroke-linecap="round" transform="translate(10 374.3675080024432) rotate(0 27.730496776793473 24.402825297472077)"><path d="M36.62 0.44 C42.04 1.61, 49.2 7.19, 52.18 11.76 C55.16 16.33, 55.45 22.85, 54.51 27.86 C53.57 32.88, 50.92 38.38, 46.53 41.87 C42.13 45.35, 34.12 48.55, 28.14 48.76 C22.17 48.98, 15.13 46.43, 10.69 43.18 C6.24 39.92, 2.54 34.43, 1.48 29.23 C0.42 24.03, 1.6 16.71, 4.33 11.96 C7.05 7.21, 12.06 2.2, 17.83 0.72 C23.61 -0.77, 34.96 2.44, 38.97 3.03 C42.98 3.63, 42.18 4.2, 41.9 4.29 M18.11 3.12 C23.31 0.62, 29.79 -1.14, 35.25 0.17 C40.71 1.49, 47.52 6.32, 50.85 11 C54.18 15.68, 55.81 22.86, 55.21 28.27 C54.62 33.68, 51.41 40.16, 47.28 43.44 C43.14 46.72, 36.4 48, 30.39 47.94 C24.39 47.89, 16.33 46.07, 11.25 43.12 C6.17 40.18, 1.18 35.26, -0.08 30.29 C-1.34 25.32, 0.9 17.99, 3.7 13.3 C6.5 8.61, 14.41 3.99, 16.74 2.15 C19.06 0.31, 17.25 1.74, 17.64 2.27" stroke="none" stroke-width="0" fill="#a5d8ff"></path><path d="M40.13 2.65 C45.25 4.68, 50.09 10.95, 52.56 15.97 C55.03 20.98, 56.77 27.89, 54.96 32.74 C53.14 37.59, 46.91 42.52, 41.68 45.07 C36.45 47.61, 29.21 48.68, 23.59 48 C17.96 47.32, 11.74 44.78, 7.93 40.98 C4.11 37.17, 1.11 30.28, 0.7 25.16 C0.29 20.04, 1.88 14.5, 5.46 10.26 C9.03 6.02, 15.39 0.27, 22.15 -0.3 C28.91 -0.87, 41.36 4.94, 46.01 6.84 C50.67 8.73, 50.42 10.74, 50.08 11.06 M19.85 -0.45 C25.23 -2.17, 32.59 0.7, 38.28 2.89 C43.97 5.08, 51.11 8.07, 54.02 12.68 C56.92 17.29, 57.31 25.13, 55.72 30.54 C54.13 35.95, 49.43 42.14, 44.47 45.14 C39.52 48.13, 31.89 48.91, 25.98 48.49 C20.06 48.06, 13.46 46.33, 9 42.59 C4.54 38.85, -0.17 31.29, -0.79 26.03 C-1.41 20.78, 1.82 15.41, 5.27 11.08 C8.71 6.74, 17.26 1.49, 19.9 0.02 C22.53 -1.44, 20.99 1.78, 21.09 2.31" stroke="#1e1e1e" stroke-width="2" fill="none"></path></g><g stroke-linecap="round" transform="translate(105.04824167638208 372.04170914803717) rotate(0 27.730496776793473 24.402825297472077)"><path d="M5.07 9.7 C5.07 9.7, 5.07 9.7, 5.07 9.7 M5.07 9.7 C5.07 9.7, 5.07 9.7, 5.07 9.7 M-0.05 27.78 C7.1 18.02, 15.15 7.47, 21.6 2.88 M-0.05 27.78 C7.42 17.23, 15.68 7.52, 21.6 2.88 M4.68 34.54 C13.03 22.2, 23.16 12.28, 31.57 3.6 M4.68 34.54 C13.28 26.06, 19.97 16.17, 31.57 3.6 M8.74 42.05 C17.88 32.7, 24.81 23.65, 40.89 5.07 M8.74 42.05 C20.16 30.26, 30.68 16.78, 40.89 5.07 M16.75 45.04 C28.24 31.02, 40.43 17.88, 46.93 10.32 M16.75 45.04 C23.69 35.32, 33.11 25.07, 46.93 10.32 M24.1 48.78 C30.41 41.18, 35.27 33.56, 53.62 14.81 M24.1 48.78 C35.07 35.49, 46.92 22.96, 53.62 14.81 M30.79 53.27 C41.06 40.8, 52.58 28.66, 59.66 20.06 M30.79 53.27 C40.98 40.04, 52.36 28.21, 59.66 20.06 M8.86 41.63 C8.86 41.63, 8.86 41.63, 8.86 41.63 M8.86 41.63 C8.86 41.63, 8.86 41.63, 8.86 41.63 M28.45 48.06 C20.91 41.38, 11.07 30.98, 0.52 23.79 M28.45 48.06 C20.77 41.08, 14.75 35.27, 0.52 23.79 M37.47 45.3 C23.82 33.64, 10.5 22.43, 3.51 15.78 M37.47 45.3 C29.42 37.64, 21.62 31.79, 3.51 15.78 M44.98 41.23 C34.92 30.58, 23.7 20.69, 7.25 8.43 M44.98 41.23 C30.45 29.33, 15.26 16.44, 7.25 8.43 M50.23 35.2 C35.79 24.66, 23 13.96, 14.76 4.36 M50.23 35.2 C43.48 29.54, 35.56 21.99, 14.76 4.36 M53.97 27.85 C42.84 16.41, 29.73 6.73, 23.78 1.6 M53.97 27.85 C43.16 18.01, 33.17 10.72, 23.78 1.6 M53.94 17.22 C46.49 12.65, 41.35 8.96, 37.33 2.78 M53.94 17.22 C49.54 14.57, 45.34 10.51, 37.33 2.78" stroke="#e9ecef" stroke-width="1" fill="none"></path><path d="M38.66 3.02 C44.16 5.02, 51.25 10.33, 53.77 14.96 C56.29 19.58, 55.51 25.95, 53.76 30.77 C52.01 35.59, 47.91 40.85, 43.28 43.88 C38.66 46.91, 31.78 49.36, 26.02 48.97 C20.26 48.57, 13.12 45.12, 8.73 41.52 C4.34 37.91, 0.24 32.67, -0.34 27.33 C-0.92 21.99, 1.72 13.77, 5.24 9.5 C8.76 5.22, 14.67 2.6, 20.78 1.68 C26.89 0.76, 38.21 3.35, 41.89 3.99 C45.58 4.63, 43.25 5.47, 42.87 5.54 M39.46 3.41 C44.93 5.42, 51.89 9.04, 54.54 13.74 C57.19 18.45, 57.21 26.31, 55.34 31.65 C53.48 36.99, 48.49 42.99, 43.37 45.78 C38.26 48.56, 30.55 49.03, 24.67 48.36 C18.79 47.69, 12.35 45.66, 8.09 41.75 C3.84 37.84, -0.53 30.14, -0.87 24.87 C-1.21 19.61, 2.37 14.33, 6.05 10.14 C9.72 5.96, 15.35 0.8, 21.18 -0.25 C27.01 -1.3, 37.95 3.26, 41.02 3.84 C44.1 4.43, 40.02 3.15, 39.65 3.27" stroke="#868e96" stroke-width="2" fill="none"></path></g><g stroke-linecap="round"><g transform="translate(92.62093807717747 283.8492260120679) rotate(0 -27.495220650192095 42.759209611107906)"><path d="M0 0 C-1.46 10.21, -1.98 22.67, 0 26.76 M0 0 C0.17 10.07, -0.36 21.47, 0 26.76 M0 26.76 C0.53 38.8, -5.47 41.89, -16 42.76 M0 26.76 C2.06 37.8, -7.24 43.03, -16 42.76 M-16 42.76 C-25.17 44.78, -34.85 41.14, -38.99 42.76 M-16 42.76 C-25.95 42.95, -33.51 41.59, -38.99 42.76 M-38.99 42.76 C-48.03 42.45, -53.81 49.04, -54.99 58.76 M-38.99 42.76 C-48.55 42.42, -53.58 49.58, -54.99 58.76 M-54.99 58.76 C-54.12 64.25, -56.13 72.1, -54.99 85.52 M-54.99 58.76 C-55.51 68.35, -54.47 79.4, -54.99 85.52" stroke="#1e1e1e" stroke-width="2" fill="none"></path></g><g transform="translate(92.62093807717747 283.8492260120679) rotate(0 -27.495220650192095 42.759209611107906)"><path d="M-61.91 65.29 C-60.57 72.84, -58.33 82.7, -54.99 85.52 M-61.91 65.29 C-59.12 72.89, -56.98 81.77, -54.99 85.52" stroke="#1e1e1e" stroke-width="2" fill="none"></path></g><g transform="translate(92.62093807717747 283.8492260120679) rotate(0 -27.495220650192095 42.759209611107906)"><path d="M-47.29 65.58 C-51.76 73.14, -55.35 82.89, -54.99 85.52 M-47.29 65.58 C-50.15 72.96, -53.65 81.73, -54.99 85.52" stroke="#1e1e1e" stroke-width="2" fill="none"></path></g></g><mask></mask><g stroke-linecap="round"><g transform="translate(92.62093807717747 283.8492260120679) rotate(0 20.028900187998943 41.596310183904905)"><path d="M0 0 C-1.95 11.31, 1.56 21.42, 0 25.6 M0 0 C-0.58 6.64, 0.25 12.33, 0 25.6 M0 25.6 C-0.14 35.39, 7.13 41.92, 16 41.6 M0 25.6 C-1.9 36.53, 7.34 42.56, 16 41.6 M16 41.6 C18.63 40.8, 22.88 41.11, 24.06 41.6 M16 41.6 C18.04 41.17, 19.8 41.5, 24.06 41.6 M24.06 41.6 C35.91 42.55, 41.02 46.64, 40.06 57.6 M24.06 41.6 C36.13 43.09, 38.69 46.25, 40.06 57.6 M40.06 57.6 C39.12 66.1, 41.53 72.66, 40.06 83.19 M40.06 57.6 C40.62 66.26, 40.78 72.97, 40.06 83.19" stroke="#1e1e1e" stroke-width="2" fill="none"></path></g><g transform="translate(92.62093807717747 283.8492260120679) rotate(0 20.028900187998943 41.596310183904905)"><path d="M33.94 63.32 C34.4 72.42, 40.28 80.31, 40.06 83.19 M33.94 63.32 C34.75 68.67, 36.97 73.06, 40.06 83.19" stroke="#1e1e1e" stroke-width="2" fill="none"></path></g><g transform="translate(92.62093807717747 283.8492260120679) rotate(0 20.028900187998943 41.596310183904905)"><path d="M48.15 64.03 C43.1 72.83, 43.47 80.44, 40.06 83.19 M48.15 64.03 C45.73 69.18, 44.72 73.41, 40.06 83.19" stroke="#1e1e1e" stroke-width="2" fill="none"></path></g></g><mask></mask><g stroke-linecap="round" transform="translate(180.90660280343445 372.8919926520866) rotate(0 28.143655496737722 24.95266318954855)"><path d="M4.02 12.77 C4.02 12.77, 4.02 12.77, 4.02 12.77 M4.02 12.77 C4.02 12.77, 4.02 12.77, 4.02 12.77 M0.87 28.58 C8.35 19.48, 12.07 11.79, 24.49 1.41 M0.87 28.58 C6.34 22.43, 9.75 17.21, 24.49 1.41 M4.94 36.1 C14.58 27.44, 24.09 14.79, 35.12 1.38 M4.94 36.1 C15.03 25.63, 24.36 13.99, 35.12 1.38 M9.01 43.61 C20.98 32.79, 31.7 20.22, 43.13 4.36 M9.01 43.61 C16.24 34.48, 24.18 25.69, 43.13 4.36 M17.02 46.59 C25.35 35.67, 31.92 29.35, 49.17 9.61 M17.02 46.59 C25.08 38.72, 30.85 30.25, 49.17 9.61 M25.68 48.82 C32.73 39.31, 39.72 31.76, 54.55 15.62 M25.68 48.82 C36.04 37.6, 44.94 26.97, 54.55 15.62 M37.62 47.28 C40.03 40.58, 44.73 36.08, 55.99 26.15 M37.62 47.28 C43.62 40.27, 50.74 32.52, 55.99 26.15 M9.26 44.22 C9.26 44.22, 9.26 44.22, 9.26 44.22 M9.26 44.22 C9.26 44.22, 9.26 44.22, 9.26 44.22 M26.58 48.68 C22.44 43.78, 15.4 42.12, 2.43 27.69 M26.58 48.68 C20.06 42.61, 12.44 36.6, 2.43 27.69 M32.58 43.3 C24.74 36.43, 14.11 29.79, 3.9 18.37 M32.58 43.3 C22.4 34.84, 10.68 25.61, 3.9 18.37 M46.13 44.48 C37.38 36.97, 26.7 27.17, 6.13 9.71 M46.13 44.48 C32.35 31.82, 18.89 20.1, 6.13 9.71 M50.63 37.79 C35.39 27.06, 24.21 13.57, 12.89 4.98 M50.63 37.79 C39.73 28.55, 27.77 18.26, 12.89 4.98 M55.88 31.75 C45.93 22.98, 36.69 15.7, 19.65 0.26 M55.88 31.75 C43.18 19.61, 29.6 8.56, 19.65 0.26 M60.37 25.06 C51.22 14.33, 39.28 3.87, 32.45 0.78 M60.37 25.06 C52.56 19.4, 43.98 12.23, 32.45 0.78" stroke="#e9ecef" stroke-width="1" fill="none"></path><path d="M38.55 1.3 C44.25 2.98, 50.91 8.79, 53.88 13.61 C56.84 18.42, 57.82 24.86, 56.33 30.19 C54.84 35.52, 49.78 42.44, 44.93 45.59 C40.07 48.73, 33.12 49.28, 27.19 49.06 C21.25 48.84, 13.75 47.62, 9.33 44.29 C4.91 40.96, 1.53 34.38, 0.68 29.09 C-0.18 23.8, 1.15 17.35, 4.21 12.55 C7.28 7.75, 11.94 1.52, 19.06 0.28 C26.18 -0.95, 41.74 3.42, 46.93 5.13 C52.13 6.84, 50.63 10.03, 50.24 10.56 M15.89 3.6 C20.71 0.95, 28.9 -0.83, 34.8 0.34 C40.7 1.51, 47.86 6.43, 51.29 10.62 C54.72 14.81, 55.72 20.15, 55.38 25.45 C55.03 30.75, 53.24 38.52, 49.22 42.42 C45.2 46.32, 37.22 48.1, 31.26 48.88 C25.31 49.66, 18.61 49.8, 13.5 47.09 C8.38 44.38, 2.57 37.93, 0.57 32.61 C-1.42 27.29, -1.05 19.87, 1.52 15.15 C4.09 10.44, 13.49 6.3, 15.99 4.32 C18.49 2.34, 16.65 2.95, 16.49 3.26" stroke="#868e96" stroke-width="2" fill="none"></path></g><g stroke-linecap="round"><g transform="translate(93.4872830760005 283.8413027424326) rotate(0 57.78154855537203 42.02534495492813)"><path d="M0 0 C-1.23 9.52, -0.3 18.07, 0 26.03 M0 0 C0 9.5, 0.97 20.04, 0 26.03 M0 26.03 C-1.65 36.93, 7.08 42.87, 16 42.03 M0 26.03 C1.8 36.38, 7.45 40.83, 16 42.03 M16 42.03 C31.86 40.82, 51.88 43.96, 99.56 42.03 M16 42.03 C33.54 42.63, 50.38 42.01, 99.56 42.03 M99.56 42.03 C111.46 43.32, 114.38 46.77, 115.56 58.03 M99.56 42.03 C110.56 43.13, 114.47 46.15, 115.56 58.03 M115.56 58.03 C115.76 65.67, 115.23 76.13, 115.56 84.05 M115.56 58.03 C114.91 69.06, 115.78 78, 115.56 84.05" stroke="#1e1e1e" stroke-width="2" fill="none"></path></g><g transform="translate(93.4872830760005 283.8413027424326) rotate(0 57.78154855537203 42.02534495492813)"><path d="M108.29 64.34 C109.69 71.47, 113.3 77.69, 115.56 84.05 M108.29 64.34 C111.05 71.38, 114.79 79.51, 115.56 84.05" stroke="#1e1e1e" stroke-width="2" fill="none"></path></g><g transform="translate(93.4872830760005 283.8413027424326) rotate(0 57.78154855537203 42.02534495492813)"><path d="M122.66 64.27 C118.76 71.54, 117.07 77.78, 115.56 84.05 M122.66 64.27 C119.93 71.44, 118.19 79.59, 115.56 84.05" stroke="#1e1e1e" stroke-width="2" fill="none"></path></g></g><mask></mask><g stroke-linecap="round"><g transform="translate(194.69760429808184 424.8373548519098) rotate(0 -73.30175803369104 12.533949180495313)"><path d="M-0.05 -0.31 C-16.86 4.17, -75.57 25.77, -99.94 26.05 C-124.31 26.33, -138.5 5.7, -146.29 1.36" stroke="#e03131" stroke-width="2.5" fill="none" stroke-dasharray="8 10"></path></g><g transform="translate(194.69760429808184 424.8373548519098) rotate(0 -73.30175803369104 12.533949180495313)"><path d="M-122.73 9.72 C-132.09 5.42, -138.83 3.92, -146.29 1.36" stroke="#e03131" stroke-width="2.5" fill="none"></path></g><g transform="translate(194.69760429808184 424.8373548519098) rotate(0 -73.30175803369104 12.533949180495313)"><path d="M-133.62 22.91 C-138.77 13.62, -141.4 7.14, -146.29 1.36" stroke="#e03131" stroke-width="2.5" fill="none"></path></g></g><mask></mask><g stroke-linecap="round"><g transform="translate(116.55788824765978 418.60377268745333) rotate(0 -27.14653304943623 2.1110376158894724)"><path d="M-0.68 0.98 C-5.02 2.45, -17.16 9.34, -26.11 8.51 C-35.06 7.68, -49.86 -2.02, -54.38 -3.99" stroke="#e03131" stroke-width="2.5" fill="none" stroke-dasharray="8 10"></path></g><g transform="translate(116.55788824765978 418.60377268745333) rotate(0 -27.14653304943623 2.1110376158894724)"><path d="M-39.52 -1.9 C-42.68 -2.2, -47.27 -3.32, -54.38 -3.99" stroke="#e03131" stroke-width="2.5" fill="none"></path></g><g transform="translate(116.55788824765978 418.60377268745333) rotate(0 -27.14653304943623 2.1110376158894724)"><path d="M-44.34 7.17 C-46.05 4.21, -49.22 0.41, -54.38 -3.99" stroke="#e03131" stroke-width="2.5" fill="none"></path></g></g><mask></mask><g stroke-linecap="round" transform="translate(316.04339928772106 228.208814631741) rotate(0 27.730496776793473 24.402825297472077)"><path d="M29.07 -0.91 C34.54 -0.75, 41.79 3.48, 46.24 7.26 C50.69 11.05, 55.09 16.9, 55.79 21.8 C56.48 26.7, 53.82 32.52, 50.4 36.68 C46.98 40.83, 40.73 44.88, 35.27 46.71 C29.81 48.55, 22.87 49.62, 17.64 47.71 C12.42 45.79, 6.87 40.01, 3.93 35.23 C1 30.44, -1.08 24.03, 0.05 19 C1.18 13.96, 4.85 7.98, 10.73 5.02 C16.62 2.07, 30.32 1.45, 35.34 1.27 C40.36 1.09, 41.13 3.61, 40.83 3.96 M21.74 0.75 C27.23 -0.78, 34.43 0.45, 39.73 2.74 C45.03 5.02, 50.94 9.51, 53.55 14.45 C56.15 19.39, 56.92 27.15, 55.35 32.36 C53.78 37.57, 49.37 42.81, 44.11 45.71 C38.85 48.61, 29.86 50.64, 23.78 49.78 C17.7 48.92, 11.58 44.64, 7.65 40.54 C3.72 36.43, 0.45 30.4, 0.19 25.15 C-0.06 19.89, 2.73 12.85, 6.15 9.01 C9.56 5.17, 18.1 3.63, 20.7 2.08 C23.31 0.53, 21.63 -0.51, 21.77 -0.3" stroke="none" stroke-width="0" fill="#a5d8ff"></path><path d="M26.92 -0.81 C32.64 -1.3, 40.19 2.56, 44.92 6.04 C49.64 9.53, 54.08 14.98, 55.27 20.11 C56.47 25.23, 55.03 32.44, 52.08 36.77 C49.14 41.11, 42.93 44.41, 37.61 46.13 C32.28 47.85, 25.85 48.7, 20.14 47.1 C14.43 45.5, 6.62 40.75, 3.37 36.52 C0.12 32.3, -0.15 26.67, 0.66 21.76 C1.46 16.86, 2.8 10.53, 8.2 7.08 C13.6 3.64, 27.83 1.72, 33.07 1.07 C38.31 0.42, 39.73 2.78, 39.64 3.19 M36.77 1.98 C42.26 3.21, 47.55 6.37, 50.67 10.88 C53.79 15.39, 56.39 23.74, 55.49 29.05 C54.6 34.35, 49.91 39.48, 45.31 42.71 C40.71 45.94, 33.51 48.05, 27.87 48.42 C22.22 48.79, 15.78 48.13, 11.43 44.92 C7.08 41.72, 3.34 34.37, 1.78 29.18 C0.22 24, -0.56 18.58, 2.07 13.84 C4.71 9.1, 11.92 2.71, 17.59 0.75 C23.27 -1.21, 33.24 1.94, 36.15 2.06 C39.05 2.18, 35.12 1.14, 35.03 1.47" stroke="#1e1e1e" stroke-width="2" fill="none"></path></g><g stroke-linecap="round" transform="translate(376.31111512220514 366.1860939905523) rotate(0 27.730496776793473 24.402825297472077)"><path d="M3.91 11.35 C3.91 11.35, 3.91 11.35, 3.91 11.35 M3.91 11.35 C3.91 11.35, 3.91 11.35, 3.91 11.35 M0.77 27.17 C8.86 17.6, 17.3 9.46, 22.42 2.26 M0.77 27.17 C7.52 18.54, 15.09 9.21, 22.42 2.26 M4.18 35.43 C13.07 24.99, 23.33 13.81, 32.39 2.98 M4.18 35.43 C14.93 22.74, 25.3 11.48, 32.39 2.98 M9.56 41.44 C18.6 31.09, 25.01 25.03, 41.71 4.46 M9.56 41.44 C20.9 28.18, 30.59 17.47, 41.71 4.46 M16.91 45.18 C28.08 30.5, 42.54 16.54, 47.75 9.7 M16.91 45.18 C26.21 35, 36.12 23.64, 47.75 9.7 M24.92 48.16 C37 34.86, 47.5 25.13, 53.78 14.95 M24.92 48.16 C30.83 41.54, 36.97 32.83, 53.78 14.95 M38.17 45.11 C41.64 42.05, 44.64 37.65, 53.92 26.99 M38.17 45.11 C42.95 39.44, 50 32.18, 53.92 26.99 M7.06 40.65 C7.06 40.65, 7.06 40.65, 7.06 40.65 M7.06 40.65 C7.06 40.65, 7.06 40.65, 7.06 40.65 M27.41 47.74 C17.72 39.57, 7.43 31.89, 0.99 24.77 M27.41 47.74 C19.22 40.59, 9.58 32.53, 0.99 24.77 M36.43 44.98 C26.12 33.69, 14.57 26.26, 3.22 16.11 M36.43 44.98 C23.51 34.52, 11.55 22.82, 3.22 16.11 M44.69 41.56 C32 32.92, 19.14 21.77, 6.96 8.76 M44.69 41.56 C35.62 33.92, 27.04 26.26, 6.96 8.76 M50.7 36.18 C37.55 24.37, 27.58 15.63, 14.47 4.69 M50.7 36.18 C41.62 28.89, 33.96 20.75, 14.47 4.69 M54.44 28.83 C42.37 20.81, 30.03 9.16, 22.74 1.28 M54.44 28.83 C41.24 17.99, 30.52 7.9, 22.74 1.28 M53.65 17.55 C49.12 11.52, 42.5 6.44, 36.29 2.46 M53.65 17.55 C49.3 12.65, 44.49 8.45, 36.29 2.46" stroke="#e9ecef" stroke-width="1" fill="none"></path><path d="M39.87 3.29 C45.15 5.43, 51.02 10.37, 53.42 15.14 C55.83 19.91, 56.06 27.17, 54.29 31.92 C52.53 36.68, 47.56 40.95, 42.84 43.66 C38.12 46.37, 31.92 48.68, 25.95 48.18 C19.98 47.67, 11.29 44.16, 7.04 40.63 C2.79 37.1, 0.93 31.93, 0.47 26.99 C0 22.04, 0.86 15.25, 4.24 10.98 C7.61 6.7, 14.35 2.52, 20.72 1.35 C27.1 0.18, 38.65 3.23, 42.47 3.96 C46.29 4.69, 43.85 5.55, 43.64 5.72 M22.92 -0.53 C28.47 -1.52, 37.51 1.75, 42.56 4.61 C47.62 7.48, 51.52 11.95, 53.25 16.68 C54.99 21.4, 54.85 27.87, 52.97 32.97 C51.08 38.07, 46.87 44.74, 41.94 47.29 C37.02 49.83, 29.62 49.35, 23.42 48.25 C17.22 47.15, 8.63 44.93, 4.73 40.69 C0.83 36.45, -0.29 28.1, 0.01 22.82 C0.32 17.54, 2.84 12.82, 6.56 9.02 C10.27 5.22, 19.44 1.31, 22.29 0.01 C25.14 -1.28, 23.43 0.56, 23.66 1.25" stroke="#ced4da" stroke-width="2" fill="none"></path></g><g stroke-linecap="round" transform="translate(252.8179378332684 368.7099191934535) rotate(0 27.730496776793473 24.402825297472077)"><path d="M3.63 13.75 C3.63 13.75, 3.63 13.75, 3.63 13.75 M3.63 13.75 C3.63 13.75, 3.63 13.75, 3.63 13.75 M1.13 28.81 C6.61 23.62, 13.08 17.72, 24.1 2.4 M1.13 28.81 C9.67 18.05, 19.33 8.79, 24.1 2.4 M4.55 37.08 C14.54 26.17, 24.58 17.12, 35.38 1.61 M4.55 37.08 C16.23 24.36, 26.17 11.63, 35.38 1.61 M9.27 43.84 C16.45 36.79, 25.6 23.89, 42.08 6.1 M9.27 43.84 C17.72 34.09, 28.99 22.64, 42.08 6.1 M17.28 46.82 C28.28 35.38, 35.7 24.71, 49.43 9.84 M17.28 46.82 C26.92 35.93, 36.17 25.81, 49.43 9.84 M25.94 49.05 C34.63 41.81, 38.43 30.93, 53.5 17.35 M25.94 49.05 C31.98 40.27, 38.97 33.69, 53.5 17.35 M39.85 45.24 C43.93 40.51, 51.13 33.19, 56.25 26.37 M39.85 45.24 C44.15 40.91, 47.15 37.03, 56.25 26.37 M10.15 44.72 C10.15 44.72, 10.15 44.72, 10.15 44.72 M10.15 44.72 C10.15 44.72, 10.15 44.72, 10.15 44.72 M26.72 48.52 C18.94 43.32, 14.11 37.53, 3.33 28.18 M26.72 48.52 C20.96 44.2, 15.84 39.64, 3.33 28.18 M34.23 44.45 C28.38 39.66, 20.82 32.29, 4.8 18.86 M34.23 44.45 C24.52 35.3, 13.54 25.76, 4.8 18.86 M41.75 40.38 C28.17 31.18, 16.92 21.57, 7.03 10.2 M41.75 40.38 C28.6 28.43, 14.2 16.43, 7.03 10.2 M50.01 36.97 C42.64 29.92, 32.5 21.06, 13.03 4.82 M50.01 36.97 C42.88 30.47, 35.07 22.75, 13.03 4.82 M54.51 30.27 C41.93 21.24, 33.89 9.93, 19.79 0.1 M54.51 30.27 C43.33 20.06, 30.5 9.92, 19.79 0.1 M59 23.58 C52.32 16.29, 45.6 11.62, 31.08 -0.69 M59 23.58 C48.27 12.83, 37.29 3.44, 31.08 -0.69" stroke="#e9ecef" stroke-width="1" fill="none"></path><path d="M17 2.84 C21.99 0.57, 29.83 0.71, 35.38 1.9 C40.92 3.09, 46.8 5.85, 50.28 9.96 C53.76 14.07, 56.97 21.36, 56.27 26.57 C55.56 31.78, 50.44 37.41, 46.04 41.23 C41.65 45.05, 35.86 48.9, 29.91 49.51 C23.96 50.12, 15.22 48.01, 10.34 44.88 C5.46 41.76, 1.8 35.91, 0.64 30.77 C-0.53 25.64, -0.22 19.02, 3.35 14.07 C6.91 9.13, 17.8 3.47, 22.01 1.11 C26.23 -1.25, 28.56 -0.42, 28.63 -0.1 M34.62 1.71 C40.17 2.71, 45.92 5.98, 49.29 9.96 C52.66 13.93, 54.93 20.12, 54.84 25.58 C54.76 31.03, 52.58 38.85, 48.78 42.68 C44.98 46.52, 38.31 48.07, 32.02 48.59 C25.73 49.11, 16.21 48.86, 11.07 45.81 C5.92 42.77, 2.65 35.4, 1.13 30.33 C-0.4 25.26, -0.24 20.08, 1.92 15.41 C4.08 10.73, 8.69 4.65, 14.08 2.28 C19.46 -0.09, 30.94 1.13, 34.22 1.19 C37.5 1.24, 33.85 2.05, 33.78 2.59" stroke="#868e96" stroke-width="2" fill="none"></path></g><g stroke-linecap="round"><g transform="translate(343.67389606451434 282.01432799484496) rotate(0 30.133857917242295 39.58595161377383)"><path d="M0 0 C0.27 10.94, 0.88 19.95, 0 23.59 M0 0 C-0.68 7.73, -0.29 12.67, 0 23.59 M0 23.59 C-1.63 35.03, 6.84 37.64, 16 39.59 M0 23.59 C1.87 33.9, 6.69 40.68, 16 39.59 M16 39.59 C27.14 38.23, 35.09 39.7, 44.27 39.59 M16 39.59 C26.05 40.41, 35.14 39.75, 44.27 39.59 M44.27 39.59 C54.18 39.08, 61.58 46.84, 60.27 55.59 M44.27 39.59 C56.81 39.49, 58.28 46.6, 60.27 55.59 M60.27 55.59 C61.18 60.87, 59.78 69.68, 60.27 79.17 M60.27 55.59 C60.3 64.34, 59.52 71.43, 60.27 79.17" stroke="#1e1e1e" stroke-width="2" fill="none"></path></g><g transform="translate(343.67389606451434 282.01432799484496) rotate(0 30.133857917242295 39.58595161377383)"><path d="M52.63 60.91 C55.87 69.82, 59.44 76.76, 60.27 79.17 M52.63 60.91 C54.09 67.15, 56.67 70.58, 60.27 79.17" stroke="#1e1e1e" stroke-width="2" fill="none"></path></g><g transform="translate(343.67389606451434 282.01432799484496) rotate(0 30.133857917242295 39.58595161377383)"><path d="M66.15 60.27 C64.12 69.32, 62.43 76.5, 60.27 79.17 M66.15 60.27 C63.75 66.62, 62.45 70.23, 60.27 79.17" stroke="#1e1e1e" stroke-width="2" fill="none"></path></g></g><mask></mask><g stroke-linecap="round"><g transform="translate(343.67389606451434 282.01432799484496) rotate(0 -31.612730727226193 40.84786421522438)"><path d="M0 0 C0.87 6.96, -0.24 12.64, 0 24.85 M0 0 C-0.73 5.32, -1.04 12.72, 0 24.85 M0 24.85 C1.5 33.57, -3.71 40.54, -16 40.85 M0 24.85 C1.36 36.61, -4.23 40.51, -16 40.85 M-16 40.85 C-27.87 40.95, -37.61 39.71, -47.23 40.85 M-16 40.85 C-24.23 41.07, -31.81 40.81, -47.23 40.85 M-47.23 40.85 C-56.58 42.76, -61.59 46.1, -63.23 56.85 M-47.23 40.85 C-59.88 42.53, -63.22 44.74, -63.23 56.85 M-63.23 56.85 C-63.44 63.55, -62.43 69.91, -63.23 81.7 M-63.23 56.85 C-63.89 66.79, -64.14 76.24, -63.23 81.7" stroke="#1e1e1e" stroke-width="2" fill="none"></path></g><g transform="translate(343.67389606451434 282.01432799484496) rotate(0 -31.612730727226193 40.84786421522438)"><path d="M-71.9 63.2 C-69.15 68.71, -68.38 73.01, -63.23 81.7 M-71.9 63.2 C-70.42 66.86, -68.58 72.68, -63.23 81.7" stroke="#1e1e1e" stroke-width="2" fill="none"></path></g><g transform="translate(343.67389606451434 282.01432799484496) rotate(0 -31.612730727226193 40.84786421522438)"><path d="M-57.98 61.96 C-58.26 67.86, -60.51 72.42, -63.23 81.7 M-57.98 61.96 C-59.97 66.06, -61.58 72.19, -63.23 81.7" stroke="#1e1e1e" stroke-width="2" fill="none"></path></g></g><mask></mask><g stroke-linecap="round"><g transform="translate(268.1127513344295 370.56808782932785) rotate(0 21.775386185262363 -51.743300660970704)"><path d="M0.94 -0.16 C1.44 -11.26, -2.87 -49.05, 4.06 -66.08 C10.98 -83.1, 35.99 -95.92, 42.47 -102.32" stroke="#fa5252" stroke-width="2.5" fill="none" stroke-dasharray="8 10"></path></g><g transform="translate(268.1127513344295 370.56808782932785) rotate(0 21.775386185262363 -51.743300660970704)"><path d="M28.87 -81.34 C33.78 -87.73, 38.28 -99.5, 42.47 -102.32" stroke="#fa5252" stroke-width="2.5" fill="none"></path></g><g transform="translate(268.1127513344295 370.56808782932785) rotate(0 21.775386185262363 -51.743300660970704)"><path d="M18.57 -94.99 C27.52 -96.17, 36.01 -102.65, 42.47 -102.32" stroke="#fa5252" stroke-width="2.5" fill="none"></path></g></g><mask></mask><g stroke-linecap="round"><g transform="translate(419.3100591255766 363.44099497613297) rotate(0 -22.81003987101093 -48.38683363512382)"><path d="M1.1 -0.62 C-0.64 -11.3, -1.62 -48.01, -9.51 -64.2 C-17.4 -80.4, -40.05 -92.44, -46.23 -97.79" stroke="#e03131" stroke-width="2.5" fill="none" stroke-dasharray="8 10"></path></g><g transform="translate(419.3100591255766 363.44099497613297) rotate(0 -22.81003987101093 -48.38683363512382)"><path d="M-22.79 -91.26 C-32.68 -95.31, -38.57 -97, -46.23 -97.79" stroke="#e03131" stroke-width="2.5" fill="none"></path></g><g transform="translate(419.3100591255766 363.44099497613297) rotate(0 -22.81003987101093 -48.38683363512382)"><path d="M-32.47 -77.72 C-38.69 -86.98, -40.91 -93.79, -46.23 -97.79" stroke="#e03131" stroke-width="2.5" fill="none"></path></g></g><mask></mask></svg>