<?xml version="1.0" encoding="utf-8" standalone="no"?>
<!DOCTYPE svg PUBLIC "-//W3C//DTD SVG 1.1//EN"
  "http://www.w3.org/Graphics/SVG/1.1/DTD/svg11.dtd">
<svg xmlns:xlink="http://www.w3.org/1999/xlink" width="602.868452pt" height="424.8pt" viewBox="0 0 602.868452 424.8" xmlns="http://www.w3.org/2000/svg" version="1.1">
 <metadata>
  <rdf:RDF xmlns:dc="http://purl.org/dc/elements/1.1/" xmlns:cc="http://creativecommons.org/ns#" xmlns:rdf="http://www.w3.org/1999/02/22-rdf-syntax-ns#">
   <cc:Work>
    <dc:type rdf:resource="http://purl.org/dc/dcmitype/StillImage"/>
    <dc:date>2026-09-08T14:44:50.409299</dc:date>
    <dc:format>image/svg+xml</dc:format>
    <dc:creator>
     <cc:Agent>
      <dc:title>Matplotlib v3.10.8, https://matplotlib.org/</dc:title>
     </cc:Agent>
    </dc:creator>
   </cc:Work>
  </rdf:RDF>
 </metadata>
 <defs>
  <style type="text/css">*{stroke-linejoin: round; stroke-linecap: butt}</style>
 </defs>
 <g id="figure_1">
  <g id="patch_1">
   <path d="M 0 424.8 
L 602.868452 424.8 
L 602.868452 0 
L 0 0 
z
" style="fill: #ffffff"/>
  </g>
  <g id="axes_1">
   <g id="patch_2">
    <path d="M 468.601831 370.064486 
C 468.601831 300.53445 450.295589 232.214622 415.530571 171.999845 
C 380.765553 111.785067 330.751967 61.771482 270.53719 27.006464 
" clip-path="url(#p424d6b405e)" style="fill: none; stroke-dasharray: 3.7,1.6; stroke-dashoffset: 0; stroke: #000000; stroke-linejoin: miter"/>
   </g>
   <g id="patch_3">
    <path d="M 270.53719 27.006464 
C 210.322413 61.771482 160.308827 111.785067 125.543809 171.999845 
C 90.778792 232.214622 72.472549 300.53445 72.472549 370.064486 
" clip-path="url(#p424d6b405e)" style="fill: none; stroke-dasharray: 3.7,1.6; stroke-dashoffset: 0; stroke: #000000; stroke-linejoin: miter"/>
   </g>
   <g id="line2d_1">
    <path d="M 72.472549 370.064486 
L 468.601831 370.064486 
" clip-path="url(#p424d6b405e)" style="fill: none; stroke: #000000; stroke-width: 1.2; stroke-linecap: square"/>
   </g>
   <g id="patch_4">
    <path d="M 310.150118 370.064486 
C 310.150118 319.495533 294.011328 270.222533 264.094331 229.45254 
C 234.177335 188.682546 192.015526 158.505221 143.77582 143.334535 
" clip-path="url(#p424d6b405e)" style="fill: none; stroke-dasharray: 0.8,1.32; stroke-dashoffset: 0; stroke: #666666; stroke-width: 0.8; stroke-linejoin: miter"/>
   </g>
   <g id="patch_5">
    <path d="M 397.298561 143.334535 
C 349.058854 158.505221 306.897045 188.682546 276.980049 229.45254 
C 247.063052 270.222533 230.924262 319.495533 230.924262 370.064486 
" clip-path="url(#p424d6b405e)" style="fill: none; stroke-dasharray: 0.8,1.32; stroke-dashoffset: 0; stroke: #666666; stroke-width: 0.8; stroke-linejoin: miter"/>
   </g>
   <g id="patch_6">
    <path d="M 389.375975 370.064486 
C 389.375975 308.409245 371.382944 248.073807 337.612978 196.489331 
C 303.843011 144.904855 255.741881 104.279795 199.233919 79.617698 
" clip-path="url(#p424d6b405e)" style="fill: none; stroke-dasharray: 0.8,1.32; stroke-dashoffset: 0; stroke: #666666; stroke-width: 0.8; stroke-linejoin: miter"/>
   </g>
   <g id="patch_7">
    <path d="M 341.840461 79.617698 
C 285.332499 104.279795 237.231369 144.904855 203.461402 196.489331 
C 169.691436 248.073807 151.698405 308.409245 151.698405 370.064486 
" clip-path="url(#p424d6b405e)" style="fill: none; stroke-dasharray: 0.8,1.32; stroke-dashoffset: 0; stroke: #666666; stroke-width: 0.8; stroke-linejoin: miter"/>
   </g>
   <g id="line2d_2">
    <path d="M 95.4 239.926626 
L 99.897333 240.293329 
L 104.223415 240.773393 
L 112.398515 242.021691 
L 119.992625 243.582942 
L 127.064449 245.38841 
L 133.665369 247.384164 
L 139.840526 249.527503 
L 145.629711 251.784368 
L 151.068122 254.127419 
L 156.186983 256.534604 
L 161.014085 258.988059 
L 167.761213 262.724 
L 173.980102 266.493859 
L 179.73292 270.269521 
L 185.072872 274.030277 
L 190.045717 277.760925 
L 196.172709 282.669616 
L 201.796465 287.487474 
L 206.983454 292.203391 
L 212.937174 297.945621 
L 218.385504 303.513568 
L 224.3596 309.965092 
L 229.815476 316.171284 
L 235.63575 323.114471 
L 241.695879 330.679696 
L 248.559614 339.623531 
L 255.985807 349.676191 
L 265.920084 363.541108 
L 270.4876 369.994354 
L 271.473775 368.740006 
L 284.891051 349.947976 
L 293.061092 338.898333 
L 300.126027 329.728875 
L 306.643883 321.65002 
L 312.687037 314.518067 
L 318.69975 307.781348 
L 324.307913 301.827549 
L 329.93062 296.178504 
L 335.582373 290.820278 
L 341.275201 285.741616 
L 347.019159 280.933571 
L 352.406037 276.705188 
L 357.850091 272.699995 
L 363.356303 268.915037 
L 368.928988 265.348458 
L 374.571905 261.999427 
L 380.288343 258.86808 
L 386.081186 255.955476 
L 391.952979 253.26358 
L 397.905973 250.79525 
L 403.47485 248.718462 
L 409.116027 246.839025 
L 414.830772 245.161298 
L 420.620228 243.69038 
L 426.485434 242.432164 
L 432.427328 241.393399 
L 438.446767 240.581779 
L 444.033374 240.044784 
L 446.594649 239.868239 
L 446.594649 239.868239 
" clip-path="url(#p424d6b405e)" style="fill: none; stroke: #8c8c8c; stroke-linecap: square"/>
   </g>
   <g id="line2d_3">
    <path d="M 108.934517 204.242114 
L 117.350789 204.779174 
L 125.200854 205.552515 
L 132.541926 206.504955 
L 139.4241 207.591278 
L 147.961819 209.1868 
L 155.851702 210.890894 
L 164.918976 213.099259 
L 174.796915 215.773626 
L 185.159117 218.824787 
L 199.411137 223.288889 
L 219.743732 229.677613 
L 228.866793 232.303482 
L 236.38318 234.239278 
L 242.609681 235.635434 
L 248.476391 236.743475 
L 254.03705 237.58201 
L 259.336405 238.170576 
L 264.411986 238.528994 
L 269.893798 238.68156 
L 275.170353 238.594898 
L 280.273501 238.295042 
L 285.772838 237.741713 
L 291.12225 236.987038 
L 296.864464 235.958931 
L 302.991852 234.640823 
L 310.000425 232.896764 
L 317.875006 230.701099 
L 328.068937 227.608205 
L 365.680822 215.943102 
L 375.462852 213.278123 
L 384.361015 211.089651 
L 392.860106 209.237998 
L 400.952938 207.711484 
L 408.628974 206.491032 
L 415.875608 205.552276 
L 423.205487 204.822219 
L 430.621854 204.316156 
L 432.222612 204.23837 
L 432.222612 204.23837 
" clip-path="url(#p424d6b405e)" style="fill: none; stroke: #8c8c8c; stroke-linecap: square"/>
   </g>
   <g id="line2d_4">
    <path d="M 130.172562 164.645396 
L 139.67533 164.94745 
L 150.229918 165.52917 
L 161.52981 166.400534 
L 173.306188 167.530579 
L 189.102548 169.29215 
L 226.249747 173.557033 
L 237.737755 174.604232 
L 248.36841 175.345323 
L 257.568115 175.773471 
L 266.995956 175.984429 
L 275.967878 175.961301 
L 285.21837 175.709936 
L 294.751086 175.222185 
L 305.185384 174.451378 
L 316.497147 173.387192 
L 330.987828 171.785223 
L 372.157555 167.086617 
L 384.515367 165.988411 
L 395.238415 165.257535 
L 404.891881 164.810639 
L 411.174805 164.640072 
L 411.174805 164.640072 
" clip-path="url(#p424d6b405e)" style="fill: none; stroke: #8c8c8c; stroke-linecap: square"/>
   </g>
   <g id="text_1">
    <!-- pre=.6 -->
    <g style="fill: #333333" transform="translate(294.711603 384.064486) scale(0.09 -0.09)">
     <defs>
      <path id="DejaVuSans-70" d="M 1159 525 
L 1159 -1331 
L 581 -1331 
L 581 3500 
L 1159 3500 
L 1159 2969 
Q 1341 3281 1617 3432 
Q 1894 3584 2278 3584 
Q 2916 3584 3314 3078 
Q 3713 2572 3713 1747 
Q 3713 922 3314 415 
Q 2916 -91 2278 -91 
Q 1894 -91 1617 61 
Q 1341 213 1159 525 
z
M 3116 1747 
Q 3116 2381 2855 2742 
Q 2594 3103 2138 3103 
Q 1681 3103 1420 2742 
Q 1159 2381 1159 1747 
Q 1159 1113 1420 752 
Q 1681 391 2138 391 
Q 2594 391 2855 752 
Q 3116 1113 3116 1747 
z
" transform="scale(0.015625)"/>
      <path id="DejaVuSans-72" d="M 2631 2963 
Q 2534 3019 2420 3045 
Q 2306 3072 2169 3072 
Q 1681 3072 1420 2755 
Q 1159 2438 1159 1844 
L 1159 0 
L 581 0 
L 581 3500 
L 1159 3500 
L 1159 2956 
Q 1341 3275 1631 3429 
Q 1922 3584 2338 3584 
Q 2397 3584 2469 3576 
Q 2541 3569 2628 3553 
L 2631 2963 
z
" transform="scale(0.015625)"/>
      <path id="DejaVuSans-65" d="M 3597 1894 
L 3597 1613 
L 953 1613 
Q 991 1019 1311 708 
Q 1631 397 2203 397 
Q 2534 397 2845 478 
Q 3156 559 3463 722 
L 3463 178 
Q 3153 47 2828 -22 
Q 2503 -91 2169 -91 
Q 1331 -91 842 396 
Q 353 884 353 1716 
Q 353 2575 817 3079 
Q 1281 3584 2069 3584 
Q 2775 3584 3186 3129 
Q 3597 2675 3597 1894 
z
M 3022 2063 
Q 3016 2534 2758 2815 
Q 2500 3097 2075 3097 
Q 1594 3097 1305 2825 
Q 1016 2553 972 2059 
L 3022 2063 
z
" transform="scale(0.015625)"/>
      <path id="DejaVuSans-3d" d="M 678 2906 
L 4684 2906 
L 4684 2381 
L 678 2381 
L 678 2906 
z
M 678 1631 
L 4684 1631 
L 4684 1100 
L 678 1100 
L 678 1631 
z
" transform="scale(0.015625)"/>
      <path id="DejaVuSans-2e" d="M 684 794 
L 1344 794 
L 1344 0 
L 684 0 
L 684 794 
z
" transform="scale(0.015625)"/>
      <path id="DejaVuSans-36" d="M 2113 2584 
Q 1688 2584 1439 2293 
Q 1191 2003 1191 1497 
Q 1191 994 1439 701 
Q 1688 409 2113 409 
Q 2538 409 2786 701 
Q 3034 994 3034 1497 
Q 3034 2003 2786 2293 
Q 2538 2584 2113 2584 
z
M 3366 4563 
L 3366 3988 
Q 3128 4100 2886 4159 
Q 2644 4219 2406 4219 
Q 1781 4219 1451 3797 
Q 1122 3375 1075 2522 
Q 1259 2794 1537 2939 
Q 1816 3084 2150 3084 
Q 2853 3084 3261 2657 
Q 3669 2231 3669 1497 
Q 3669 778 3244 343 
Q 2819 -91 2113 -91 
Q 1303 -91 875 529 
Q 447 1150 447 2328 
Q 447 3434 972 4092 
Q 1497 4750 2381 4750 
Q 2619 4750 2861 4703 
Q 3103 4656 3366 4563 
z
" transform="scale(0.015625)"/>
     </defs>
     <use xlink:href="#DejaVuSans-70"/>
     <use xlink:href="#DejaVuSans-72" transform="translate(63.476562 0)"/>
     <use xlink:href="#DejaVuSans-65" transform="translate(102.339844 0)"/>
     <use xlink:href="#DejaVuSans-3d" transform="translate(163.863281 0)"/>
     <use xlink:href="#DejaVuSans-2e" transform="translate(247.652344 0)"/>
     <use xlink:href="#DejaVuSans-36" transform="translate(279.439453 0)"/>
    </g>
   </g>
   <g id="text_2">
    <!-- rec=.6 -->
    <g style="fill: #333333" transform="translate(215.868246 384.064486) scale(0.09 -0.09)">
     <defs>
      <path id="DejaVuSans-63" d="M 3122 3366 
L 3122 2828 
Q 2878 2963 2633 3030 
Q 2388 3097 2138 3097 
Q 1578 3097 1268 2742 
Q 959 2388 959 1747 
Q 959 1106 1268 751 
Q 1578 397 2138 397 
Q 2388 397 2633 464 
Q 2878 531 3122 666 
L 3122 134 
Q 2881 22 2623 -34 
Q 2366 -91 2075 -91 
Q 1284 -91 818 406 
Q 353 903 353 1747 
Q 353 2603 823 3093 
Q 1294 3584 2113 3584 
Q 2378 3584 2631 3529 
Q 2884 3475 3122 3366 
z
" transform="scale(0.015625)"/>
     </defs>
     <use xlink:href="#DejaVuSans-72"/>
     <use xlink:href="#DejaVuSans-65" transform="translate(38.863281 0)"/>
     <use xlink:href="#DejaVuSans-63" transform="translate(100.386719 0)"/>
     <use xlink:href="#DejaVuSans-3d" transform="translate(155.367188 0)"/>
     <use xlink:href="#DejaVuSans-2e" transform="translate(239.15625 0)"/>
     <use xlink:href="#DejaVuSans-36" transform="translate(270.943359 0)"/>
    </g>
   </g>
   <g id="text_3">
    <!-- pre=.8 -->
    <g style="fill: #333333" transform="translate(373.937459 384.064486) scale(0.09 -0.09)">
     <defs>
      <path id="DejaVuSans-38" d="M 2034 2216 
Q 1584 2216 1326 1975 
Q 1069 1734 1069 1313 
Q 1069 891 1326 650 
Q 1584 409 2034 409 
Q 2484 409 2743 651 
Q 3003 894 3003 1313 
Q 3003 1734 2745 1975 
Q 2488 2216 2034 2216 
z
M 1403 2484 
Q 997 2584 770 2862 
Q 544 3141 544 3541 
Q 544 4100 942 4425 
Q 1341 4750 2034 4750 
Q 2731 4750 3128 4425 
Q 3525 4100 3525 3541 
Q 3525 3141 3298 2862 
Q 3072 2584 2669 2484 
Q 3125 2378 3379 2068 
Q 3634 1759 3634 1313 
Q 3634 634 3220 271 
Q 2806 -91 2034 -91 
Q 1263 -91 848 271 
Q 434 634 434 1313 
Q 434 1759 690 2068 
Q 947 2378 1403 2484 
z
M 1172 3481 
Q 1172 3119 1398 2916 
Q 1625 2713 2034 2713 
Q 2441 2713 2670 2916 
Q 2900 3119 2900 3481 
Q 2900 3844 2670 4047 
Q 2441 4250 2034 4250 
Q 1625 4250 1398 4047 
Q 1172 3844 1172 3481 
z
" transform="scale(0.015625)"/>
     </defs>
     <use xlink:href="#DejaVuSans-70"/>
     <use xlink:href="#DejaVuSans-72" transform="translate(63.476562 0)"/>
     <use xlink:href="#DejaVuSans-65" transform="translate(102.339844 0)"/>
     <use xlink:href="#DejaVuSans-3d" transform="translate(163.863281 0)"/>
     <use xlink:href="#DejaVuSans-2e" transform="translate(247.652344 0)"/>
     <use xlink:href="#DejaVuSans-38" transform="translate(279.439453 0)"/>
    </g>
   </g>
   <g id="text_4">
    <!-- rec=.8 -->
    <g style="fill: #333333" transform="translate(136.64239 384.064486) scale(0.09 -0.09)">
     <use xlink:href="#DejaVuSans-72"/>
     <use xlink:href="#DejaVuSans-65" transform="translate(38.863281 0)"/>
     <use xlink:href="#DejaVuSans-63" transform="translate(100.386719 0)"/>
     <use xlink:href="#DejaVuSans-3d" transform="translate(155.367188 0)"/>
     <use xlink:href="#DejaVuSans-2e" transform="translate(239.15625 0)"/>
     <use xlink:href="#DejaVuSans-38" transform="translate(270.943359 0)"/>
    </g>
   </g>
   <g id="text_5">
    <!-- rec=1.0 -->
    <g transform="translate(44.044189 392.064486) scale(0.13 -0.13)">
     <defs>
      <path id="DejaVuSans-Bold-72" d="M 3138 2547 
Q 2991 2616 2845 2648 
Q 2700 2681 2553 2681 
Q 2122 2681 1889 2404 
Q 1656 2128 1656 1613 
L 1656 0 
L 538 0 
L 538 3500 
L 1656 3500 
L 1656 2925 
Q 1872 3269 2151 3426 
Q 2431 3584 2822 3584 
Q 2878 3584 2943 3579 
Q 3009 3575 3134 3559 
L 3138 2547 
z
" transform="scale(0.015625)"/>
      <path id="DejaVuSans-Bold-65" d="M 4031 1759 
L 4031 1441 
L 1416 1441 
Q 1456 1047 1700 850 
Q 1944 653 2381 653 
Q 2734 653 3104 758 
Q 3475 863 3866 1075 
L 3866 213 
Q 3469 63 3072 -14 
Q 2675 -91 2278 -91 
Q 1328 -91 801 392 
Q 275 875 275 1747 
Q 275 2603 792 3093 
Q 1309 3584 2216 3584 
Q 3041 3584 3536 3087 
Q 4031 2591 4031 1759 
z
M 2881 2131 
Q 2881 2450 2695 2645 
Q 2509 2841 2209 2841 
Q 1884 2841 1681 2658 
Q 1478 2475 1428 2131 
L 2881 2131 
z
" transform="scale(0.015625)"/>
      <path id="DejaVuSans-Bold-63" d="M 3366 3391 
L 3366 2478 
Q 3138 2634 2908 2709 
Q 2678 2784 2431 2784 
Q 1963 2784 1702 2511 
Q 1441 2238 1441 1747 
Q 1441 1256 1702 982 
Q 1963 709 2431 709 
Q 2694 709 2930 787 
Q 3166 866 3366 1019 
L 3366 103 
Q 3103 6 2833 -42 
Q 2563 -91 2291 -91 
Q 1344 -91 809 395 
Q 275 881 275 1747 
Q 275 2613 809 3098 
Q 1344 3584 2291 3584 
Q 2566 3584 2833 3536 
Q 3100 3488 3366 3391 
z
" transform="scale(0.015625)"/>
      <path id="DejaVuSans-Bold-3d" d="M 678 3084 
L 4684 3084 
L 4684 2350 
L 678 2350 
L 678 3084 
z
M 678 1663 
L 4684 1663 
L 4684 922 
L 678 922 
L 678 1663 
z
" transform="scale(0.015625)"/>
      <path id="DejaVuSans-Bold-31" d="M 750 831 
L 1813 831 
L 1813 3847 
L 722 3622 
L 722 4441 
L 1806 4666 
L 2950 4666 
L 2950 831 
L 4013 831 
L 4013 0 
L 750 0 
L 750 831 
z
" transform="scale(0.015625)"/>
      <path id="DejaVuSans-Bold-2e" d="M 653 1209 
L 1778 1209 
L 1778 0 
L 653 0 
L 653 1209 
z
" transform="scale(0.015625)"/>
      <path id="DejaVuSans-Bold-30" d="M 2944 2338 
Q 2944 3213 2780 3570 
Q 2616 3928 2228 3928 
Q 1841 3928 1675 3570 
Q 1509 3213 1509 2338 
Q 1509 1453 1675 1090 
Q 1841 728 2228 728 
Q 2613 728 2778 1090 
Q 2944 1453 2944 2338 
z
M 4147 2328 
Q 4147 1169 3647 539 
Q 3147 -91 2228 -91 
Q 1306 -91 806 539 
Q 306 1169 306 2328 
Q 306 3491 806 4120 
Q 1306 4750 2228 4750 
Q 3147 4750 3647 4120 
Q 4147 3491 4147 2328 
z
" transform="scale(0.015625)"/>
     </defs>
     <use xlink:href="#DejaVuSans-Bold-72"/>
     <use xlink:href="#DejaVuSans-Bold-65" transform="translate(49.316406 0)"/>
     <use xlink:href="#DejaVuSans-Bold-63" transform="translate(117.138672 0)"/>
     <use xlink:href="#DejaVuSans-Bold-3d" transform="translate(176.416016 0)"/>
     <use xlink:href="#DejaVuSans-Bold-31" transform="translate(260.205078 0)"/>
     <use xlink:href="#DejaVuSans-Bold-2e" transform="translate(329.785156 0)"/>
     <use xlink:href="#DejaVuSans-Bold-30" transform="translate(367.773438 0)"/>
    </g>
   </g>
   <g id="text_6">
    <!-- pre=1.0 -->
    <g transform="translate(439.374175 392.064486) scale(0.13 -0.13)">
     <defs>
      <path id="DejaVuSans-Bold-70" d="M 1656 506 
L 1656 -1331 
L 538 -1331 
L 538 3500 
L 1656 3500 
L 1656 2988 
Q 1888 3294 2169 3439 
Q 2450 3584 2816 3584 
Q 3463 3584 3878 3070 
Q 4294 2556 4294 1747 
Q 4294 938 3878 423 
Q 3463 -91 2816 -91 
Q 2450 -91 2169 54 
Q 1888 200 1656 506 
z
M 2400 2772 
Q 2041 2772 1848 2508 
Q 1656 2244 1656 1747 
Q 1656 1250 1848 986 
Q 2041 722 2400 722 
Q 2759 722 2948 984 
Q 3138 1247 3138 1747 
Q 3138 2247 2948 2509 
Q 2759 2772 2400 2772 
z
" transform="scale(0.015625)"/>
     </defs>
     <use xlink:href="#DejaVuSans-Bold-70"/>
     <use xlink:href="#DejaVuSans-Bold-72" transform="translate(71.582031 0)"/>
     <use xlink:href="#DejaVuSans-Bold-65" transform="translate(120.898438 0)"/>
     <use xlink:href="#DejaVuSans-Bold-3d" transform="translate(188.720703 0)"/>
     <use xlink:href="#DejaVuSans-Bold-31" transform="translate(272.509766 0)"/>
     <use xlink:href="#DejaVuSans-Bold-2e" transform="translate(342.089844 0)"/>
     <use xlink:href="#DejaVuSans-Bold-30" transform="translate(380.078125 0)"/>
    </g>
   </g>
   <g id="text_7">
    <!-- F$_1$-measure=0.5 -->
    <g style="fill: #595959" transform="translate(7.2 235.926626) scale(0.1 -0.1)">
     <defs>
      <path id="DejaVuSans-46" d="M 628 4666 
L 3309 4666 
L 3309 4134 
L 1259 4134 
L 1259 2759 
L 3109 2759 
L 3109 2228 
L 1259 2228 
L 1259 0 
L 628 0 
L 628 4666 
z
" transform="scale(0.015625)"/>
      <path id="DejaVuSans-31" d="M 794 531 
L 1825 531 
L 1825 4091 
L 703 3866 
L 703 4441 
L 1819 4666 
L 2450 4666 
L 2450 531 
L 3481 531 
L 3481 0 
L 794 0 
L 794 531 
z
" transform="scale(0.015625)"/>
      <path id="DejaVuSans-2d" d="M 313 2009 
L 1997 2009 
L 1997 1497 
L 313 1497 
L 313 2009 
z
" transform="scale(0.015625)"/>
      <path id="DejaVuSans-6d" d="M 3328 2828 
Q 3544 3216 3844 3400 
Q 4144 3584 4550 3584 
Q 5097 3584 5394 3201 
Q 5691 2819 5691 2113 
L 5691 0 
L 5113 0 
L 5113 2094 
Q 5113 2597 4934 2840 
Q 4756 3084 4391 3084 
Q 3944 3084 3684 2787 
Q 3425 2491 3425 1978 
L 3425 0 
L 2847 0 
L 2847 2094 
Q 2847 2600 2669 2842 
Q 2491 3084 2119 3084 
Q 1678 3084 1418 2786 
Q 1159 2488 1159 1978 
L 1159 0 
L 581 0 
L 581 3500 
L 1159 3500 
L 1159 2956 
Q 1356 3278 1631 3431 
Q 1906 3584 2284 3584 
Q 2666 3584 2933 3390 
Q 3200 3197 3328 2828 
z
" transform="scale(0.015625)"/>
      <path id="DejaVuSans-61" d="M 2194 1759 
Q 1497 1759 1228 1600 
Q 959 1441 959 1056 
Q 959 750 1161 570 
Q 1363 391 1709 391 
Q 2188 391 2477 730 
Q 2766 1069 2766 1631 
L 2766 1759 
L 2194 1759 
z
M 3341 1997 
L 3341 0 
L 2766 0 
L 2766 531 
Q 2569 213 2275 61 
Q 1981 -91 1556 -91 
Q 1019 -91 701 211 
Q 384 513 384 1019 
Q 384 1609 779 1909 
Q 1175 2209 1959 2209 
L 2766 2209 
L 2766 2266 
Q 2766 2663 2505 2880 
Q 2244 3097 1772 3097 
Q 1472 3097 1187 3025 
Q 903 2953 641 2809 
L 641 3341 
Q 956 3463 1253 3523 
Q 1550 3584 1831 3584 
Q 2591 3584 2966 3190 
Q 3341 2797 3341 1997 
z
" transform="scale(0.015625)"/>
      <path id="DejaVuSans-73" d="M 2834 3397 
L 2834 2853 
Q 2591 2978 2328 3040 
Q 2066 3103 1784 3103 
Q 1356 3103 1142 2972 
Q 928 2841 928 2578 
Q 928 2378 1081 2264 
Q 1234 2150 1697 2047 
L 1894 2003 
Q 2506 1872 2764 1633 
Q 3022 1394 3022 966 
Q 3022 478 2636 193 
Q 2250 -91 1575 -91 
Q 1294 -91 989 -36 
Q 684 19 347 128 
L 347 722 
Q 666 556 975 473 
Q 1284 391 1588 391 
Q 1994 391 2212 530 
Q 2431 669 2431 922 
Q 2431 1156 2273 1281 
Q 2116 1406 1581 1522 
L 1381 1569 
Q 847 1681 609 1914 
Q 372 2147 372 2553 
Q 372 3047 722 3315 
Q 1072 3584 1716 3584 
Q 2034 3584 2315 3537 
Q 2597 3491 2834 3397 
z
" transform="scale(0.015625)"/>
      <path id="DejaVuSans-75" d="M 544 1381 
L 544 3500 
L 1119 3500 
L 1119 1403 
Q 1119 906 1312 657 
Q 1506 409 1894 409 
Q 2359 409 2629 706 
Q 2900 1003 2900 1516 
L 2900 3500 
L 3475 3500 
L 3475 0 
L 2900 0 
L 2900 538 
Q 2691 219 2414 64 
Q 2138 -91 1772 -91 
Q 1169 -91 856 284 
Q 544 659 544 1381 
z
M 1991 3584 
L 1991 3584 
z
" transform="scale(0.015625)"/>
      <path id="DejaVuSans-30" d="M 2034 4250 
Q 1547 4250 1301 3770 
Q 1056 3291 1056 2328 
Q 1056 1369 1301 889 
Q 1547 409 2034 409 
Q 2525 409 2770 889 
Q 3016 1369 3016 2328 
Q 3016 3291 2770 3770 
Q 2525 4250 2034 4250 
z
M 2034 4750 
Q 2819 4750 3233 4129 
Q 3647 3509 3647 2328 
Q 3647 1150 3233 529 
Q 2819 -91 2034 -91 
Q 1250 -91 836 529 
Q 422 1150 422 2328 
Q 422 3509 836 4129 
Q 1250 4750 2034 4750 
z
" transform="scale(0.015625)"/>
      <path id="DejaVuSans-35" d="M 691 4666 
L 3169 4666 
L 3169 4134 
L 1269 4134 
L 1269 2991 
Q 1406 3038 1543 3061 
Q 1681 3084 1819 3084 
Q 2600 3084 3056 2656 
Q 3513 2228 3513 1497 
Q 3513 744 3044 326 
Q 2575 -91 1722 -91 
Q 1428 -91 1123 -41 
Q 819 9 494 109 
L 494 744 
Q 775 591 1075 516 
Q 1375 441 1709 441 
Q 2250 441 2565 725 
Q 2881 1009 2881 1497 
Q 2881 1984 2565 2268 
Q 2250 2553 1709 2553 
Q 1456 2553 1204 2497 
Q 953 2441 691 2322 
L 691 4666 
z
" transform="scale(0.015625)"/>
     </defs>
     <use xlink:href="#DejaVuSans-46" transform="translate(0 0.78125)"/>
     <use xlink:href="#DejaVuSans-31" transform="translate(58.476562 -15.625) scale(0.7)"/>
     <use xlink:href="#DejaVuSans-2d" transform="translate(105.74707 0.78125)"/>
     <use xlink:href="#DejaVuSans-6d" transform="translate(140.081055 0.78125)"/>
     <use xlink:href="#DejaVuSans-65" transform="translate(237.493164 0.78125)"/>
     <use xlink:href="#DejaVuSans-61" transform="translate(299.016602 0.78125)"/>
     <use xlink:href="#DejaVuSans-73" transform="translate(360.295898 0.78125)"/>
     <use xlink:href="#DejaVuSans-75" transform="translate(412.395508 0.78125)"/>
     <use xlink:href="#DejaVuSans-72" transform="translate(475.774414 0.78125)"/>
     <use xlink:href="#DejaVuSans-65" transform="translate(516.887695 0.78125)"/>
     <use xlink:href="#DejaVuSans-3d" transform="translate(578.411133 0.78125)"/>
     <use xlink:href="#DejaVuSans-30" transform="translate(662.200195 0.78125)"/>
     <use xlink:href="#DejaVuSans-2e" transform="translate(725.823242 0.78125)"/>
     <use xlink:href="#DejaVuSans-35" transform="translate(757.610352 0.78125)"/>
    </g>
   </g>
   <g id="text_8">
    <!-- F$_1$-measure=0.6 -->
    <g style="fill: #595959" transform="translate(20.734517 200.242114) scale(0.1 -0.1)">
     <use xlink:href="#DejaVuSans-46" transform="translate(0 0.78125)"/>
     <use xlink:href="#DejaVuSans-31" transform="translate(58.476562 -15.625) scale(0.7)"/>
     <use xlink:href="#DejaVuSans-2d" transform="translate(105.74707 0.78125)"/>
     <use xlink:href="#DejaVuSans-6d" transform="translate(140.081055 0.78125)"/>
     <use xlink:href="#DejaVuSans-65" transform="translate(237.493164 0.78125)"/>
     <use xlink:href="#DejaVuSans-61" transform="translate(299.016602 0.78125)"/>
     <use xlink:href="#DejaVuSans-73" transform="translate(360.295898 0.78125)"/>
     <use xlink:href="#DejaVuSans-75" transform="translate(412.395508 0.78125)"/>
     <use xlink:href="#DejaVuSans-72" transform="translate(475.774414 0.78125)"/>
     <use xlink:href="#DejaVuSans-65" transform="translate(516.887695 0.78125)"/>
     <use xlink:href="#DejaVuSans-3d" transform="translate(578.411133 0.78125)"/>
     <use xlink:href="#DejaVuSans-30" transform="translate(662.200195 0.78125)"/>
     <use xlink:href="#DejaVuSans-2e" transform="translate(725.823242 0.78125)"/>
     <use xlink:href="#DejaVuSans-36" transform="translate(757.610352 0.78125)"/>
    </g>
   </g>
   <g id="text_9">
    <!-- F$_1$-measure=0.7 -->
    <g style="fill: #595959" transform="translate(42.772562 160.645396) scale(0.1 -0.1)">
     <defs>
      <path id="DejaVuSans-37" d="M 525 4666 
L 3525 4666 
L 3525 4397 
L 1831 0 
L 1172 0 
L 2766 4134 
L 525 4134 
L 525 4666 
z
" transform="scale(0.015625)"/>
     </defs>
     <use xlink:href="#DejaVuSans-46" transform="translate(0 0.78125)"/>
     <use xlink:href="#DejaVuSans-31" transform="translate(58.476562 -15.625) scale(0.7)"/>
     <use xlink:href="#DejaVuSans-2d" transform="translate(105.74707 0.78125)"/>
     <use xlink:href="#DejaVuSans-6d" transform="translate(140.081055 0.78125)"/>
     <use xlink:href="#DejaVuSans-65" transform="translate(237.493164 0.78125)"/>
     <use xlink:href="#DejaVuSans-61" transform="translate(299.016602 0.78125)"/>
     <use xlink:href="#DejaVuSans-73" transform="translate(360.295898 0.78125)"/>
     <use xlink:href="#DejaVuSans-75" transform="translate(412.395508 0.78125)"/>
     <use xlink:href="#DejaVuSans-72" transform="translate(475.774414 0.78125)"/>
     <use xlink:href="#DejaVuSans-65" transform="translate(516.887695 0.78125)"/>
     <use xlink:href="#DejaVuSans-3d" transform="translate(578.411133 0.78125)"/>
     <use xlink:href="#DejaVuSans-30" transform="translate(662.200195 0.78125)"/>
     <use xlink:href="#DejaVuSans-2e" transform="translate(725.823242 0.78125)"/>
     <use xlink:href="#DejaVuSans-37" transform="translate(749.860352 0.78125)"/>
    </g>
   </g>
   <g id="PathCollection_1">
    <defs>
     <path id="m76be6443db" d="M -4.743416 4.743416 
L 4.743416 4.743416 
L 4.743416 -4.743416 
L -4.743416 -4.743416 
z
" style="stroke: #000000; stroke-width: 0.6"/>
    </defs>
    <g clip-path="url(#p424d6b405e)">
     <use xlink:href="#m76be6443db" x="288.145137" y="215.384143" style="fill: #39b54a; stroke: #000000; stroke-width: 0.6"/>
    </g>
   </g>
   <g id="PathCollection_2">
    <defs>
     <path id="mf047c4c517" d="M -4.743416 4.743416 
L 4.743416 4.743416 
L 4.743416 -4.743416 
L -4.743416 -4.743416 
z
" style="stroke: #000000; stroke-width: 0.6"/>
    </defs>
    <g clip-path="url(#p424d6b405e)">
     <use xlink:href="#mf047c4c517" x="259.762474" y="187.64699" style="fill: #ffe600; stroke: #000000; stroke-width: 0.6"/>
    </g>
   </g>
   <g id="PathCollection_3">
    <defs>
     <path id="m14c2d6f859" d="M 0 4.743416 
C 1.257969 4.743416 2.464584 4.24362 3.354102 3.354102 
C 4.24362 2.464584 4.743416 1.257969 4.743416 0 
C 4.743416 -1.257969 4.24362 -2.464584 3.354102 -3.354102 
C 2.464584 -4.24362 1.257969 -4.743416 0 -4.743416 
C -1.257969 -4.743416 -2.464584 -4.24362 -3.354102 -3.354102 
C -4.24362 -2.464584 -4.743416 -1.257969 -4.743416 0 
C -4.743416 1.257969 -4.24362 2.464584 -3.354102 3.354102 
C -2.464584 4.24362 -1.257969 4.743416 0 4.743416 
z
" style="stroke: #000000; stroke-width: 0.6"/>
    </defs>
    <g clip-path="url(#p424d6b405e)">
     <use xlink:href="#m14c2d6f859" x="350.396853" y="226.221309" style="fill: #1f4e9c; stroke: #000000; stroke-width: 0.6"/>
    </g>
   </g>
   <g id="PathCollection_4">
    <defs>
     <path id="mf34ea4ed18" d="M 0 -4.743416 
L -4.743416 4.743416 
L 4.743416 4.743416 
z
" style="stroke: #000000; stroke-width: 0.6"/>
    </defs>
    <g clip-path="url(#p424d6b405e)">
     <use xlink:href="#mf34ea4ed18" x="333.858456" y="183.968878" style="fill: #b5651d; stroke: #000000; stroke-width: 0.6"/>
    </g>
   </g>
   <g id="PathCollection_5">
    <defs>
     <path id="m57c357b500" d="M -4.743416 4.743416 
L 4.743416 4.743416 
L 4.743416 -4.743416 
L -4.743416 -4.743416 
z
" style="stroke: #000000; stroke-width: 0.6"/>
    </defs>
    <g clip-path="url(#p424d6b405e)">
     <use xlink:href="#m57c357b500" x="326.569677" y="232.019315" style="stroke: #000000; stroke-width: 0.6"/>
    </g>
   </g>
   <g id="PathCollection_6">
    <defs>
     <path id="m67c48b14bb" d="M -4.743416 4.743416 
L 4.743416 4.743416 
L 4.743416 -4.743416 
L -4.743416 -4.743416 
z
" style="stroke: #000000; stroke-width: 0.6"/>
    </defs>
    <g clip-path="url(#p424d6b405e)">
     <use xlink:href="#m67c48b14bb" x="388.979846" y="223.979762" style="fill: #8e2148; stroke: #000000; stroke-width: 0.6"/>
    </g>
   </g>
   <g id="PathCollection_7">
    <defs>
     <path id="mbe4bf1c7fa" d="M -4.743416 4.743416 
L 4.743416 4.743416 
L 4.743416 -4.743416 
L -4.743416 -4.743416 
z
" style="stroke: #000000; stroke-width: 0.6"/>
    </defs>
    <g clip-path="url(#p424d6b405e)">
     <use xlink:href="#mbe4bf1c7fa" x="351.525822" y="181.642563" style="fill: #e30613; stroke: #000000; stroke-width: 0.6"/>
    </g>
   </g>
   <g id="PathCollection_8">
    <defs>
     <path id="mde99a36703" d="M 0 -4.743416 
L -4.743416 4.743416 
L 4.743416 4.743416 
z
" style="stroke: #000000; stroke-width: 0.6"/>
    </defs>
    <g clip-path="url(#p424d6b405e)">
     <use xlink:href="#mde99a36703" x="326.312193" y="215.688193" style="fill: #1b1f6b; stroke: #000000; stroke-width: 0.6"/>
    </g>
   </g>
   <g id="PathCollection_9">
    <defs>
     <path id="m49a02108fb" d="M 0 4.743416 
C 1.257969 4.743416 2.464584 4.24362 3.354102 3.354102 
C 4.24362 2.464584 4.743416 1.257969 4.743416 0 
C 4.743416 -1.257969 4.24362 -2.464584 3.354102 -3.354102 
C 2.464584 -4.24362 1.257969 -4.743416 0 -4.743416 
C -1.257969 -4.743416 -2.464584 -4.24362 -3.354102 -3.354102 
C -4.24362 -2.464584 -4.743416 -1.257969 -4.743416 0 
C -4.743416 1.257969 -4.24362 2.464584 -3.354102 3.354102 
C -2.464584 4.24362 -1.257969 4.743416 0 4.743416 
z
" style="stroke: #000000; stroke-width: 0.6"/>
    </defs>
    <g clip-path="url(#p424d6b405e)">
     <use xlink:href="#m49a02108fb" x="360.676408" y="238.283164" style="fill: #e30613; stroke: #000000; stroke-width: 0.6"/>
    </g>
   </g>
   <g id="legend_1">
    <g id="PathCollection_10">
     <g>
      <use xlink:href="#m76be6443db" x="516.12314" y="153.821875" style="fill: #39b54a; stroke: #000000; stroke-width: 0.6"/>
     </g>
    </g>
    <g id="text_10">
     <!-- Agent-OM -->
     <g transform="translate(534.12314 156.446875) scale(0.1 -0.1)">
      <defs>
       <path id="DejaVuSans-41" d="M 2188 4044 
L 1331 1722 
L 3047 1722 
L 2188 4044 
z
M 1831 4666 
L 2547 4666 
L 4325 0 
L 3669 0 
L 3244 1197 
L 1141 1197 
L 716 0 
L 50 0 
L 1831 4666 
z
" transform="scale(0.015625)"/>
       <path id="DejaVuSans-67" d="M 2906 1791 
Q 2906 2416 2648 2759 
Q 2391 3103 1925 3103 
Q 1463 3103 1205 2759 
Q 947 2416 947 1791 
Q 947 1169 1205 825 
Q 1463 481 1925 481 
Q 2391 481 2648 825 
Q 2906 1169 2906 1791 
z
M 3481 434 
Q 3481 -459 3084 -895 
Q 2688 -1331 1869 -1331 
Q 1566 -1331 1297 -1286 
Q 1028 -1241 775 -1147 
L 775 -588 
Q 1028 -725 1275 -790 
Q 1522 -856 1778 -856 
Q 2344 -856 2625 -561 
Q 2906 -266 2906 331 
L 2906 616 
Q 2728 306 2450 153 
Q 2172 0 1784 0 
Q 1141 0 747 490 
Q 353 981 353 1791 
Q 353 2603 747 3093 
Q 1141 3584 1784 3584 
Q 2172 3584 2450 3431 
Q 2728 3278 2906 2969 
L 2906 3500 
L 3481 3500 
L 3481 434 
z
" transform="scale(0.015625)"/>
       <path id="DejaVuSans-6e" d="M 3513 2113 
L 3513 0 
L 2938 0 
L 2938 2094 
Q 2938 2591 2744 2837 
Q 2550 3084 2163 3084 
Q 1697 3084 1428 2787 
Q 1159 2491 1159 1978 
L 1159 0 
L 581 0 
L 581 3500 
L 1159 3500 
L 1159 2956 
Q 1366 3272 1645 3428 
Q 1925 3584 2291 3584 
Q 2894 3584 3203 3211 
Q 3513 2838 3513 2113 
z
" transform="scale(0.015625)"/>
       <path id="DejaVuSans-74" d="M 1172 4494 
L 1172 3500 
L 2356 3500 
L 2356 3053 
L 1172 3053 
L 1172 1153 
Q 1172 725 1289 603 
Q 1406 481 1766 481 
L 2356 481 
L 2356 0 
L 1766 0 
Q 1100 0 847 248 
Q 594 497 594 1153 
L 594 3053 
L 172 3053 
L 172 3500 
L 594 3500 
L 594 4494 
L 1172 4494 
z
" transform="scale(0.015625)"/>
       <path id="DejaVuSans-4f" d="M 2522 4238 
Q 1834 4238 1429 3725 
Q 1025 3213 1025 2328 
Q 1025 1447 1429 934 
Q 1834 422 2522 422 
Q 3209 422 3611 934 
Q 4013 1447 4013 2328 
Q 4013 3213 3611 3725 
Q 3209 4238 2522 4238 
z
M 2522 4750 
Q 3503 4750 4090 4092 
Q 4678 3434 4678 2328 
Q 4678 1225 4090 567 
Q 3503 -91 2522 -91 
Q 1538 -91 948 565 
Q 359 1222 359 2328 
Q 359 3434 948 4092 
Q 1538 4750 2522 4750 
z
" transform="scale(0.015625)"/>
       <path id="DejaVuSans-4d" d="M 628 4666 
L 1569 4666 
L 2759 1491 
L 3956 4666 
L 4897 4666 
L 4897 0 
L 4281 0 
L 4281 4097 
L 3078 897 
L 2444 897 
L 1241 4097 
L 1241 0 
L 628 0 
L 628 4666 
z
" transform="scale(0.015625)"/>
      </defs>
      <use xlink:href="#DejaVuSans-41"/>
      <use xlink:href="#DejaVuSans-67" transform="translate(68.408203 0)"/>
      <use xlink:href="#DejaVuSans-65" transform="translate(131.884766 0)"/>
      <use xlink:href="#DejaVuSans-6e" transform="translate(193.408203 0)"/>
      <use xlink:href="#DejaVuSans-74" transform="translate(256.787109 0)"/>
      <use xlink:href="#DejaVuSans-2d" transform="translate(295.996094 0)"/>
      <use xlink:href="#DejaVuSans-4f" transform="translate(334.830078 0)"/>
      <use xlink:href="#DejaVuSans-4d" transform="translate(413.541016 0)"/>
     </g>
    </g>
    <g id="PathCollection_11">
     <g>
      <use xlink:href="#mf047c4c517" x="516.12314" y="168.5" style="fill: #ffe600; stroke: #000000; stroke-width: 0.6"/>
     </g>
    </g>
    <g id="text_11">
     <!-- ALIN -->
     <g transform="translate(534.12314 171.125) scale(0.1 -0.1)">
      <defs>
       <path id="DejaVuSans-4c" d="M 628 4666 
L 1259 4666 
L 1259 531 
L 3531 531 
L 3531 0 
L 628 0 
L 628 4666 
z
" transform="scale(0.015625)"/>
       <path id="DejaVuSans-49" d="M 628 4666 
L 1259 4666 
L 1259 0 
L 628 0 
L 628 4666 
z
" transform="scale(0.015625)"/>
       <path id="DejaVuSans-4e" d="M 628 4666 
L 1478 4666 
L 3547 763 
L 3547 4666 
L 4159 4666 
L 4159 0 
L 3309 0 
L 1241 3903 
L 1241 0 
L 628 0 
L 628 4666 
z
" transform="scale(0.015625)"/>
      </defs>
      <use xlink:href="#DejaVuSans-41"/>
      <use xlink:href="#DejaVuSans-4c" transform="translate(68.408203 0)"/>
      <use xlink:href="#DejaVuSans-49" transform="translate(124.121094 0)"/>
      <use xlink:href="#DejaVuSans-4e" transform="translate(153.613281 0)"/>
     </g>
    </g>
    <g id="PathCollection_12">
     <g>
      <use xlink:href="#m14c2d6f859" x="516.12314" y="183.178125" style="fill: #1f4e9c; stroke: #000000; stroke-width: 0.6"/>
     </g>
    </g>
    <g id="text_12">
     <!-- edna -->
     <g transform="translate(534.12314 185.803125) scale(0.1 -0.1)">
      <defs>
       <path id="DejaVuSans-64" d="M 2906 2969 
L 2906 4863 
L 3481 4863 
L 3481 0 
L 2906 0 
L 2906 525 
Q 2725 213 2448 61 
Q 2172 -91 1784 -91 
Q 1150 -91 751 415 
Q 353 922 353 1747 
Q 353 2572 751 3078 
Q 1150 3584 1784 3584 
Q 2172 3584 2448 3432 
Q 2725 3281 2906 2969 
z
M 947 1747 
Q 947 1113 1208 752 
Q 1469 391 1925 391 
Q 2381 391 2643 752 
Q 2906 1113 2906 1747 
Q 2906 2381 2643 2742 
Q 2381 3103 1925 3103 
Q 1469 3103 1208 2742 
Q 947 2381 947 1747 
z
" transform="scale(0.015625)"/>
      </defs>
      <use xlink:href="#DejaVuSans-65"/>
      <use xlink:href="#DejaVuSans-64" transform="translate(61.523438 0)"/>
      <use xlink:href="#DejaVuSans-6e" transform="translate(125 0)"/>
      <use xlink:href="#DejaVuSans-61" transform="translate(188.378906 0)"/>
     </g>
    </g>
    <g id="PathCollection_13">
     <g>
      <use xlink:href="#mf34ea4ed18" x="516.12314" y="197.85625" style="fill: #b5651d; stroke: #000000; stroke-width: 0.6"/>
     </g>
    </g>
    <g id="text_13">
     <!-- LogMap -->
     <g transform="translate(534.12314 200.48125) scale(0.1 -0.1)">
      <defs>
       <path id="DejaVuSans-6f" d="M 1959 3097 
Q 1497 3097 1228 2736 
Q 959 2375 959 1747 
Q 959 1119 1226 758 
Q 1494 397 1959 397 
Q 2419 397 2687 759 
Q 2956 1122 2956 1747 
Q 2956 2369 2687 2733 
Q 2419 3097 1959 3097 
z
M 1959 3584 
Q 2709 3584 3137 3096 
Q 3566 2609 3566 1747 
Q 3566 888 3137 398 
Q 2709 -91 1959 -91 
Q 1206 -91 779 398 
Q 353 888 353 1747 
Q 353 2609 779 3096 
Q 1206 3584 1959 3584 
z
" transform="scale(0.015625)"/>
      </defs>
      <use xlink:href="#DejaVuSans-4c"/>
      <use xlink:href="#DejaVuSans-6f" transform="translate(53.962891 0)"/>
      <use xlink:href="#DejaVuSans-67" transform="translate(115.144531 0)"/>
      <use xlink:href="#DejaVuSans-4d" transform="translate(178.621094 0)"/>
      <use xlink:href="#DejaVuSans-61" transform="translate(264.900391 0)"/>
      <use xlink:href="#DejaVuSans-70" transform="translate(326.179688 0)"/>
     </g>
    </g>
    <g id="PathCollection_14">
     <g>
      <use xlink:href="#m57c357b500" x="516.12314" y="212.534375" style="stroke: #000000; stroke-width: 0.6"/>
     </g>
    </g>
    <g id="text_14">
     <!-- LogMapLt -->
     <g transform="translate(534.12314 215.159375) scale(0.1 -0.1)">
      <use xlink:href="#DejaVuSans-4c"/>
      <use xlink:href="#DejaVuSans-6f" transform="translate(53.962891 0)"/>
      <use xlink:href="#DejaVuSans-67" transform="translate(115.144531 0)"/>
      <use xlink:href="#DejaVuSans-4d" transform="translate(178.621094 0)"/>
      <use xlink:href="#DejaVuSans-61" transform="translate(264.900391 0)"/>
      <use xlink:href="#DejaVuSans-70" transform="translate(326.179688 0)"/>
      <use xlink:href="#DejaVuSans-4c" transform="translate(389.65625 0)"/>
      <use xlink:href="#DejaVuSans-74" transform="translate(445.369141 0)"/>
     </g>
    </g>
    <g id="PathCollection_15">
     <g>
      <use xlink:href="#m67c48b14bb" x="516.12314" y="227.2125" style="fill: #8e2148; stroke: #000000; stroke-width: 0.6"/>
     </g>
    </g>
    <g id="text_15">
     <!-- LSMatch -->
     <g transform="translate(534.12314 229.8375) scale(0.1 -0.1)">
      <defs>
       <path id="DejaVuSans-53" d="M 3425 4513 
L 3425 3897 
Q 3066 4069 2747 4153 
Q 2428 4238 2131 4238 
Q 1616 4238 1336 4038 
Q 1056 3838 1056 3469 
Q 1056 3159 1242 3001 
Q 1428 2844 1947 2747 
L 2328 2669 
Q 3034 2534 3370 2195 
Q 3706 1856 3706 1288 
Q 3706 609 3251 259 
Q 2797 -91 1919 -91 
Q 1588 -91 1214 -16 
Q 841 59 441 206 
L 441 856 
Q 825 641 1194 531 
Q 1563 422 1919 422 
Q 2459 422 2753 634 
Q 3047 847 3047 1241 
Q 3047 1584 2836 1778 
Q 2625 1972 2144 2069 
L 1759 2144 
Q 1053 2284 737 2584 
Q 422 2884 422 3419 
Q 422 4038 858 4394 
Q 1294 4750 2059 4750 
Q 2388 4750 2728 4690 
Q 3069 4631 3425 4513 
z
" transform="scale(0.015625)"/>
       <path id="DejaVuSans-68" d="M 3513 2113 
L 3513 0 
L 2938 0 
L 2938 2094 
Q 2938 2591 2744 2837 
Q 2550 3084 2163 3084 
Q 1697 3084 1428 2787 
Q 1159 2491 1159 1978 
L 1159 0 
L 581 0 
L 581 4863 
L 1159 4863 
L 1159 2956 
Q 1366 3272 1645 3428 
Q 1925 3584 2291 3584 
Q 2894 3584 3203 3211 
Q 3513 2838 3513 2113 
z
" transform="scale(0.015625)"/>
      </defs>
      <use xlink:href="#DejaVuSans-4c"/>
      <use xlink:href="#DejaVuSans-53" transform="translate(55.712891 0)"/>
      <use xlink:href="#DejaVuSans-4d" transform="translate(119.189453 0)"/>
      <use xlink:href="#DejaVuSans-61" transform="translate(205.46875 0)"/>
      <use xlink:href="#DejaVuSans-74" transform="translate(266.748047 0)"/>
      <use xlink:href="#DejaVuSans-63" transform="translate(305.957031 0)"/>
      <use xlink:href="#DejaVuSans-68" transform="translate(360.9375 0)"/>
     </g>
    </g>
    <g id="PathCollection_16">
     <g>
      <use xlink:href="#mbe4bf1c7fa" x="516.12314" y="241.890625" style="fill: #e30613; stroke: #000000; stroke-width: 0.6"/>
     </g>
    </g>
    <g id="text_16">
     <!-- Matcha -->
     <g transform="translate(534.12314 244.515625) scale(0.1 -0.1)">
      <use xlink:href="#DejaVuSans-4d"/>
      <use xlink:href="#DejaVuSans-61" transform="translate(86.279297 0)"/>
      <use xlink:href="#DejaVuSans-74" transform="translate(147.558594 0)"/>
      <use xlink:href="#DejaVuSans-63" transform="translate(186.767578 0)"/>
      <use xlink:href="#DejaVuSans-68" transform="translate(241.748047 0)"/>
      <use xlink:href="#DejaVuSans-61" transform="translate(305.126953 0)"/>
     </g>
    </g>
    <g id="PathCollection_17">
     <g>
      <use xlink:href="#mde99a36703" x="516.12314" y="256.56875" style="fill: #1b1f6b; stroke: #000000; stroke-width: 0.6"/>
     </g>
    </g>
    <g id="text_17">
     <!-- MDMapper -->
     <g transform="translate(534.12314 259.19375) scale(0.1 -0.1)">
      <defs>
       <path id="DejaVuSans-44" d="M 1259 4147 
L 1259 519 
L 2022 519 
Q 2988 519 3436 956 
Q 3884 1394 3884 2338 
Q 3884 3275 3436 3711 
Q 2988 4147 2022 4147 
L 1259 4147 
z
M 628 4666 
L 1925 4666 
Q 3281 4666 3915 4102 
Q 4550 3538 4550 2338 
Q 4550 1131 3912 565 
Q 3275 0 1925 0 
L 628 0 
L 628 4666 
z
" transform="scale(0.015625)"/>
      </defs>
      <use xlink:href="#DejaVuSans-4d"/>
      <use xlink:href="#DejaVuSans-44" transform="translate(86.279297 0)"/>
      <use xlink:href="#DejaVuSans-4d" transform="translate(163.28125 0)"/>
      <use xlink:href="#DejaVuSans-61" transform="translate(249.560547 0)"/>
      <use xlink:href="#DejaVuSans-70" transform="translate(310.839844 0)"/>
      <use xlink:href="#DejaVuSans-70" transform="translate(374.316406 0)"/>
      <use xlink:href="#DejaVuSans-65" transform="translate(437.792969 0)"/>
      <use xlink:href="#DejaVuSans-72" transform="translate(499.316406 0)"/>
     </g>
    </g>
    <g id="PathCollection_18">
     <g>
      <use xlink:href="#m49a02108fb" x="516.12314" y="271.246875" style="fill: #e30613; stroke: #000000; stroke-width: 0.6"/>
     </g>
    </g>
    <g id="text_18">
     <!-- StringEquiv -->
     <g transform="translate(534.12314 273.871875) scale(0.1 -0.1)">
      <defs>
       <path id="DejaVuSans-69" d="M 603 3500 
L 1178 3500 
L 1178 0 
L 603 0 
L 603 3500 
z
M 603 4863 
L 1178 4863 
L 1178 4134 
L 603 4134 
L 603 4863 
z
" transform="scale(0.015625)"/>
       <path id="DejaVuSans-45" d="M 628 4666 
L 3578 4666 
L 3578 4134 
L 1259 4134 
L 1259 2753 
L 3481 2753 
L 3481 2222 
L 1259 2222 
L 1259 531 
L 3634 531 
L 3634 0 
L 628 0 
L 628 4666 
z
" transform="scale(0.015625)"/>
       <path id="DejaVuSans-71" d="M 947 1747 
Q 947 1113 1208 752 
Q 1469 391 1925 391 
Q 2381 391 2643 752 
Q 2906 1113 2906 1747 
Q 2906 2381 2643 2742 
Q 2381 3103 1925 3103 
Q 1469 3103 1208 2742 
Q 947 2381 947 1747 
z
M 2906 525 
Q 2725 213 2448 61 
Q 2172 -91 1784 -91 
Q 1150 -91 751 415 
Q 353 922 353 1747 
Q 353 2572 751 3078 
Q 1150 3584 1784 3584 
Q 2172 3584 2448 3432 
Q 2725 3281 2906 2969 
L 2906 3500 
L 3481 3500 
L 3481 -1331 
L 2906 -1331 
L 2906 525 
z
" transform="scale(0.015625)"/>
       <path id="DejaVuSans-76" d="M 191 3500 
L 800 3500 
L 1894 563 
L 2988 3500 
L 3597 3500 
L 2284 0 
L 1503 0 
L 191 3500 
z
" transform="scale(0.015625)"/>
      </defs>
      <use xlink:href="#DejaVuSans-53"/>
      <use xlink:href="#DejaVuSans-74" transform="translate(63.476562 0)"/>
      <use xlink:href="#DejaVuSans-72" transform="translate(102.685547 0)"/>
      <use xlink:href="#DejaVuSans-69" transform="translate(143.798828 0)"/>
      <use xlink:href="#DejaVuSans-6e" transform="translate(171.582031 0)"/>
      <use xlink:href="#DejaVuSans-67" transform="translate(234.960938 0)"/>
      <use xlink:href="#DejaVuSans-45" transform="translate(298.4375 0)"/>
      <use xlink:href="#DejaVuSans-71" transform="translate(361.621094 0)"/>
      <use xlink:href="#DejaVuSans-75" transform="translate(425.097656 0)"/>
      <use xlink:href="#DejaVuSans-69" transform="translate(488.476562 0)"/>
      <use xlink:href="#DejaVuSans-76" transform="translate(516.259766 0)"/>
     </g>
    </g>
   </g>
  </g>
 </g>
 <defs>
  <clipPath id="p424d6b405e">
   <rect x="52.666085" y="7.2" width="435.742211" height="410.4"/>
  </clipPath>
 </defs>
</svg>
