<svg width="4171" height="1829" xmlns="http://www.w3.org/2000/svg" xmlns:xlink="http://www.w3.org/1999/xlink" xml:space="preserve" overflow="hidden"><g transform="translate(-114 -265)"><g><g><g><g><path d="M415 707C415 715.284 408.284 722 400 722 391.716 722 385 715.284 385 707 385 698.716 391.716 692 400 692 408.284 692 415 698.716 415 707Z" fill="#344A9A" fill-rule="nonzero" fill-opacity="1"/><path d="M450 712C458.284 712 465 705.284 465 697 465 688.716 458.284 682 450 682 441.716 682 435 688.716 435 697 435 705.284 441.716 712 450 712Z" fill="#344A9A" fill-rule="nonzero" fill-opacity="1"/><path d="M355 402C432.209 402 495.794 419.5 504.085 442L505 442 505 722C505 744.091 437.843 762 355 762 272.157 762 205 744.091 205 722L205 442 205.916 442C214.206 419.5 277.791 402 355 402ZM355 672C299.431 672 250.919 662.935 225 649.465L225 718.93C225.549 719.373 226.341 719.95 227.454 720.652 232.621 723.909 241.427 727.583 254.087 730.96 279.116 737.634 314.802 742 355 742 395.198 742 430.884 737.634 455.913 730.96 468.573 727.583 477.379 723.909 482.546 720.652 483.659 719.95 484.451 719.373 485 718.93L485 649.465C459.081 662.935 410.569 672 355 672ZM355 582C410.569 582 459.081 572.935 485 559.465L485 627 483.233 627C482.79 627.36 482.264 627.761 481.642 628.203 476.536 631.824 467.851 635.904 455.319 639.663 430.509 647.106 395.036 652 355 652 314.964 652 279.491 647.106 254.681 639.663 242.149 635.904 233.464 631.824 228.358 628.203 227.736 627.761 227.21 627.36 226.767 627L225 627 225 559.465C250.919 572.935 299.431 582 355 582ZM355 492C410.569 492 459.081 482.935 485 469.465L485 537 483.233 537C482.79 537.36 482.264 537.761 481.642 538.203 476.536 541.824 467.851 545.904 455.319 549.663 430.509 557.106 395.036 562 355 562 314.964 562 279.491 557.106 254.681 549.663 242.149 545.904 233.464 541.824 228.358 538.203 227.736 537.761 227.21 537.36 226.767 537L225 537 225 469.465C250.919 482.935 299.431 492 355 492ZM482.503 446.428C482.767 446.629 483.009 446.821 483.23 447.002 482.788 447.362 482.263 447.762 481.642 448.203 476.536 451.824 467.851 455.904 455.319 459.663 430.509 467.106 395.036 472 355 472 314.964 472 279.491 467.106 254.681 459.663 242.149 455.904 233.464 451.824 228.358 448.203 227.737 447.762 227.212 447.362 226.77 447.002 226.991 446.821 227.233 446.629 227.499 446.427 227.762 446.227 228.048 446.017 228.358 445.797 228.929 445.393 229.544 444.982 230.204 444.567 230.705 444.253 231.25 443.925 231.84 443.584 233.33 442.725 234.989 441.86 236.816 440.997 240.489 439.262 244.905 437.501 250.087 435.785 253.098 434.788 256.347 433.812 259.833 432.869 267.494 430.798 276.021 428.96 285.262 427.411 305.592 424.005 329.378 422 355 422 392.269 422 425.653 426.242 450.167 432.869 451.946 433.35 453.663 433.84 455.319 434.337 465.119 437.277 472.75 440.465 478.16 443.584 478.749 443.924 479.292 444.251 479.792 444.565 480.454 444.981 481.07 445.392 481.642 445.797 481.952 446.017 482.239 446.228 482.503 446.428ZM486.107 717.868C486.107 717.868 486.069 717.942 485.938 718.083 486.033 717.938 486.107 717.868 486.107 717.868ZM223.893 717.868C223.893 717.868 223.967 717.938 224.062 718.083 223.931 717.942 223.893 717.868 223.893 717.868Z" fill="#344A9A" fill-rule="evenodd" fill-opacity="1"/></g></g></g><g><g><g><path d="M596.765 427C579.221 427 565 441.391 565 459.143L565 652C565 669.752 579.221 684.143 596.765 684.143L702.646 684.143 702.646 705.571 660.293 705.571 660.293 727 829.705 727 829.705 705.571 787.353 705.571 787.353 684.143 893.235 684.143C910.778 684.143 925 669.752 925 652L925 459.143C925 441.391 910.778 427 893.235 427L596.765 427ZM723.823 705.571 766.177 705.571 766.177 684.143 723.823 684.143 723.823 705.571ZM586.176 459.143C586.176 453.226 590.917 448.429 596.765 448.429L893.235 448.429C899.083 448.429 903.824 453.226 903.824 459.143L903.824 652C903.824 657.917 899.083 662.714 893.235 662.714L596.765 662.714C590.917 662.714 586.176 657.917 586.176 652L586.176 459.143ZM660.293 469.857 639.116 469.857 639.116 491.286 617.94 491.286 617.94 512.714 639.116 512.714 639.116 534.143 660.293 534.143 660.293 512.714 681.47 512.714 681.47 491.286 660.293 491.286 660.293 469.857ZM628.528 555.571C622.68 555.571 617.939 560.368 617.939 566.286L617.939 609.143C617.939 615.06 622.68 619.857 628.528 619.857L670.881 619.857C676.728 619.857 681.469 615.06 681.469 609.143L681.469 566.286C681.469 560.368 676.728 555.571 670.881 555.571L628.528 555.571ZM639.116 598.429 639.116 577 660.292 577 660.292 598.429 639.116 598.429ZM713.237 480.571C713.237 474.654 717.978 469.857 723.826 469.857L766.178 469.857C772.026 469.857 776.767 474.654 776.767 480.571L776.767 523.429C776.767 529.346 772.026 534.143 766.178 534.143L723.826 534.143C717.978 534.143 713.237 529.346 713.237 523.429L713.237 480.571ZM734.414 491.286 734.414 512.714 755.59 512.714 755.59 491.286 734.414 491.286ZM723.826 555.571C717.978 555.571 713.237 560.368 713.237 566.286L713.237 609.143C713.237 615.06 717.978 619.857 723.826 619.857L766.178 619.857C772.026 619.857 776.767 615.06 776.767 609.143L776.767 566.286C776.767 560.368 772.026 555.571 766.178 555.571L723.826 555.571ZM734.414 598.429 734.414 577 755.59 577 755.59 598.429 734.414 598.429ZM808.53 480.571C808.53 474.654 813.271 469.857 819.118 469.857L861.471 469.857C867.319 469.857 872.06 474.654 872.06 480.571L872.06 523.429C872.06 529.346 867.319 534.143 861.471 534.143L819.118 534.143C813.271 534.143 808.53 529.346 808.53 523.429L808.53 480.571ZM829.707 491.286 829.707 512.714 850.883 512.714 850.883 491.286 829.707 491.286Z" fill="#344A9A" fill-rule="evenodd" fill-opacity="1"/></g></g></g><text fill="#344A9A" fill-opacity="1" font-family="Arial,Arial_MSFontService,sans-serif" font-style="normal" font-variant="normal" font-weight="700" font-stretch="normal" font-size="83" text-anchor="start" direction="ltr" writing-mode="lr-tb" unicode-bidi="normal" text-decoration="none" transform="matrix(1 0 0 1 433.138 372)">PACS</text><rect x="177.5" y="1238.5" width="746" height="702" stroke="#101A3E" stroke-width="4.58333" stroke-linecap="butt" stroke-linejoin="miter" stroke-miterlimit="8" stroke-opacity="1" fill="#F2F2F2" fill-opacity="1"/><g><g><g><path d="M42.6666 53.3333C41.1938 53.3333 40 54.5271 40 55.9999 40 57.4727 41.1938 58.6666 42.6666 58.6666L61.3333 58.6666C62.8061 58.6666 63.9999 57.4727 63.9999 55.9999 63.9999 54.5271 62.8061 53.3333 61.3333 53.3333L42.6666 53.3333Z" fill="#344A9A" fill-rule="nonzero" fill-opacity="1" transform="matrix(1.00781 0 0 1 515 1462)"/><path d="M40 42.6666C40 41.1938 41.1938 40 42.6666 40L83.9999 40C85.4727 40 86.6666 41.1938 86.6666 42.6666 86.6666 44.1394 85.4727 45.3333 83.9999 45.3333L42.6666 45.3333C41.1938 45.3333 40 44.1394 40 42.6666Z" fill="#344A9A" fill-rule="nonzero" fill-opacity="1" transform="matrix(1.00781 0 0 1 515 1462)"/><path d="M40 74.6666C40 73.1938 41.1938 71.9999 42.6666 71.9999L53.3333 71.9999C54.8061 71.9999 55.9999 73.1938 55.9999 74.6666L55.9999 85.3332C55.9999 86.806 54.8061 87.9999 53.3333 87.9999L42.6666 87.9999C41.1938 87.9999 40 86.806 40 85.3332L40 74.6666ZM45.3333 82.6666 45.3333 77.3333 50.6666 77.3333 50.6666 82.6666 45.3333 82.6666Z" fill="#344A9A" fill-rule="evenodd" fill-opacity="1" transform="matrix(1.00781 0 0 1 515 1462)"/><path d="M74.6666 82.6666C79.0866 82.6666 82.6666 79.0866 82.6666 74.6666 82.6666 70.2466 79.0866 66.6666 74.6666 66.6666 70.2466 66.6666 66.6666 70.2466 66.6666 74.6666 66.6666 79.0866 70.2466 82.6666 74.6666 82.6666ZM74.6666 77.3333C76.141 77.3333 77.3333 76.141 77.3333 74.6666 77.3333 73.1922 76.141 71.9999 74.6666 71.9999 73.1922 71.9999 71.9999 73.1922 71.9999 74.6666 71.9999 76.141 73.1922 77.3333 74.6666 77.3333Z" fill="#344A9A" fill-rule="evenodd" fill-opacity="1" transform="matrix(1.00781 0 0 1 515 1462)"/><path d="M58.6666 93.818C58.6666 88.1756 69.3266 85.3332 74.6666 85.3332 80.0066 85.3332 90.6666 88.1756 90.6666 93.818L90.6666 104 58.6666 104 58.6666 93.818ZM64.1463 93.9231C64.0813 93.9868 64.0338 94.0386 63.9999 94.078L63.9999 98.6666 85.3332 98.6666 85.3332 94.078C85.2994 94.0386 85.2519 93.9868 85.1868 93.9231 84.7503 93.4959 83.9058 92.93 82.5834 92.3684 79.917 91.2354 76.6271 90.6666 74.6666 90.6666 72.7061 90.6666 69.4162 91.2354 66.7498 92.3684 65.4274 92.93 64.5829 93.4959 64.1463 93.9231Z" fill="#344A9A" fill-rule="evenodd" fill-opacity="1" transform="matrix(1.00781 0 0 1 515 1462)"/><path d="M45.3333 18.6666C45.3333 14.2484 48.9149 10.6667 53.3333 10.6667L74.6666 10.6667C79.085 10.6667 82.6666 14.2484 82.6666 18.6666L93.3332 18.6666C97.7516 18.6666 101.333 22.2483 101.333 26.6666L101.333 109.333C101.333 113.752 97.7516 117.333 93.3332 117.333L34.6666 117.333C30.2482 117.333 26.6666 113.752 26.6666 109.333L26.6666 26.6666C26.6666 22.2484 30.2482 18.6666 34.6666 18.6666L45.3333 18.6666ZM74.6666 32C79.085 32 82.6666 28.4184 82.6666 24L93.3332 24C94.806 24 95.9999 25.1939 95.9999 26.6666L95.9999 109.333C95.9999 110.806 94.806 112 93.3332 112L34.6666 112C33.1938 112 32 110.806 32 109.333L32 26.6666C32 25.1939 33.1938 24 34.6666 24L45.3333 24C45.3333 28.4184 48.9149 32 53.3333 32L74.6666 32ZM53.3333 16C51.8605 16 50.6666 17.1939 50.6666 18.6666L50.6666 24C50.6666 25.4727 51.8605 26.6666 53.3333 26.6666L74.6666 26.6666C76.1394 26.6666 77.3333 25.4727 77.3333 24L77.3333 18.6666C77.3333 17.1939 76.1394 16 74.6666 16L53.3333 16Z" fill="#344A9A" fill-rule="evenodd" fill-opacity="1" transform="matrix(1.00781 0 0 1 515 1462)"/></g></g></g><g><g><g><path d="M42.6666 53.3333C41.1938 53.3333 40 54.5271 40 55.9999 40 57.4727 41.1938 58.6666 42.6666 58.6666L61.3333 58.6666C62.8061 58.6666 63.9999 57.4727 63.9999 55.9999 63.9999 54.5271 62.8061 53.3333 61.3333 53.3333L42.6666 53.3333Z" fill="#344A9A" fill-rule="nonzero" fill-opacity="1" transform="matrix(1 0 0 1.00781 671 1355)"/><path d="M40 42.6666C40 41.1938 41.1938 40 42.6666 40L83.9999 40C85.4727 40 86.6666 41.1938 86.6666 42.6666 86.6666 44.1394 85.4727 45.3333 83.9999 45.3333L42.6666 45.3333C41.1938 45.3333 40 44.1394 40 42.6666Z" fill="#344A9A" fill-rule="nonzero" fill-opacity="1" transform="matrix(1 0 0 1.00781 671 1355)"/><path d="M40 74.6666C40 73.1938 41.1938 71.9999 42.6666 71.9999L53.3333 71.9999C54.8061 71.9999 55.9999 73.1938 55.9999 74.6666L55.9999 85.3332C55.9999 86.806 54.8061 87.9999 53.3333 87.9999L42.6666 87.9999C41.1938 87.9999 40 86.806 40 85.3332L40 74.6666ZM45.3333 82.6666 45.3333 77.3333 50.6666 77.3333 50.6666 82.6666 45.3333 82.6666Z" fill="#344A9A" fill-rule="evenodd" fill-opacity="1" transform="matrix(1 0 0 1.00781 671 1355)"/><path d="M74.6666 82.6666C79.0866 82.6666 82.6666 79.0866 82.6666 74.6666 82.6666 70.2466 79.0866 66.6666 74.6666 66.6666 70.2466 66.6666 66.6666 70.2466 66.6666 74.6666 66.6666 79.0866 70.2466 82.6666 74.6666 82.6666ZM74.6666 77.3333C76.141 77.3333 77.3333 76.141 77.3333 74.6666 77.3333 73.1922 76.141 71.9999 74.6666 71.9999 73.1922 71.9999 71.9999 73.1922 71.9999 74.6666 71.9999 76.141 73.1922 77.3333 74.6666 77.3333Z" fill="#344A9A" fill-rule="evenodd" fill-opacity="1" transform="matrix(1 0 0 1.00781 671 1355)"/><path d="M58.6666 93.818C58.6666 88.1756 69.3266 85.3332 74.6666 85.3332 80.0066 85.3332 90.6666 88.1756 90.6666 93.818L90.6666 104 58.6666 104 58.6666 93.818ZM64.1463 93.9231C64.0813 93.9868 64.0338 94.0386 63.9999 94.078L63.9999 98.6666 85.3332 98.6666 85.3332 94.078C85.2994 94.0386 85.2519 93.9868 85.1868 93.9231 84.7503 93.4959 83.9058 92.93 82.5834 92.3684 79.917 91.2354 76.6271 90.6666 74.6666 90.6666 72.7061 90.6666 69.4162 91.2354 66.7498 92.3684 65.4274 92.93 64.5829 93.4959 64.1463 93.9231Z" fill="#344A9A" fill-rule="evenodd" fill-opacity="1" transform="matrix(1 0 0 1.00781 671 1355)"/><path d="M45.3333 18.6666C45.3333 14.2484 48.9149 10.6667 53.3333 10.6667L74.6666 10.6667C79.085 10.6667 82.6666 14.2484 82.6666 18.6666L93.3332 18.6666C97.7516 18.6666 101.333 22.2483 101.333 26.6666L101.333 109.333C101.333 113.752 97.7516 117.333 93.3332 117.333L34.6666 117.333C30.2482 117.333 26.6666 113.752 26.6666 109.333L26.6666 26.6666C26.6666 22.2484 30.2482 18.6666 34.6666 18.6666L45.3333 18.6666ZM74.6666 32C79.085 32 82.6666 28.4184 82.6666 24L93.3332 24C94.806 24 95.9999 25.1939 95.9999 26.6666L95.9999 109.333C95.9999 110.806 94.806 112 93.3332 112L34.6666 112C33.1938 112 32 110.806 32 109.333L32 26.6666C32 25.1939 33.1938 24 34.6666 24L45.3333 24C45.3333 28.4184 48.9149 32 53.3333 32L74.6666 32ZM53.3333 16C51.8605 16 50.6666 17.1939 50.6666 18.6666L50.6666 24C50.6666 25.4727 51.8605 26.6666 53.3333 26.6666L74.6666 26.6666C76.1394 26.6666 77.3333 25.4727 77.3333 24L77.3333 18.6666C77.3333 17.1939 76.1394 16 74.6666 16L53.3333 16Z" fill="#344A9A" fill-rule="evenodd" fill-opacity="1" transform="matrix(1 0 0 1.00781 671 1355)"/></g></g></g><g><g><g><path d="M42.6666 53.3333C41.1938 53.3333 40 54.5271 40 55.9999 40 57.4727 41.1938 58.6666 42.6666 58.6666L61.3333 58.6666C62.8061 58.6666 63.9999 57.4727 63.9999 55.9999 63.9999 54.5271 62.8061 53.3333 61.3333 53.3333L42.6666 53.3333Z" fill="#344A9A" fill-rule="nonzero" fill-opacity="1" transform="matrix(1.00781 0 0 1 408 1291)"/><path d="M40 42.6666C40 41.1938 41.1938 40 42.6666 40L83.9999 40C85.4727 40 86.6666 41.1938 86.6666 42.6666 86.6666 44.1394 85.4727 45.3333 83.9999 45.3333L42.6666 45.3333C41.1938 45.3333 40 44.1394 40 42.6666Z" fill="#344A9A" fill-rule="nonzero" fill-opacity="1" transform="matrix(1.00781 0 0 1 408 1291)"/><path d="M40 74.6666C40 73.1938 41.1938 71.9999 42.6666 71.9999L53.3333 71.9999C54.8061 71.9999 55.9999 73.1938 55.9999 74.6666L55.9999 85.3332C55.9999 86.806 54.8061 87.9999 53.3333 87.9999L42.6666 87.9999C41.1938 87.9999 40 86.806 40 85.3332L40 74.6666ZM45.3333 82.6666 45.3333 77.3333 50.6666 77.3333 50.6666 82.6666 45.3333 82.6666Z" fill="#344A9A" fill-rule="evenodd" fill-opacity="1" transform="matrix(1.00781 0 0 1 408 1291)"/><path d="M74.6666 82.6666C79.0866 82.6666 82.6666 79.0866 82.6666 74.6666 82.6666 70.2466 79.0866 66.6666 74.6666 66.6666 70.2466 66.6666 66.6666 70.2466 66.6666 74.6666 66.6666 79.0866 70.2466 82.6666 74.6666 82.6666ZM74.6666 77.3333C76.141 77.3333 77.3333 76.141 77.3333 74.6666 77.3333 73.1922 76.141 71.9999 74.6666 71.9999 73.1922 71.9999 71.9999 73.1922 71.9999 74.6666 71.9999 76.141 73.1922 77.3333 74.6666 77.3333Z" fill="#344A9A" fill-rule="evenodd" fill-opacity="1" transform="matrix(1.00781 0 0 1 408 1291)"/><path d="M58.6666 93.818C58.6666 88.1756 69.3266 85.3332 74.6666 85.3332 80.0066 85.3332 90.6666 88.1756 90.6666 93.818L90.6666 104 58.6666 104 58.6666 93.818ZM64.1463 93.9231C64.0813 93.9868 64.0338 94.0386 63.9999 94.078L63.9999 98.6666 85.3332 98.6666 85.3332 94.078C85.2994 94.0386 85.2519 93.9868 85.1868 93.9231 84.7503 93.4959 83.9058 92.93 82.5834 92.3684 79.917 91.2354 76.6271 90.6666 74.6666 90.6666 72.7061 90.6666 69.4162 91.2354 66.7498 92.3684 65.4274 92.93 64.5829 93.4959 64.1463 93.9231Z" fill="#344A9A" fill-rule="evenodd" fill-opacity="1" transform="matrix(1.00781 0 0 1 408 1291)"/><path d="M45.3333 18.6666C45.3333 14.2484 48.9149 10.6667 53.3333 10.6667L74.6666 10.6667C79.085 10.6667 82.6666 14.2484 82.6666 18.6666L93.3332 18.6666C97.7516 18.6666 101.333 22.2483 101.333 26.6666L101.333 109.333C101.333 113.752 97.7516 117.333 93.3332 117.333L34.6666 117.333C30.2482 117.333 26.6666 113.752 26.6666 109.333L26.6666 26.6666C26.6666 22.2484 30.2482 18.6666 34.6666 18.6666L45.3333 18.6666ZM74.6666 32C79.085 32 82.6666 28.4184 82.6666 24L93.3332 24C94.806 24 95.9999 25.1939 95.9999 26.6666L95.9999 109.333C95.9999 110.806 94.806 112 93.3332 112L34.6666 112C33.1938 112 32 110.806 32 109.333L32 26.6666C32 25.1939 33.1938 24 34.6666 24L45.3333 24C45.3333 28.4184 48.9149 32 53.3333 32L74.6666 32ZM53.3333 16C51.8605 16 50.6666 17.1939 50.6666 18.6666L50.6666 24C50.6666 25.4727 51.8605 26.6666 53.3333 26.6666L74.6666 26.6666C76.1394 26.6666 77.3333 25.4727 77.3333 24L77.3333 18.6666C77.3333 17.1939 76.1394 16 74.6666 16L53.3333 16Z" fill="#344A9A" fill-rule="evenodd" fill-opacity="1" transform="matrix(1.00781 0 0 1 408 1291)"/></g></g></g><g><g><g><path d="M42.6667 53.3334C41.1939 53.3334 40.0001 54.5273 40.0001 56.0001 40.0001 57.4729 41.1939 58.6668 42.6667 58.6668L61.3334 58.6668C62.8062 58.6668 64.0001 57.4729 64.0001 56.0001 64.0001 54.5273 62.8062 53.3334 61.3334 53.3334L42.6667 53.3334Z" fill="#344A9A" fill-rule="nonzero" fill-opacity="1" transform="matrix(1.00781 0 0 1 296 1493)"/><path d="M40.0001 42.6667C40.0001 41.1939 41.1939 40.0001 42.6667 40.0001L84.0002 40.0001C85.473 40.0001 86.6668 41.1939 86.6668 42.6667 86.6668 44.1395 85.473 45.3334 84.0002 45.3334L42.6667 45.3334C41.1939 45.3334 40.0001 44.1395 40.0001 42.6667Z" fill="#344A9A" fill-rule="nonzero" fill-opacity="1" transform="matrix(1.00781 0 0 1 296 1493)"/><path d="M40.0001 74.6668C40.0001 73.194 41.1939 72.0001 42.6667 72.0001L53.3334 72.0001C54.8062 72.0001 56.0001 73.194 56.0001 74.6668L56.0001 85.3335C56.0001 86.8063 54.8062 88.0002 53.3334 88.0002L42.6667 88.0002C41.1939 88.0002 40.0001 86.8063 40.0001 85.3335L40.0001 74.6668ZM45.3334 82.6668 45.3334 77.3335 50.6668 77.3335 50.6668 82.6668 45.3334 82.6668Z" fill="#344A9A" fill-rule="evenodd" fill-opacity="1" transform="matrix(1.00781 0 0 1 296 1493)"/><path d="M74.6668 82.6668C79.0868 82.6668 82.6668 79.0868 82.6668 74.6668 82.6668 70.2468 79.0868 66.6668 74.6668 66.6668 70.2468 66.6668 66.6668 70.2468 66.6668 74.6668 66.6668 79.0868 70.2468 82.6668 74.6668 82.6668ZM74.6668 77.3335C76.1412 77.3335 77.3335 76.1412 77.3335 74.6668 77.3335 73.1924 76.1412 72.0001 74.6668 72.0001 73.1924 72.0001 72.0001 73.1924 72.0001 74.6668 72.0001 76.1412 73.1924 77.3335 74.6668 77.3335Z" fill="#344A9A" fill-rule="evenodd" fill-opacity="1" transform="matrix(1.00781 0 0 1 296 1493)"/><path d="M58.6668 93.8183C58.6668 88.1759 69.3268 85.3335 74.6668 85.3335 80.0068 85.3335 90.6668 88.1759 90.6668 93.8183L90.6668 104 58.6668 104 58.6668 93.8183ZM64.1465 93.9234C64.0815 93.9871 64.034 94.0388 64.0001 94.0783L64.0001 98.6668 85.3335 98.6668 85.3335 94.0783C85.2996 94.0388 85.2522 93.9871 85.1871 93.9234 84.7506 93.4962 83.906 92.9303 82.5836 92.3687 79.9172 91.2356 76.6273 90.6668 74.6668 90.6668 72.7063 90.6668 69.4164 91.2356 66.75 92.3687 65.4276 92.9303 64.583 93.4962 64.1465 93.9234Z" fill="#344A9A" fill-rule="evenodd" fill-opacity="1" transform="matrix(1.00781 0 0 1 296 1493)"/><path d="M45.3334 18.6667C45.3334 14.2484 48.915 10.6667 53.3334 10.6667L74.6668 10.6667C79.0852 10.6667 82.6668 14.2484 82.6668 18.6667L93.3335 18.6667C97.7519 18.6667 101.334 22.2484 101.334 26.6667L101.334 109.334C101.334 113.752 97.7519 117.334 93.3335 117.334L34.6667 117.334C30.2483 117.334 26.6667 113.752 26.6667 109.334L26.6667 26.6667C26.6667 22.2484 30.2483 18.6667 34.6667 18.6667L45.3334 18.6667ZM74.6668 32.0001C79.0852 32.0001 82.6668 28.4185 82.6668 24L93.3335 24C94.8063 24 96.0002 25.194 96.0002 26.6667L96.0002 109.334C96.0002 110.806 94.8063 112 93.3335 112L34.6667 112C33.1939 112 32.0001 110.806 32.0001 109.334L32.0001 26.6667C32.0001 25.194 33.1939 24 34.6667 24L45.3334 24C45.3334 28.4185 48.915 32.0001 53.3334 32.0001L74.6668 32.0001ZM53.3334 16C51.8606 16 50.6668 17.194 50.6668 18.6667L50.6668 24C50.6668 25.4728 51.8606 26.6667 53.3334 26.6667L74.6668 26.6667C76.1396 26.6667 77.3335 25.4728 77.3335 24L77.3335 18.6667C77.3335 17.194 76.1396 16 74.6668 16L53.3334 16Z" fill="#344A9A" fill-rule="evenodd" fill-opacity="1" transform="matrix(1.00781 0 0 1 296 1493)"/></g></g></g><g><g><g><path d="M42.6666 53.3333C41.1938 53.3333 40 54.5271 40 55.9999 40 57.4727 41.1938 58.6666 42.6666 58.6666L61.3333 58.6666C62.8061 58.6666 63.9999 57.4727 63.9999 55.9999 63.9999 54.5271 62.8061 53.3333 61.3333 53.3333L42.6666 53.3333Z" fill="#344A9A" fill-rule="nonzero" fill-opacity="1" transform="matrix(1 0 0 1.00782 693 1557)"/><path d="M40 42.6666C40 41.1938 41.1938 40 42.6666 40L83.9999 40C85.4727 40 86.6666 41.1938 86.6666 42.6666 86.6666 44.1394 85.4727 45.3333 83.9999 45.3333L42.6666 45.3333C41.1938 45.3333 40 44.1394 40 42.6666Z" fill="#344A9A" fill-rule="nonzero" fill-opacity="1" transform="matrix(1 0 0 1.00782 693 1557)"/><path d="M40 74.6666C40 73.1938 41.1938 71.9999 42.6666 71.9999L53.3333 71.9999C54.8061 71.9999 55.9999 73.1938 55.9999 74.6666L55.9999 85.3332C55.9999 86.806 54.8061 87.9999 53.3333 87.9999L42.6666 87.9999C41.1938 87.9999 40 86.806 40 85.3332L40 74.6666ZM45.3333 82.6666 45.3333 77.3333 50.6666 77.3333 50.6666 82.6666 45.3333 82.6666Z" fill="#344A9A" fill-rule="evenodd" fill-opacity="1" transform="matrix(1 0 0 1.00782 693 1557)"/><path d="M74.6666 82.6666C79.0866 82.6666 82.6666 79.0866 82.6666 74.6666 82.6666 70.2466 79.0866 66.6666 74.6666 66.6666 70.2466 66.6666 66.6666 70.2466 66.6666 74.6666 66.6666 79.0866 70.2466 82.6666 74.6666 82.6666ZM74.6666 77.3333C76.141 77.3333 77.3333 76.141 77.3333 74.6666 77.3333 73.1922 76.141 71.9999 74.6666 71.9999 73.1922 71.9999 71.9999 73.1922 71.9999 74.6666 71.9999 76.141 73.1922 77.3333 74.6666 77.3333Z" fill="#344A9A" fill-rule="evenodd" fill-opacity="1" transform="matrix(1 0 0 1.00782 693 1557)"/><path d="M58.6666 93.818C58.6666 88.1756 69.3266 85.3332 74.6666 85.3332 80.0066 85.3332 90.6666 88.1756 90.6666 93.818L90.6666 104 58.6666 104 58.6666 93.818ZM64.1463 93.9231C64.0813 93.9868 64.0338 94.0386 63.9999 94.078L63.9999 98.6666 85.3332 98.6666 85.3332 94.078C85.2994 94.0386 85.2519 93.9868 85.1868 93.9231 84.7503 93.4959 83.9058 92.93 82.5834 92.3684 79.917 91.2354 76.6271 90.6666 74.6666 90.6666 72.7061 90.6666 69.4162 91.2354 66.7498 92.3684 65.4274 92.93 64.5829 93.4959 64.1463 93.9231Z" fill="#344A9A" fill-rule="evenodd" fill-opacity="1" transform="matrix(1 0 0 1.00782 693 1557)"/><path d="M45.3333 18.6666C45.3333 14.2484 48.9149 10.6667 53.3333 10.6667L74.6666 10.6667C79.085 10.6667 82.6666 14.2484 82.6666 18.6666L93.3332 18.6666C97.7516 18.6666 101.333 22.2483 101.333 26.6666L101.333 109.333C101.333 113.752 97.7516 117.333 93.3332 117.333L34.6666 117.333C30.2482 117.333 26.6666 113.752 26.6666 109.333L26.6666 26.6666C26.6666 22.2484 30.2482 18.6666 34.6666 18.6666L45.3333 18.6666ZM74.6666 32C79.085 32 82.6666 28.4184 82.6666 24L93.3332 24C94.806 24 95.9999 25.1939 95.9999 26.6666L95.9999 109.333C95.9999 110.806 94.806 112 93.3332 112L34.6666 112C33.1938 112 32 110.806 32 109.333L32 26.6666C32 25.1939 33.1938 24 34.6666 24L45.3333 24C45.3333 28.4184 48.9149 32 53.3333 32L74.6666 32ZM53.3333 16C51.8605 16 50.6666 17.1939 50.6666 18.6666L50.6666 24C50.6666 25.4727 51.8605 26.6666 53.3333 26.6666L74.6666 26.6666C76.1394 26.6666 77.3333 25.4727 77.3333 24L77.3333 18.6666C77.3333 17.1939 76.1394 16 74.6666 16L53.3333 16Z" fill="#344A9A" fill-rule="evenodd" fill-opacity="1" transform="matrix(1 0 0 1.00782 693 1557)"/></g></g></g><g><g><g><path d="M493.667 1696.33C492.194 1696.33 491 1697.53 491 1699 491 1700.47 492.194 1701.67 493.667 1701.67L512.333 1701.67C513.806 1701.67 515 1700.47 515 1699 515 1697.53 513.806 1696.33 512.333 1696.33L493.667 1696.33Z" fill="#344A9A" fill-rule="nonzero" fill-opacity="1"/><path d="M491 1685.67C491 1684.19 492.194 1683 493.667 1683L535 1683C536.473 1683 537.667 1684.19 537.667 1685.67 537.667 1687.14 536.473 1688.33 535 1688.33L493.667 1688.33C492.194 1688.33 491 1687.14 491 1685.67Z" fill="#344A9A" fill-rule="nonzero" fill-opacity="1"/><path d="M491 1717.67C491 1716.19 492.194 1715 493.667 1715L504.333 1715C505.806 1715 507 1716.19 507 1717.67L507 1728.33C507 1729.81 505.806 1731 504.333 1731L493.667 1731C492.194 1731 491 1729.81 491 1728.33L491 1717.67ZM496.333 1725.67 496.333 1720.33 501.667 1720.33 501.667 1725.67 496.333 1725.67Z" fill="#344A9A" fill-rule="evenodd" fill-opacity="1"/><path d="M525.667 1725.67C530.087 1725.67 533.667 1722.09 533.667 1717.67 533.667 1713.25 530.087 1709.67 525.667 1709.67 521.247 1709.67 517.667 1713.25 517.667 1717.67 517.667 1722.09 521.247 1725.67 525.667 1725.67ZM525.667 1720.33C527.141 1720.33 528.333 1719.14 528.333 1717.67 528.333 1716.19 527.141 1715 525.667 1715 524.192 1715 523 1716.19 523 1717.67 523 1719.14 524.192 1720.33 525.667 1720.33Z" fill="#344A9A" fill-rule="evenodd" fill-opacity="1"/><path d="M509.667 1736.82C509.667 1731.18 520.327 1728.33 525.667 1728.33 531.007 1728.33 541.667 1731.18 541.667 1736.82L541.667 1747 509.667 1747 509.667 1736.82ZM515.146 1736.92C515.081 1736.99 515.034 1737.04 515 1737.08L515 1741.67 536.333 1741.67 536.333 1737.08C536.299 1737.04 536.252 1736.99 536.187 1736.92 535.75 1736.5 534.906 1735.93 533.583 1735.37 530.917 1734.24 527.627 1733.67 525.667 1733.67 523.706 1733.67 520.416 1734.24 517.75 1735.37 516.427 1735.93 515.583 1736.5 515.146 1736.92Z" fill="#344A9A" fill-rule="evenodd" fill-opacity="1"/><path d="M496.333 1661.67C496.333 1657.25 499.915 1653.67 504.333 1653.67L525.667 1653.67C530.085 1653.67 533.667 1657.25 533.667 1661.67L544.333 1661.67C548.752 1661.67 552.333 1665.25 552.333 1669.67L552.333 1752.33C552.333 1756.75 548.752 1760.33 544.333 1760.33L485.667 1760.33C481.248 1760.33 477.667 1756.75 477.667 1752.33L477.667 1669.67C477.667 1665.25 481.248 1661.67 485.667 1661.67L496.333 1661.67ZM525.667 1675C530.085 1675 533.667 1671.42 533.667 1667L544.333 1667C545.806 1667 547 1668.19 547 1669.67L547 1752.33C547 1753.81 545.806 1755 544.333 1755L485.667 1755C484.194 1755 483 1753.81 483 1752.33L483 1669.67C483 1668.19 484.194 1667 485.667 1667L496.333 1667C496.333 1671.42 499.915 1675 504.333 1675L525.667 1675ZM504.333 1659C502.86 1659 501.667 1660.19 501.667 1661.67L501.667 1667C501.667 1668.47 502.86 1669.67 504.333 1669.67L525.667 1669.67C527.139 1669.67 528.333 1668.47 528.333 1667L528.333 1661.67C528.333 1660.19 527.139 1659 525.667 1659L504.333 1659Z" fill="#344A9A" fill-rule="evenodd" fill-opacity="1"/></g></g></g><g><g><g><path d="M42.6666 53.3333C41.1938 53.3333 40 54.5271 40 55.9999 40 57.4727 41.1938 58.6666 42.6666 58.6666L61.3333 58.6666C62.8061 58.6666 63.9999 57.4727 63.9999 55.9999 63.9999 54.5271 62.8061 53.3333 61.3333 53.3333L42.6666 53.3333Z" fill="#344A9A" fill-rule="nonzero" fill-opacity="1" transform="matrix(1 0 0 1.00781 607 1718)"/><path d="M40 42.6666C40 41.1938 41.1938 40 42.6666 40L83.9999 40C85.4727 40 86.6666 41.1938 86.6666 42.6666 86.6666 44.1394 85.4727 45.3333 83.9999 45.3333L42.6666 45.3333C41.1938 45.3333 40 44.1394 40 42.6666Z" fill="#344A9A" fill-rule="nonzero" fill-opacity="1" transform="matrix(1 0 0 1.00781 607 1718)"/><path d="M40 74.6666C40 73.1938 41.1938 71.9999 42.6666 71.9999L53.3333 71.9999C54.8061 71.9999 55.9999 73.1938 55.9999 74.6666L55.9999 85.3332C55.9999 86.806 54.8061 87.9999 53.3333 87.9999L42.6666 87.9999C41.1938 87.9999 40 86.806 40 85.3332L40 74.6666ZM45.3333 82.6666 45.3333 77.3333 50.6666 77.3333 50.6666 82.6666 45.3333 82.6666Z" fill="#344A9A" fill-rule="evenodd" fill-opacity="1" transform="matrix(1 0 0 1.00781 607 1718)"/><path d="M74.6666 82.6666C79.0866 82.6666 82.6666 79.0866 82.6666 74.6666 82.6666 70.2466 79.0866 66.6666 74.6666 66.6666 70.2466 66.6666 66.6666 70.2466 66.6666 74.6666 66.6666 79.0866 70.2466 82.6666 74.6666 82.6666ZM74.6666 77.3333C76.141 77.3333 77.3333 76.141 77.3333 74.6666 77.3333 73.1922 76.141 71.9999 74.6666 71.9999 73.1922 71.9999 71.9999 73.1922 71.9999 74.6666 71.9999 76.141 73.1922 77.3333 74.6666 77.3333Z" fill="#344A9A" fill-rule="evenodd" fill-opacity="1" transform="matrix(1 0 0 1.00781 607 1718)"/><path d="M58.6666 93.818C58.6666 88.1756 69.3266 85.3332 74.6666 85.3332 80.0066 85.3332 90.6666 88.1756 90.6666 93.818L90.6666 104 58.6666 104 58.6666 93.818ZM64.1463 93.9231C64.0813 93.9868 64.0338 94.0386 63.9999 94.078L63.9999 98.6666 85.3332 98.6666 85.3332 94.078C85.2994 94.0386 85.2519 93.9868 85.1868 93.9231 84.7503 93.4959 83.9058 92.93 82.5834 92.3684 79.917 91.2354 76.6271 90.6666 74.6666 90.6666 72.7061 90.6666 69.4162 91.2354 66.7498 92.3684 65.4274 92.93 64.5829 93.4959 64.1463 93.9231Z" fill="#344A9A" fill-rule="evenodd" fill-opacity="1" transform="matrix(1 0 0 1.00781 607 1718)"/><path d="M45.3333 18.6666C45.3333 14.2484 48.9149 10.6667 53.3333 10.6667L74.6666 10.6667C79.085 10.6667 82.6666 14.2484 82.6666 18.6666L93.3332 18.6666C97.7516 18.6666 101.333 22.2483 101.333 26.6666L101.333 109.333C101.333 113.752 97.7516 117.333 93.3332 117.333L34.6666 117.333C30.2482 117.333 26.6666 113.752 26.6666 109.333L26.6666 26.6666C26.6666 22.2484 30.2482 18.6666 34.6666 18.6666L45.3333 18.6666ZM74.6666 32C79.085 32 82.6666 28.4184 82.6666 24L93.3332 24C94.806 24 95.9999 25.1939 95.9999 26.6666L95.9999 109.333C95.9999 110.806 94.806 112 93.3332 112L34.6666 112C33.1938 112 32 110.806 32 109.333L32 26.6666C32 25.1939 33.1938 24 34.6666 24L45.3333 24C45.3333 28.4184 48.9149 32 53.3333 32L74.6666 32ZM53.3333 16C51.8605 16 50.6666 17.1939 50.6666 18.6666L50.6666 24C50.6666 25.4727 51.8605 26.6666 53.3333 26.6666L74.6666 26.6666C76.1394 26.6666 77.3333 25.4727 77.3333 24L77.3333 18.6666C77.3333 17.1939 76.1394 16 74.6666 16L53.3333 16Z" fill="#344A9A" fill-rule="evenodd" fill-opacity="1" transform="matrix(1 0 0 1.00781 607 1718)"/></g></g></g><g><g><g><path d="M42.6666 53.3333C41.1938 53.3333 40 54.5271 40 55.9999 40 57.4727 41.1938 58.6666 42.6666 58.6666L61.3333 58.6666C62.8061 58.6666 63.9999 57.4727 63.9999 55.9999 63.9999 54.5271 62.8061 53.3333 61.3333 53.3333L42.6666 53.3333Z" fill="#344A9A" fill-rule="nonzero" fill-opacity="1" transform="matrix(1 0 0 1.00781 280 1715)"/><path d="M40 42.6666C40 41.1938 41.1938 40 42.6666 40L83.9999 40C85.4727 40 86.6666 41.1938 86.6666 42.6666 86.6666 44.1394 85.4727 45.3333 83.9999 45.3333L42.6666 45.3333C41.1938 45.3333 40 44.1394 40 42.6666Z" fill="#344A9A" fill-rule="nonzero" fill-opacity="1" transform="matrix(1 0 0 1.00781 280 1715)"/><path d="M40 74.6666C40 73.1938 41.1938 71.9999 42.6666 71.9999L53.3333 71.9999C54.8061 71.9999 55.9999 73.1938 55.9999 74.6666L55.9999 85.3332C55.9999 86.806 54.8061 87.9999 53.3333 87.9999L42.6666 87.9999C41.1938 87.9999 40 86.806 40 85.3332L40 74.6666ZM45.3333 82.6666 45.3333 77.3333 50.6666 77.3333 50.6666 82.6666 45.3333 82.6666Z" fill="#344A9A" fill-rule="evenodd" fill-opacity="1" transform="matrix(1 0 0 1.00781 280 1715)"/><path d="M74.6666 82.6666C79.0866 82.6666 82.6666 79.0866 82.6666 74.6666 82.6666 70.2466 79.0866 66.6666 74.6666 66.6666 70.2466 66.6666 66.6666 70.2466 66.6666 74.6666 66.6666 79.0866 70.2466 82.6666 74.6666 82.6666ZM74.6666 77.3333C76.141 77.3333 77.3333 76.141 77.3333 74.6666 77.3333 73.1922 76.141 71.9999 74.6666 71.9999 73.1922 71.9999 71.9999 73.1922 71.9999 74.6666 71.9999 76.141 73.1922 77.3333 74.6666 77.3333Z" fill="#344A9A" fill-rule="evenodd" fill-opacity="1" transform="matrix(1 0 0 1.00781 280 1715)"/><path d="M58.6666 93.818C58.6666 88.1756 69.3266 85.3332 74.6666 85.3332 80.0066 85.3332 90.6666 88.1756 90.6666 93.818L90.6666 104 58.6666 104 58.6666 93.818ZM64.1463 93.9231C64.0813 93.9868 64.0338 94.0386 63.9999 94.078L63.9999 98.6666 85.3332 98.6666 85.3332 94.078C85.2994 94.0386 85.2519 93.9868 85.1868 93.9231 84.7503 93.4959 83.9058 92.93 82.5834 92.3684 79.917 91.2354 76.6271 90.6666 74.6666 90.6666 72.7061 90.6666 69.4162 91.2354 66.7498 92.3684 65.4274 92.93 64.5829 93.4959 64.1463 93.9231Z" fill="#344A9A" fill-rule="evenodd" fill-opacity="1" transform="matrix(1 0 0 1.00781 280 1715)"/><path d="M45.3333 18.6666C45.3333 14.2484 48.9149 10.6667 53.3333 10.6667L74.6666 10.6667C79.085 10.6667 82.6666 14.2484 82.6666 18.6666L93.3332 18.6666C97.7516 18.6666 101.333 22.2483 101.333 26.6666L101.333 109.333C101.333 113.752 97.7516 117.333 93.3332 117.333L34.6666 117.333C30.2482 117.333 26.6666 113.752 26.6666 109.333L26.6666 26.6666C26.6666 22.2484 30.2482 18.6666 34.6666 18.6666L45.3333 18.6666ZM74.6666 32C79.085 32 82.6666 28.4184 82.6666 24L93.3332 24C94.806 24 95.9999 25.1939 95.9999 26.6666L95.9999 109.333C95.9999 110.806 94.806 112 93.3332 112L34.6666 112C33.1938 112 32 110.806 32 109.333L32 26.6666C32 25.1939 33.1938 24 34.6666 24L45.3333 24C45.3333 28.4184 48.9149 32 53.3333 32L74.6666 32ZM53.3333 16C51.8605 16 50.6666 17.1939 50.6666 18.6666L50.6666 24C50.6666 25.4727 51.8605 26.6666 53.3333 26.6666L74.6666 26.6666C76.1394 26.6666 77.3333 25.4727 77.3333 24L77.3333 18.6666C77.3333 17.1939 76.1394 16 74.6666 16L53.3333 16Z" fill="#344A9A" fill-rule="evenodd" fill-opacity="1" transform="matrix(1 0 0 1.00781 280 1715)"/></g></g></g><g><g><g><path d="M1464 1747C1464 1755.28 1457.28 1762 1449 1762 1440.72 1762 1434 1755.28 1434 1747 1434 1738.72 1440.72 1732 1449 1732 1457.28 1732 1464 1738.72 1464 1747Z" fill="#344A9A" fill-rule="nonzero" fill-opacity="1"/><path d="M1499 1752C1507.28 1752 1514 1745.28 1514 1737 1514 1728.72 1507.28 1722 1499 1722 1490.72 1722 1484 1728.72 1484 1737 1484 1745.28 1490.72 1752 1499 1752Z" fill="#344A9A" fill-rule="nonzero" fill-opacity="1"/><path d="M1404 1442C1481.21 1442 1544.79 1459.5 1553.09 1482L1554 1482 1554 1762C1554 1784.09 1486.84 1802 1404 1802 1321.16 1802 1254 1784.09 1254 1762L1254 1482 1254.92 1482C1263.21 1459.5 1326.79 1442 1404 1442ZM1404 1712C1348.43 1712 1299.92 1702.94 1274 1689.46L1274 1758.93C1274.55 1759.37 1275.34 1759.95 1276.45 1760.65 1281.62 1763.91 1290.43 1767.58 1303.09 1770.96 1328.12 1777.63 1363.8 1782 1404 1782 1444.2 1782 1479.88 1777.63 1504.91 1770.96 1517.57 1767.58 1526.38 1763.91 1531.55 1760.65 1532.66 1759.95 1533.45 1759.37 1534 1758.93L1534 1689.46C1508.08 1702.94 1459.57 1712 1404 1712ZM1404 1622C1459.57 1622 1508.08 1612.93 1534 1599.46L1534 1667 1532.23 1667C1531.79 1667.36 1531.26 1667.76 1530.64 1668.2 1525.54 1671.82 1516.85 1675.9 1504.32 1679.66 1479.51 1687.11 1444.04 1692 1404 1692 1363.96 1692 1328.49 1687.11 1303.68 1679.66 1291.15 1675.9 1282.46 1671.82 1277.36 1668.2 1276.74 1667.76 1276.21 1667.36 1275.77 1667L1274 1667 1274 1599.46C1299.92 1612.93 1348.43 1622 1404 1622ZM1404 1532C1459.57 1532 1508.08 1522.93 1534 1509.46L1534 1577 1532.23 1577C1531.79 1577.36 1531.26 1577.76 1530.64 1578.2 1525.54 1581.82 1516.85 1585.9 1504.32 1589.66 1479.51 1597.11 1444.04 1602 1404 1602 1363.96 1602 1328.49 1597.11 1303.68 1589.66 1291.15 1585.9 1282.46 1581.82 1277.36 1578.2 1276.74 1577.76 1276.21 1577.36 1275.77 1577L1274 1577 1274 1509.46C1299.92 1522.93 1348.43 1532 1404 1532ZM1531.5 1486.43C1531.77 1486.63 1532.01 1486.82 1532.23 1487 1531.79 1487.36 1531.26 1487.76 1530.64 1488.2 1525.54 1491.82 1516.85 1495.9 1504.32 1499.66 1479.51 1507.11 1444.04 1512 1404 1512 1363.96 1512 1328.49 1507.11 1303.68 1499.66 1291.15 1495.9 1282.46 1491.82 1277.36 1488.2 1276.74 1487.76 1276.21 1487.36 1275.77 1487 1275.99 1486.82 1276.23 1486.63 1276.5 1486.43 1276.76 1486.23 1277.05 1486.02 1277.36 1485.8 1277.93 1485.39 1278.54 1484.98 1279.2 1484.57 1279.7 1484.25 1280.25 1483.92 1280.84 1483.58 1282.33 1482.72 1283.99 1481.86 1285.82 1481 1289.49 1479.26 1293.9 1477.5 1299.09 1475.78 1302.1 1474.79 1305.35 1473.81 1308.83 1472.87 1316.49 1470.8 1325.02 1468.96 1334.26 1467.41 1354.59 1464 1378.38 1462 1404 1462 1441.27 1462 1474.65 1466.24 1499.17 1472.87 1500.95 1473.35 1502.66 1473.84 1504.32 1474.34 1514.12 1477.28 1521.75 1480.47 1527.16 1483.58 1527.75 1483.92 1528.29 1484.25 1528.79 1484.56 1529.45 1484.98 1530.07 1485.39 1530.64 1485.8 1530.95 1486.02 1531.24 1486.23 1531.5 1486.43ZM1535.11 1757.87C1535.11 1757.87 1535.07 1757.94 1534.94 1758.08 1535.03 1757.94 1535.11 1757.87 1535.11 1757.87ZM1272.89 1757.87C1272.89 1757.87 1272.97 1757.94 1273.06 1758.08 1272.93 1757.94 1272.89 1757.87 1272.89 1757.87Z" fill="#344A9A" fill-rule="evenodd" fill-opacity="1"/></g></g></g><g><g><g><path d="M91.5735 84.8229C74.0668 84.8229 59.875 99.1837 59.875 116.899L59.875 309.354C59.875 327.069 74.0668 341.43 91.5735 341.43L197.234 341.43 197.234 362.813 154.969 362.813 154.969 384.198 324.028 384.198 324.028 362.813 281.765 362.813 281.765 341.43 387.426 341.43C404.932 341.43 419.125 327.069 419.125 309.354L419.125 116.899C419.125 99.1837 404.932 84.8229 387.426 84.8229L91.5735 84.8229ZM218.367 362.813 260.633 362.813 260.633 341.43 218.367 341.43 218.367 362.813ZM81.0074 116.899C81.0074 110.994 85.738 106.207 91.5735 106.207L387.426 106.207C393.262 106.207 397.993 110.994 397.993 116.899L397.993 309.354C397.993 315.259 393.262 320.046 387.426 320.046L91.5735 320.046C85.738 320.046 81.0074 315.259 81.0074 309.354L81.0074 116.899ZM154.969 127.591 133.837 127.591 133.837 148.975 112.705 148.975 112.705 170.358 133.837 170.358 133.837 191.743 154.969 191.743 154.969 170.358 176.102 170.358 176.102 148.975 154.969 148.975 154.969 127.591ZM123.271 213.126C117.435 213.126 112.704 217.913 112.704 223.819L112.704 266.586C112.704 272.491 117.435 277.278 123.271 277.278L165.535 277.278C171.37 277.278 176.101 272.491 176.101 266.586L176.101 223.819C176.101 217.913 171.37 213.126 165.535 213.126L123.271 213.126ZM133.837 255.895 133.837 234.51 154.968 234.51 154.968 255.895 133.837 255.895ZM207.803 138.282C207.803 132.378 212.534 127.591 218.37 127.591L260.634 127.591C266.47 127.591 271.201 132.378 271.201 138.282L271.201 181.051C271.201 186.956 266.47 191.743 260.634 191.743L218.37 191.743C212.534 191.743 207.803 186.956 207.803 181.051L207.803 138.282ZM228.936 148.975 228.936 170.358 250.068 170.358 250.068 148.975 228.936 148.975ZM218.37 213.126C212.534 213.126 207.803 217.913 207.803 223.819L207.803 266.586C207.803 272.491 212.534 277.278 218.37 277.278L260.634 277.278C266.47 277.278 271.201 272.491 271.201 266.586L271.201 223.819C271.201 217.913 266.47 213.126 260.634 213.126L218.37 213.126ZM228.936 255.895 228.936 234.51 250.068 234.51 250.068 255.895 228.936 255.895ZM302.898 138.282C302.898 132.378 307.629 127.591 313.463 127.591L355.728 127.591C361.564 127.591 366.295 132.378 366.295 138.282L366.295 181.051C366.295 186.956 361.564 191.743 355.728 191.743L313.463 191.743C307.629 191.743 302.898 186.956 302.898 181.051L302.898 138.282ZM324.03 148.975 324.03 170.358 345.162 170.358 345.162 148.975 324.03 148.975Z" fill="#344A9A" fill-rule="evenodd" fill-opacity="1" transform="matrix(1 0 0 1.00209 1555 1382)"/></g></g></g><text fill="#344A9A" fill-opacity="1" font-family="Arial,Arial_MSFontService,sans-serif" font-style="normal" font-variant="normal" font-weight="700" font-stretch="normal" font-size="83" text-anchor="start" direction="ltr" writing-mode="lr-tb" unicode-bidi="normal" text-decoration="none" transform="matrix(1 0 0 1 1507.68 1412)">DMS</text><path d="M563.75 796 563.75 1168.51 536.25 1168.51 536.25 796ZM591.25 1154.76 550 1237.26 508.75 1154.76Z" fill="#344A9A" fill-rule="nonzero" fill-opacity="1"/><path d="M1.71923e-05-13.75 219.884-13.7497 219.884 13.7503-1.71923e-05 13.75ZM206.134-41.2497 288.634 0.000360892 206.134 41.2503Z" fill="#344A9A" fill-rule="nonzero" fill-opacity="1" transform="matrix(1 0 0 -1 923 1589)"/><g><g><g><path d="M63.4698 127 380.516 127 380.516 138.595C387.885 139.684 394.968 141.63 401.653 144.326L401.653 105.833 42.3333 105.833 42.3333 359.833 211.425 359.833 211.425 381 169.152 381C163.316 381 158.584 385.738 158.584 391.583 158.584 397.428 163.316 402.166 169.152 402.166L274.834 402.166C280.671 402.166 285.403 397.428 285.403 391.583 285.403 385.738 280.671 381 274.834 381L232.561 381 232.561 359.833 401.653 359.833 401.653 310.705C394.966 313.402 387.883 315.349 380.516 316.439L380.516 338.666 63.4698 338.666 63.4698 226.218 130.387 226.218 151.949 191.155 188.558 265.238 223.942 207.697 281.362 207.697C282.648 200.264 284.901 193.164 287.988 186.53L212.135 186.53 190.573 221.594 153.965 147.51 118.581 205.051 63.4698 205.051 63.4698 127Z" fill="#344A9A" fill-rule="nonzero" fill-opacity="1" transform="matrix(1 0 0 1.00197 3349 1369)"/><path d="M368.364 296.333C384.873 296.333 400.021 290.502 411.867 280.783L450.721 319.692 465.666 304.724 425.994 264.995C432.992 254.218 437.058 241.355 437.058 227.542 437.058 189.548 406.302 158.75 368.364 158.75 330.425 158.75 299.671 189.548 299.671 227.542 299.671 265.535 330.425 296.333 368.364 296.333ZM368.364 275.167C394.629 275.167 415.922 253.844 415.922 227.542 415.922 201.239 394.629 179.917 368.364 179.917 342.099 179.917 320.807 201.239 320.807 227.542 320.807 253.844 342.099 275.167 368.364 275.167Z" fill="#344A9A" fill-rule="evenodd" fill-opacity="1" transform="matrix(1 0 0 1.00197 3349 1369)"/><path d="M84.6062 275.167 148.015 275.167 148.015 254 84.6062 254 84.6062 275.167Z" fill="#344A9A" fill-rule="nonzero" fill-opacity="1" transform="matrix(1 0 0 1.00197 3349 1369)"/><path d="M84.6062 317.5 84.6062 296.333 211.425 296.333 211.425 317.5 84.6062 317.5Z" fill="#344A9A" fill-rule="nonzero" fill-opacity="1" transform="matrix(1 0 0 1.00197 3349 1369)"/></g></g></g><g><g><g><path d="M363.375 171C363.375 230.025 315.525 277.875 256.5 277.875 197.475 277.875 149.625 230.025 149.625 171 149.625 111.975 197.475 64.125 256.5 64.125 315.525 64.125 363.375 111.975 363.375 171ZM342 171C342 218.221 303.721 256.5 256.5 256.5 209.279 256.5 171 218.221 171 171 171 123.779 209.279 85.5 256.5 85.5 303.721 85.5 342 123.779 342 171Z" fill="#344A9A" fill-rule="evenodd" fill-opacity="1" transform="matrix(1 0 0 1 3771 1365)"/><path d="M191.457 308.389C191.496 308.468 191.536 308.546 191.576 308.624 191.848 309.169 192.114 309.696 192.375 310.191L235.808 310.191C245.5 310.189 250.339 310.19 255.184 310.191L255.449 310.191C260.192 310.192 265.029 310.193 274.509 310.191L317.946 310.191C320.384 305.558 325.939 298.161 331.312 299.385 343.385 302.134 355.547 305.967 367.234 310.679L367.59 310.502 367.707 310.737 367.786 310.902C411.769 328.763 448.875 359.059 448.875 390.841L448.875 448.875 64.125 448.875 64.125 390.841C64.125 350.492 123.93 312.539 181.687 299.385 186.404 298.31 189.195 303.879 191.457 308.389ZM349.527 326.851C344.938 325.247 340.288 323.794 335.618 322.506L330.849 331.566 274.509 331.566C264.82 331.568 260.041 331.567 255.32 331.566 250.488 331.565 245.718 331.564 235.813 331.566L179.472 331.566 175.048 323.163C173.762 323.534 172.477 323.918 171.194 324.312 171.124 325.016 171.068 325.812 171.035 326.703 170.896 330.39 171.172 334.762 171.779 339.22 172.385 343.664 173.286 347.927 174.288 351.364 174.448 351.91 174.607 352.424 174.763 352.905 190.698 354.769 203.062 368.316 203.062 384.75 203.062 402.458 188.708 416.812 171 416.812 153.292 416.812 138.937 402.458 138.937 384.75 138.937 373.347 144.89 363.334 153.857 357.651L153.769 357.349C152.434 352.772 151.331 347.46 150.601 342.108 150.157 338.86 149.839 335.498 149.701 332.188 136.485 337.83 124.173 344.648 113.846 352.182 93.2989 367.173 85.5 381.19 85.5 390.841L85.5 427.5 427.5 427.5 427.5 390.841C427.5 381.19 419.701 367.173 399.153 352.182 390.771 346.066 381.081 340.422 370.662 335.497 370.493 337.719 370.252 339.938 369.956 342.108 369.464 345.724 368.8 349.322 368.009 352.687L374.062 352.687C378.111 352.687 381.811 354.975 383.621 358.595L394.309 379.97C395.052 381.454 395.437 383.091 395.437 384.75L395.437 406.125C395.437 412.028 390.653 416.812 384.75 416.812L363.375 416.812 363.375 395.437 374.062 395.437 374.062 387.273 367.458 374.062 337.917 374.062 331.312 387.273 331.312 395.437 342 395.437 342 416.812 320.625 416.812C314.722 416.812 309.937 412.028 309.937 406.125L309.937 384.75C309.937 383.091 310.323 381.454 311.066 379.97L321.754 358.595C323.564 354.975 327.264 352.687 331.312 352.687L345.865 352.687C345.998 352.27 346.133 351.829 346.268 351.364 347.271 347.927 348.172 343.664 348.778 339.22 349.378 334.822 349.653 330.507 349.527 326.851ZM181.687 384.75C181.687 390.887 176.754 395.595 171 395.595 165.246 395.595 160.312 390.887 160.312 384.75 160.312 378.613 165.246 373.905 171 373.905 176.754 373.905 181.687 378.613 181.687 384.75Z" fill="#344A9A" fill-rule="evenodd" fill-opacity="1" transform="matrix(1 0 0 1 3771 1365)"/></g></g></g><path d="M1321.5 1141.5 1720.5 1141.5 1891.5 1141.5 2005.5 1141.5 2005.5 1235.42 2005.5 1275.67 2005.5 1302.5 1891.5 1302.5 1805.5 1390.76 1720.5 1302.5 1321.5 1302.5 1321.5 1275.67 1321.5 1235.42Z" stroke="#101A3E" stroke-width="4.58333" stroke-linecap="butt" stroke-linejoin="miter" stroke-miterlimit="8" stroke-opacity="1" fill="#344A9A" fill-rule="evenodd" fill-opacity="1"/><text fill="#FFFFFF" fill-opacity="1" font-family="Arial,Arial_MSFontService,sans-serif" font-style="normal" font-variant="normal" font-weight="400" font-stretch="normal" font-size="83" text-anchor="start" direction="ltr" writing-mode="lr-tb" unicode-bidi="normal" text-decoration="none" transform="matrix(1 0 0 1 1397.05 1252)">Here you go…</text><g><g><g><path d="M2648.81 1540.88C2645.67 1540.88 2643.12 1538.33 2643.12 1535.19L2643.12 1341.81 2654.5 1341.81 2654.5 1529.5 2671.56 1529.5 2671.56 1444.19C2671.56 1441.05 2674.11 1438.5 2677.25 1438.5L2711.38 1438.5C2714.52 1438.5 2717.06 1441.05 2717.06 1444.19L2717.06 1529.5 2728.44 1529.5 2728.44 1421.44C2728.44 1418.3 2730.98 1415.75 2734.12 1415.75L2768.25 1415.75C2771.39 1415.75 2773.94 1418.3 2773.94 1421.44L2773.94 1529.5 2785.31 1529.5 2785.31 1375.94C2785.31 1372.8 2787.86 1370.25 2791 1370.25L2825.12 1370.25C2828.27 1370.25 2830.81 1372.8 2830.81 1375.94L2830.81 1529.5 2842.19 1529.5 2842.19 1540.88 2648.81 1540.88ZM2819.44 1529.5 2819.44 1381.63 2796.69 1381.63 2796.69 1529.5 2819.44 1529.5ZM2762.56 1529.5 2739.81 1529.5 2739.81 1427.13 2762.56 1427.13 2762.56 1529.5ZM2705.69 1529.5 2705.69 1449.88 2682.94 1449.88 2682.94 1529.5 2705.69 1529.5Z" fill="#344A9A" fill-rule="evenodd" fill-opacity="1"/></g></g></g><path d="M2005 1575.25 3296.35 1575.25 3296.35 1602.75 2005 1602.75ZM3282.6 1547.75 3365.1 1589 3282.6 1630.25Z" fill="#344A9A" fill-rule="nonzero" fill-opacity="1"/><text fill="#344A9A" fill-opacity="1" font-family="Arial,Arial_MSFontService,sans-serif" font-style="normal" font-variant="normal" font-weight="700" font-stretch="normal" font-size="83" text-anchor="start" direction="ltr" writing-mode="lr-tb" unicode-bidi="normal" text-decoration="none" transform="matrix(1 0 0 1 409.529 2024)">RDSR</text><text fill="#344A9A" fill-opacity="1" font-family="Arial,Arial_MSFontService,sans-serif" font-style="normal" font-variant="normal" font-weight="700" font-stretch="normal" font-size="83" text-anchor="start" direction="ltr" writing-mode="lr-tb" unicode-bidi="normal" text-decoration="none" transform="matrix(6.12323e-17 1 -1 6.12323e-17 631.524 829)">C</text><text fill="#344A9A" fill-opacity="1" font-family="Arial,Arial_MSFontService,sans-serif" font-style="normal" font-variant="normal" font-weight="700" font-stretch="normal" font-size="83" text-anchor="start" direction="ltr" writing-mode="lr-tb" unicode-bidi="normal" text-decoration="none" transform="matrix(6.12323e-17 1 -1 6.12323e-17 631.524 889)">-</text><text fill="#344A9A" fill-opacity="1" font-family="Arial,Arial_MSFontService,sans-serif" font-style="normal" font-variant="normal" font-weight="700" font-stretch="normal" font-size="83" text-anchor="start" direction="ltr" writing-mode="lr-tb" unicode-bidi="normal" text-decoration="none" transform="matrix(6.12323e-17 1 -1 6.12323e-17 631.524 916)">STORE</text><path d="M3477.5 959.5 3912.67 959.5 4099.17 959.5 4223.5 959.5 4223.5 1173 4223.5 1264.5 4223.5 1325.5 4099.17 1325.5 4005.37 1383.34 3912.67 1325.5 3477.5 1325.5 3477.5 1264.5 3477.5 1173Z" stroke="#101A3E" stroke-width="4.58333" stroke-linecap="butt" stroke-linejoin="miter" stroke-miterlimit="8" stroke-opacity="1" fill="#344A9A" fill-rule="evenodd" fill-opacity="1"/><text fill="#FFFFFF" fill-opacity="1" font-family="Arial,Arial_MSFontService,sans-serif" font-style="normal" font-variant="normal" font-weight="400" font-stretch="normal" font-size="83" text-anchor="start" direction="ltr" writing-mode="lr-tb" unicode-bidi="normal" text-decoration="none" transform="matrix(1 0 0 1 3588.76 1074)">Do we exceed </text><text fill="#FFFFFF" fill-opacity="1" font-family="Arial,Arial_MSFontService,sans-serif" font-style="normal" font-variant="normal" font-weight="400" font-stretch="normal" font-size="83" text-anchor="start" direction="ltr" writing-mode="lr-tb" unicode-bidi="normal" text-decoration="none" transform="matrix(1 0 0 1 3511.58 1173)">DRLs for chest CT </text><text fill="#FFFFFF" fill-opacity="1" font-family="Arial,Arial_MSFontService,sans-serif" font-style="normal" font-variant="normal" font-weight="400" font-stretch="normal" font-size="83" text-anchor="start" direction="ltr" writing-mode="lr-tb" unicode-bidi="normal" text-decoration="none" transform="matrix(1 0 0 1 3613.97 1272)">in Germany?</text></g></g></svg>