<svg class="main-svg" xmlns="http://www.w3.org/2000/svg" xmlns:xlink="http://www.w3.org/1999/xlink" width="700" height="500" style="" viewBox="0 0 700 500"><rect x="0" y="0" width="700" height="500" style="fill: rgb(255, 255, 255); fill-opacity: 1;"/><defs id="defs-e3a1b8"><g class="clips"><clipPath id="clipe3a1b8xyplot" class="plotclip"><rect width="589" height="387"/></clipPath><clipPath class="axesclip" id="clipe3a1b8x"><rect x="61" y="0" width="589" height="500"/></clipPath><clipPath class="axesclip" id="clipe3a1b8y"><rect x="0" y="60" width="700" height="387"/></clipPath><clipPath class="axesclip" id="clipe3a1b8xy"><rect x="61" y="60" width="589" height="387"/></clipPath></g><g class="gradients"/></defs><g class="bglayer"><rect class="bg" x="61" y="60" width="589" height="387" style="fill: rgb(229, 236, 246); fill-opacity: 1; stroke-width: 0;"/></g><g class="layer-below"><g class="imagelayer"/><g class="shapelayer"/></g><g class="cartesianlayer"><g class="subplot xy"><g class="layer-subplot"><g class="shapelayer"/><g class="imagelayer"/></g><g class="gridlayer"><g class="x"><path class="xgrid crisp" transform="translate(240.97,0)" d="M0,60v387" style="stroke: rgb(255, 255, 255); stroke-opacity: 1; stroke-width: 1px;"/><path class="xgrid crisp" transform="translate(404.58,0)" d="M0,60v387" style="stroke: rgb(255, 255, 255); stroke-opacity: 1; stroke-width: 1px;"/><path class="xgrid crisp" transform="translate(568.19,0)" d="M0,60v387" style="stroke: rgb(255, 255, 255); stroke-opacity: 1; stroke-width: 1px;"/></g><g class="y"><path class="ygrid crisp" transform="translate(0,386.69)" d="M61,0h589" style="stroke: rgb(255, 255, 255); stroke-opacity: 1; stroke-width: 1px;"/><path class="ygrid crisp" transform="translate(0,336.43)" d="M61,0h589" style="stroke: rgb(255, 255, 255); stroke-opacity: 1; stroke-width: 1px;"/><path class="ygrid crisp" transform="translate(0,286.16999999999996)" d="M61,0h589" style="stroke: rgb(255, 255, 255); stroke-opacity: 1; stroke-width: 1px;"/><path class="ygrid crisp" transform="translate(0,235.91)" d="M61,0h589" style="stroke: rgb(255, 255, 255); stroke-opacity: 1; stroke-width: 1px;"/><path class="ygrid crisp" transform="translate(0,185.65)" d="M61,0h589" style="stroke: rgb(255, 255, 255); stroke-opacity: 1; stroke-width: 1px;"/><path class="ygrid crisp" transform="translate(0,135.39)" d="M61,0h589" style="stroke: rgb(255, 255, 255); stroke-opacity: 1; stroke-width: 1px;"/><path class="ygrid crisp" transform="translate(0,85.13)" d="M61,0h589" style="stroke: rgb(255, 255, 255); stroke-opacity: 1; stroke-width: 1px;"/></g></g><g class="zerolinelayer"><path class="xzl zl crisp" transform="translate(77.36,0)" d="M0,60v387" style="stroke: rgb(255, 255, 255); stroke-opacity: 1; stroke-width: 2px;"/><path class="yzl zl crisp" transform="translate(0,436.95)" d="M61,0h589" style="stroke: rgb(255, 255, 255); stroke-opacity: 1; stroke-width: 2px;"/></g><path class="xlines-below"/><path class="ylines-below"/><g class="overlines-below"/><g class="xaxislayer-below"/><g class="yaxislayer-below"/><g class="overaxes-below"/><g class="plot" transform="translate(61,60)" clip-path="url('#clipe3a1b8xyplot')"><g class="scatterlayer mlayer"><g class="trace scatter traceb89928" style="stroke-miterlimit: 2; opacity: 1;"><g class="fills"/><g class="errorbars"/><g class="lines"><path class="js-line" d="M17.63,-2883.76L18.92,-2907.2L26.66,-2332.11L27.95,-2147.59L40.86,-122.2L42.15,-89.26L44.73,-7.32L46.02,73.03L47.31,76.32L48.6,74.26L49.89,78.17L51.18,84.59L52.48,61.3L53.77,97.79L55.06,112.79L56.35,99.58L57.64,116.15L58.93,118.76L60.22,117.32L61.51,119.6L62.8,118.07L64.09,108.46L65.38,83.29L66.67,87.45L69.26,150.42L70.55,150.54L71.84,169.76L73.13,175.57L74.42,179.68L75.71,190.15L77,186.61L78.29,194.1L79.58,200.21L80.87,201.8L82.16,185.31L83.45,191.04L84.74,177.34L86.03,188.59L88.62,199.31L89.91,183.01L91.2,154.78L92.49,180.46L93.78,208.35L95.07,216.99L96.36,235.95L97.65,235.89L100.23,209.17L101.52,186.36L102.81,192.61L104.1,207.61L106.69,190.86L107.98,190.7L109.27,221.71L110.56,231.22L111.85,203.75L113.14,203.08L114.43,209.04L115.72,207.51L117.01,202.76L118.3,217.39L119.59,208.82L120.88,221.91L122.17,228.34L123.47,219.95L124.76,235.91L126.05,215.24L127.34,208.24L128.63,217.27L129.92,231.73L131.21,203.51L132.5,210.51L133.79,236.04L135.08,239.88L136.37,220.23L137.66,201.65L138.95,204.69L140.25,197.53L141.54,206.01L142.83,204.48L144.12,214.49L146.7,233.38L147.99,230.3L149.28,236.71L150.57,227.36L153.15,249.71L154.44,253.58L155.73,265.13L157.02,246.12L158.32,228.61L159.61,245.52L160.9,246.31L162.19,245.4L163.48,226.71L164.77,246.73L166.06,243.76L167.35,243.23L168.64,250.13L169.93,243.67L173.8,270.19L175.09,248.51L176.39,241.89L177.68,247.3L178.97,233.08L180.26,245.3L181.55,246.4L182.84,262.73L185.42,238.69L186.71,234.01L188,244.72L189.29,267.81L190.58,270.93L191.87,251.2L193.16,261.05L194.46,259.47L195.75,260.86L197.04,257.47L198.33,260.46L199.62,235.77L200.91,243.55L202.2,261.88L203.49,256.64L204.78,240.41L206.07,236.25L207.36,243.58L208.65,246.64L209.94,258.77L212.53,261.09L213.82,266.56L215.11,279.11L216.4,271.09L217.69,275.93L218.98,266.22L220.27,275.98L221.56,276.15L222.85,276.15L224.14,274.62L225.43,263.37L226.72,263.18L228.01,262.83L229.31,264.82L230.6,266.65L231.89,260.4L233.18,263.85L234.47,271.94L237.05,246.52L238.34,254.96L239.63,263.86L240.92,260.76L242.21,272.9L243.5,261.27L244.79,274.7L246.08,273.63L247.38,279.43L248.67,273.02L249.96,270.89L251.25,282.08L252.54,283.73L253.83,276.11L255.12,279.31L256.41,265.28L257.7,284.48L258.99,283.34L260.28,284.36L261.57,281.17L262.86,282.06L264.15,274.07L265.45,280.86L266.74,275.84L268.03,272.95L269.32,288.68L270.61,272.72L271.9,275.84L273.19,265.92L274.48,282.61L275.77,278.64L277.06,271.66L280.93,279.08L282.23,288.11L283.52,288.43L284.81,292.8L286.1,279.73L287.39,289.28L288.68,283.43L289.97,287.44L291.26,284.82L292.55,284.76L293.84,285.87L295.13,296.57L296.42,291.14L297.71,290.85L299,279.31L300.3,285.99L302.88,267.64L304.17,284.17L305.46,281.32L306.75,283.25L308.04,285.68L309.33,292.26L310.62,285.5L311.91,284.65L313.2,300.76L314.49,295.22L317.07,291.83L318.37,297.66L319.66,291.47L320.95,290.78L322.24,286.47L323.53,291.48L324.82,285.28L326.11,295.12L327.4,298.03L328.69,291.75L329.98,302.89L331.27,307.02L332.56,301.24L333.85,279.63L335.15,279.37L336.44,291.99L337.73,284.5L339.02,286.27L340.31,296.05L341.6,298.58L342.89,307.5L344.18,306.86L345.47,308.83L346.76,299.66L348.05,295.02L349.34,300.18L350.63,297.35L351.92,297.45L353.22,302.06L354.51,294.32L355.8,289.74L357.09,290.28L358.38,296.68L359.67,282.2L360.96,292L362.25,292.18L363.54,291.69L364.83,297.28L366.12,301.44L367.41,297.88L368.7,300.05L369.99,310.75L371.29,314.17L372.58,307L373.87,306.24L375.16,287.17L376.45,287.15L377.74,305.79L379.03,307.07L380.32,314.94L381.61,315.85L382.9,306.5L384.19,310.25L385.48,305.39L388.06,306.66L389.36,312.84L390.65,310.28L391.94,304.63L393.23,312.69L394.52,311.16L397.1,307.42L398.39,311.82L399.68,309.31L400.97,300.54L402.26,307.88L403.55,305.14L404.84,298.4L406.14,298.78L408.72,313.71L410.01,314.41L411.3,312.73L412.59,313.06L415.17,305.89L416.46,313.93L417.75,320.12L419.04,315.92L420.33,317.99L421.62,316.04L422.91,312.04L424.21,310.93L425.5,310.49L426.79,305.05L428.08,301.46L429.37,301.99L430.66,303.52L431.95,301.53L433.24,305.99L434.53,301.56L435.82,315.04L437.11,306.2L438.4,302.89L439.69,306.21L440.98,300.95L442.28,307.38L443.57,313.08L444.86,307.24L446.15,312.54L447.44,311.67L448.73,318.23L450.02,317.84L451.31,318.95L452.6,324.15L453.89,325.58L455.18,317.07L456.47,321.69L457.76,320.6L459.05,317.42L460.35,319.51L461.64,313.89L462.93,315.87L464.22,314.19L465.51,310.31L466.8,314.71L468.09,309.37L469.38,312.14L470.67,310.84L471.96,323.05L473.25,322.39L474.54,321.02L475.83,325.79L477.13,328.65L478.42,323.24L479.71,325.61L481,314.34L482.29,310.5L483.58,316.75L486.16,322.71L487.45,331.12L490.03,322.07L491.32,322.49L493.9,326.82L495.2,328.82L496.49,319.72L497.78,320.15L500.36,311.82L501.65,319.94L505.52,324.42L506.81,320.57L508.1,331.41L509.39,321.94L510.68,324.9L511.97,325.81L513.27,324.72L514.56,321.72L515.85,326.95L517.14,328.08L519.72,326.08L521.01,329.21L522.3,324.31L523.59,324.26L524.88,324.21L526.17,328.63L527.46,330.43L528.75,322.29L531.34,333.93L532.63,322.57L533.92,319.17L535.21,326.62L536.5,317.38L537.79,321.32L539.08,320.47L540.37,323.56L541.66,330.15L542.95,324.35L544.24,329.79L545.53,330.65L546.82,334.89L548.12,329.17L549.41,324.31L550.7,325.79L551.99,322.29L553.28,330.74L554.57,330.7L555.86,329.66L558.44,319.58L559.73,324.43L561.02,325.77L562.31,323.72L563.6,331.12L564.89,325.87L566.19,331.36L567.48,325.69L568.77,326.91L570.06,332.26L572.64,319.47" style="vector-effect: non-scaling-stroke; fill: none; stroke: rgb(99, 110, 250); stroke-opacity: 1; stroke-width: 2px; opacity: 1;"/></g><g class="points"/><g class="text"/></g><g class="trace scatter trace141cae" style="stroke-miterlimit: 2; opacity: 1;"><g class="fills"/><g class="errorbars"/><g class="lines"><path class="js-line" d="M17.62,-2749.59L24.07,-131.06L25.36,-32.68L26.65,58.13L27.94,54.48L30.52,149.81L31.8,161.54L33.09,171.79L34.38,188.52L35.67,195.41L36.96,209.96L39.54,178.47L40.83,200.31L43.41,192.84L44.7,202.78L45.99,236.34L47.27,245.89L49.85,225.54L51.14,230.93L52.43,206.85L53.72,224.58L55.01,238.25L56.3,222.67L58.88,228.32L60.17,232.23L61.46,234.09L62.74,220.19L64.03,210.61L65.32,190.93L66.61,192.96L67.9,219.96L69.19,238.14L70.48,244.25L71.77,256.69L73.06,250.11L75.64,259.25L76.92,253.88L78.21,258.01L79.5,256.17L80.79,257.22L82.08,250.6L83.37,259.41L84.66,256.68L87.24,284.82L88.53,283.61L89.82,271.51L91.11,252.06L93.68,282.62L94.97,287.29L96.26,292.51L97.55,290.62L98.84,273L100.13,272.8L101.42,259.22L102.71,264.2L104,271.8L105.29,259.89L106.57,262.46L107.86,263.09L110.44,288.77L111.73,266.29L113.02,261.09L114.31,267.39L115.6,279.17L116.89,275.36L118.18,287.79L119.47,274.5L122.04,292.26L123.33,288.37L124.62,297.32L125.91,283.52L127.2,287.04L128.49,293.88L129.78,299.83L131.07,282.58L132.36,285.87L133.65,300.33L134.94,294.57L136.22,280.84L137.51,278.44L138.8,281.8L140.09,283.48L141.38,281.86L143.96,276.01L145.25,287.07L146.54,290.64L147.83,297.25L150.41,307.01L151.69,306.23L152.98,310.98L154.27,311.4L155.56,316.03L156.85,307.87L158.14,306.22L159.43,309.66L160.72,308.02L162.01,302.56L163.3,294.16L164.59,305.94L165.88,302.88L167.16,308.09L168.45,306.1L169.74,301.38L173.61,307.97L174.9,299.98L176.19,294.15L177.48,297.6L178.77,291.31L180.06,276.65L182.63,305.32L183.92,311.81L185.21,311.81L186.5,308.39L187.79,312.5L189.08,320.43L190.37,321.75L191.66,315.28L192.95,318.28L194.24,318.22L195.53,211.97L196.81,254.19L199.39,289.8L200.68,299.25L201.97,307.32L203.26,309.38L205.84,312.29L207.13,311.09L208.42,309.24L209.71,318.81L210.99,318.53L212.28,317.16L214.86,328.91L216.15,324.19L217.44,331.53L218.73,331.11L221.31,336.89L222.6,335.14L223.89,335.34L225.18,339.1L226.46,333.01L227.75,331.47L229.04,331.72L230.33,334.28L231.62,328.47L232.91,332.58L234.2,332.07L235.49,326.52L236.78,324.7L238.07,325.52L240.64,329.55L241.93,328.81L243.22,324.65L244.51,329.01L250.96,338.26L252.25,336.5L253.54,333.06L254.83,335.64L256.11,333.08L257.4,338.47L258.69,333.69L259.98,334.42L261.27,331.58L262.56,331.01L263.85,332.79L265.14,335.95L266.43,334L267.72,327.75L269.01,331.09L270.29,326.08L272.87,329.82L274.16,330.28L275.45,328.28L276.74,324.8L278.03,322.28L279.32,328.3L283.19,339.83L284.48,340.1L285.76,335.85L287.05,336.75L288.34,338.1L289.63,340.54L290.92,337.18L292.21,338.37L293.5,339.38L294.79,343.23L297.37,338.4L298.66,334.1L299.95,336.12L301.23,331.27L302.52,328.11L303.81,333.01L306.39,327.58L307.68,331.41L308.97,334.55L310.26,330.26L312.84,341.62L314.13,343L315.41,347.08L316.7,343.48L317.99,343.63L319.28,338.38L320.57,341.07L321.86,341.16L323.15,339.41L324.44,334.5L325.73,340.79L327.02,341.3L328.31,340.93L329.6,339.33L330.88,340.21L332.17,336.53L333.46,336.78L334.75,335.32L337.33,340.58L338.62,332.63L339.91,332.58L341.2,334.47L342.49,340.39L343.78,339.28L345.06,343.56L346.35,343.49L347.64,344.92L348.93,345.22L351.51,340.53L352.8,340.5L354.09,337.9L355.38,338.21L357.96,337.64L359.25,334.56L360.53,338.02L361.82,336.79L363.11,334.59L364.4,338.14L365.69,339.74L366.98,339.45L368.27,335.79L369.56,341.42L370.85,343.15L372.14,342.06L373.43,340.15L374.71,341.6L376,336.82L377.29,342.23L381.16,348.92L382.45,345.97L385.03,344.29L386.32,345.32L387.61,348.26L388.9,348.23L390.18,345.19L391.47,344.67L392.76,342.4L394.05,343.99L395.34,345.83L396.63,345.17L399.21,342.18L400.5,343.62L401.79,344.96L403.08,341.6L404.37,340.2L405.65,336.02L409.52,343.81L410.81,348.71L414.68,348.29L415.97,347.21L417.26,349.19L418.55,348.2L419.83,350.17L421.12,349.53L422.41,346.25L423.7,345.87L424.99,346.1L426.28,338.39L427.57,335.43L428.86,339.52L431.44,341.84L432.73,332.95L435.3,342.48L436.59,336.76L437.88,339.73L439.17,338.05L440.46,337.81L441.75,340.94" style="vector-effect: non-scaling-stroke; fill: none; stroke: rgb(239, 85, 59); stroke-opacity: 1; stroke-width: 2px; opacity: 1;"/></g><g class="points"/><g class="text"/></g><g class="trace scatter trace0f7ac9" style="stroke-miterlimit: 2; opacity: 1;"><g class="fills"/><g class="errorbars"/><g class="lines"><path class="js-line" d="M16.99,-2212.09L24.09,-267.03L24.74,-204.36L27.32,47.03L27.96,66.12L30.54,139.78L31.19,142.41L32.48,183.57L33.12,167.69L34.42,132.08L35.06,146.87L36.35,170.82L37,162.6L37.64,172.61L38.29,194.96L38.93,229.43L39.58,207.1L40.22,205.49L40.87,181.42L41.51,188.26L42.16,213.93L43.45,171.03L44.09,190.85L44.74,185.83L45.38,206.55L46.67,226.54L47.32,219.86L47.97,216.21L48.61,228.98L49.9,248.05L50.55,238.29L52.48,200.08L53.13,212.77L53.77,204.85L54.42,221.29L55.06,231.13L55.71,256.35L56.35,239.26L57,252.83L57.64,231.71L58.29,244.83L58.93,245.28L59.58,220.65L60.22,231.81L60.87,230.35L61.52,227.25L62.16,224.85L62.81,243.27L63.45,218.12L64.1,236.47L65.39,216.11L66.03,224.05L66.68,206.4L67.32,243.36L67.97,253.47L68.61,222.31L69.26,226.8L69.9,249.3L71.19,235.52L71.84,258.59L73.13,278.57L73.78,268.88L74.42,274.91L75.07,243.07L75.71,250.94L76.36,239.56L77,236.44L77.65,238.53L78.29,217.95L78.94,243.57L79.58,242.52L80.23,243.43L80.87,246.97L81.52,260.22L82.16,261.84L82.81,246.23L83.45,245.96L84.1,224.85L84.74,259.75L85.39,258.22L86.03,271.92L86.68,263.95L87.33,229.25L87.97,251.06L88.62,191.65L89.26,197.13L89.91,220.4L90.55,237.82L91.2,223.56L92.49,259.3L93.13,234.49L93.78,241.32L94.42,259.2L95.07,245.73L95.71,267.19L96.36,283.35L97,273.75L97.65,275.7L98.29,284.02L98.94,287.32L99.58,266.92L100.23,253.36L100.88,267.07L101.52,262.94L102.17,248.92L102.81,249L103.46,259.06L104.1,265.01L104.75,243.81L105.39,249.88L106.04,241.22L106.68,253.23L107.33,225.31L108.62,266.51L109.26,266.61L109.91,264.06L110.55,271.78L111.2,250.25L111.84,269.24L112.49,279.11L113.13,269.43L113.78,242.36L114.43,262.01L115.07,272.79L115.72,249.84L116.36,261.02L117.01,259.23L118.3,268.66L118.94,258.28L120.23,261.77L120.88,260.06L122.81,279.84L123.46,277.25L124.1,287.07L124.75,282.97L126.04,288.83L126.69,294.85L128.62,225.79L129.27,246.12L130.56,268.76L131.2,253.12L131.85,274.11L132.49,265.8L133.14,245.2L133.78,262.5L134.43,256.03L135.07,276.56L135.72,289.34L136.36,267.87L137.01,281.43L137.65,266.17L138.3,254.72L138.94,273.24L139.59,275.77L140.24,284.91L140.88,290.32L141.53,275.74L142.17,272.63L142.82,236.82L143.46,255.58L144.11,253.26L144.75,268.94L145.4,258.24L146.04,268.58L146.69,272.96L147.33,267.49L147.98,259.01L148.62,264.26L149.91,302.95L150.56,285.36L151.2,290.54L151.85,281.04L152.49,271.62L153.14,288.83L153.79,288.2L154.43,277.76L155.08,289.04L155.72,283.09L156.37,243.57L157.01,254.6L157.66,242.76L158.3,261.55L158.95,260.08L159.59,274.19L160.24,262.78L160.88,274.49L161.53,273.53L162.17,282.17L162.82,282L163.46,290.66L164.11,270.88L164.75,279.72L165.4,278.87L166.05,261.4L166.69,261.15L167.34,264.74L167.98,267.56L168.63,263.95L169.27,260.85L169.92,263.66L171.21,278.83L171.85,267.2L173.14,246.17L173.79,267.66L175.08,295.3L175.72,294.44L176.37,296.51L177.01,285.09L177.66,288.69L178.3,276.74L178.95,268.73L179.6,283.88L180.24,298.06L180.89,290.93L181.53,290.41L182.18,302.21L182.82,248.59L183.47,277.21L186.05,268.89L186.69,272.36L188.63,305.83L189.27,285.27L190.56,291.27L191.21,306.91L191.85,310.4L192.5,304.27L193.79,279.98L194.44,275.77L196.37,296.04L197.02,289.23L197.66,288.51L198.31,293.62L198.95,273.78L199.6,288.35L200.24,298.43L200.89,289.53L201.53,286.15L202.18,290.15L202.82,269.66L203.47,284.83L204.76,295.55L205.41,300.89L207.34,283.54L207.99,279.01L209.28,296.12L209.92,291.16L210.57,298.52L211.21,297.18L213.79,263.13L214.44,266.5L215.73,301.35L216.37,297.14L217.02,303.66L217.66,298.54L219.6,315.32L220.25,309.44L220.89,307.83L221.54,302.9L222.18,314.46L222.83,278.78L223.47,289.08L224.12,273.69L225.41,301.44L226.05,302.83L226.7,312.41L227.34,292.1L227.99,298.95L228.63,296.97L229.28,294.24L229.92,299.25L230.57,308.94L231.21,306.84L231.86,314.34L232.51,301.29L233.15,319.62L233.8,319.04L234.44,309.15L235.73,280.76L236.38,292.92L237.02,290.25L237.67,292.25L238.31,282.44L238.96,292.83L240.25,302.23L240.89,298.57L242.18,308.39L242.83,295.28L243.47,294.79L244.12,295.42L245.41,306.31L246.06,301.96L246.7,278.05L247.35,286.06L248.64,272.36L249.28,288.76L251.86,309.47L252.51,320.4L253.15,311.29L253.8,319.43L255.73,298.43L256.38,303.19L257.02,301.18L257.67,309.02L258.32,308.69L258.96,286.26L260.25,297.85L260.9,301.1L262.19,298.3L262.83,286.19L264.12,298.74L264.77,295.74L266.06,293.36L266.7,294.43L267.99,308.87L268.64,309.57L269.28,310.43L269.93,292.85L272.51,299.34L273.16,290.84L274.45,310.63L275.09,294.17L275.74,304.03L276.38,298.93L277.03,274.8L277.67,290L278.96,303.46L279.61,291.49L280.25,303.74L280.9,297.25L281.54,296.72L282.19,303.77L282.83,309.22L283.48,300.97L285.42,298.25L286.06,304.04L286.71,293.49L287.35,313.47L288,316.15L288.64,293.07L290.58,320.58L291.22,300.56L291.87,299.49L292.51,307.53L293.16,311.18L293.8,306.43L294.45,306.64L295.09,298.96L295.74,304.08L296.38,293.1L297.03,286.92L297.68,303.99L298.97,283.71L299.61,291.11L300.26,293.44L300.9,285.93L301.55,294.15L302.19,282.77L302.84,280.84L303.48,288.96L304.13,285.27L304.77,295.08L306.06,312.5L306.71,312.82L308,297.64L308.64,287.01L309.93,302.02L310.58,308.51L311.23,312.83L311.87,308.73L312.52,308.74L313.16,316.66L313.81,319.15L314.45,312.52L315.1,312.09L315.74,296.06L316.39,313.33L317.03,312.54L317.68,293.74L318.32,292.89L318.97,302.6L319.61,308.98L320.26,294.89L320.9,290.3L321.55,290.77L322.19,312.45L322.84,314.7L323.48,312.4L324.13,297.8L324.78,307.68L326.07,314.07L326.71,302.34L327.36,297.84L328,299.25L328.65,302.38L329.29,300.85L331.23,291.48L331.87,292.71L332.52,289.14L333.16,297.23L334.45,308.2L335.1,300.99L335.74,302.71L336.39,316.62L337.04,307.84L337.68,315.16L338.33,314.7L338.97,320.87L339.62,311.44L340.26,321.26L341.55,299.45L342.2,310.6L342.84,305.43L343.49,311.51L344.78,293.6L345.42,305.52L346.07,288.83L346.71,299.21L348,282.66L348.65,284.84L350.59,322.9L351.23,302.63L351.88,309.8L352.52,304.3L353.81,314.57L354.46,318.97L355.1,309.12L355.75,323.7L357.04,326.53L357.68,330.45L359.62,298.57L360.26,306.61L360.91,299.32L361.55,306.9L362.84,316.7L363.49,305.48L364.78,316.78L365.43,289.62L366.07,292.07L366.72,281.61L367.36,282.26L368.01,287.62L368.65,287.36L369.3,293.8L371.88,324.42L372.52,315.33L373.17,322.23L373.81,320.5L374.46,324.24L375.1,307.21L375.75,313.59L376.39,303.55L377.04,304.22L377.69,314.16L378.33,305.77L378.98,319.79L380.91,305.56L381.56,310.22L382.2,302.4L382.85,303.38L383.49,308.59L384.14,308.27L384.78,320.98L386.07,305.42L386.72,314.9L387.36,316.17L388.01,304.83L388.65,320.28L389.3,315.29L389.95,311.2L390.59,313.63L391.24,310.26L391.88,318.57L393.82,320.25L394.46,324.75L395.75,298.04L396.4,303.84L397.04,323.35L397.69,314.61L398.98,322.93L399.62,310.28L400.27,308.84L400.91,310.32L401.56,311.61L402.2,317.22L402.85,320.16L403.5,310.29L404.14,314.46L404.79,295.72L407.37,315.35L408.01,312.16L408.66,305.38L409.3,307.43L409.95,319.95L410.59,318.77L411.24,309.81L411.88,312.98L412.53,309.51L413.17,316.08L413.82,310.71L414.46,315.94L415.11,313.88L415.75,316.93L416.4,325.39L417.05,318.91L417.69,319.96L418.34,313.82L418.98,310.97L419.63,312.17L420.27,316.25L420.92,313.17L421.56,296.52L422.21,298.84L422.85,286.24L423.5,294.24L424.14,316.21L425.43,319.61L426.08,317.86L427.37,322.17L428.01,309.23L428.66,305.7L429.31,314.29L431.24,296.91L431.89,312.11L432.53,323.79L433.18,318.71L433.82,311.39L434.47,313.28L435.76,294.65L436.4,303.04L437.05,312.72L437.69,309.25L438.34,310.02L438.98,293.3L440.92,318.74L441.56,315.24L442.21,297.97L442.86,314.32L443.5,327.36L444.15,326.67L444.79,325.66L445.44,324.49L446.08,303.4L446.73,297.67L447.37,306.91L448.02,322.75L448.66,320.11L449.31,312.59L449.95,322.49L450.6,311.1L451.24,320.37L451.89,298.66L452.53,292.18L453.18,301.35L453.82,299.83L454.47,303.88L455.76,316.99L456.41,314.41L457.7,318.17L458.34,323.03L458.99,321.59L459.63,325.97L460.28,322.63L460.92,325.13L461.57,322.24L462.21,313.11L462.86,322.65L463.5,320.55L464.15,313.5L464.79,322.57L466.08,332.39L466.73,328.87L468.02,334.85L468.67,311.37L469.31,311.82L469.96,309.61L470.6,307.04L471.25,309.97L471.89,310.18L472.54,315.39L473.18,323.84L473.83,317.63L474.47,306.15" style="vector-effect: non-scaling-stroke; fill: none; stroke: rgb(0, 204, 150); stroke-opacity: 1; stroke-width: 2px; opacity: 1;"/></g><g class="points"/><g class="text"/></g><g class="trace scatter tracee4bf19" style="stroke-miterlimit: 2; opacity: 1;"><g class="fills"/><g class="errorbars"/><g class="lines"><path class="js-line" d="M16.99,-846.97L18.93,-68.83L19.57,15.32L21.51,191.53L22.16,191.91L22.8,191.14L23.45,191.55L26.67,251.59L27.32,216.35L27.96,220.72L28.61,211.04L30.54,260.81L31.19,257.62L32.48,274.18L33.13,229.12L35.06,280.41L35.71,246.05L37,233.99L37.64,256.35L38.93,268.47L39.58,257.57L40.22,256.14L40.87,267.22L41.51,285.58L42.16,261.64L42.8,279.15L43.45,271.11L44.09,276.05L44.74,255.73L45.39,262.21L46.03,282.97L47.32,291.23L47.97,292.11L48.61,275.34L49.26,283.47L49.9,287.55L50.55,276L51.19,271.84L51.84,275.29L52.48,277.1L53.13,297.37L53.77,296.58L54.42,298.35L55.06,296.14L55.71,303.29L56.35,299.15L57,302.62L57.65,277.88L58.29,299.35L59.58,288.32L60.23,302.27L60.87,297.03L61.52,279.67L62.16,289.49L62.81,279.59L64.1,301.82L64.74,293.03L65.39,295.89L66.03,308.54L67.32,295.04L67.97,303.34L69.26,281.99L69.91,295.84L70.55,287.7L71.2,299.16L71.84,302.56L72.49,295.61L73.13,274.36L73.78,290.56L75.07,305.29L75.71,286.75L77,304.6L77.65,303.27L78.29,291.03L78.94,295.61L79.58,286.53L80.23,295.03L80.87,282.84L81.52,293.66L82.17,304.51L82.81,292.63L83.46,310.38L84.1,307.2L85.39,309.15L86.04,308.72L87.33,325.57L87.97,320.93L88.62,310.36L89.26,318.58L89.91,310.78L90.55,318.25L91.84,316.13L92.49,317.61L93.13,312.25L93.78,313.22L95.07,315.99L95.72,322.23L96.36,321.05L97.01,301.53L98.3,314.67L98.94,302.86L99.59,295L100.23,304.34L101.52,297.42L102.17,280.07L103.46,302.29L104.1,305.02L104.75,296.72L105.39,297.09L106.04,296.95L106.69,288.26L107.33,293.86L108.62,276.41L109.27,278.94L109.91,291.01L110.56,284.52L111.2,284.53L111.85,301.26L113.14,311.68L113.78,307.4L114.43,310.86L115.07,326.14L115.72,329.61L116.36,338.57L117.01,335.16L117.65,341.06L118.3,322.55L118.95,329.83L120.88,334.15L121.53,322.87L122.17,328.73L122.82,325.21L123.46,336.29L124.11,330.13L124.75,335.35L125.4,332.96L126.69,342.27L127.33,338.65L127.98,319.95L128.62,321.05L129.27,326.71L129.91,333.67L130.56,331.92L131.21,330.14L131.85,324.52L132.5,325.51L133.14,317L133.79,317.18L134.43,322.04L135.08,319.73L135.72,322.56L136.37,336.43L137.01,327.79L137.66,326.52L138.3,330.47L138.95,324.04L139.59,326.78L140.24,329.84L140.88,321.67L141.53,330.28L142.17,322.6L142.82,323.18L143.47,331.42L144.11,325.06L144.76,332.37L145.4,316.61L146.05,330.15L146.69,335.78L147.34,334.7L148.63,338.43L149.27,337.52L150.56,339.97L151.21,343.96L151.85,345.27L152.5,339.92L153.14,333.38L153.79,336.71L154.43,330.92L155.08,334.1L155.73,338.4L156.37,337.58L157.66,341.36L158.31,333.34L158.95,327.91L159.6,337.47L160.24,334.4L160.89,340.41L161.53,333.04L162.18,334.3L162.82,328.3L163.47,331.46L164.76,340.58L165.4,342.93L166.69,345.32L167.34,343.62L167.99,343.27L168.63,346.4L171.21,331.07L171.86,332.16L173.15,336.5L173.79,329.19L174.44,332.15L175.08,324.06L175.73,331.22L176.37,327.92L177.66,337.33L178.31,326.51L178.95,326.1L179.6,332.27L180.89,344.98L181.54,346.94L182.18,344.77L182.83,345.45L183.47,346.68L184.12,350.46L184.76,349.24L185.41,350.25L186.05,345.48L186.7,346.52L188.63,333.9L189.28,339.05L189.92,342.39L190.57,341.84L191.21,340.1L191.86,338.25L192.51,343.54L193.15,343.21L193.8,339.75L194.44,338.54L195.09,342.47L195.73,342.4L196.38,345.02L197.02,348.42L197.67,345.76L198.31,340.58L198.96,342.99L199.6,333.01L200.25,333.66L200.89,336.81L201.54,339.8L202.18,338.28L202.83,339.18L203.47,343.7L204.12,337.61L204.77,344.8L206.7,334.62L207.35,338.27L208.64,334.99L209.28,334.61L209.93,333.82L210.57,339.74L211.86,344.46L212.51,338.77L213.8,348.83L214.44,346.72L215.73,347.75L216.38,346.81L217.67,349.24L218.32,349.03L220.25,340.71L220.9,342.14L221.54,340.76L222.19,346.15L222.83,349.69L223.48,348.89L224.12,350.62L224.77,346.87L225.41,347.38L226.06,344.9L227.99,350.13L228.64,349.67L229.29,349.96L229.93,351.23L230.58,350.96L231.22,352.18L231.87,348.81L232.51,352.02L233.16,353.38L233.8,349.07L234.45,346.43L235.09,348.07L235.74,348.44L236.38,346.88L237.03,350.19L237.67,345.66L238.32,344.11L238.96,347.53L239.61,348.71L240.25,346.78L240.9,346.6L241.55,347.7L242.19,346.61L242.84,342.03L243.48,341.24L244.13,341.77L244.77,342.82L245.42,346.08" style="vector-effect: non-scaling-stroke; fill: none; stroke: rgb(171, 99, 250); stroke-opacity: 1; stroke-width: 2px; opacity: 1;"/></g><g class="points"/><g class="text"/></g></g></g><g class="overplot"/><path class="xlines-above crisp" d="M0,0" style="fill: none;"/><path class="ylines-above crisp" d="M0,0" style="fill: none;"/><g class="overlines-above"/><g class="xaxislayer-above"><g class="xtick"><text text-anchor="middle" x="0" y="460" transform="translate(77.36,0)" style="font-family: 'Open Sans', verdana, arial, sans-serif; font-size: 12px; fill: rgb(42, 63, 95); fill-opacity: 1; white-space: pre;">0</text></g><g class="xtick"><text text-anchor="middle" x="0" y="460" transform="translate(240.97,0)" style="font-family: 'Open Sans', verdana, arial, sans-serif; font-size: 12px; fill: rgb(42, 63, 95); fill-opacity: 1; white-space: pre;">5</text></g><g class="xtick"><text text-anchor="middle" x="0" y="460" transform="translate(404.58,0)" style="font-family: 'Open Sans', verdana, arial, sans-serif; font-size: 12px; fill: rgb(42, 63, 95); fill-opacity: 1; white-space: pre;">10</text></g><g class="xtick"><text text-anchor="middle" x="0" y="460" transform="translate(568.19,0)" style="font-family: 'Open Sans', verdana, arial, sans-serif; font-size: 12px; fill: rgb(42, 63, 95); fill-opacity: 1; white-space: pre;">15</text></g></g><g class="yaxislayer-above"><g class="ytick"><text text-anchor="end" x="60" y="4.199999999999999" transform="translate(0,436.95)" style="font-family: 'Open Sans', verdana, arial, sans-serif; font-size: 12px; fill: rgb(42, 63, 95); fill-opacity: 1; white-space: pre;">0</text></g><g class="ytick"><text text-anchor="end" x="60" y="4.199999999999999" transform="translate(0,386.69)" style="font-family: 'Open Sans', verdana, arial, sans-serif; font-size: 12px; fill: rgb(42, 63, 95); fill-opacity: 1; white-space: pre;">0.05</text></g><g class="ytick"><text text-anchor="end" x="60" y="4.199999999999999" transform="translate(0,336.43)" style="font-family: 'Open Sans', verdana, arial, sans-serif; font-size: 12px; fill: rgb(42, 63, 95); fill-opacity: 1; white-space: pre;">0.1</text></g><g class="ytick"><text text-anchor="end" x="60" y="4.199999999999999" transform="translate(0,286.16999999999996)" style="font-family: 'Open Sans', verdana, arial, sans-serif; font-size: 12px; fill: rgb(42, 63, 95); fill-opacity: 1; white-space: pre;">0.15</text></g><g class="ytick"><text text-anchor="end" x="60" y="4.199999999999999" transform="translate(0,235.91)" style="font-family: 'Open Sans', verdana, arial, sans-serif; font-size: 12px; fill: rgb(42, 63, 95); fill-opacity: 1; white-space: pre;">0.2</text></g><g class="ytick"><text text-anchor="end" x="60" y="4.199999999999999" transform="translate(0,185.65)" style="font-family: 'Open Sans', verdana, arial, sans-serif; font-size: 12px; fill: rgb(42, 63, 95); fill-opacity: 1; white-space: pre;">0.25</text></g><g class="ytick"><text text-anchor="end" x="60" y="4.199999999999999" transform="translate(0,135.39)" style="font-family: 'Open Sans', verdana, arial, sans-serif; font-size: 12px; fill: rgb(42, 63, 95); fill-opacity: 1; white-space: pre;">0.3</text></g><g class="ytick"><text text-anchor="end" x="60" y="4.199999999999999" transform="translate(0,85.13)" style="font-family: 'Open Sans', verdana, arial, sans-serif; font-size: 12px; fill: rgb(42, 63, 95); fill-opacity: 1; white-space: pre;">0.35</text></g></g><g class="overaxes-above"/></g></g><g class="polarlayer"/><g class="ternarylayer"/><g class="geolayer"/><g class="funnelarealayer"/><g class="pielayer"/><g class="treemaplayer"/><g class="sunburstlayer"/><g class="glimages"/><defs id="topdefs-e3a1b8"><g class="clips"/><clipPath id="legende3a1b8"><rect width="143" height="86" x="0" y="0"/></clipPath></defs><g class="layer-above"><g class="imagelayer"/><g class="shapelayer"/></g><g class="infolayer"><g class="legend" pointer-events="all" transform="translate(488.025,79.35000000000002)"><rect class="bg" shape-rendering="crispEdges" style="stroke: rgb(68, 68, 68); stroke-opacity: 1; fill: rgb(255, 255, 255); fill-opacity: 1; stroke-width: 0px;" width="143" height="86" x="0" y="0"/><g class="scrollbox" transform="" clip-path="url('#legende3a1b8')"><g class="groups"><g class="traces" transform="translate(0,14.5)" style="opacity: 1;"><text class="legendtext" text-anchor="start" x="40" y="4.680000000000001" style="font-family: 'Open Sans', verdana, arial, sans-serif; font-size: 12px; fill: rgb(42, 63, 95); fill-opacity: 1; white-space: pre;">Phi-2 LoRA   </text><g class="layers" style="opacity: 1;"><g class="legendfill"/><g class="legendlines"><path class="js-line" d="M5,0h30" style="fill: none; stroke: rgb(99, 110, 250); stroke-opacity: 1; stroke-width: 2px;"/></g><g class="legendsymbols"><g class="legendpoints"/></g></g><rect class="legendtoggle" x="0" y="-9.5" width="137.359375" height="19" style="fill: rgb(0, 0, 0); fill-opacity: 0;"/></g><g class="traces" transform="translate(0,33.5)" style="opacity: 1;"><text class="legendtext" text-anchor="start" x="40" y="4.680000000000001" style="font-family: 'Open Sans', verdana, arial, sans-serif; font-size: 12px; fill: rgb(42, 63, 95); fill-opacity: 1; white-space: pre;">Phi-2 Full   </text><g class="layers" style="opacity: 1;"><g class="legendfill"/><g class="legendlines"><path class="js-line" d="M5,0h30" style="fill: none; stroke: rgb(239, 85, 59); stroke-opacity: 1; stroke-width: 2px;"/></g><g class="legendsymbols"><g class="legendpoints"/></g></g><rect class="legendtoggle" x="0" y="-9.5" width="137.359375" height="19" style="fill: rgb(0, 0, 0); fill-opacity: 0;"/></g><g class="traces" transform="translate(0,52.5)" style="opacity: 1;"><text class="legendtext" text-anchor="start" x="40" y="4.680000000000001" style="font-family: 'Open Sans', verdana, arial, sans-serif; font-size: 12px; fill: rgb(42, 63, 95); fill-opacity: 1; white-space: pre;">Mistral-7B LoRA   </text><g class="layers" style="opacity: 1;"><g class="legendfill"/><g class="legendlines"><path class="js-line" d="M5,0h30" style="fill: none; stroke: rgb(0, 204, 150); stroke-opacity: 1; stroke-width: 2px;"/></g><g class="legendsymbols"><g class="legendpoints"/></g></g><rect class="legendtoggle" x="0" y="-9.5" width="137.359375" height="19" style="fill: rgb(0, 0, 0); fill-opacity: 0;"/></g><g class="traces" transform="translate(0,71.5)" style="opacity: 1;"><text class="legendtext" text-anchor="start" x="40" y="4.680000000000001" style="font-family: 'Open Sans', verdana, arial, sans-serif; font-size: 12px; fill: rgb(42, 63, 95); fill-opacity: 1; white-space: pre;">Mistral-7B Full   </text><g class="layers" style="opacity: 1;"><g class="legendfill"/><g class="legendlines"><path class="js-line" d="M5,0h30" style="fill: none; stroke: rgb(171, 99, 250); stroke-opacity: 1; stroke-width: 2px;"/></g><g class="legendsymbols"><g class="legendpoints"/></g></g><rect class="legendtoggle" x="0" y="-9.5" width="137.359375" height="19" style="fill: rgb(0, 0, 0); fill-opacity: 0;"/></g></g></g><rect class="scrollbar" rx="20" ry="3" width="0" height="0" style="fill: rgb(128, 139, 164); fill-opacity: 1;" x="0" y="0"/></g><g class="g-gtitle"/><g class="g-xtitle"><text class="xtitle" x="355.5" y="487.8" text-anchor="middle" style="font-family: 'Open Sans', verdana, arial, sans-serif; font-size: 14px; fill: rgb(42, 63, 95); opacity: 1; font-weight: normal; white-space: pre;">Epochs</text></g><g class="g-ytitle" transform="translate(1.1591796875,0)"><text class="ytitle" transform="rotate(-90,11.840625000000003,253.5)" x="11.840625000000003" y="253.5" text-anchor="middle" style="font-family: 'Open Sans', verdana, arial, sans-serif; font-size: 14px; fill: rgb(42, 63, 95); opacity: 1; font-weight: normal; white-space: pre;">Training loss</text></g></g></svg>