<svg class="main-svg" xmlns="http://www.w3.org/2000/svg" xmlns:xlink="http://www.w3.org/1999/xlink" width="700" height="500" style="" viewBox="0 0 700 500"><rect x="0" y="0" width="700" height="500" style="fill: rgb(255, 255, 255); fill-opacity: 1;"/><defs id="defs-76cef0"><g class="clips"><clipPath id="clip76cef0xyplot" class="plotclip"><rect width="596" height="387"/></clipPath><clipPath class="axesclip" id="clip76cef0x"><rect x="54" y="0" width="596" height="500"/></clipPath><clipPath class="axesclip" id="clip76cef0y"><rect x="0" y="60" width="700" height="387"/></clipPath><clipPath class="axesclip" id="clip76cef0xy"><rect x="54" y="60" width="596" height="387"/></clipPath></g><g class="gradients"/></defs><g class="bglayer"><rect class="bg" x="54" y="60" width="596" height="387" style="fill: rgb(229, 236, 246); fill-opacity: 1; stroke-width: 0;"/></g><g class="layer-below"><g class="imagelayer"/><g class="shapelayer"/></g><g class="cartesianlayer"><g class="subplot xy"><g class="layer-subplot"><g class="shapelayer"/><g class="imagelayer"/></g><g class="gridlayer"><g class="x"><path class="xgrid crisp" transform="translate(189.45,0)" d="M0,60v387" style="stroke: rgb(255, 255, 255); stroke-opacity: 1; stroke-width: 1px;"/><path class="xgrid crisp" transform="translate(297.82,0)" d="M0,60v387" style="stroke: rgb(255, 255, 255); stroke-opacity: 1; stroke-width: 1px;"/><path class="xgrid crisp" transform="translate(406.18,0)" d="M0,60v387" style="stroke: rgb(255, 255, 255); stroke-opacity: 1; stroke-width: 1px;"/><path class="xgrid crisp" transform="translate(514.55,0)" d="M0,60v387" style="stroke: rgb(255, 255, 255); stroke-opacity: 1; stroke-width: 1px;"/><path class="xgrid crisp" transform="translate(622.91,0)" d="M0,60v387" style="stroke: rgb(255, 255, 255); stroke-opacity: 1; stroke-width: 1px;"/></g><g class="y"><path class="ygrid crisp" transform="translate(0,414.75)" d="M54,0h596" style="stroke: rgb(255, 255, 255); stroke-opacity: 1; stroke-width: 1px;"/><path class="ygrid crisp" transform="translate(0,350.25)" d="M54,0h596" style="stroke: rgb(255, 255, 255); stroke-opacity: 1; stroke-width: 1px;"/><path class="ygrid crisp" transform="translate(0,285.75)" d="M54,0h596" style="stroke: rgb(255, 255, 255); stroke-opacity: 1; stroke-width: 1px;"/><path class="ygrid crisp" transform="translate(0,221.25)" d="M54,0h596" style="stroke: rgb(255, 255, 255); stroke-opacity: 1; stroke-width: 1px;"/><path class="ygrid crisp" transform="translate(0,156.75)" d="M54,0h596" style="stroke: rgb(255, 255, 255); stroke-opacity: 1; stroke-width: 1px;"/><path class="ygrid crisp" transform="translate(0,92.25)" d="M54,0h596" style="stroke: rgb(255, 255, 255); stroke-opacity: 1; stroke-width: 1px;"/></g></g><g class="zerolinelayer"><path class="xzl zl crisp" transform="translate(81.09,0)" d="M0,60v387" style="stroke: rgb(255, 255, 255); stroke-opacity: 1; stroke-width: 2px;"/></g><path class="xlines-below"/><path class="ylines-below"/><g class="overlines-below"/><g class="xaxislayer-below"/><g class="yaxislayer-below"/><g class="overaxes-below"/><g class="plot" transform="translate(54,60)" clip-path="url('#clip76cef0xyplot')"><g class="scatterlayer mlayer"><g class="trace scatter trace031ec2" style="stroke-miterlimit: 2; opacity: 1;"><g class="fills"/><g class="errorbars"/><g class="lines"><path class="js-line" d="M29.56,-2370L37.12,-150.08L39.64,-9.77L42.16,46.05L44.68,53.46L47.2,76.66L49.72,72.82L52.24,104.67L54.76,120.21L57.28,129.49L59.8,126.61L62.32,120.86L64.85,136.11L67.37,135.37L69.89,136.79L72.41,139.4L74.93,157.68L77.45,152.86L79.97,140.55L82.49,152.75L85.01,151.77L90.05,175.88L92.57,159.46L95.09,168.9L97.61,160.47L100.13,161.81L102.65,181.49L105.17,173.19L107.69,178.81L110.21,179.61L112.73,184.5L115.25,182.71L117.77,178.98L120.29,192.81L122.81,178.83L125.33,176.99L127.85,181.12L130.37,174.18L132.89,176.29L135.41,162.47L137.93,180.46L140.45,188.95L142.98,190.27L145.5,200.28L148.02,189.6L150.54,185.1L153.06,192.24L155.58,201.96L158.1,200.69L160.62,202.55L163.14,188.96L165.66,176.12L168.18,194.36L170.7,183.11L173.22,191.86L175.74,192.19L178.26,182.49L180.78,187.56L183.3,203.19L185.82,195.69L188.34,211.75L190.86,191.65L193.38,210.51L195.9,196.69L198.42,208.49L203.46,197.25L205.98,198.64L208.5,217.89L211.02,195.99L213.54,213.87L216.06,207.03L218.58,207.58L221.11,193.62L223.63,195.55L226.15,229.34L228.67,225.54L231.19,216.84L233.71,213.27L236.23,211.3L238.75,217.9L241.27,206.7L243.79,189.92L246.31,194.73L248.83,184.15L251.35,191.91L253.87,185.98L256.39,213.44L258.91,207.78L261.43,230.67L263.95,248.14L266.47,223.4L268.99,246.58L271.51,228.89L274.03,224.85L276.55,192.31L279.07,216L281.59,211.71L284.11,202.63L286.63,203.05L289.15,218.37L291.67,227.79L294.19,228.52L296.71,201.1L301.76,238.14L304.28,224.09L306.8,221.94L309.32,232.04L311.84,203.9L314.36,207.61L316.88,207.02L319.4,215.84L321.92,207.39L324.44,230.77L326.96,205.04L329.48,225.96L332,243.97L334.52,246.45L342.08,208.75L344.6,236.38L347.12,214.85L349.64,213.79L352.16,234.39L354.68,227.28L357.2,223.06L359.72,207.5L362.24,217.85L364.76,210.66L367.28,215.87L369.8,233.74L374.84,250.93L377.36,247.03L379.89,219.46L382.41,215.8L384.93,224.99L387.45,215.05L389.97,213.44L392.49,207.16L395.01,188.62L397.53,228.38L400.05,226.76L402.57,211.18L405.09,222.78L407.61,209.72L410.13,222.82L412.65,206.73L415.17,241.61L417.69,242.24L420.21,242.39L422.73,230.39L425.25,231.62L427.77,227.55L430.29,227.75L432.81,237.38L435.33,219.09L437.85,242.88L440.37,254.3L442.89,229.66L445.41,228.62L447.93,231.2L450.45,262.26L452.97,241.29L455.49,243.79L458.02,234.07L460.54,186.27L463.06,236.46L465.58,234.83L468.1,217.01L473.14,228.43L475.66,223.15L478.18,245.92L480.7,212.11L483.22,216.8L485.74,232.7L488.26,225.65L490.78,243.13L493.3,225.41L495.82,258.85L498.34,226.97L500.86,208.37L503.38,239.25L505.9,237.53L508.42,227.08L510.94,266.15L513.46,256.88L515.98,225.39L521.02,254.93L523.54,237.81L526.06,229.24L528.58,217.74L531.1,240.65L533.62,255.85L538.67,229.04L541.19,243.48L543.71,246.48L546.23,220.17L548.75,230.59L551.27,247.95L553.79,239.23L556.31,286.65L558.83,256.72L561.35,253.31L563.87,239.62L566.39,242.89L568.91,245.83" style="vector-effect: non-scaling-stroke; fill: none; stroke: rgb(99, 110, 250); stroke-opacity: 1; stroke-width: 2px; opacity: 1;"/></g><g class="points"/><g class="text"/></g><g class="trace scatter trace8bad34" style="stroke-miterlimit: 2; opacity: 1;"><g class="fills"/><g class="errorbars"/><g class="lines"><path class="js-line" d="M29.56,-1699.55L34.6,-77.91L37.12,48.47L39.64,97.31L42.16,122.23L47.2,130.72L49.72,147.63L54.76,155.6L57.28,158.15L59.8,160.5L62.32,164.6L64.85,182.69L67.37,179.13L69.89,175.45L72.41,181.48L74.93,175.92L77.45,185.11L79.97,177.03L82.49,187.3L85.01,191.39L87.53,183.53L90.05,200.9L92.57,188.81L95.09,202.63L97.61,195.19L100.13,185.59L102.65,188.25L105.17,194.61L107.69,197.6L110.21,200.7L112.73,200.68L117.77,182.84L120.29,172.88L122.81,197.15L125.33,212.3L127.85,209.82L130.37,191.27L132.89,215.34L135.41,213.82L137.93,209.66L140.45,196.27L142.98,212.87L145.5,205.99L148.02,204.65L150.54,192.46L155.58,232.49L158.1,231.87L160.62,226.03L163.14,233.01L165.66,199.45L168.18,222.95L170.7,231.02L173.22,207.85L175.74,224.81L178.26,224.25L180.78,210.83L183.3,211.68L185.82,221.45L188.34,213.01L190.86,241.4L193.38,232.69L195.9,226.99L198.42,227.14L200.94,236.03L203.46,216.48L205.98,233.54L208.5,226.49L211.02,227.19L213.54,218.85L216.06,242.64L218.58,236.36L221.11,218.53L223.63,233.06L226.15,233.21L228.67,221.08L231.19,215.04L233.71,246.64L236.23,212.67L238.75,234.55L241.27,234.42L243.79,289.89L246.31,247.11L248.83,226.66L251.35,203L253.87,245.42L256.39,219.2L258.91,214.96L261.43,245.16L263.95,242.74L266.47,236.63L268.99,233.35L271.51,228.1L274.03,243.92L276.55,234.53L279.07,237.39L281.59,223.34L284.11,250.48L286.63,240.64L289.15,244.29L291.67,240.81L294.19,243.45L296.71,243.39L299.23,245.3L301.76,260.57L304.28,239.38L306.8,226.1L309.32,246.09L311.84,246.49L314.36,269.24L316.88,239.48L319.4,258.05L321.92,242.41L324.44,240.31L326.96,235.43L329.48,243.05L332,240.9L334.52,240.16L337.04,240.73L339.56,243.23L342.08,255.96L344.6,263.18L347.12,260.12L349.64,252.78L352.16,225.37L354.68,260.62L357.2,269.83L359.72,287.86L362.24,280.37L364.76,258.76L367.28,262.28L369.8,286.82L372.32,282.76L374.84,288.14L377.36,269.83L379.89,265.67L382.41,292.71L384.93,264.34L387.45,274.13L389.97,294.62L392.49,298.43L395.01,304.67L397.53,284.92L400.05,272.75L402.57,272.09L405.09,276.71L407.61,305.37L410.13,324.34L412.65,302.64L415.17,313.66L417.69,303.76L420.21,310.88L422.73,310.86L425.25,306.98L427.77,310.52L430.29,317.36L432.81,306.48L435.33,316.78L437.85,296.79L440.37,309.52L442.89,292.92L445.41,305.23L450.45,296.37L452.97,302.86L455.49,305.49L458.02,323.13L460.54,315.6L463.06,328.44L465.58,333.35L468.1,334.94L470.62,329.74L473.14,341.07L475.66,335.15L478.18,345.22L480.7,331.71L483.22,342.2L485.74,352.73L488.26,358.35L490.78,316.12L493.3,320.39L498.34,351.81L500.86,335.28L503.38,331.98L505.9,340.14L508.42,332.32L510.94,352.25L513.46,346.95L515.98,339.71L518.5,346.53L521.02,336.35L523.54,356.72L526.06,346.51L528.58,357.81L531.1,358.55L533.62,361.63L536.14,333.51L541.19,349.94L543.71,357.05L546.23,359.74L548.75,340.18L551.27,341.03L553.79,331.97L556.31,349.09L558.83,346.38L561.35,358.26L563.87,353.14L566.39,341.91L568.91,312.62" style="vector-effect: non-scaling-stroke; fill: none; stroke: rgb(239, 85, 59); stroke-opacity: 1; stroke-width: 2px; opacity: 1;"/></g><g class="points"/><g class="text"/></g></g></g><g class="overplot"/><path class="xlines-above crisp" d="M0,0" style="fill: none;"/><path class="ylines-above crisp" d="M0,0" style="fill: none;"/><g class="overlines-above"/><g class="xaxislayer-above"><g class="xtick"><text text-anchor="middle" x="0" y="460" transform="translate(81.09,0)" style="font-family: 'Open Sans', verdana, arial, sans-serif; font-size: 12px; fill: rgb(42, 63, 95); fill-opacity: 1; white-space: pre;">0</text></g><g class="xtick"><text text-anchor="middle" x="0" y="460" transform="translate(189.45,0)" style="font-family: 'Open Sans', verdana, arial, sans-serif; font-size: 12px; fill: rgb(42, 63, 95); fill-opacity: 1; white-space: pre;">2</text></g><g class="xtick"><text text-anchor="middle" x="0" y="460" transform="translate(297.82,0)" style="font-family: 'Open Sans', verdana, arial, sans-serif; font-size: 12px; fill: rgb(42, 63, 95); fill-opacity: 1; white-space: pre;">4</text></g><g class="xtick"><text text-anchor="middle" x="0" y="460" transform="translate(406.18,0)" style="font-family: 'Open Sans', verdana, arial, sans-serif; font-size: 12px; fill: rgb(42, 63, 95); fill-opacity: 1; white-space: pre;">6</text></g><g class="xtick"><text text-anchor="middle" x="0" y="460" transform="translate(514.55,0)" style="font-family: 'Open Sans', verdana, arial, sans-serif; font-size: 12px; fill: rgb(42, 63, 95); fill-opacity: 1; white-space: pre;">8</text></g><g class="xtick"><text text-anchor="middle" x="0" y="460" transform="translate(622.91,0)" style="font-family: 'Open Sans', verdana, arial, sans-serif; font-size: 12px; fill: rgb(42, 63, 95); fill-opacity: 1; white-space: pre;">10</text></g></g><g class="yaxislayer-above"><g class="ytick"><text text-anchor="end" x="53" y="4.199999999999999" transform="translate(0,414.75)" style="font-family: 'Open Sans', verdana, arial, sans-serif; font-size: 12px; fill: rgb(42, 63, 95); fill-opacity: 1; white-space: pre;">0.2</text></g><g class="ytick"><text text-anchor="end" x="53" y="4.199999999999999" transform="translate(0,350.25)" style="font-family: 'Open Sans', verdana, arial, sans-serif; font-size: 12px; fill: rgb(42, 63, 95); fill-opacity: 1; white-space: pre;">0.3</text></g><g class="ytick"><text text-anchor="end" x="53" y="4.199999999999999" transform="translate(0,285.75)" style="font-family: 'Open Sans', verdana, arial, sans-serif; font-size: 12px; fill: rgb(42, 63, 95); fill-opacity: 1; white-space: pre;">0.4</text></g><g class="ytick"><text text-anchor="end" x="53" y="4.199999999999999" transform="translate(0,221.25)" style="font-family: 'Open Sans', verdana, arial, sans-serif; font-size: 12px; fill: rgb(42, 63, 95); fill-opacity: 1; white-space: pre;">0.5</text></g><g class="ytick"><text text-anchor="end" x="53" y="4.199999999999999" transform="translate(0,156.75)" style="font-family: 'Open Sans', verdana, arial, sans-serif; font-size: 12px; fill: rgb(42, 63, 95); fill-opacity: 1; white-space: pre;">0.6</text></g><g class="ytick"><text text-anchor="end" x="53" y="4.199999999999999" transform="translate(0,92.25)" style="font-family: 'Open Sans', verdana, arial, sans-serif; font-size: 12px; fill: rgb(42, 63, 95); fill-opacity: 1; white-space: pre;">0.7</text></g></g><g class="overaxes-above"/></g></g><g class="polarlayer"/><g class="ternarylayer"/><g class="geolayer"/><g class="funnelarealayer"/><g class="pielayer"/><g class="treemaplayer"/><g class="sunburstlayer"/><g class="glimages"/><defs id="topdefs-76cef0"><g class="clips"/><clipPath id="legend76cef0"><rect width="98" height="48" x="0" y="0"/></clipPath></defs><g class="layer-above"><g class="imagelayer"/><g class="shapelayer"/></g><g class="infolayer"><g class="legend" pointer-events="all" transform="translate(530.8,79.35000000000002)"><rect class="bg" shape-rendering="crispEdges" width="98" height="48" x="0" y="0" style="stroke: rgb(68, 68, 68); stroke-opacity: 1; fill: rgb(255, 255, 255); fill-opacity: 1; stroke-width: 0px;"/><g class="scrollbox" transform="" clip-path="url('#legend76cef0')"><g class="groups"><g class="traces" transform="translate(0,14.5)" style="opacity: 1;"><text class="legendtext" text-anchor="start" x="40" y="4.680000000000001" style="font-family: 'Open Sans', verdana, arial, sans-serif; font-size: 12px; fill: rgb(42, 63, 95); fill-opacity: 1; white-space: pre;">t5-small   </text><g class="layers" style="opacity: 1;"><g class="legendfill"/><g class="legendlines"><path class="js-line" d="M5,0h30" style="fill: none; stroke: rgb(99, 110, 250); stroke-opacity: 1; stroke-width: 2px;"/></g><g class="legendsymbols"><g class="legendpoints"/></g></g><rect class="legendtoggle" x="0" y="-9.5" width="92.015625" height="19" style="fill: rgb(0, 0, 0); fill-opacity: 0;"/></g><g class="traces" transform="translate(0,33.5)" style="opacity: 1;"><text class="legendtext" text-anchor="start" x="40" y="4.680000000000001" style="font-family: 'Open Sans', verdana, arial, sans-serif; font-size: 12px; fill: rgb(42, 63, 95); fill-opacity: 1; white-space: pre;">t5-base   </text><g class="layers" style="opacity: 1;"><g class="legendfill"/><g class="legendlines"><path class="js-line" d="M5,0h30" style="fill: none; stroke: rgb(239, 85, 59); stroke-opacity: 1; stroke-width: 2px;"/></g><g class="legendsymbols"><g class="legendpoints"/></g></g><rect class="legendtoggle" x="0" y="-9.5" width="92.015625" height="19" style="fill: rgb(0, 0, 0); fill-opacity: 0;"/></g></g></g><rect class="scrollbar" rx="20" ry="3" width="0" height="0" x="0" y="0" style="fill: rgb(128, 139, 164); fill-opacity: 1;"/></g><g class="g-gtitle"/><g class="g-xtitle"><text class="xtitle" x="352" y="487.8" text-anchor="middle" style="font-family: 'Open Sans', verdana, arial, sans-serif; font-size: 14px; fill: rgb(42, 63, 95); opacity: 1; font-weight: normal; white-space: pre;">Epochs</text></g><g class="g-ytitle" transform="translate(1.4873046875,0)"><text class="ytitle" transform="rotate(-90,11.512500000000003,253.5)" x="11.512500000000003" y="253.5" text-anchor="middle" style="font-family: 'Open Sans', verdana, arial, sans-serif; font-size: 14px; fill: rgb(42, 63, 95); opacity: 1; font-weight: normal; white-space: pre;">Training loss</text></g></g></svg>