<svg class="main-svg" xmlns="http://www.w3.org/2000/svg" xmlns:xlink="http://www.w3.org/1999/xlink" width="700" height="500" style="" viewBox="0 0 700 500"><rect x="0" y="0" width="700" height="500" style="fill: rgb(255, 255, 255); fill-opacity: 1;"/><defs id="defs-5b136f"><g class="clips"><clipPath id="clip5b136fxyplot" class="plotclip"><rect width="596" height="387"/></clipPath><clipPath class="axesclip" id="clip5b136fx"><rect x="54" y="0" width="596" height="500"/></clipPath><clipPath class="axesclip" id="clip5b136fy"><rect x="0" y="60" width="700" height="387"/></clipPath><clipPath class="axesclip" id="clip5b136fxy"><rect x="54" y="60" width="596" height="387"/></clipPath></g><g class="gradients"/></defs><g class="bglayer"><rect class="bg" x="54" y="60" width="596" height="387" style="fill: rgb(229, 236, 246); fill-opacity: 1; stroke-width: 0;"/></g><g class="layer-below"><g class="imagelayer"/><g class="shapelayer"/></g><g class="cartesianlayer"><g class="subplot xy"><g class="layer-subplot"><g class="shapelayer"/><g class="imagelayer"/></g><g class="gridlayer"><g class="x"><path class="xgrid crisp" transform="translate(189.45,0)" d="M0,60v387" style="stroke: rgb(255, 255, 255); stroke-opacity: 1; stroke-width: 1px;"/><path class="xgrid crisp" transform="translate(297.82,0)" d="M0,60v387" style="stroke: rgb(255, 255, 255); stroke-opacity: 1; stroke-width: 1px;"/><path class="xgrid crisp" transform="translate(406.18,0)" d="M0,60v387" style="stroke: rgb(255, 255, 255); stroke-opacity: 1; stroke-width: 1px;"/><path class="xgrid crisp" transform="translate(514.55,0)" d="M0,60v387" style="stroke: rgb(255, 255, 255); stroke-opacity: 1; stroke-width: 1px;"/><path class="xgrid crisp" transform="translate(622.91,0)" d="M0,60v387" style="stroke: rgb(255, 255, 255); stroke-opacity: 1; stroke-width: 1px;"/></g><g class="y"><path class="ygrid crisp" transform="translate(0,350.25)" d="M54,0h596" style="stroke: rgb(255, 255, 255); stroke-opacity: 1; stroke-width: 1px;"/><path class="ygrid crisp" transform="translate(0,285.75)" d="M54,0h596" style="stroke: rgb(255, 255, 255); stroke-opacity: 1; stroke-width: 1px;"/><path class="ygrid crisp" transform="translate(0,221.25)" d="M54,0h596" style="stroke: rgb(255, 255, 255); stroke-opacity: 1; stroke-width: 1px;"/><path class="ygrid crisp" transform="translate(0,156.75)" d="M54,0h596" style="stroke: rgb(255, 255, 255); stroke-opacity: 1; stroke-width: 1px;"/><path class="ygrid crisp" transform="translate(0,92.25)" d="M54,0h596" style="stroke: rgb(255, 255, 255); stroke-opacity: 1; stroke-width: 1px;"/></g></g><g class="zerolinelayer"><path class="xzl zl crisp" transform="translate(81.09,0)" d="M0,60v387" style="stroke: rgb(255, 255, 255); stroke-opacity: 1; stroke-width: 2px;"/><path class="yzl zl crisp" transform="translate(0,414.75)" d="M54,0h596" style="stroke: rgb(255, 255, 255); stroke-opacity: 1; stroke-width: 2px;"/></g><path class="xlines-below"/><path class="ylines-below"/><g class="overlines-below"/><g class="xaxislayer-below"/><g class="yaxislayer-below"/><g class="overaxes-below"/><g class="plot" transform="translate(54,60)" clip-path="url('#clip5b136fxyplot')"><g class="scatterlayer mlayer"><g class="trace scatter tracebf27e1" style="stroke-miterlimit: 2; opacity: 1;"><g class="fills"/><g class="errorbars"/><g class="lines"><path class="js-line" d="M29.18,-1862.8L44.11,-914.39L46.25,-626.56L52.65,-88.14L54.78,-31.74L59.05,60.96L61.18,95.9L63.31,94.46L65.45,103.94L69.71,135.63L71.85,113.04L78.25,187.14L80.38,183.38L82.51,188.03L84.65,175.73L86.78,187.17L88.91,179.79L91.05,179.04L93.18,190.72L95.31,209.7L97.45,204.29L99.58,213.52L101.71,186.24L103.85,201.11L105.98,190.93L108.11,205.73L110.25,207.25L112.38,213.68L114.51,200.05L116.65,207.92L118.78,202.76L120.91,195.85L123.05,194.84L125.18,204.75L127.31,219.72L129.45,218.98L131.58,214.09L133.71,208.66L135.85,206.23L137.98,219.78L140.11,199.85L144.38,223.93L146.51,222.61L148.65,220.53L150.78,223.72L152.91,229.19L155.05,215.03L157.18,215.58L159.31,225.44L161.45,209.27L163.58,216.87L165.71,220.26L167.85,227.69L169.98,243.15L172.11,249.31L174.25,234.31L176.38,231.93L178.51,220.67L180.65,225.99L182.78,210.98L184.91,209.2L187.05,214.73L189.18,211.95L191.31,225.87L193.45,212.32L195.58,216.97L197.71,224.68L201.98,228.98L204.11,233.4L206.25,247.83L208.38,249.84L210.51,244.44L212.65,224.29L214.78,236.27L216.91,210.7L219.05,222.46L221.18,210.08L223.31,229.65L225.45,235.07L227.58,220.65L229.71,216.78L231.85,220.79L233.98,228.93L236.11,244.87L238.25,241.58L240.38,234L242.51,234.11L244.65,232.67L246.78,243.62L248.91,234.26L251.05,215.36L253.18,226.57L255.31,229.36L257.45,234.58L259.58,221.78L263.85,231.14L265.98,244.29L268.11,238.53L270.25,228.66L272.38,225.01L274.51,199.07L276.65,219.06L278.78,222.32L280.91,226.99L283.05,235.2L285.18,224.13L287.31,244.66L289.45,237.99L291.58,246.7L293.71,254.38L295.85,243.37L297.98,264.85L300.11,247.63L304.38,265.86L306.51,250.98L308.65,247.91L310.78,254.94L312.91,261.76L315.05,255.83L317.18,246.6L319.31,230.42L321.45,215.66L323.58,226.62L325.71,227.3L327.85,241.3L329.98,231.16L332.11,246.3L334.24,261.7L336.38,251L338.51,243.88L340.64,233.53L342.78,237.45L344.91,244.11L349.18,228.81L351.31,241.42L353.44,239.67L355.58,247.6L357.71,249.27L359.84,268.01L361.98,260.04L364.11,256L366.24,252.84L368.38,247.54L370.51,251.33L372.64,240.99L374.78,249.23L376.91,254.02L379.04,251.25L381.18,251.32L383.31,256.34L385.44,256.75L387.58,252.56L389.71,235.52L391.84,239.72L393.98,234.01L396.11,236.61L398.24,247.18L400.38,228.77L402.51,222.23L406.78,248.65L408.91,244.09L411.04,239L413.18,239.14L415.31,249.43L417.44,251.46L421.71,245.58L423.84,252.41L425.98,229.96L428.11,233.11L430.24,240.09L432.38,233.99L434.51,254.06L436.64,241.7L438.78,247.7L440.91,263.56L443.04,265.61L445.18,261.11L449.44,244.07L451.58,234.21L453.71,242.53L455.84,239.77L457.98,246.49L460.11,223.96L462.24,238.8L464.38,247.56L468.64,264.53L470.78,261.53L472.91,249.64L475.04,256.13L477.18,258.05L479.31,247.93L481.44,252.4L483.58,260.36L485.71,251.91L487.84,253.26L489.98,263.72L492.11,248.18L494.24,247.18L496.38,244.54L498.51,240.25L500.64,239.26L502.78,245.42L504.91,247.03L507.04,256.91L509.18,258.05L511.31,252.58L513.44,237.3L515.58,242.12L517.71,209.35L521.98,231.62L524.11,234.87L526.24,240.17L528.38,253.05L530.51,231.89L532.64,236.57L534.78,248.86L536.91,247.43L539.04,251.94L541.18,247.86L543.31,240.67L545.44,238.79L547.58,237.27L549.71,247.52L551.84,234.47L553.98,243.92L558.24,238.42L560.38,256.08L562.51,259.57L564.64,255.48L566.78,255.13L568.91,247.06" style="vector-effect: non-scaling-stroke; fill: none; stroke: rgb(99, 110, 250); stroke-opacity: 1; stroke-width: 2px; opacity: 1;"/></g><g class="points"/><g class="text"/></g><g class="trace scatter tracedfcaa6" style="stroke-miterlimit: 2; opacity: 1;"><g class="fills"/><g class="errorbars"/><g class="lines"><path class="js-line" d="M29.18,-1815.42L37.71,-1404.86L39.85,-1152.82L48.38,-149.07L50.51,-56.98L54.78,59.83L56.91,95.98L59.05,82.93L61.18,93.35L63.31,97.44L65.45,109.92L67.58,121.86L69.71,154.87L71.85,159.6L73.98,155.36L76.11,159.46L78.25,166.49L80.38,185.4L82.51,189.73L84.65,202.03L86.78,197.2L91.05,184.75L93.18,195.72L95.31,202.85L97.45,196.45L99.58,181.82L101.71,185.13L103.85,188.45L105.98,196.45L108.11,193.75L110.25,213.83L114.51,213.69L116.65,216.77L118.78,229.84L120.91,215.68L123.05,228.53L125.18,227.25L127.31,209.81L129.45,215.42L133.71,210.53L135.85,222.4L137.98,217.79L140.11,199.41L142.25,206.22L144.38,222.14L146.51,208.93L148.65,213.89L150.78,223.13L152.91,223.36L155.05,223.44L157.18,232.49L159.31,229.06L161.45,235.43L163.58,225.93L165.71,231.01L167.85,239.32L169.98,231.45L172.11,230.8L174.25,240.11L176.38,236.11L178.51,247.57L182.78,250.29L184.91,255.37L187.05,246.24L189.18,251.6L191.31,254.26L193.45,246.87L195.58,257.37L197.71,255.45L201.98,232.74L204.11,239.05L206.25,248.25L208.38,232.58L210.51,230.74L212.65,232.18L214.78,236.45L216.91,226.61L219.05,215.48L221.18,222.37L223.31,231.43L225.45,225.8L227.58,224.04L229.71,236.52L231.85,250.79L233.98,239.19L238.25,255.48L240.38,245.65L242.51,250.05L244.65,244.94L246.78,244.58L248.91,241.81L251.05,246.19L253.18,253.71L255.31,254.96L257.45,259.67L259.58,248.7L261.71,249.75L263.85,238.09L265.98,246.82L268.11,246.97L270.25,221.02L272.38,231.84L274.51,233.54L276.65,223.7L278.78,230.17L280.91,245.7L283.05,229.68L285.18,252.73L287.31,249.57L289.45,253.2L291.58,251.45L293.71,248.93L295.85,258.93L297.98,240.53L300.11,257.08L302.25,252.93L304.38,246.07L306.51,251.26L308.65,245.01L312.91,263.96L315.05,257.47L317.18,239.7L319.31,241.82L321.45,254.68L323.58,253.16L325.71,239.85L327.85,243.84L329.98,234.18L332.11,235.92L340.64,255.66L342.78,257.99L344.91,259.98L347.04,256.11L349.18,260.41L351.31,251.83L353.44,246.47L355.58,256.86L357.71,264.65L359.84,249.13L361.98,242.32L364.11,244.72L366.24,238.7L368.38,246.64L370.51,250.59L372.64,251.34L374.78,266.62L376.91,265.06L379.04,275.48L381.18,265.97L385.44,252.55L387.58,241.23L389.71,235.49L391.84,251.13L393.98,255.86L396.11,262.77L398.24,265.14L400.38,268.97L402.51,267.11L404.64,254.1L406.78,262.53L408.91,260.38L411.04,258.71L413.18,251.01L415.31,252.19L417.44,255.51L419.58,246.91L421.71,260.61L423.84,258.08L425.98,257.24L428.11,260.38L430.24,253.11L432.38,262.1L434.51,277.2L436.64,262.08L438.78,255.39L440.91,250.41L443.04,238.6L445.18,241.46L447.31,247.73L449.44,243.11L451.58,235.38L453.71,252.09L455.84,250.69L457.98,254.87L460.11,244.93L462.24,236.14L464.38,250.96L466.51,261.31L468.64,251.24L470.78,253.86L472.91,258.53L475.04,254.56L477.18,225.74L479.31,232.74L481.44,231.24L483.58,255.04L485.71,242.4L487.84,246.83L489.98,245.83L492.11,256.4L494.24,253.42L496.38,254.16L498.51,264.21L500.64,261.4L502.78,264.05L504.91,257.49L507.04,255.63L509.18,256.71L511.31,252.72L515.58,256.26L517.71,259.85L519.84,244.02L521.98,260.24L526.24,235.52L528.38,237.58L530.51,237.34L532.64,257.44L534.78,254.53L536.91,234.22L539.04,240.86L541.18,243.36L543.31,247.86L545.44,258.55L547.58,259.14L549.71,257.54L551.84,249.55L553.98,249.2L558.24,272.59L560.38,270.6L564.64,267.89L566.78,256.06L568.91,275.44" style="vector-effect: non-scaling-stroke; fill: none; stroke: rgb(239, 85, 59); stroke-opacity: 1; stroke-width: 2px; opacity: 1;"/></g><g class="points"/><g class="text"/></g><g class="trace scatter trace06a825" style="stroke-miterlimit: 2; opacity: 1;"><g class="fills"/><g class="errorbars"/><g class="lines"><path class="js-line" d="M29.18,-1836.59L37.71,-1186.03L39.85,-857.59L46.25,-127.44L48.38,-11.18L50.51,49.6L52.65,88.71L54.78,111.13L56.91,106.09L59.05,113.88L61.18,131.46L65.45,157.33L67.58,164.38L69.71,183.18L71.85,185.76L76.11,205.86L78.25,197.84L80.38,201.41L82.51,176.92L84.65,193.85L86.78,196.53L88.91,197.37L91.05,208.69L93.18,194.84L95.31,198.6L97.45,203.05L99.58,212.71L101.71,230.92L103.85,218.03L105.98,221.05L108.11,220.77L110.25,214.7L112.38,195.46L116.65,227.06L118.78,227.13L120.91,236.38L123.05,236.93L125.18,238.98L127.31,237.36L129.45,234.94L131.58,215.2L133.71,202.88L135.85,222L137.98,241.58L140.11,234.83L142.25,233.64L144.38,236.16L146.51,236.5L148.65,231.23L150.78,241.16L152.91,224.82L155.05,235.25L157.18,232.29L159.31,232.12L161.45,213.02L163.58,234.54L165.71,213.22L167.85,219.75L169.98,235.64L172.11,247.15L174.25,247.68L176.38,255.94L178.51,260.04L180.65,230.75L182.78,221.4L184.91,235.63L187.05,217.63L189.18,224.31L191.31,240.2L193.45,248.54L195.58,251.96L197.71,268.9L199.85,262.9L201.98,252.48L204.11,246.16L206.25,237.72L208.38,234.31L210.51,248.65L212.65,249.51L214.78,250.5L216.91,259.15L219.05,265.15L221.18,259.36L223.31,269.08L225.45,260.84L227.58,260.37L229.71,251.31L231.85,229.12L233.98,238.74L236.11,241.56L238.25,247.74L240.38,256.3L242.51,254.76L244.65,247.76L246.78,230.31L248.91,246.67L251.05,248.25L253.18,256.05L255.31,252.84L257.45,253.63L259.58,250.76L263.85,268.02L265.98,263.7L270.25,241.29L272.38,238.65L274.51,231.38L276.65,214.76L278.78,232.69L280.91,238.09L283.05,247.62L285.18,249.84L287.31,231.72L289.45,225.62L291.58,232.12L293.71,246.03L295.85,247.5L297.98,277.25L300.11,272.27L302.25,250.97L304.38,247.05L306.51,257.23L308.65,268.87L310.78,265.15L312.91,264.52L315.05,250.44L317.18,257.06L319.31,259.07L323.58,238.64L325.71,244.12L327.85,245.55L329.98,245.17L332.11,243.17L334.24,235.8L336.38,248.99L338.51,267L340.64,268.03L342.78,261.74L344.91,257.63L347.04,260.28L349.18,244.29L351.31,255.58L353.44,257.93L355.58,272.57L357.71,253.16L359.84,263.19L361.98,272.22L364.11,261.05L366.24,254.13L368.38,254.87L370.51,266.33L372.64,251.95L374.78,266.9L376.91,258.38L379.04,244.25L381.18,254.14L383.31,257.28L385.44,252.51L387.58,254.08L389.71,265.16L391.84,258.79L393.98,265.99L396.11,258.51L398.24,257.96L402.51,271.63L404.64,267.59L406.78,270.49L408.91,266.23L411.04,269.87L413.18,267.71L415.31,254.66L417.44,252.65L419.58,235L421.71,254.23L423.84,252.77L425.98,257.11L428.11,250.83L430.24,251.9L432.38,253.87L434.51,261.88L436.64,251.51L438.78,252.7L443.04,266.63L445.18,260.05L447.31,266.98L449.44,260.74L451.58,254.18L453.71,252.84L455.84,250.7L457.98,254.97L460.11,255.53L462.24,251.47L464.38,255.48L466.51,238.36L468.64,261.19L470.78,260.99L472.91,255.92L475.04,246.56L479.31,259.12L481.44,261.37L483.58,275.06L485.71,261.29L487.84,266.49L489.98,264.36L492.11,264.74L494.24,255.8L496.38,249.95L498.51,256.3L500.64,265.5L502.78,270.67L504.91,258.66L507.04,254.75L509.18,253.92L511.31,262.23L515.58,244.71L517.71,250.32L519.84,262.05L521.98,259.55L524.11,239.56L526.24,251.28L528.38,249.55L530.51,256.02L532.64,254.19L534.78,257.02L536.91,262.65L539.04,264.46L541.18,264.47L543.31,263L549.71,253.37L551.84,263.48L553.98,261.71L556.11,263.83L558.24,267.75L560.38,266.54L564.64,252.55L566.78,266.42L568.91,280.77" style="vector-effect: non-scaling-stroke; fill: none; stroke: rgb(0, 204, 150); stroke-opacity: 1; stroke-width: 2px; opacity: 1;"/></g><g class="points"/><g class="text"/></g><g class="trace scatter trace702941" style="stroke-miterlimit: 2; opacity: 1;"><g class="fills"/><g class="errorbars"/><g class="lines"><path class="js-line" d="M29.18,-1225.52L33.45,-234.97L35.58,-71.76L39.85,102.48L41.98,134.07L44.11,165.59L46.25,172.01L52.65,240.28L54.78,229.98L56.91,229.74L59.05,227.28L61.18,235.47L63.31,231.87L65.45,235.19L67.58,227.78L69.71,232.12L71.85,228.61L73.98,247.49L76.11,247.82L78.25,233.67L80.38,239.05L82.51,240.98L84.65,250.49L86.78,252.85L88.91,235.36L91.05,252.62L93.18,243.8L95.31,263.62L97.45,267.61L99.58,250.31L101.71,267.92L103.85,261.73L105.98,258.31L108.11,269.11L110.25,258.13L112.38,258.32L114.51,254.04L116.65,248.77L118.78,250.94L120.91,270.55L123.05,264.25L125.18,251.7L127.31,251.22L129.45,264.52L131.58,261.15L133.71,271.24L135.85,268.32L137.98,278.7L140.11,280.11L142.25,273.52L144.38,280.55L146.51,279.09L148.65,278.55L150.78,281.96L152.91,290.07L155.05,282.69L157.18,279.46L159.31,276.45L161.45,275.67L163.58,270.67L165.71,274.43L167.85,270.28L169.98,284.13L172.11,284.68L174.25,276.96L176.38,287.57L178.51,278.25L180.65,277.68L182.78,286.96L184.91,282.72L187.05,284.28L191.31,300.23L193.45,304.73L195.58,301.61L197.71,285.61L199.85,292.45L201.98,295.84L204.11,295.17L206.25,300.38L208.38,303.66L210.51,295.84L212.65,289.44L214.78,295.24L219.05,291.24L221.18,288.03L223.31,292.8L225.45,299.85L227.58,293.21L229.71,295.28L231.85,287.49L233.98,286.47L236.11,290.87L238.25,300.47L240.38,300.42L242.51,299.05L244.65,295.46L246.78,303.41L248.91,306.25L251.05,310.4L253.18,313.75L255.31,313.16L257.45,306.42L259.58,307.46L261.71,300.48L263.85,306.07L265.98,307.16L268.11,310.14L270.25,312.06L272.38,306.75L274.51,303.22L276.65,304.29L278.78,309.21L280.91,308.23L283.05,306.23L285.18,316.21L287.31,316.98L289.45,318.99L291.58,307.31L293.71,314.82L295.85,310.96L297.98,303.2L300.11,303.82L302.25,310.26L304.38,308.56L306.51,311.37L308.65,315.81L310.78,316.36L312.91,313.89L315.05,318.57L317.18,321.19L319.31,321.31L321.45,317.85L323.58,318.63L325.71,314.7L327.85,316.95L329.98,315.35L332.11,316.56L334.24,316.08L336.38,303.45L338.51,306.22L340.64,311.6L344.91,308.38L347.04,310.26L349.18,309.21L351.31,312.82L355.58,322.9L357.71,326.57L359.84,326.92L361.98,324.79L364.11,320.71L366.24,322.54L370.51,324.78L372.64,323.34L374.78,322.16L376.91,323.53L379.04,316.12L381.18,318.43L385.44,323.9L387.58,323.4L389.71,323.47L391.84,321.58L393.98,319.5L396.11,318.8L400.38,325.12L402.51,324L404.64,323.2L406.78,327.71L408.91,331.34L411.04,328.76L413.18,330.84L415.31,327.46L417.44,325.71L419.58,327.8L421.71,328.91L423.84,331.07L428.11,326.65L430.24,325.73L432.38,323.71L434.51,328.97L436.64,330.17L438.78,329.92L440.91,330.63L443.04,329.4L445.18,329.4L447.31,327.64L449.44,331.2L451.58,328.28L455.84,332.34L457.98,331.8L460.11,329.08L462.24,332.27L464.38,336.03L466.51,336.71L470.78,333.41L472.91,334.64L477.18,336.6L479.31,338.32L481.44,338.32L483.58,337.03L485.71,334.41L487.84,333.77L489.98,335.57L492.11,335.59L494.24,336.37L496.38,335.04L498.51,336.22L500.64,334.42L504.91,334.42L507.04,335.67L509.18,337.69L511.31,334.62L513.44,334.79L515.58,338.17L517.71,337.69L519.84,338.2L526.24,339.44L528.38,337.89L532.64,335.06L534.78,335.41L536.91,337.71L539.04,337.13L541.18,339.99L543.31,339.04L547.58,335.65L549.71,336.02L553.98,337.8L556.11,336.18L558.24,336.38L560.38,338.14L562.51,335.72L564.64,336.13L566.78,335.73L568.91,333.93" style="vector-effect: non-scaling-stroke; fill: none; stroke: rgb(171, 99, 250); stroke-opacity: 1; stroke-width: 2px; opacity: 1;"/></g><g class="points"/><g class="text"/></g></g></g><g class="overplot"/><path class="xlines-above crisp" d="M0,0" style="fill: none;"/><path class="ylines-above crisp" d="M0,0" style="fill: none;"/><g class="overlines-above"/><g class="xaxislayer-above"><g class="xtick"><text text-anchor="middle" x="0" y="460" transform="translate(81.09,0)" style="font-family: 'Open Sans', verdana, arial, sans-serif; font-size: 12px; fill: rgb(42, 63, 95); fill-opacity: 1; white-space: pre;">0</text></g><g class="xtick"><text text-anchor="middle" x="0" y="460" transform="translate(189.45,0)" style="font-family: 'Open Sans', verdana, arial, sans-serif; font-size: 12px; fill: rgb(42, 63, 95); fill-opacity: 1; white-space: pre;">2</text></g><g class="xtick"><text text-anchor="middle" x="0" y="460" transform="translate(297.82,0)" style="font-family: 'Open Sans', verdana, arial, sans-serif; font-size: 12px; fill: rgb(42, 63, 95); fill-opacity: 1; white-space: pre;">4</text></g><g class="xtick"><text text-anchor="middle" x="0" y="460" transform="translate(406.18,0)" style="font-family: 'Open Sans', verdana, arial, sans-serif; font-size: 12px; fill: rgb(42, 63, 95); fill-opacity: 1; white-space: pre;">6</text></g><g class="xtick"><text text-anchor="middle" x="0" y="460" transform="translate(514.55,0)" style="font-family: 'Open Sans', verdana, arial, sans-serif; font-size: 12px; fill: rgb(42, 63, 95); fill-opacity: 1; white-space: pre;">8</text></g><g class="xtick"><text text-anchor="middle" x="0" y="460" transform="translate(622.91,0)" style="font-family: 'Open Sans', verdana, arial, sans-serif; font-size: 12px; fill: rgb(42, 63, 95); fill-opacity: 1; white-space: pre;">10</text></g></g><g class="yaxislayer-above"><g class="ytick"><text text-anchor="end" x="53" y="4.199999999999999" transform="translate(0,414.75)" style="font-family: 'Open Sans', verdana, arial, sans-serif; font-size: 12px; fill: rgb(42, 63, 95); fill-opacity: 1; white-space: pre;">0</text></g><g class="ytick"><text text-anchor="end" x="53" y="4.199999999999999" transform="translate(0,350.25)" style="font-family: 'Open Sans', verdana, arial, sans-serif; font-size: 12px; fill: rgb(42, 63, 95); fill-opacity: 1; white-space: pre;">0.1</text></g><g class="ytick"><text text-anchor="end" x="53" y="4.199999999999999" transform="translate(0,285.75)" style="font-family: 'Open Sans', verdana, arial, sans-serif; font-size: 12px; fill: rgb(42, 63, 95); fill-opacity: 1; white-space: pre;">0.2</text></g><g class="ytick"><text text-anchor="end" x="53" y="4.199999999999999" transform="translate(0,221.25)" style="font-family: 'Open Sans', verdana, arial, sans-serif; font-size: 12px; fill: rgb(42, 63, 95); fill-opacity: 1; white-space: pre;">0.3</text></g><g class="ytick"><text text-anchor="end" x="53" y="4.199999999999999" transform="translate(0,156.75)" style="font-family: 'Open Sans', verdana, arial, sans-serif; font-size: 12px; fill: rgb(42, 63, 95); fill-opacity: 1; white-space: pre;">0.4</text></g><g class="ytick"><text text-anchor="end" x="53" y="4.199999999999999" transform="translate(0,92.25)" style="font-family: 'Open Sans', verdana, arial, sans-serif; font-size: 12px; fill: rgb(42, 63, 95); fill-opacity: 1; white-space: pre;">0.5</text></g></g><g class="overaxes-above"/></g></g><g class="polarlayer"/><g class="ternarylayer"/><g class="geolayer"/><g class="funnelarealayer"/><g class="pielayer"/><g class="treemaplayer"/><g class="sunburstlayer"/><g class="glimages"/><defs id="topdefs-5b136f"><g class="clips"/><clipPath id="legend5b136f"><rect width="110" height="86" x="0" y="0"/></clipPath></defs><g class="layer-above"><g class="imagelayer"/><g class="shapelayer"/></g><g class="infolayer"><g class="legend" pointer-events="all" transform="translate(530.8,79.35000000000002)"><rect class="bg" shape-rendering="crispEdges" width="110" height="86" x="0" y="0" style="stroke: rgb(68, 68, 68); stroke-opacity: 1; fill: rgb(255, 255, 255); fill-opacity: 1; stroke-width: 0px;"/><g class="scrollbox" transform="" clip-path="url('#legend5b136f')"><g class="groups"><g class="traces" transform="translate(0,14.5)" style="opacity: 1;"><text class="legendtext" text-anchor="start" x="40" y="4.680000000000001" style="font-family: 'Open Sans', verdana, arial, sans-serif; font-size: 12px; fill: rgb(42, 63, 95); fill-opacity: 1; white-space: pre;">LoRA r=8  </text><g class="layers" style="opacity: 1;"><g class="legendfill"/><g class="legendlines"><path class="js-line" d="M5,0h30" style="fill: none; stroke: rgb(99, 110, 250); stroke-opacity: 1; stroke-width: 2px;"/></g><g class="legendsymbols"><g class="legendpoints"/></g></g><rect class="legendtoggle" x="0" y="-9.5" width="104.375" height="19" style="fill: rgb(0, 0, 0); fill-opacity: 0;"/></g><g class="traces" transform="translate(0,33.5)" style="opacity: 1;"><text class="legendtext" text-anchor="start" x="40" y="4.680000000000001" style="font-family: 'Open Sans', verdana, arial, sans-serif; font-size: 12px; fill: rgb(42, 63, 95); fill-opacity: 1; white-space: pre;">LoRA r=16  </text><g class="layers" style="opacity: 1;"><g class="legendfill"/><g class="legendlines"><path class="js-line" d="M5,0h30" style="fill: none; stroke: rgb(239, 85, 59); stroke-opacity: 1; stroke-width: 2px;"/></g><g class="legendsymbols"><g class="legendpoints"/></g></g><rect class="legendtoggle" x="0" y="-9.5" width="104.375" height="19" style="fill: rgb(0, 0, 0); fill-opacity: 0;"/></g><g class="traces" transform="translate(0,52.5)" style="opacity: 1;"><text class="legendtext" text-anchor="start" x="40" y="4.680000000000001" style="font-family: 'Open Sans', verdana, arial, sans-serif; font-size: 12px; fill: rgb(42, 63, 95); fill-opacity: 1; white-space: pre;">LoRA r=32  </text><g class="layers" style="opacity: 1;"><g class="legendfill"/><g class="legendlines"><path class="js-line" d="M5,0h30" style="fill: none; stroke: rgb(0, 204, 150); stroke-opacity: 1; stroke-width: 2px;"/></g><g class="legendsymbols"><g class="legendpoints"/></g></g><rect class="legendtoggle" x="0" y="-9.5" width="104.375" height="19" style="fill: rgb(0, 0, 0); fill-opacity: 0;"/></g><g class="traces" transform="translate(0,71.5)" style="opacity: 1;"><text class="legendtext" text-anchor="start" x="40" y="4.680000000000001" style="font-family: 'Open Sans', verdana, arial, sans-serif; font-size: 12px; fill: rgb(42, 63, 95); fill-opacity: 1; white-space: pre;">Full  </text><g class="layers" style="opacity: 1;"><g class="legendfill"/><g class="legendlines"><path class="js-line" d="M5,0h30" style="fill: none; stroke: rgb(171, 99, 250); stroke-opacity: 1; stroke-width: 2px;"/></g><g class="legendsymbols"><g class="legendpoints"/></g></g><rect class="legendtoggle" x="0" y="-9.5" width="104.375" height="19" style="fill: rgb(0, 0, 0); fill-opacity: 0;"/></g></g></g><rect class="scrollbar" rx="20" ry="3" width="0" height="0" x="0" y="0" style="fill: rgb(128, 139, 164); fill-opacity: 1;"/></g><g class="g-gtitle"/><g class="g-xtitle"><text class="xtitle" x="352" y="487.8" text-anchor="middle" style="font-family: 'Open Sans', verdana, arial, sans-serif; font-size: 14px; fill: rgb(42, 63, 95); opacity: 1; font-weight: normal; white-space: pre;">Epochs</text></g><g class="g-ytitle" transform="translate(1.4873046875,0)"><text class="ytitle" transform="rotate(-90,11.512500000000003,253.5)" x="11.512500000000003" y="253.5" text-anchor="middle" style="font-family: 'Open Sans', verdana, arial, sans-serif; font-size: 14px; fill: rgb(42, 63, 95); opacity: 1; font-weight: normal; white-space: pre;">Training loss</text></g></g></svg>