<svg class="main-svg" xmlns="http://www.w3.org/2000/svg" xmlns:xlink="http://www.w3.org/1999/xlink" width="700" height="500" style="" viewBox="0 0 700 500"><rect x="0" y="0" width="700" height="500" style="fill: rgb(255, 255, 255); fill-opacity: 1;"/><defs id="defs-eb63e9"><g class="clips"><clipPath id="clipeb63e9xyplot" class="plotclip"><rect width="596" height="387"/></clipPath><clipPath class="axesclip" id="clipeb63e9x"><rect x="54" y="0" width="596" height="500"/></clipPath><clipPath class="axesclip" id="clipeb63e9y"><rect x="0" y="60" width="700" height="387"/></clipPath><clipPath class="axesclip" id="clipeb63e9xy"><rect x="54" y="60" width="596" height="387"/></clipPath></g><g class="gradients"/></defs><g class="bglayer"><rect class="bg" x="54" y="60" width="596" height="387" style="fill: rgb(229, 236, 246); fill-opacity: 1; stroke-width: 0;"/></g><g class="layer-below"><g class="imagelayer"/><g class="shapelayer"/></g><g class="cartesianlayer"><g class="subplot xy"><g class="layer-subplot"><g class="shapelayer"/><g class="imagelayer"/></g><g class="gridlayer"><g class="x"><path class="xgrid crisp" transform="translate(217.9,0)" d="M0,60v387" style="stroke: rgb(255, 255, 255); stroke-opacity: 1; stroke-width: 1px;"/><path class="xgrid crisp" transform="translate(366.9,0)" d="M0,60v387" style="stroke: rgb(255, 255, 255); stroke-opacity: 1; stroke-width: 1px;"/><path class="xgrid crisp" transform="translate(515.9,0)" d="M0,60v387" style="stroke: rgb(255, 255, 255); stroke-opacity: 1; stroke-width: 1px;"/></g><g class="y"><path class="ygrid crisp" transform="translate(0,350.25)" d="M54,0h596" style="stroke: rgb(255, 255, 255); stroke-opacity: 1; stroke-width: 1px;"/><path class="ygrid crisp" transform="translate(0,285.75)" d="M54,0h596" style="stroke: rgb(255, 255, 255); stroke-opacity: 1; stroke-width: 1px;"/><path class="ygrid crisp" transform="translate(0,221.25)" d="M54,0h596" style="stroke: rgb(255, 255, 255); stroke-opacity: 1; stroke-width: 1px;"/><path class="ygrid crisp" transform="translate(0,156.75)" d="M54,0h596" style="stroke: rgb(255, 255, 255); stroke-opacity: 1; stroke-width: 1px;"/><path class="ygrid crisp" transform="translate(0,92.25)" d="M54,0h596" style="stroke: rgb(255, 255, 255); stroke-opacity: 1; stroke-width: 1px;"/></g></g><g class="zerolinelayer"><path class="xzl zl crisp" transform="translate(68.9,0)" d="M0,60v387" style="stroke: rgb(255, 255, 255); stroke-opacity: 1; stroke-width: 2px;"/><path class="yzl zl crisp" transform="translate(0,414.75)" d="M54,0h596" style="stroke: rgb(255, 255, 255); stroke-opacity: 1; stroke-width: 2px;"/></g><path class="xlines-below"/><path class="ylines-below"/><g class="overlines-below"/><g class="xaxislayer-below"/><g class="yaxislayer-below"/><g class="overaxes-below"/><g class="plot" transform="translate(54,60)" clip-path="url('#clipeb63e9xyplot')"><g class="scatterlayer mlayer"><g class="trace scatter traceac2d50" style="stroke-miterlimit: 2; opacity: 1;"><g class="fills"/><g class="errorbars"/><g class="lines"><path class="js-line" d="M16.05,-1740.72L17.23,-1762.16L26.62,-1503.34L27.8,-1407.22L41.9,-190.47L43.07,-122.09L46.59,25.17L47.77,32.35L50.12,100.97L51.29,103.72L53.64,131.13L54.82,136.44L57.17,142.36L58.34,140.19L59.52,129.52L60.69,130.73L63.04,175.56L64.22,176.83L66.56,198.88L67.74,199.4L68.91,208.82L70.09,206.1L73.61,221.38L74.79,209.01L75.96,210.17L77.14,203.51L78.31,206.6L79.49,215.79L80.66,220.87L81.84,209.99L83.01,191.53L84.19,209.24L85.36,229.48L86.54,236.76L87.71,251.08L88.88,251.69L92.41,216.67L93.58,220.21L94.76,227.93L95.93,222.52L97.11,219.58L98.28,221.41L99.46,239.58L100.63,245.2L101.81,227.71L102.98,227.88L104.16,230.7L105.33,227.99L106.51,225.75L107.68,237.13L108.86,229.19L110.03,236.49L111.2,244.16L112.38,238.96L113.55,251.98L114.73,238.7L115.9,234.2L117.08,239.98L118.25,249.59L119.43,231.06L120.6,235.77L121.78,251.04L122.95,253.92L124.13,240.86L125.3,227.35L126.48,228.94L127.65,223.57L128.83,230.8L130,230.73L131.18,237.57L132.35,247.31L133.52,249.71L134.7,247.85L135.87,251.63L137.05,244.05L138.22,251.58L140.57,265.15L141.75,272.24L144.1,245.89L145.27,256.38L146.45,258.17L147.62,258.35L148.8,246.94L149.97,260.2L152.32,253.57L153.5,259.27L154.67,254.91L155.85,262.69L157.02,264.26L158.19,272.81L159.37,258.38L160.54,256.08L161.72,262.41L162.89,250.13L164.07,257.72L165.24,258.1L166.42,268.34L167.59,257.21L169.94,249.42L171.12,256.47L172.29,270.35L173.47,274.84L174.64,262.74L175.82,269.92L179.34,264.82L180.51,265.74L181.69,250.58L182.86,255.48L184.04,268.1L185.21,265.31L186.39,253.09L187.56,250.75L189.91,257.56L191.09,266.13L192.26,267.25L193.44,266.78L194.61,271.33L195.79,280.14L196.96,274.99L198.14,277.07L199.31,270.96L200.49,277.29L201.66,274.96L202.83,274.58L204.01,276.2L205.18,268.22L206.36,267.93L207.53,269.21L209.88,270.17L211.06,264.12L212.23,267.14L213.41,273.36L215.76,255.8L216.93,260.78L218.11,268.16L219.28,265.83L220.46,275.66L221.63,268.44L222.81,277.7L223.98,275.61L225.15,279.73L226.33,276.96L227.5,273.74L228.68,279.91L229.85,280.31L231.03,276.9L232.2,279.7L233.38,267.44L234.55,281.87L235.73,278.5L236.9,281.62L238.08,278.93L239.25,280.6L240.43,277.11L241.6,282.4L242.78,274.55L243.95,274.28L245.13,285.44L246.3,273.48L247.47,273.63L248.65,268.78L249.82,282.34L252.17,275.2L253.35,275.9L255.7,276.25L256.87,283.15L258.05,284.2L259.22,288.18L260.4,272.49L261.57,281.49L262.75,276.27L263.92,279.52L265.1,278.74L266.27,280.49L267.45,281.56L268.62,289.66L269.79,288.73L270.97,285.79L272.14,280.53L273.32,282.14L275.67,266.73L276.84,280.96L278.02,281.46L279.19,278.83L281.54,287.88L282.72,282.62L283.89,282.5L285.07,291.84L287.42,284.58L288.59,284.94L289.77,289.28L290.94,284.97L293.29,280.52L294.46,283.35L295.64,276.57L296.81,285.35L297.99,288.92L299.16,283.41L300.34,291.14L301.51,293.71L302.69,289.35L303.86,272.41L305.04,274.9L306.21,287.71L307.39,280.77L308.56,280.11L309.74,288.04L310.91,288.04L312.09,296.32L313.26,295.66L314.43,294.97L315.61,287.79L316.78,285.45L317.96,287.44L320.31,285.95L321.48,289.5L322.66,282.18L323.83,281.87L325.01,282.03L326.18,288.14L327.36,275.22L328.53,285.35L329.71,284.01L330.88,281.24L333.23,289.49L334.41,285.16L335.58,289L336.75,298.9L337.93,302.52L339.1,298.29L340.28,295.14L341.45,280.54L342.63,276.43L343.8,291.45L344.98,292.02L346.15,297.94L347.33,300.11L348.5,291.85L349.68,297.62L350.85,293.17L352.03,292.33L353.2,294.77L354.38,299.49L355.55,299.66L356.73,293.69L357.9,297.76L359.07,298.66L360.25,295.92L361.42,295.02L362.6,297.76L363.77,296.05L364.95,287.85L366.12,294.58L367.3,291.94L368.47,287.19L369.65,287.93L372,301.87L373.17,300.96L376.7,293.8L377.87,292.79L379.05,300.98L380.22,303.73L381.39,298.22L382.57,297.35L384.92,293.18L386.09,293.42L387.27,292.63L388.44,287.64L389.62,286.34L390.79,283.04L393.14,288.2L394.32,293.55L395.49,290.62L396.67,302.71L397.84,291.06L399.02,286.97L400.19,292.44L401.37,288.14L402.54,294.77L403.71,296.05L404.89,293.27L406.06,294.24L408.41,299.81L409.59,298.35L410.76,299.45L411.94,304.17L413.11,304.65L414.29,298.57L415.46,304.13L416.64,301.66L417.81,298.78L418.99,301.7L420.16,295.38L421.34,295.07L422.51,293.59L423.69,293.42L424.86,294.11L426.03,287.91L427.21,290.34L428.38,289.94L429.56,302.56L430.73,301.86L431.91,302.26L433.08,307.04L434.26,307.73L435.43,300.95L436.61,301.62L437.78,292.73L438.96,288.3L440.13,294.28L443.66,308.3L444.83,301.91L446.01,301.91L447.18,303.39L449.53,306.96L450.7,306.99L451.88,300.17L453.05,298.71L455.4,292.43L456.58,300.94L458.93,304.66L460.1,305.93L461.28,303.38L462.45,315.07L463.63,298.71L464.8,301.29L465.98,303.62L467.15,299.96L468.33,298.54L469.5,304.74L471.85,302.27L473.02,302.76L474.2,306.69L475.37,306.48L477.72,305.44L478.9,307.45L480.07,307.79L481.25,300.38L483.6,312.13L484.77,299.26L485.95,297.53L487.12,303.5L488.3,290.27L489.47,293.71L492.99,307.24L494.17,295.99L495.34,304.88L496.52,304.6L497.69,309.08L498.87,305.46L500.04,297.11L501.22,301.28L502.39,297.01L503.57,306.08L504.74,305.76L505.92,303.92L508.27,291.35L509.44,297.32L510.62,300.21L511.79,299.83L512.97,306.98L514.14,304.83L515.31,310.87L516.49,305.16L517.66,306.91L518.84,314.34L521.19,295.93L522.36,301.7L523.54,299.08L524.71,304.8L525.89,302.4L527.06,305.74L528.24,309.39L529.41,306.96L530.59,306.03L531.76,306.96L532.94,310.53L534.11,308.93L537.63,301.08L538.81,305.84L539.98,299.22L541.16,303.04L543.51,305.14L544.68,296.64L545.86,301.77L547.03,297.76L548.21,296.25L549.38,300.99L550.56,298.79L551.73,299.62L554.08,304.32L555.26,308.22L558.78,311.49L559.95,309.91L561.13,311.21L562.3,304.57L563.48,301.9L564.65,302L565.83,299.48L567,299.79L568.18,301.4L569.35,298.53L570.53,303.75L571.7,300.64L574.05,308.38L575.23,308.32L576.4,305.91L577.58,305.72L578.75,307.39L579.93,312.06L581.1,310.58" style="vector-effect: non-scaling-stroke; fill: none; stroke: rgb(99, 110, 250); stroke-opacity: 1; stroke-width: 2px; opacity: 1;"/></g><g class="points"/><g class="text"/></g><g class="trace scatter trace93f1b5" style="stroke-miterlimit: 2; opacity: 1;"><g class="fills"/><g class="errorbars"/><g class="lines"><path class="js-line" d="M16.05,-1737.54L17.23,-1752.58L23.1,-1501.41L24.28,-1383.56L33.68,-145.58L34.86,-86.77L37.21,34.46L38.39,55.6L40.74,108.18L41.91,159.73L43.09,161.85L44.26,160.53L46.61,167.16L47.79,152.21L50.14,185.25L51.32,176.77L52.49,187.41L53.67,189.08L54.84,188.16L56.02,189.62L57.19,188.64L58.37,182.47L59.54,166.32L60.72,168.99L63.07,209.39L64.25,209.47L65.42,221.8L66.6,225.53L67.77,228.17L68.95,234.89L70.12,232.62L71.3,237.42L72.47,241.34L73.65,242.36L74.82,231.78L76,235.46L77.18,226.67L78.35,233.88L80.7,240.77L81.88,230.31L83.05,212.19L84.23,228.67L85.4,246.57L86.58,252.11L87.76,264.28L88.93,264.24L92.46,232.46L93.63,236.47L94.81,246.09L95.98,238.7L97.16,235.34L98.33,235.24L99.51,255.14L100.69,261.24L101.86,243.61L103.04,243.18L104.21,247.01L105.39,246.03L106.56,242.98L107.74,252.37L108.91,246.87L110.09,255.27L111.26,259.4L112.44,254.01L113.62,264.25L114.79,250.99L115.97,246.5L117.14,252.29L118.32,261.57L119.49,243.46L120.67,247.95L121.84,264.33L123.02,266.8L124.19,254.19L125.37,242.27L126.55,244.22L127.72,239.63L128.9,245.07L130.07,244.08L131.25,250.51L133.6,262.62L134.77,260.65L135.95,264.76L137.12,258.76L141.83,283L143,270.8L144.18,259.57L145.35,270.42L146.53,270.92L147.7,270.34L148.88,258.35L150.05,271.19L151.23,269.29L152.41,268.95L153.58,273.38L154.76,269.23L158.28,286.25L159.46,272.33L160.63,268.09L161.81,271.56L162.98,262.44L164.16,270.27L165.34,270.98L166.51,281.46L168.86,266.03L170.04,263.03L171.21,269.9L172.39,284.72L173.56,286.72L174.74,274.06L175.91,280.38L177.09,279.37L178.27,280.26L179.44,278.09L180.62,280L181.79,264.16L182.97,269.15L184.14,280.92L185.32,277.55L186.49,267.14L187.67,264.47L188.84,269.17L190.02,271.14L191.2,278.92L193.55,280.41L194.72,283.92L195.9,291.97L197.07,286.83L198.25,289.93L199.42,283.7L200.6,289.96L201.77,290.07L202.95,290.07L204.13,289.09L205.3,281.87L206.48,281.75L207.65,281.53L208.83,282.8L210,283.98L211.18,279.97L212.35,282.18L213.53,287.37L215.88,271.06L217.06,276.48L218.23,282.19L219.41,280.2L220.58,287.99L221.76,280.52L222.93,289.14L224.11,288.45L225.28,292.18L226.46,288.06L227.63,286.7L228.81,293.88L229.99,294.93L231.16,290.04L232.34,292.1L233.51,283.1L234.69,295.41L235.86,294.69L237.04,295.34L238.21,293.29L239.39,293.86L240.56,288.74L241.74,293.09L242.92,289.87L244.09,288.02L245.27,298.11L246.44,287.87L247.62,289.87L248.79,283.51L249.97,294.22L251.14,291.67L252.32,287.19L255.85,291.95L257.02,297.74L258.2,297.95L259.37,300.75L260.55,292.37L261.72,298.5L262.9,294.74L264.07,297.32L265.25,295.64L266.43,295.6L267.6,296.31L268.78,303.18L269.95,299.69L271.13,299.5L272.3,292.1L273.48,296.38L275.83,284.61L277,295.22L278.18,293.39L279.36,294.63L280.53,296.19L281.71,300.41L282.88,296.07L284.06,295.53L285.23,305.86L286.41,302.31L288.76,300.13L289.93,303.87L291.11,299.9L292.29,299.46L293.46,296.7L294.64,299.91L295.81,295.93L296.99,302.24L298.16,304.11L299.34,300.08L301.69,309.88L302.86,306.17L304.04,292.31L305.22,292.13L306.39,300.24L307.57,295.43L308.74,296.56L309.92,302.84L311.09,304.46L312.27,310.19L313.44,309.78L314.62,311.04L316.97,302.18L318.15,305.49L319.32,303.67L320.5,303.74L321.67,306.69L322.85,301.73L324.02,298.79L325.2,299.14L326.37,303.24L327.55,293.95L328.72,300.24L329.9,300.36L331.08,300.04L332.25,303.63L333.43,306.3L334.6,304.02L335.78,305.41L336.95,312.28L338.13,314.47L339.3,309.87L340.48,309.38L341.65,297.14L342.83,297.13L344.01,309.09L345.18,309.91L346.36,314.96L347.53,315.55L348.71,309.55L349.88,311.95L351.06,308.83L353.41,309.65L354.58,313.61L355.76,311.97L356.94,308.35L358.11,313.52L359.29,312.53L361.64,310.14L362.81,312.96L363.99,311.35L365.16,305.72L366.34,310.43L367.51,308.67L368.69,304.35L369.87,304.59L372.22,314.17L373.39,314.62L374.57,313.54L375.74,313.76L378.09,309.15L379.27,314.31L380.44,318.28L381.62,315.59L382.8,316.92L383.97,315.67L385.15,313.1L386.32,312.39L387.5,312.11L388.67,308.62L389.85,306.31L391.02,306.65L392.2,307.63L393.37,306.36L394.55,309.22L395.73,306.38L396.9,315.03L398.08,309.36L399.25,307.23L400.43,309.36L401.6,305.98L402.78,310.11L403.95,313.77L405.13,310.02L406.3,313.42L407.48,312.86L408.66,317.07L409.83,316.82L411.01,317.53L412.18,320.87L413.36,321.79L414.53,316.33L415.71,319.29L416.88,318.59L418.06,316.55L419.23,317.89L420.41,314.29L421.59,315.56L422.76,314.48L423.94,311.99L425.11,314.81L426.29,311.39L427.46,313.16L428.64,312.33L429.81,320.17L430.99,319.74L432.16,318.86L433.34,321.93L434.52,323.76L435.69,320.28L436.87,321.81L438.04,314.58L439.22,312.11L440.39,316.12L442.74,319.95L443.92,325.35L446.27,319.54L447.45,319.81L449.8,322.58L450.97,323.87L452.15,318.03L453.32,318.3L455.67,312.96L456.85,318.17L460.38,321.05L461.55,318.58L462.73,325.53L463.9,319.45L466.25,321.94L467.43,321.24L468.6,319.31L469.78,322.67L470.96,323.39L472.13,322.89L473.31,322.11L474.48,324.12L475.66,320.97L476.83,320.94L478.01,320.91L479.18,323.74L480.36,324.9L481.53,319.68L483.89,327.15L485.06,319.86L486.24,317.68L487.41,322.46L488.59,316.53L489.76,319.05L490.94,318.51L492.11,320.49L493.29,324.72L494.46,321L495.64,324.49L496.82,325.04L497.99,327.76L499.17,324.09L500.34,320.97L501.52,321.92L502.69,319.68L503.87,325.1L506.22,324.41L507.39,321.82L508.57,317.94L509.75,321.05L510.92,321.91L512.1,320.6L513.27,325.35L514.45,321.98L515.62,325.5L516.8,321.86L517.97,322.64L519.15,326.08L521.5,317.87" style="vector-effect: non-scaling-stroke; fill: none; stroke: rgb(239, 85, 59); stroke-opacity: 1; stroke-width: 2px; opacity: 1;"/></g><g class="points"/><g class="text"/></g><g class="trace scatter trace3a06b1" style="stroke-miterlimit: 2; opacity: 1;"><g class="fills"/><g class="errorbars"/><g class="lines"><path class="js-line" d="M16.05,-1651.45L20.75,-78.18L21.92,28.78L24.27,150.17L25.44,147.83L27.79,209L28.96,216.53L32.49,238.26L33.66,247.6L36.01,227.4L37.18,241.41L39.53,236.61L40.7,242.99L41.88,264.53L43.05,270.65L45.4,257.6L46.57,261.05L47.75,245.61L48.92,256.98L50.1,265.75L51.27,255.75L53.62,259.38L54.79,261.89L55.97,263.08L57.14,254.16L58.31,248.02L59.49,235.39L60.66,236.69L61.84,254.01L63.01,265.68L64.18,269.6L65.36,277.59L66.53,273.36L68.88,279.23L70.06,275.78L71.23,278.43L72.4,277.25L73.58,277.92L74.75,273.68L75.93,279.33L77.1,277.58L79.45,295.63L80.62,294.86L82.97,274.61L84.14,285.39L85.32,294.22L86.49,297.22L87.67,300.57L88.84,299.35L90.01,288.05L91.19,287.92L92.36,279.21L93.54,282.41L94.71,287.28L95.88,279.64L98.23,281.69L99.41,292.39L100.58,298.17L101.75,283.75L102.93,280.41L104.1,284.45L105.28,292.01L106.45,289.56L107.62,297.54L108.8,289.01L111.15,300.41L112.32,297.92L113.49,303.66L114.67,294.8L115.84,297.06L117.02,301.45L118.19,305.27L119.36,294.19L120.54,296.31L121.71,305.59L122.89,301.89L124.06,293.08L125.23,291.54L126.41,293.7L127.58,294.77L128.76,293.74L131.1,289.98L132.28,297.08L133.45,299.37L134.63,303.61L136.97,309.87L138.15,309.37L139.32,312.42L140.5,312.69L141.67,315.66L142.84,310.43L144.02,309.36L145.19,311.58L146.37,310.52L147.54,307.02L148.71,301.63L149.89,309.19L151.06,307.22L152.24,310.57L153.41,309.29L154.58,306.26L158.11,310.49L159.28,305.36L160.45,301.62L161.63,303.83L162.8,299.8L163.98,290.39L166.32,308.79L167.5,312.96L168.67,312.96L169.85,310.76L171.02,313.39L172.19,318.48L173.37,319.33L174.54,315.18L175.72,317.1L176.89,317.07L178.06,248.89L179.24,275.98L181.59,298.83L182.76,304.89L183.93,310.07L185.11,311.39L187.46,313.26L188.63,312.49L189.8,311.31L190.98,317.45L193.33,316.39L194.5,321.4L195.67,323.93L196.85,320.9L198.02,325.61L199.2,325.33L201.54,329.05L202.72,327.92L203.89,328.05L205.07,330.47L206.24,326.55L207.41,325.57L208.59,325.73L209.76,327.37L210.94,323.64L212.11,326.28L213.28,325.96L214.46,322.39L215.63,321.22L216.81,321.75L219.15,324.33L220.33,323.86L221.5,321.19L222.68,323.99L228.55,329.92L229.72,328.8L230.89,326.59L232.07,328.24L233.24,326.6L234.42,330.06L235.59,326.99L236.76,327.46L237.94,325.64L239.11,325.27L241.46,328.44L242.63,327.19L243.81,323.18L244.98,325.32L246.16,322.11L247.33,323.29L249.68,324.81L250.85,323.52L253.2,319.67L254.37,323.53L257.9,330.93L259.07,331.1L260.24,328.38L261.42,328.96L263.77,331.39L264.94,329.23L267.29,330.65L268.46,333.11L270.81,330.02L271.98,327.25L273.16,328.55L274.33,325.44L275.51,323.41L276.68,326.56L279.03,323.07L280.2,325.53L281.38,327.54L282.55,324.79L284.9,332.08L286.07,332.97L287.25,335.59L288.42,333.28L289.59,333.37L290.77,330L291.94,331.73L293.12,331.79L294.29,330.66L295.47,327.51L296.64,331.55L297.81,331.88L298.99,331.64L300.16,330.61L301.34,331.18L302.51,328.81L303.68,328.97L304.86,328.04L307.21,331.42L308.38,326.31L309.55,326.28L310.73,327.49L311.9,331.29L313.08,330.58L314.25,333.32L315.42,333.28L317.77,334.39L318.95,332.37L322.47,329.69L323.64,329.89L325.99,329.53L327.16,327.55L328.34,329.77L329.51,328.98L330.69,327.57L331.86,329.85L333.03,330.88L334.21,330.69L335.38,328.34L336.56,331.96L337.73,333.06L338.9,332.37L340.08,331.14L341.25,332.07L342.43,329L343.6,332.47L347.12,336.76L348.3,334.87L350.64,333.79L351.82,334.45L352.99,336.34L354.17,336.32L355.34,334.37L356.51,334.04L357.69,332.58L358.86,333.6L360.04,334.78L361.21,334.36L363.56,332.44L364.73,333.36L365.91,334.22L367.08,332.07L368.25,331.17L369.43,328.49L372.95,333.49L374.12,336.63L378.82,335.67L379.99,336.94L381.17,336.3L382.34,337.57L383.52,337.15L384.69,335.05L387.04,334.96L388.21,330.01L389.39,328.11L390.56,330.73L392.91,332.22L394.08,326.52L396.43,332.63L397.6,328.97L398.78,330.87L399.95,329.79L401.13,329.64L402.3,331.65" style="vector-effect: non-scaling-stroke; fill: none; stroke: rgb(0, 204, 150); stroke-opacity: 1; stroke-width: 2px; opacity: 1;"/></g><g class="points"/><g class="text"/></g></g></g><g class="overplot"/><path class="xlines-above crisp" d="M0,0" style="fill: none;"/><path class="ylines-above crisp" d="M0,0" style="fill: none;"/><g class="overlines-above"/><g class="xaxislayer-above"><g class="xtick"><text text-anchor="middle" x="0" y="460" transform="translate(68.9,0)" style="font-family: 'Open Sans', verdana, arial, sans-serif; font-size: 12px; fill: rgb(42, 63, 95); fill-opacity: 1; white-space: pre;">0</text></g><g class="xtick"><text text-anchor="middle" x="0" y="460" transform="translate(217.9,0)" style="font-family: 'Open Sans', verdana, arial, sans-serif; font-size: 12px; fill: rgb(42, 63, 95); fill-opacity: 1; white-space: pre;">5</text></g><g class="xtick"><text text-anchor="middle" x="0" y="460" transform="translate(366.9,0)" style="font-family: 'Open Sans', verdana, arial, sans-serif; font-size: 12px; fill: rgb(42, 63, 95); fill-opacity: 1; white-space: pre;">10</text></g><g class="xtick"><text text-anchor="middle" x="0" y="460" transform="translate(515.9,0)" style="font-family: 'Open Sans', verdana, arial, sans-serif; font-size: 12px; fill: rgb(42, 63, 95); fill-opacity: 1; white-space: pre;">15</text></g></g><g class="yaxislayer-above"><g class="ytick"><text text-anchor="end" x="53" y="4.199999999999999" transform="translate(0,414.75)" style="font-family: 'Open Sans', verdana, arial, sans-serif; font-size: 12px; fill: rgb(42, 63, 95); fill-opacity: 1; white-space: pre;">0</text></g><g class="ytick"><text text-anchor="end" x="53" y="4.199999999999999" transform="translate(0,350.25)" style="font-family: 'Open Sans', verdana, arial, sans-serif; font-size: 12px; fill: rgb(42, 63, 95); fill-opacity: 1; white-space: pre;">0.1</text></g><g class="ytick"><text text-anchor="end" x="53" y="4.199999999999999" transform="translate(0,285.75)" style="font-family: 'Open Sans', verdana, arial, sans-serif; font-size: 12px; fill: rgb(42, 63, 95); fill-opacity: 1; white-space: pre;">0.2</text></g><g class="ytick"><text text-anchor="end" x="53" y="4.199999999999999" transform="translate(0,221.25)" style="font-family: 'Open Sans', verdana, arial, sans-serif; font-size: 12px; fill: rgb(42, 63, 95); fill-opacity: 1; white-space: pre;">0.3</text></g><g class="ytick"><text text-anchor="end" x="53" y="4.199999999999999" transform="translate(0,156.75)" style="font-family: 'Open Sans', verdana, arial, sans-serif; font-size: 12px; fill: rgb(42, 63, 95); fill-opacity: 1; white-space: pre;">0.4</text></g><g class="ytick"><text text-anchor="end" x="53" y="4.199999999999999" transform="translate(0,92.25)" style="font-family: 'Open Sans', verdana, arial, sans-serif; font-size: 12px; fill: rgb(42, 63, 95); fill-opacity: 1; white-space: pre;">0.5</text></g></g><g class="overaxes-above"/></g></g><g class="polarlayer"/><g class="ternarylayer"/><g class="geolayer"/><g class="funnelarealayer"/><g class="pielayer"/><g class="treemaplayer"/><g class="sunburstlayer"/><g class="glimages"/><defs id="topdefs-eb63e9"><g class="clips"/><clipPath id="legendeb63e9"><rect width="102" height="67" x="0" y="0"/></clipPath></defs><g class="layer-above"><g class="imagelayer"/><g class="shapelayer"/></g><g class="infolayer"><g class="legend" pointer-events="all" transform="translate(530.8,79.35000000000002)"><rect class="bg" shape-rendering="crispEdges" width="102" height="67" x="0" y="0" style="stroke: rgb(68, 68, 68); stroke-opacity: 1; fill: rgb(255, 255, 255); fill-opacity: 1; stroke-width: 0px;"/><g class="scrollbox" transform="" clip-path="url('#legendeb63e9')"><g class="groups"><g class="traces" transform="translate(0,14.5)" style="opacity: 1;"><text class="legendtext" text-anchor="start" x="40" y="4.680000000000001" style="font-family: 'Open Sans', verdana, arial, sans-serif; font-size: 12px; fill: rgb(42, 63, 95); fill-opacity: 1; white-space: pre;">LoRA SA  </text><g class="layers" style="opacity: 1;"><g class="legendfill"/><g class="legendlines"><path class="js-line" d="M5,0h30" style="fill: none; stroke: rgb(99, 110, 250); stroke-opacity: 1; stroke-width: 2px;"/></g><g class="legendsymbols"><g class="legendpoints"/></g></g><rect class="legendtoggle" x="0" y="-9.5" width="96.03125" height="19" style="fill: rgb(0, 0, 0); fill-opacity: 0;"/></g><g class="traces" transform="translate(0,33.5)" style="opacity: 1;"><text class="legendtext" text-anchor="start" x="40" y="4.680000000000001" style="font-family: 'Open Sans', verdana, arial, sans-serif; font-size: 12px; fill: rgb(42, 63, 95); fill-opacity: 1; white-space: pre;">LoRA AL  </text><g class="layers" style="opacity: 1;"><g class="legendfill"/><g class="legendlines"><path class="js-line" d="M5,0h30" style="fill: none; stroke: rgb(239, 85, 59); stroke-opacity: 1; stroke-width: 2px;"/></g><g class="legendsymbols"><g class="legendpoints"/></g></g><rect class="legendtoggle" x="0" y="-9.5" width="96.03125" height="19" style="fill: rgb(0, 0, 0); fill-opacity: 0;"/></g><g class="traces" transform="translate(0,52.5)" style="opacity: 1;"><text class="legendtext" text-anchor="start" x="40" y="4.680000000000001" style="font-family: 'Open Sans', verdana, arial, sans-serif; font-size: 12px; fill: rgb(42, 63, 95); fill-opacity: 1; white-space: pre;">Full  </text><g class="layers" style="opacity: 1;"><g class="legendfill"/><g class="legendlines"><path class="js-line" d="M5,0h30" style="fill: none; stroke: rgb(0, 204, 150); stroke-opacity: 1; stroke-width: 2px;"/></g><g class="legendsymbols"><g class="legendpoints"/></g></g><rect class="legendtoggle" x="0" y="-9.5" width="96.03125" height="19" style="fill: rgb(0, 0, 0); fill-opacity: 0;"/></g></g></g><rect class="scrollbar" rx="20" ry="3" width="0" height="0" x="0" y="0" style="fill: rgb(128, 139, 164); fill-opacity: 1;"/></g><g class="g-gtitle"/><g class="g-xtitle"><text class="xtitle" x="352" y="487.8" text-anchor="middle" style="font-family: 'Open Sans', verdana, arial, sans-serif; font-size: 14px; fill: rgb(42, 63, 95); opacity: 1; font-weight: normal; white-space: pre;">Epochs</text></g><g class="g-ytitle" transform="translate(1.4873046875,0)"><text class="ytitle" transform="rotate(-90,11.512500000000003,253.5)" x="11.512500000000003" y="253.5" text-anchor="middle" style="font-family: 'Open Sans', verdana, arial, sans-serif; font-size: 14px; fill: rgb(42, 63, 95); opacity: 1; font-weight: normal; white-space: pre;">Training loss</text></g></g></svg>