<svg class="main-svg" xmlns="http://www.w3.org/2000/svg" xmlns:xlink="http://www.w3.org/1999/xlink" width="700" height="500" style="" viewBox="0 0 700 500"><rect x="0" y="0" width="700" height="500" style="fill: rgb(255, 255, 255); fill-opacity: 1;"/><defs id="defs-be7b3d"><g class="clips"><clipPath id="clipbe7b3dxyplot" class="plotclip"><rect width="589" height="387"/></clipPath><clipPath class="axesclip" id="clipbe7b3dx"><rect x="61" y="0" width="589" height="500"/></clipPath><clipPath class="axesclip" id="clipbe7b3dy"><rect x="0" y="60" width="700" height="387"/></clipPath><clipPath class="axesclip" id="clipbe7b3dxy"><rect x="61" y="60" width="589" height="387"/></clipPath></g><g class="gradients"/></defs><g class="bglayer"><rect class="bg" x="61" y="60" width="589" height="387" style="fill: rgb(229, 236, 246); fill-opacity: 1; stroke-width: 0;"/></g><g class="layer-below"><g class="imagelayer"/><g class="shapelayer"/></g><g class="cartesianlayer"><g class="subplot xy"><g class="layer-subplot"><g class="shapelayer"/><g class="imagelayer"/></g><g class="gridlayer"><g class="x"><path class="xgrid crisp" transform="translate(159.17000000000002,0)" d="M0,60v387" style="stroke: rgb(255, 255, 255); stroke-opacity: 1; stroke-width: 1px;"/><path class="xgrid crisp" transform="translate(237.7,0)" d="M0,60v387" style="stroke: rgb(255, 255, 255); stroke-opacity: 1; stroke-width: 1px;"/><path class="xgrid crisp" transform="translate(316.23,0)" d="M0,60v387" style="stroke: rgb(255, 255, 255); stroke-opacity: 1; stroke-width: 1px;"/><path class="xgrid crisp" transform="translate(394.77,0)" d="M0,60v387" style="stroke: rgb(255, 255, 255); stroke-opacity: 1; stroke-width: 1px;"/><path class="xgrid crisp" transform="translate(473.3,0)" d="M0,60v387" style="stroke: rgb(255, 255, 255); stroke-opacity: 1; stroke-width: 1px;"/><path class="xgrid crisp" transform="translate(551.8299999999999,0)" d="M0,60v387" style="stroke: rgb(255, 255, 255); stroke-opacity: 1; stroke-width: 1px;"/><path class="xgrid crisp" transform="translate(630.37,0)" d="M0,60v387" style="stroke: rgb(255, 255, 255); stroke-opacity: 1; stroke-width: 1px;"/></g><g class="y"><path class="ygrid crisp" transform="translate(0,365.53)" d="M61,0h589" style="stroke: rgb(255, 255, 255); stroke-opacity: 1; stroke-width: 1px;"/><path class="ygrid crisp" transform="translate(0,297.63)" d="M61,0h589" style="stroke: rgb(255, 255, 255); stroke-opacity: 1; stroke-width: 1px;"/><path class="ygrid crisp" transform="translate(0,229.74)" d="M61,0h589" style="stroke: rgb(255, 255, 255); stroke-opacity: 1; stroke-width: 1px;"/><path class="ygrid crisp" transform="translate(0,161.84)" d="M61,0h589" style="stroke: rgb(255, 255, 255); stroke-opacity: 1; stroke-width: 1px;"/><path class="ygrid crisp" transform="translate(0,93.95)" d="M61,0h589" style="stroke: rgb(255, 255, 255); stroke-opacity: 1; stroke-width: 1px;"/></g></g><g class="zerolinelayer"><path class="xzl zl crisp" transform="translate(80.63,0)" d="M0,60v387" style="stroke: rgb(255, 255, 255); stroke-opacity: 1; stroke-width: 2px;"/><path class="yzl zl crisp" transform="translate(0,433.42)" d="M61,0h589" style="stroke: rgb(255, 255, 255); stroke-opacity: 1; stroke-width: 2px;"/></g><path class="xlines-below"/><path class="ylines-below"/><g class="overlines-below"/><g class="xaxislayer-below"/><g class="yaxislayer-below"/><g class="overaxes-below"/><g class="plot" transform="translate(61,60)" clip-path="url('#clipbe7b3dxyplot')"><g class="scatterlayer mlayer"><g class="trace scatter trace0bbf5b" style="stroke-miterlimit: 2; opacity: 1;"><g class="fills"/><g class="errorbars"/><g class="lines"><path class="js-line" d="M21.17,-2774.49L28.99,-261.71L30.55,-98.32L32.11,20.8L33.68,51.07L36.8,151.73L38.37,171.39L39.93,172.76L41.5,199.25L43.06,197.1L44.62,201.1L47.75,171.95L49.32,191.82L50.88,192.72L52.44,203.25L54.01,203.66L55.57,231.77L57.13,240.28L58.7,231.34L60.26,221.38L61.83,224.77L63.39,210.57L64.95,225.31L66.52,235.12L68.08,215.67L69.65,213.74L71.21,222.85L72.77,221.83L74.34,223.39L75.9,222.11L77.46,217.97L79.03,187.99L80.59,187.25L85.28,233.42L86.85,247.27L89.98,235.21L91.54,243.28L93.1,237.09L94.67,241.18L96.23,242.23L97.79,245.41L99.36,240.17L100.92,249.72L104.05,269.35L105.61,279.59L107.18,275.23L108.74,262.9L110.31,251.08L111.87,262.16L113.43,272.72L115,267.93L116.56,274.17L118.12,275.62L119.69,267.07L121.25,266.66L122.82,253.09L124.38,255.51L125.94,266.64L127.51,252.1L129.07,253.3L130.64,248.12L133.76,271.91L135.33,263.08L136.89,250.04L138.46,253.42L140.02,267.79L141.58,261.47L143.15,279.27L144.71,256.49L146.27,271.84L147.84,270.53L149.4,272.02L150.97,279.22L152.53,283.7L154.09,281.2L155.66,280.06L157.22,285.74L158.79,266.65L160.35,268.04L161.91,280.9L163.48,266.56L165.04,258.75L166.6,265.33L168.17,271.71L169.73,267.64L171.3,260.2L172.86,267.06L174.42,253.1L175.99,263.2L177.55,263.25L179.12,273.17L182.24,287.27L183.81,282.97L185.37,287.44L186.93,286.85L188.5,288.4L190.06,280.11L193.19,288.62L194.75,283.77L196.32,276.86L197.88,264.51L199.45,280.85L201.01,273.8L202.57,278.97L204.14,278.61L205.7,275.05L207.26,281.17L208.83,281.3L210.39,279.45L213.52,268.11L215.08,273.09L218.21,248.4L219.78,264.95L221.34,274.18L222.9,277.32L224.47,286.91L226.03,279.81L227.59,282.81L229.16,292.86L230.72,297.82L232.29,293.5L233.85,291.89L235.41,288.91L236.98,279.93L238.54,286.5L240.11,287.68L241.67,282.08L243.23,279.92L244.8,281.66L246.36,287.39L247.92,280.96L249.49,286.22L251.05,281.18L252.62,270.95L254.18,284.33L255.74,270.1L257.31,272.74L258.87,292.21L260.44,293.85L262,301.65L263.56,304.54L265.13,304.18L266.69,307.89L268.26,314.08L269.82,312.46L271.38,303.55L272.95,308.04L276.07,299.54L277.64,299.67L279.2,303.84L280.77,299.57L282.33,302.45L283.89,307.62L285.46,298.44L287.02,295.99L288.59,292.18L290.15,292.17L291.71,293.84L293.28,303.2L294.84,291.05L296.4,296.12L297.97,301.57L299.53,291.12L301.1,300.7L302.66,294.29L304.22,297.63L305.79,308.5L307.35,302.77L308.92,308.09L310.48,304.67L312.04,310.26L313.61,306.77L315.17,311.14L316.73,307.12L318.3,305.78L319.86,307.27L321.43,310.14L322.99,310.53L324.55,304.51L326.12,307.67L327.68,301.27L329.25,303.1L330.81,301.53L332.37,301.31L333.94,302.48L335.5,296.98L337.06,296.79L341.76,319.52L343.32,320.36L344.88,321.34L346.45,318.07L349.58,317.01L351.14,321.55L352.7,315.8L354.27,317.61L355.83,315.72L357.39,322.23L358.96,317.79L360.52,316.38L362.09,310.35L363.65,317.01L365.21,309.16L366.78,306.96L368.34,314.46L369.91,308.52L371.47,303.6L373.03,308.06" style="vector-effect: non-scaling-stroke; fill: none; stroke: rgb(99, 110, 250); stroke-opacity: 1; stroke-width: 2px; opacity: 1;"/></g><g class="points"/><g class="text"/></g><g class="trace scatter trace4110a9" style="stroke-miterlimit: 2; opacity: 1;"><g class="fills"/><g class="errorbars"/><g class="lines"><path class="js-line" d="M21.15,-2168.84L27.33,-223.86L28.88,-116.86L31.97,52.96L33.52,68.87L35.06,118.29L36.61,138.44L38.16,144.26L39.7,155.9L42.79,186.94L44.34,172.48L45.89,171.01L47.43,193.08L48.98,188.99L50.52,188.59L52.07,199.93L53.62,185.83L55.16,204.51L56.71,192.09L58.25,199.12L59.8,200.95L61.35,210.89L62.89,209.81L64.44,208.36L65.98,217.24L67.53,200.27L69.08,211.87L70.62,214.38L72.17,203.87L75.26,228.34L76.81,206.25L81.44,218.05L82.99,241.7L84.54,244.87L86.08,239.37L89.17,220.56L90.72,220.82L92.27,235.15L93.81,232.26L95.36,234.59L96.91,229.87L98.45,245.95L100,252.71L103.09,270.86L104.64,251.18L106.18,241.2L107.73,244.64L109.27,223.34L110.82,233.1L112.37,239.8L113.91,242.68L115.46,244.57L117,253.66L118.55,273.87L120.1,265.3L121.64,257.92L123.19,257.52L124.73,257.49L126.28,250.63L127.83,252.83L129.37,257.17L130.92,259.05L132.46,255.59L134.01,266.9L135.56,243.57L137.1,262.69L138.65,268.01L140.19,272.66L141.74,286.85L144.83,269.28L146.38,272.24L147.92,272.32L149.47,268.86L151.02,275.43L152.56,270.36L154.11,276.19L155.66,269.52L157.2,271.4L158.75,275.52L161.84,266.72L163.39,272.51L166.48,268.04L168.02,263.05L169.57,261.45L171.12,272.44L172.66,267.95L174.21,258.1L175.75,259.82L177.3,270.62L178.85,279.58L180.39,275.6L181.94,276.53L183.48,291.2L185.03,287.96L186.58,299.27L189.67,294.44L191.21,296.49L194.31,296L195.85,292.01L197.4,287.87L198.94,294.21L200.49,287.74L202.04,292.82L205.13,273.1L206.67,286.72L208.22,290.21L209.77,276.03L211.31,276.52L212.86,284.44L214.41,290.92L215.95,284.06L217.5,289.73L219.04,291.08L220.59,296.33L222.14,296.3L223.68,304.82L225.23,298.54L226.77,293.17L228.32,300.31L231.41,293.38L232.96,296.05L234.5,304.82L236.05,302.17L239.14,299.78L240.69,294.7L242.23,297.05L243.78,295.58L245.33,297.59L246.87,295.59L248.42,301.51L249.96,297.18L251.51,297.79L253.06,289.54L254.6,301.29L256.15,305.44L257.69,314.38L259.24,302.26L260.79,300.27L262.33,305.3L263.88,305.59L265.42,307.62L268.52,308.62L270.06,313.1L271.61,316.14L273.16,313.38L274.7,306.59L276.25,304.22L279.34,309.57L280.89,309.3L282.43,312.61L283.98,312.86L285.52,300.98L287.07,302.36L288.62,303.98L290.16,298.68L291.71,294.1L293.25,304.69L296.35,313.22L297.89,316.47L299.44,305.94L300.98,312.19L302.53,309.21L304.08,315.02L305.62,323.62L307.17,320.75L308.71,321.75L310.26,317.49L311.81,317.36L313.35,313.32L316.44,305.14L317.99,306.15L319.54,303.66L321.08,303.44L322.63,296.98L324.17,306.47L325.72,305.85L327.27,312.14L328.81,306.92L330.36,308.29L331.91,306.47L333.45,313.87L335,311.39L336.54,314.35L338.09,320.51L339.64,318.33L344.27,318.16L345.82,321.66L347.37,322.78L348.91,318.84L350.46,317.24L352,305.8L353.55,308.91L355.1,315.38L356.64,322.48L358.19,322.32L359.73,312.17L361.28,314.02L362.83,314.33L364.37,311.42L365.92,308.44L367.46,311.26L370.56,313.67L372.1,313.52L373.65,319.7L375.19,321.36L376.74,321.01L378.29,322.31L379.83,323.45L381.38,319.17L382.92,323.93L384.47,315.46L387.56,321.33L389.11,326.19L390.66,324.46L392.2,319.1L393.75,318.29L395.29,320.34L396.84,322.82L398.39,316.53L401.48,317.88L403.02,320.71L406.12,321.49L407.66,323.03L410.75,310.24L412.3,313.78" style="vector-effect: non-scaling-stroke; fill: none; stroke: rgb(239, 85, 59); stroke-opacity: 1; stroke-width: 2px; opacity: 1;"/></g><g class="points"/><g class="text"/></g><g class="trace scatter traceaa58b5" style="stroke-miterlimit: 2; opacity: 1;"><g class="fills"/><g class="errorbars"/><g class="lines"><path class="js-line" d="M21.15,-2778.68L30.45,-281.01L32,-156.57L35.1,-0.49L36.65,43.4L39.75,76.54L41.3,67.19L44.4,129.16L45.95,146.24L47.5,145.96L49.05,160.32L50.6,165.2L52.15,155.59L53.7,153.25L55.25,167.04L56.8,171.7L58.35,187.61L59.9,213.15L61.46,205.18L63.01,219.94L64.56,185.89L67.66,155.99L69.21,181.17L70.76,198.44L72.31,179.32L73.86,182.32L75.41,191.21L76.96,196.21L78.51,190.62L81.61,204.69L83.16,198.04L86.26,214.88L87.81,202.19L89.36,216.28L90.91,218.48L94.01,157.7L95.56,188.63L100.21,225.11L101.76,230.84L103.31,219.86L104.86,221.02L106.41,213.83L107.96,229.49L109.51,226.73L111.06,238.9L112.61,236.5L114.16,231.57L115.71,220.36L117.26,231.88L121.91,235.32L123.46,201.38L125.01,203.84L126.56,223.29L128.11,223.51L129.66,225.01L131.21,242.96L132.76,251.75L135.86,228.34L137.41,227.02L138.96,222.49L140.51,222.6L142.06,228.6L143.61,240.29L145.16,252.17L146.71,233.87L148.26,224.87L149.81,224.86L151.36,221.1L152.91,225.53L154.46,235.21L156.01,254.18L157.56,239.58L159.11,263.78L160.66,268.13L162.21,263.84L163.76,267.41L165.31,258.47L166.86,273.59L168.41,262.64L169.96,252.25L171.51,253.99L173.06,241.07L174.61,238.88L177.71,260.29L179.26,262.48L180.81,261.05L182.36,269.29L183.91,256.7L185.46,257.76L187.01,264.51L188.56,283.76L190.11,281.94L191.66,266.41L196.31,278.6L197.86,279.32L199.41,285.52L200.96,262.81L202.51,276.07L204.06,275.77L205.61,269.86L207.16,269.74L210.26,286.76L211.81,282.86L213.37,280.48L214.92,264.72L216.47,283.84L218.02,288.43L221.12,273.84L222.67,271.83L224.22,283.75L225.77,283.44L227.32,289.2L228.87,286.44L230.42,297.54L231.97,288.43L233.52,285.4L235.07,288.24L236.62,275.87L238.17,270.44L239.72,277.26L241.27,288.21L242.82,280.15L244.37,282.94L245.92,285.7L247.47,281.43L249.02,281.57L250.57,278.48L252.12,277.27L253.67,284.33L255.22,280.02L256.77,289.99L258.32,290.03L259.87,278.97L261.42,275.03L262.97,284.02L264.52,284.24L266.07,298.35L267.62,296.53L269.17,286.94L270.72,297.84L272.27,289.4L273.82,289.11L275.37,279.07L276.92,278.54L278.47,279.73L280.02,274.97L281.57,279.65L283.12,276.83L284.67,278.02L286.22,282.25L287.77,276.05L289.32,285.65L290.87,286.13L292.42,294.95L293.97,291.52L295.52,284.36L297.07,288.03L298.62,287.19L300.17,285.34L301.72,270.97L303.27,287.35L306.37,294.05L307.92,295.47L309.47,304.53L311.02,304.8L312.57,312.47L314.12,301.65L315.67,291.5L317.22,286.94L318.77,301.46L320.32,291.78L323.42,299.96L324.97,296.13L326.52,295.6L328.07,296.05L329.62,291.21L331.17,294.33L332.72,300.29L334.27,301.15L335.82,298.01L337.37,287.44L338.92,298.31L340.47,297.8L343.57,284.18L345.12,287.04L349.77,299.16L351.32,307.75L354.42,299.87L355.97,292.74L357.52,296.67L359.07,297.36L360.62,293.01L362.17,293.27L363.72,296.57L365.28,294.02L368.38,287.39L369.93,274.38L371.48,271.15L373.03,285.89L374.58,283.93L376.13,294.92L377.68,295.87L379.23,303.3L380.78,295.71L382.33,303.52L383.88,295.54L385.43,299.11L386.98,297.66L388.53,303.66L390.08,303.41L391.63,307.71L393.18,304.09L394.73,297.25L396.28,294.27L397.83,293.83L399.38,291.55L400.93,300.03L402.48,305.98L404.03,308.92L407.13,294.61L408.68,303.36L410.23,306.93L411.78,302.02L413.33,285.17L414.88,293.15L417.98,303.32L419.53,288.09L422.63,300.82L424.18,313.41L425.73,307.51L427.28,306.67L428.83,303.06L430.38,302.74L431.93,307.76L433.48,305.87L435.03,310.82L436.58,308.21L438.13,294.97L439.68,302.3L441.23,301.77L442.78,304.94L444.33,306.24L445.88,299.33L447.43,295.69L448.98,305.02L450.53,308.81L452.08,297.74L453.63,305.32L455.18,304.38L456.73,309.99L458.28,310.91L459.83,312.15L461.38,308.84L462.93,314.04L464.48,316.07L466.03,316.8L467.58,314.37L469.13,303.38L470.68,303.69L472.23,299.46L473.78,291.33L476.88,310.23L478.43,307.47L479.98,300.22L481.53,303.32L483.08,301.83L484.63,308.55L486.18,306.08L487.73,300.9L489.28,309.17L490.83,306.85" style="vector-effect: non-scaling-stroke; fill: none; stroke: rgb(0, 204, 150); stroke-opacity: 1; stroke-width: 2px; opacity: 1;"/></g><g class="points"/><g class="text"/></g><g class="trace scatter trace0385cc" style="stroke-miterlimit: 2; opacity: 1;"><g class="fills"/><g class="errorbars"/><g class="lines"><path class="js-line" d="M21.15,-3000.28L36.64,-171.14L38.19,-70.92L41.28,5.33L42.83,37.71L44.38,30.98L45.93,41.16L47.48,43.67L49.03,68L50.57,84.93L52.12,90.1L53.67,80.65L55.22,129.98L56.77,135.64L58.32,137.66L59.87,150.51L61.42,144.88L62.96,129.06L64.51,170.18L66.06,140.82L67.61,167.08L69.16,147.36L70.71,157.66L72.26,187.56L73.8,162.91L75.35,181.57L76.9,171.39L78.45,161.39L80,164.87L81.55,175.29L83.1,171.29L86.19,192.46L87.74,185.23L89.29,199.14L90.84,186.22L92.39,199.7L93.94,198.97L95.49,190.81L97.03,194.88L98.58,197.31L100.13,212.61L103.23,184.73L104.78,191.5L106.33,187.88L107.87,215.12L109.42,218.39L110.97,207.34L112.52,188.04L114.07,200.89L117.17,216.93L118.71,217.95L120.26,210.92L121.81,218.32L123.36,229.27L124.91,221.79L126.46,189.81L128.01,185.5L129.56,171.05L131.1,174.23L134.2,226.73L135.75,217.34L137.3,218.19L138.85,222.17L140.4,221.16L141.94,232.91L143.49,228.98L145.04,229.99L146.59,215.78L148.14,229.92L151.24,234.01L152.78,238.19L155.88,216.1L157.43,224.63L158.98,198.41L160.53,210.66L162.08,224.55L163.63,221.08L165.17,224.98L166.72,233.44L168.27,234.66L169.82,237.88L171.37,229.38L172.92,234.44L174.47,234.72L176.01,236L177.56,244.6L179.11,227.81L180.66,214.43L182.21,241.41L183.76,234.97L185.31,240.37L188.4,253.67L189.95,230.86L191.5,249.38L193.05,236.56L194.6,229.09L196.15,229.11L197.7,231.13L199.24,237L200.79,255.03L202.34,257.73L203.89,242.34L205.44,248.68L206.99,266.54L208.54,244.26L210.08,240.18L211.63,244.57L213.18,261.34L214.73,246.75L216.28,266.53L217.83,255.63L220.92,244.17L222.47,251.79L224.02,265.26L225.57,249.93L227.12,262.48L228.67,247.87L230.22,242.36L231.76,256.42L233.31,235.28L234.86,197.73L236.41,216.82L237.96,248.1L239.51,254.4L241.06,247.21L242.61,256L244.15,270.12L245.7,256.58L247.25,252.21L248.8,247.71L250.35,251.22L251.9,228.88L253.45,236.17L256.54,269.82L258.09,252.5L259.64,237.6L261.19,249.34L262.74,258.41L264.29,257.9L265.83,264.08L267.38,252.59L270.48,260.55L272.03,247.95L273.58,246.19L275.13,247.61L276.68,265.69L278.22,260.21L279.77,268.19L281.32,260.41L282.87,253.69L284.42,243.02L285.97,252.36L287.52,251.14L290.61,267.04L292.16,261.12L293.71,269.2L295.26,250.16L296.81,246.43L298.36,263.77L299.9,260.77L301.45,253.19L303,248.91L304.55,264.41L306.1,261.66L307.65,275.82L309.2,284.04L310.75,286.69L312.29,288.25L313.84,285.72L315.39,287.47L316.94,279.94L318.49,273.23L320.04,241.45L323.13,269.27L324.68,260.05L326.23,250.04L327.78,268.19L329.33,264.31L330.88,273.91L332.43,273.78L333.97,278.92L335.52,279.06L337.07,290.16L338.62,273.16L340.17,282.53L341.72,272.11L343.27,271.66L344.82,275.69L346.36,275.69L347.91,276.07L349.46,278.28L352.56,268.82L354.11,259.95L355.66,257.35L357.2,248.48L358.75,248.83L360.3,258.69L361.85,261.97L363.4,261.63L364.95,265.24L366.5,266.46L368.04,271.24L369.59,256.25L371.14,270.79L372.69,270.28L374.24,258.22L375.79,267.22L378.88,273.12L380.43,261.27L383.53,267.74L385.08,254.88L386.63,253.82L388.18,267.36L389.73,270.73L391.27,266.21L392.82,268.89L394.37,273.85L395.92,261.81L397.47,272.05L400.57,267.16L402.11,268.49L403.66,264.17L405.21,268.31L408.31,251.99L409.86,257.07L411.41,258.33L412.95,219.49L414.5,248.99L416.05,259.68L417.6,263.07L419.15,273.79L422.25,250.82L423.8,254.24L425.34,266.48L426.89,270.36L428.44,276.68L429.99,277.98L431.54,280.73L433.09,270.59L434.64,270.21L436.18,268.78L437.73,268.23L439.28,261.96L440.83,267.82L442.38,282.5L443.93,284.45L445.48,284.23L447.02,275.44L448.57,259.63L450.12,270.05L451.67,262.26L453.22,273.13L454.77,260.28L457.87,281.72L459.41,263.58L460.96,272.22L462.51,287.19L465.61,289.56L467.16,287.49L468.71,281.62L470.25,288.82L471.8,298.52L473.35,290.2L474.9,291.4L476.45,283.18L478,287.14L479.55,280.61L481.09,276.55L482.64,288.26L484.19,278.63L485.74,263.08L488.84,276.24L490.39,274.17L491.94,280.28L493.48,273.87L495.03,279.34L496.58,280.98L498.13,284.64L499.68,294.07L502.78,280.99L504.32,288.94L505.87,298.88L507.42,297.02L508.97,284.83L510.52,282.97L512.07,276.05L513.62,277.81L515.16,263.72L516.71,278.53L518.26,278.33L519.81,261.99L521.36,256.77L522.91,266.41L524.46,270.86L526,270.07L529.1,281.29L530.65,281.29L532.2,277.61L533.75,277.55L535.3,272.41L536.85,285.92L538.39,292.77L539.94,296.16L541.49,269.4L543.04,277.06L544.59,285.29L546.14,287.36L547.69,283.21L549.23,272.14L550.78,279.66L552.33,273.91L553.88,271.02L555.43,283.9L556.98,277.11L558.53,289.95L560.07,279.41L561.62,275.54L563.17,280.12L564.72,275.41L566.27,279.16L567.82,288.75L569.37,281.86" style="vector-effect: non-scaling-stroke; fill: none; stroke: rgb(171, 99, 250); stroke-opacity: 1; stroke-width: 2px; opacity: 1;"/></g><g class="points"/><g class="text"/></g></g></g><g class="overplot"/><path class="xlines-above crisp" d="M0,0" style="fill: none;"/><path class="ylines-above crisp" d="M0,0" style="fill: none;"/><g class="overlines-above"/><g class="xaxislayer-above"><g class="xtick"><text text-anchor="middle" x="0" y="460" transform="translate(80.63,0)" style="font-family: 'Open Sans', verdana, arial, sans-serif; font-size: 12px; fill: rgb(42, 63, 95); fill-opacity: 1; white-space: pre;">0</text></g><g class="xtick"><text text-anchor="middle" x="0" y="460" transform="translate(159.17000000000002,0)" style="font-family: 'Open Sans', verdana, arial, sans-serif; font-size: 12px; fill: rgb(42, 63, 95); fill-opacity: 1; white-space: pre;">2</text></g><g class="xtick"><text text-anchor="middle" x="0" y="460" transform="translate(237.7,0)" style="font-family: 'Open Sans', verdana, arial, sans-serif; font-size: 12px; fill: rgb(42, 63, 95); fill-opacity: 1; white-space: pre;">4</text></g><g class="xtick"><text text-anchor="middle" x="0" y="460" transform="translate(316.23,0)" style="font-family: 'Open Sans', verdana, arial, sans-serif; font-size: 12px; fill: rgb(42, 63, 95); fill-opacity: 1; white-space: pre;">6</text></g><g class="xtick"><text text-anchor="middle" x="0" y="460" transform="translate(394.77,0)" style="font-family: 'Open Sans', verdana, arial, sans-serif; font-size: 12px; fill: rgb(42, 63, 95); fill-opacity: 1; white-space: pre;">8</text></g><g class="xtick"><text text-anchor="middle" x="0" y="460" transform="translate(473.3,0)" style="font-family: 'Open Sans', verdana, arial, sans-serif; font-size: 12px; fill: rgb(42, 63, 95); fill-opacity: 1; white-space: pre;">10</text></g><g class="xtick"><text text-anchor="middle" x="0" y="460" transform="translate(551.8299999999999,0)" style="font-family: 'Open Sans', verdana, arial, sans-serif; font-size: 12px; fill: rgb(42, 63, 95); fill-opacity: 1; white-space: pre;">12</text></g><g class="xtick"><text text-anchor="middle" x="0" y="460" transform="translate(630.37,0)" style="font-family: 'Open Sans', verdana, arial, sans-serif; font-size: 12px; fill: rgb(42, 63, 95); fill-opacity: 1; white-space: pre;">14</text></g></g><g class="yaxislayer-above"><g class="ytick"><text text-anchor="end" x="60" y="4.199999999999999" transform="translate(0,433.42)" style="font-family: 'Open Sans', verdana, arial, sans-serif; font-size: 12px; fill: rgb(42, 63, 95); fill-opacity: 1; white-space: pre;">0</text></g><g class="ytick"><text text-anchor="end" x="60" y="4.199999999999999" transform="translate(0,365.53)" style="font-family: 'Open Sans', verdana, arial, sans-serif; font-size: 12px; fill: rgb(42, 63, 95); fill-opacity: 1; white-space: pre;">0.05</text></g><g class="ytick"><text text-anchor="end" x="60" y="4.199999999999999" transform="translate(0,297.63)" style="font-family: 'Open Sans', verdana, arial, sans-serif; font-size: 12px; fill: rgb(42, 63, 95); fill-opacity: 1; white-space: pre;">0.1</text></g><g class="ytick"><text text-anchor="end" x="60" y="4.199999999999999" transform="translate(0,229.74)" style="font-family: 'Open Sans', verdana, arial, sans-serif; font-size: 12px; fill: rgb(42, 63, 95); fill-opacity: 1; white-space: pre;">0.15</text></g><g class="ytick"><text text-anchor="end" x="60" y="4.199999999999999" transform="translate(0,161.84)" style="font-family: 'Open Sans', verdana, arial, sans-serif; font-size: 12px; fill: rgb(42, 63, 95); fill-opacity: 1; white-space: pre;">0.2</text></g><g class="ytick"><text text-anchor="end" x="60" y="4.199999999999999" transform="translate(0,93.95)" style="font-family: 'Open Sans', verdana, arial, sans-serif; font-size: 12px; fill: rgb(42, 63, 95); fill-opacity: 1; white-space: pre;">0.25</text></g></g><g class="overaxes-above"/></g></g><g class="polarlayer"/><g class="ternarylayer"/><g class="geolayer"/><g class="funnelarealayer"/><g class="pielayer"/><g class="treemaplayer"/><g class="sunburstlayer"/><g class="glimages"/><defs id="topdefs-be7b3d"><g class="clips"/><clipPath id="legendbe7b3d"><rect width="99" height="86" x="0" y="0"/></clipPath></defs><g class="layer-above"><g class="imagelayer"/><g class="shapelayer"/></g><g class="infolayer"><g class="legend" pointer-events="all" transform="translate(532.2,79.35000000000002)"><rect class="bg" shape-rendering="crispEdges" width="99" height="86" x="0" y="0" style="stroke: rgb(68, 68, 68); stroke-opacity: 1; fill: rgb(255, 255, 255); fill-opacity: 1; stroke-width: 0px;"/><g class="scrollbox" transform="" clip-path="url('#legendbe7b3d')"><g class="groups"><g class="traces" transform="translate(0,14.5)" style="opacity: 1;"><text class="legendtext" text-anchor="start" x="40" y="4.680000000000001" style="font-family: 'Open Sans', verdana, arial, sans-serif; font-size: 12px; fill: rgb(42, 63, 95); fill-opacity: 1; white-space: pre;">LR=1e-4  </text><g class="layers" style="opacity: 1;"><g class="legendfill"/><g class="legendlines"><path class="js-line" d="M5,0h30" style="fill: none; stroke: rgb(99, 110, 250); stroke-opacity: 1; stroke-width: 2px;"/></g><g class="legendsymbols"><g class="legendpoints"/></g></g><rect class="legendtoggle" x="0" y="-9.5" width="93.046875" height="19" style="fill: rgb(0, 0, 0); fill-opacity: 0;"/></g><g class="traces" transform="translate(0,33.5)" style="opacity: 1;"><text class="legendtext" text-anchor="start" x="40" y="4.680000000000001" style="font-family: 'Open Sans', verdana, arial, sans-serif; font-size: 12px; fill: rgb(42, 63, 95); fill-opacity: 1; white-space: pre;">LR=1e-5  </text><g class="layers" style="opacity: 1;"><g class="legendfill"/><g class="legendlines"><path class="js-line" d="M5,0h30" style="fill: none; stroke: rgb(239, 85, 59); stroke-opacity: 1; stroke-width: 2px;"/></g><g class="legendsymbols"><g class="legendpoints"/></g></g><rect class="legendtoggle" x="0" y="-9.5" width="93.046875" height="19" style="fill: rgb(0, 0, 0); fill-opacity: 0;"/></g><g class="traces" transform="translate(0,52.5)" style="opacity: 1;"><text class="legendtext" text-anchor="start" x="40" y="4.680000000000001" style="font-family: 'Open Sans', verdana, arial, sans-serif; font-size: 12px; fill: rgb(42, 63, 95); fill-opacity: 1; white-space: pre;">LR=5e-6  </text><g class="layers" style="opacity: 1;"><g class="legendfill"/><g class="legendlines"><path class="js-line" d="M5,0h30" style="fill: none; stroke: rgb(0, 204, 150); stroke-opacity: 1; stroke-width: 2px;"/></g><g class="legendsymbols"><g class="legendpoints"/></g></g><rect class="legendtoggle" x="0" y="-9.5" width="93.046875" height="19" style="fill: rgb(0, 0, 0); fill-opacity: 0;"/></g><g class="traces" transform="translate(0,71.5)" style="opacity: 1;"><text class="legendtext" text-anchor="start" x="40" y="4.680000000000001" style="font-family: 'Open Sans', verdana, arial, sans-serif; font-size: 12px; fill: rgb(42, 63, 95); fill-opacity: 1; white-space: pre;">LR=2e-6  </text><g class="layers" style="opacity: 1;"><g class="legendfill"/><g class="legendlines"><path class="js-line" d="M5,0h30" style="fill: none; stroke: rgb(171, 99, 250); stroke-opacity: 1; stroke-width: 2px;"/></g><g class="legendsymbols"><g class="legendpoints"/></g></g><rect class="legendtoggle" x="0" y="-9.5" width="93.046875" height="19" style="fill: rgb(0, 0, 0); fill-opacity: 0;"/></g></g></g><rect class="scrollbar" rx="20" ry="3" width="0" height="0" x="0" y="0" style="fill: rgb(128, 139, 164); fill-opacity: 1;"/></g><g class="g-gtitle"/><g class="g-xtitle"><text class="xtitle" x="355.5" y="487.8" text-anchor="middle" style="font-family: 'Open Sans', verdana, arial, sans-serif; font-size: 14px; fill: rgb(42, 63, 95); opacity: 1; font-weight: normal; white-space: pre;">Epochs</text></g><g class="g-ytitle" transform="translate(1.1591796875,0)"><text class="ytitle" transform="rotate(-90,11.840625000000003,253.5)" x="11.840625000000003" y="253.5" text-anchor="middle" style="font-family: 'Open Sans', verdana, arial, sans-serif; font-size: 14px; fill: rgb(42, 63, 95); opacity: 1; font-weight: normal; white-space: pre;">Training loss</text></g></g></svg>