<svg class="main-svg" xmlns="http://www.w3.org/2000/svg" xmlns:xlink="http://www.w3.org/1999/xlink" width="700" height="500" style="" viewBox="0 0 700 500"><rect x="0" y="0" width="700" height="500" style="fill: rgb(255, 255, 255); fill-opacity: 1;"/><defs id="defs-cc3e19"><g class="clips"><clipPath id="clipcc3e19xyplot" class="plotclip"><rect width="589" height="387"/></clipPath><clipPath class="axesclip" id="clipcc3e19x"><rect x="61" y="0" width="589" height="500"/></clipPath><clipPath class="axesclip" id="clipcc3e19y"><rect x="0" y="60" width="700" height="387"/></clipPath><clipPath class="axesclip" id="clipcc3e19xy"><rect x="61" y="60" width="589" height="387"/></clipPath></g><g class="gradients"/></defs><g class="bglayer"><rect class="bg" x="61" y="60" width="589" height="387" style="fill: rgb(229, 236, 246); fill-opacity: 1; stroke-width: 0;"/></g><g class="layer-below"><g class="imagelayer"/><g class="shapelayer"/></g><g class="cartesianlayer"><g class="subplot xy"><g class="layer-subplot"><g class="shapelayer"/><g class="imagelayer"/></g><g class="gridlayer"><g class="x"><path class="xgrid crisp" transform="translate(159.17000000000002,0)" d="M0,60v387" style="stroke: rgb(255, 255, 255); stroke-opacity: 1; stroke-width: 1px;"/><path class="xgrid crisp" transform="translate(237.7,0)" d="M0,60v387" style="stroke: rgb(255, 255, 255); stroke-opacity: 1; stroke-width: 1px;"/><path class="xgrid crisp" transform="translate(316.23,0)" d="M0,60v387" style="stroke: rgb(255, 255, 255); stroke-opacity: 1; stroke-width: 1px;"/><path class="xgrid crisp" transform="translate(394.77,0)" d="M0,60v387" style="stroke: rgb(255, 255, 255); stroke-opacity: 1; stroke-width: 1px;"/><path class="xgrid crisp" transform="translate(473.3,0)" d="M0,60v387" style="stroke: rgb(255, 255, 255); stroke-opacity: 1; stroke-width: 1px;"/><path class="xgrid crisp" transform="translate(551.8299999999999,0)" d="M0,60v387" style="stroke: rgb(255, 255, 255); stroke-opacity: 1; stroke-width: 1px;"/><path class="xgrid crisp" transform="translate(630.37,0)" d="M0,60v387" style="stroke: rgb(255, 255, 255); stroke-opacity: 1; stroke-width: 1px;"/></g><g class="y"><path class="ygrid crisp" transform="translate(0,365.53)" d="M61,0h589" style="stroke: rgb(255, 255, 255); stroke-opacity: 1; stroke-width: 1px;"/><path class="ygrid crisp" transform="translate(0,297.63)" d="M61,0h589" style="stroke: rgb(255, 255, 255); stroke-opacity: 1; stroke-width: 1px;"/><path class="ygrid crisp" transform="translate(0,229.74)" d="M61,0h589" style="stroke: rgb(255, 255, 255); stroke-opacity: 1; stroke-width: 1px;"/><path class="ygrid crisp" transform="translate(0,161.84)" d="M61,0h589" style="stroke: rgb(255, 255, 255); stroke-opacity: 1; stroke-width: 1px;"/><path class="ygrid crisp" transform="translate(0,93.95)" d="M61,0h589" style="stroke: rgb(255, 255, 255); stroke-opacity: 1; stroke-width: 1px;"/></g></g><g class="zerolinelayer"><path class="xzl zl crisp" transform="translate(80.63,0)" d="M0,60v387" style="stroke: rgb(255, 255, 255); stroke-opacity: 1; stroke-width: 2px;"/><path class="yzl zl crisp" transform="translate(0,433.42)" d="M61,0h589" style="stroke: rgb(255, 255, 255); stroke-opacity: 1; stroke-width: 2px;"/></g><path class="xlines-below"/><path class="ylines-below"/><g class="overlines-below"/><g class="xaxislayer-below"/><g class="yaxislayer-below"/><g class="overaxes-below"/><g class="plot" transform="translate(61,60)" clip-path="url('#clipcc3e19xyplot')"><g class="scatterlayer mlayer"><g class="trace scatter trace5e95ea" style="stroke-miterlimit: 2; opacity: 1;"><g class="fills"/><g class="errorbars"/><g class="lines"><path class="js-line" d="M21.15,-3000.28L36.64,-171.14L38.19,-70.92L41.28,5.33L42.83,37.71L44.38,30.98L45.93,41.16L47.48,43.67L49.03,68L50.57,84.93L52.12,90.1L53.67,80.65L55.22,129.98L56.77,135.64L58.32,137.66L59.87,150.51L61.42,144.88L62.96,129.06L64.51,170.18L66.06,140.82L67.61,167.08L69.16,147.36L70.71,157.66L72.26,187.56L73.8,162.91L75.35,181.57L76.9,171.39L78.45,161.39L80,164.87L81.55,175.29L83.1,171.29L86.19,192.46L87.74,185.23L89.29,199.14L90.84,186.22L92.39,199.7L93.94,198.97L95.49,190.81L97.03,194.88L98.58,197.31L100.13,212.61L103.23,184.73L104.78,191.5L106.33,187.88L107.87,215.12L109.42,218.39L110.97,207.34L112.52,188.04L114.07,200.89L117.17,216.93L118.71,217.95L120.26,210.92L121.81,218.32L123.36,229.27L124.91,221.79L126.46,189.81L128.01,185.5L129.56,171.05L131.1,174.23L134.2,226.73L135.75,217.34L137.3,218.19L138.85,222.17L140.4,221.16L141.94,232.91L143.49,228.98L145.04,229.99L146.59,215.78L148.14,229.92L151.24,234.01L152.78,238.19L155.88,216.1L157.43,224.63L158.98,198.41L160.53,210.66L162.08,224.55L163.63,221.08L165.17,224.98L166.72,233.44L168.27,234.66L169.82,237.88L171.37,229.38L172.92,234.44L174.47,234.72L176.01,236L177.56,244.6L179.11,227.81L180.66,214.43L182.21,241.41L183.76,234.97L185.31,240.37L188.4,253.67L189.95,230.86L191.5,249.38L193.05,236.56L194.6,229.09L196.15,229.11L197.7,231.13L199.24,237L200.79,255.03L202.34,257.73L203.89,242.34L205.44,248.68L206.99,266.54L208.54,244.26L210.08,240.18L211.63,244.57L213.18,261.34L214.73,246.75L216.28,266.53L217.83,255.63L220.92,244.17L222.47,251.79L224.02,265.26L225.57,249.93L227.12,262.48L228.67,247.87L230.22,242.36L231.76,256.42L233.31,235.28L234.86,197.73L236.41,216.82L237.96,248.1L239.51,254.4L241.06,247.21L242.61,256L244.15,270.12L245.7,256.58L247.25,252.21L248.8,247.71L250.35,251.22L251.9,228.88L253.45,236.17L256.54,269.82L258.09,252.5L259.64,237.6L261.19,249.34L262.74,258.41L264.29,257.9L265.83,264.08L267.38,252.59L270.48,260.55L272.03,247.95L273.58,246.19L275.13,247.61L276.68,265.69L278.22,260.21L279.77,268.19L281.32,260.41L282.87,253.69L284.42,243.02L285.97,252.36L287.52,251.14L290.61,267.04L292.16,261.12L293.71,269.2L295.26,250.16L296.81,246.43L298.36,263.77L299.9,260.77L301.45,253.19L303,248.91L304.55,264.41L306.1,261.66L307.65,275.82L309.2,284.04L310.75,286.69L312.29,288.25L313.84,285.72L315.39,287.47L316.94,279.94L318.49,273.23L320.04,241.45L323.13,269.27L324.68,260.05L326.23,250.04L327.78,268.19L329.33,264.31L330.88,273.91L332.43,273.78L333.97,278.92L335.52,279.06L337.07,290.16L338.62,273.16L340.17,282.53L341.72,272.11L343.27,271.66L344.82,275.69L346.36,275.69L347.91,276.07L349.46,278.28L352.56,268.82L354.11,259.95L355.66,257.35L357.2,248.48L358.75,248.83L360.3,258.69L361.85,261.97L363.4,261.63L364.95,265.24L366.5,266.46L368.04,271.24L369.59,256.25L371.14,270.79L372.69,270.28L374.24,258.22L375.79,267.22L378.88,273.12L380.43,261.27L383.53,267.74L385.08,254.88L386.63,253.82L388.18,267.36L389.73,270.73L391.27,266.21L392.82,268.89L394.37,273.85L395.92,261.81L397.47,272.05L400.57,267.16L402.11,268.49L403.66,264.17L405.21,268.31L408.31,251.99L409.86,257.07L411.41,258.33L412.95,219.49L414.5,248.99L416.05,259.68L417.6,263.07L419.15,273.79L422.25,250.82L423.8,254.24L425.34,266.48L426.89,270.36L428.44,276.68L429.99,277.98L431.54,280.73L433.09,270.59L434.64,270.21L436.18,268.78L437.73,268.23L439.28,261.96L440.83,267.82L442.38,282.5L443.93,284.45L445.48,284.23L447.02,275.44L448.57,259.63L450.12,270.05L451.67,262.26L453.22,273.13L454.77,260.28L457.87,281.72L459.41,263.58L460.96,272.22L462.51,287.19L465.61,289.56L467.16,287.49L468.71,281.62L470.25,288.82L471.8,298.52L473.35,290.2L474.9,291.4L476.45,283.18L478,287.14L479.55,280.61L481.09,276.55L482.64,288.26L484.19,278.63L485.74,263.08L488.84,276.24L490.39,274.17L491.94,280.28L493.48,273.87L495.03,279.34L496.58,280.98L498.13,284.64L499.68,294.07L502.78,280.99L504.32,288.94L505.87,298.88L507.42,297.02L508.97,284.83L510.52,282.97L512.07,276.05L513.62,277.81L515.16,263.72L516.71,278.53L518.26,278.33L519.81,261.99L521.36,256.77L522.91,266.41L524.46,270.86L526,270.07L529.1,281.29L530.65,281.29L532.2,277.61L533.75,277.55L535.3,272.41L536.85,285.92L538.39,292.77L539.94,296.16L541.49,269.4L543.04,277.06L544.59,285.29L546.14,287.36L547.69,283.21L549.23,272.14L550.78,279.66L552.33,273.91L553.88,271.02L555.43,283.9L556.98,277.11L558.53,289.95L560.07,279.41L561.62,275.54L563.17,280.12L564.72,275.41L566.27,279.16L567.82,288.75L569.37,281.86" style="vector-effect: non-scaling-stroke; fill: none; stroke: rgb(99, 110, 250); stroke-opacity: 1; stroke-width: 2px; opacity: 1;"/></g><g class="points"/><g class="text"/></g><g class="trace scatter tracee09321" style="stroke-miterlimit: 2; opacity: 1;"><g class="fills"/><g class="errorbars"/><g class="lines"><path class="js-line" d="M20.39,-3124.06L30.46,-302.93L31.23,-217.99L33.56,-46.47L34.33,-21.97L35.88,45.84L36.65,53.03L37.43,56.6L38.2,91.06L38.98,112.19L39.75,90.73L41.3,42.64L42.07,62.61L43.62,94.97L44.4,83.86L45.17,97.39L45.94,127.58L46.72,174.14L47.49,143.98L48.27,141.8L49.04,109.29L49.82,118.52L50.59,153.2L52.14,95.25L52.91,122.02L53.69,115.25L54.46,143.23L56.01,170.24L56.78,161.21L57.56,156.28L58.33,173.54L59.88,199.29L60.66,186.11L62.98,134.5L63.75,151.64L64.53,140.94L65.3,163.14L66.08,176.44L66.85,210.51L67.62,187.43L68.4,205.76L69.17,177.22L69.95,194.95L70.72,195.56L71.5,162.28L72.27,177.36L73.04,175.38L74.59,167.96L75.37,192.84L76.14,158.86L76.92,183.65L77.69,174.76L78.46,156.14L79.24,166.88L80.01,143.04L81.56,206.61L82.34,164.52L83.11,170.6L83.88,200.99L85.43,182.37L86.21,213.53L87.76,240.53L88.53,227.43L89.3,235.58L90.08,192.56L90.85,203.21L91.63,187.83L92.4,183.61L93.18,186.43L93.95,158.64L94.72,193.24L95.5,191.82L96.27,193.06L97.05,197.84L97.82,215.74L98.6,217.92L99.37,196.83L100.14,196.48L100.92,167.96L101.69,215.1L102.47,213.04L103.24,231.53L104.02,220.78L104.79,173.9L105.56,203.36L106.34,123.1L107.11,130.52L108.66,185.47L109.44,166.22L110.98,214.5L111.76,180.98L112.53,190.2L113.31,214.36L114.08,196.16L114.86,225.15L115.63,246.98L116.4,234.01L117.18,236.64L117.95,247.89L118.73,252.35L119.5,224.79L120.28,206.47L121.05,224.99L121.82,219.41L122.6,200.48L123.37,200.58L124.15,214.17L124.92,222.21L125.7,193.57L126.47,201.77L127.24,190.07L128.02,206.29L128.79,168.58L129.57,224.17L130.34,224.23L131.12,224.36L131.89,220.92L132.66,231.35L133.44,202.26L134.99,241.25L135.76,228.17L136.54,191.61L137.31,218.16L138.08,232.72L138.86,201.71L139.63,216.82L140.41,214.39L141.96,227.13L142.73,213.12L144.28,217.83L145.05,215.53L145.83,227.63L146.6,226.41L147.38,242.24L148.15,238.74L148.92,252.01L149.7,246.46L151.25,254.39L152.02,262.52L154.35,169.23L155.12,196.69L156.67,227.28L157.44,206.14L158.22,234.5L158.99,223.27L159.77,195.44L160.54,218.82L161.31,210.07L162.09,237.8L162.86,255.08L163.64,226.07L164.41,244.39L165.19,223.78L165.96,208.3L166.73,233.32L167.51,236.74L168.28,249.09L169.06,256.39L169.83,236.71L170.61,232.5L171.38,184.13L172.15,209.46L172.93,206.33L173.7,227.51L174.48,213.06L176.03,232.94L176.8,225.56L177.57,214.1L178.35,221.19L179.9,273.46L180.67,249.69L181.45,256.69L182.22,243.86L182.99,231.13L183.77,254.38L184.54,253.53L185.32,239.44L186.09,254.67L186.87,246.63L187.64,193.24L188.41,208.14L189.19,192.15L189.96,217.53L190.74,215.55L191.51,234.61L192.29,219.19L193.06,235.01L193.83,233.72L194.61,245.39L195.38,245.15L196.16,256.86L196.93,230.13L197.71,242.08L198.48,240.94L199.25,217.33L200.03,216.99L200.8,221.85L201.58,225.65L202.35,220.77L203.13,216.59L203.9,220.38L205.45,240.88L206.22,225.16L207.77,196.75L208.55,225.78L210.09,263.12L210.87,261.96L211.64,264.76L212.42,249.33L213.19,254.2L213.97,238.06L214.74,227.23L215.51,247.7L216.29,266.85L217.06,257.22L217.84,256.52L218.61,272.46L219.39,200.03L220.16,238.69L223.26,227.45L224.03,232.14L224.81,255.21L225.58,254.65L226.35,277.35L227.13,249.58L228.68,257.68L229.45,278.81L230.23,283.53L231,275.24L232.55,242.43L233.32,236.74L235.65,264.13L236.42,254.92L237.19,253.95L237.97,260.85L238.74,234.05L239.52,253.73L240.29,267.35L241.07,255.33L241.84,250.77L242.61,256.17L243.39,228.49L244.16,248.98L245.71,263.47L246.49,270.68L248.03,247.29L248.81,247.24L249.58,241.11L250.36,259.22L251.13,264.23L251.91,257.53L252.68,267.47L253.45,265.66L256.55,219.66L257.33,224.22L258.87,271.29L259.65,265.61L260.42,274.42L261.2,267.5L263.52,290.17L264.29,282.23L265.07,280.05L265.84,273.39L266.62,289L267.39,240.81L268.17,254.73L268.94,233.93L270.49,271.42L271.26,273.3L272.04,286.23L272.81,258.8L273.59,268.06L274.36,265.39L275.13,261.69L275.91,268.46L276.68,281.55L277.46,278.71L278.23,288.85L279.01,271.21L279.78,295.98L280.55,295.19L281.33,281.83L282.1,251L282.88,243.48L283.65,259.91L284.43,256.3L285.2,259L285.98,245.75L286.75,259.79L288.3,272.49L289.07,267.54L290.62,280.81L291.4,263.1L292.17,262.44L292.94,263.29L293.72,268.07L294.49,278L295.27,272.12L296.04,239.83L296.82,250.64L297.59,239.02L298.36,232.13L299.14,254.29L300.69,268.18L301.46,279.74L302.24,282.26L303.01,297.03L303.78,284.73L304.56,295.73L306.11,276.24L306.88,267.35L307.66,273.78L308.43,271.07L309.2,281.65L309.98,281.21L310.75,250.92L311.53,262.92L313.08,270.96L313.85,268.73L314.62,267.18L315.4,250.82L316.95,267.78L317.72,263.73L319.27,260.51L320.04,261.95L321.59,281.45L322.37,282.41L323.14,283.56L323.92,259.81L326.24,267.39L327.01,268.58L327.79,257.1L328.56,275.43L329.34,283.84L330.11,261.6L330.88,274.91L331.66,268.03L332.43,235.43L333.21,255.96L334.76,274.15L335.53,257.98L336.3,274.53L337.08,265.75L337.85,265.05L338.63,274.57L339.4,281.94L340.18,270.79L340.95,269.95L341.72,267.98L342.5,267.11L343.27,274.93L344.05,260.68L344.82,287.67L345.6,291.28L346.37,260.11L347.92,287.08L348.69,297.28L350.24,268.79L351.02,279.65L351.79,284.58L352.56,278.16L353.34,278.44L354.11,268.07L354.89,274.99L355.66,260.15L356.44,251.81L357.21,274.87L358.76,247.47L359.53,257.47L360.31,260.61L361.08,250.47L361.86,261.57L362.63,246.2L363.4,243.58L364.18,254.56L364.95,249.58L365.73,262.83L367.28,286.36L368.05,286.8L369.6,266.29L370.37,251.92L371.92,272.2L372.7,280.98L373.47,286.81L374.24,281.27L375.02,281.28L375.79,291.98L376.57,295.34L377.34,286.39L378.12,285.81L378.89,264.15L379.66,287.48L380.44,286.41L381.99,259.87L382.76,272.99L383.54,281.6L384.31,262.57L385.08,256.37L385.86,257L387.41,289.34L388.18,286.22L388.96,266.5L389.73,279.85L390.5,288.33L391.28,288.48L392.83,266.55L393.6,268.46L394.38,272.68L395.15,270.62L396.7,262.58L397.47,257.96L398.25,259.63L399.02,254.8L401.34,280.55L402.12,270.8L402.89,273.14L403.67,291.92L404.44,280.07L405.22,289.95L405.99,289.33L406.76,297.67L407.54,284.93L408.31,298.19L409.86,268.73L410.64,283.79L411.41,276.81L412.18,285.03L413.73,260.83L414.51,276.93L415.28,254.38L416.06,268.41L417.61,246.04L418.38,248.99L420.7,300.41L421.48,273.02L422.25,282.71L423.03,275.29L424.57,289.15L425.35,295.1L426.12,281.79L426.9,301.49L428.45,305.31L429.22,310.61L429.99,291.33L430.77,293.58L431.54,267.54L432.32,278.4L433.09,268.56L433.87,278.8L435.41,292.04L436.19,276.88L437.74,292.14L438.51,255.46L439.29,258.76L440.06,244.63L440.83,245.51L441.61,252.75L442.38,252.39L443.16,261.1L446.25,302.46L447.03,290.19L447.8,299.5L448.58,297.16L449.35,302.22L450.13,279.21L450.9,287.84L451.67,274.27L452.45,275.18L453.22,288.6L454,277.27L454.77,296.21L457.09,276.99L457.87,283.29L458.64,272.71L459.42,274.05L460.19,281.07L460.97,280.65L461.74,297.81L462.51,281.26L463.29,276.79L464.06,289.61L464.84,291.31L465.61,276L466.39,296.87L467.16,290.13L467.93,284.61L468.71,287.89L469.48,283.34L470.26,294.56L471.81,296.9L472.58,296.83L473.35,302.91L474.13,290.75L474.9,266.83L475.68,274.66L476.45,301.02L477.23,289.2L478.77,300.45L479.55,283.36L480.32,281.42L481.1,283.41L481.87,285.15L482.65,292.74L483.42,296.71L484.19,283.37L484.97,289.01L485.74,263.7L488.84,290.21L489.61,285.9L490.39,276.74L491.16,279.51L491.94,296.43L492.71,294.84L493.49,282.72L494.26,287L495.03,282.31L495.81,291.2L496.58,283.94L497.36,291.01L498.13,288.23L498.91,292.35L499.68,303.77L500.45,295.02L501.23,296.43L502,288.15L502.78,284.29L503.55,285.91L504.33,291.42L505.1,287.27L505.87,264.77L506.65,267.9L507.42,250.89L508.2,261.69L509.75,294.16L510.52,295.96L511.29,293.61L512.07,297.73L512.84,299.43L513.62,281.94L514.39,277.17L515.17,288.78L517.49,265.3L518.26,285.84L519.04,301.62L519.81,294.75L520.59,284.86L521.36,287.42L522.13,262.81L522.91,262.25L524.46,286.66L525.23,281.96L526.01,283L526.78,260.42L528.33,282.18L529.1,294.79L529.88,290.06L530.65,266.73L532.2,306.43L532.97,305.5L534.52,302.55L535.3,274.07L536.07,266.32L536.85,278.81L537.62,300.21L538.39,296.64L539.17,286.49L539.94,299.85L540.72,284.47L541.49,297L543.04,258.92L543.81,271.3L544.59,269.25L545.36,274.72L546.91,292.42L547.69,288.94L549.24,294.02L550.01,300.59L550.78,298.64L551.56,304.55L552.33,300.04L553.11,303.43L553.88,299.52L554.66,287.19L555.43,300.08L556.2,297.23L556.98,287.71L557.75,299.97L559.3,313.23L560.08,308.48L561.62,316.55L562.4,284.83L563.17,285.44L563.95,282.46L564.72,278.98L565.5,282.94L566.27,283.23L567.04,290.26L567.82,301.68L568.59,293.29L569.37,277.78" style="vector-effect: non-scaling-stroke; fill: none; stroke: rgb(239, 85, 59); stroke-opacity: 1; stroke-width: 2px; opacity: 1;"/></g><g class="points"/><g class="text"/></g></g></g><g class="overplot"/><path class="xlines-above crisp" d="M0,0" style="fill: none;"/><path class="ylines-above crisp" d="M0,0" style="fill: none;"/><g class="overlines-above"/><g class="xaxislayer-above"><g class="xtick"><text text-anchor="middle" x="0" y="460" transform="translate(80.63,0)" style="font-family: 'Open Sans', verdana, arial, sans-serif; font-size: 12px; fill: rgb(42, 63, 95); fill-opacity: 1; white-space: pre;">0</text></g><g class="xtick"><text text-anchor="middle" x="0" y="460" transform="translate(159.17000000000002,0)" style="font-family: 'Open Sans', verdana, arial, sans-serif; font-size: 12px; fill: rgb(42, 63, 95); fill-opacity: 1; white-space: pre;">2</text></g><g class="xtick"><text text-anchor="middle" x="0" y="460" transform="translate(237.7,0)" style="font-family: 'Open Sans', verdana, arial, sans-serif; font-size: 12px; fill: rgb(42, 63, 95); fill-opacity: 1; white-space: pre;">4</text></g><g class="xtick"><text text-anchor="middle" x="0" y="460" transform="translate(316.23,0)" style="font-family: 'Open Sans', verdana, arial, sans-serif; font-size: 12px; fill: rgb(42, 63, 95); fill-opacity: 1; white-space: pre;">6</text></g><g class="xtick"><text text-anchor="middle" x="0" y="460" transform="translate(394.77,0)" style="font-family: 'Open Sans', verdana, arial, sans-serif; font-size: 12px; fill: rgb(42, 63, 95); fill-opacity: 1; white-space: pre;">8</text></g><g class="xtick"><text text-anchor="middle" x="0" y="460" transform="translate(473.3,0)" style="font-family: 'Open Sans', verdana, arial, sans-serif; font-size: 12px; fill: rgb(42, 63, 95); fill-opacity: 1; white-space: pre;">10</text></g><g class="xtick"><text text-anchor="middle" x="0" y="460" transform="translate(551.8299999999999,0)" style="font-family: 'Open Sans', verdana, arial, sans-serif; font-size: 12px; fill: rgb(42, 63, 95); fill-opacity: 1; white-space: pre;">12</text></g><g class="xtick"><text text-anchor="middle" x="0" y="460" transform="translate(630.37,0)" style="font-family: 'Open Sans', verdana, arial, sans-serif; font-size: 12px; fill: rgb(42, 63, 95); fill-opacity: 1; white-space: pre;">14</text></g></g><g class="yaxislayer-above"><g class="ytick"><text text-anchor="end" x="60" y="4.199999999999999" transform="translate(0,433.42)" style="font-family: 'Open Sans', verdana, arial, sans-serif; font-size: 12px; fill: rgb(42, 63, 95); fill-opacity: 1; white-space: pre;">0</text></g><g class="ytick"><text text-anchor="end" x="60" y="4.199999999999999" transform="translate(0,365.53)" style="font-family: 'Open Sans', verdana, arial, sans-serif; font-size: 12px; fill: rgb(42, 63, 95); fill-opacity: 1; white-space: pre;">0.05</text></g><g class="ytick"><text text-anchor="end" x="60" y="4.199999999999999" transform="translate(0,297.63)" style="font-family: 'Open Sans', verdana, arial, sans-serif; font-size: 12px; fill: rgb(42, 63, 95); fill-opacity: 1; white-space: pre;">0.1</text></g><g class="ytick"><text text-anchor="end" x="60" y="4.199999999999999" transform="translate(0,229.74)" style="font-family: 'Open Sans', verdana, arial, sans-serif; font-size: 12px; fill: rgb(42, 63, 95); fill-opacity: 1; white-space: pre;">0.15</text></g><g class="ytick"><text text-anchor="end" x="60" y="4.199999999999999" transform="translate(0,161.84)" style="font-family: 'Open Sans', verdana, arial, sans-serif; font-size: 12px; fill: rgb(42, 63, 95); fill-opacity: 1; white-space: pre;">0.2</text></g><g class="ytick"><text text-anchor="end" x="60" y="4.199999999999999" transform="translate(0,93.95)" style="font-family: 'Open Sans', verdana, arial, sans-serif; font-size: 12px; fill: rgb(42, 63, 95); fill-opacity: 1; white-space: pre;">0.25</text></g></g><g class="overaxes-above"/></g></g><g class="polarlayer"/><g class="ternarylayer"/><g class="geolayer"/><g class="funnelarealayer"/><g class="pielayer"/><g class="treemaplayer"/><g class="sunburstlayer"/><g class="glimages"/><defs id="topdefs-cc3e19"><g class="clips"/><clipPath id="legendcc3e19"><rect width="89" height="48" x="0" y="0"/></clipPath></defs><g class="layer-above"><g class="imagelayer"/><g class="shapelayer"/></g><g class="infolayer"><g class="legend" pointer-events="all" transform="translate(538.09,79.35000000000002)"><rect class="bg" shape-rendering="crispEdges" width="89" height="48" x="0" y="0" style="stroke: rgb(68, 68, 68); stroke-opacity: 1; fill: rgb(255, 255, 255); fill-opacity: 1; stroke-width: 0px;"/><g class="scrollbox" transform="" clip-path="url('#legendcc3e19')"><g class="groups"><g class="traces" transform="translate(0,14.5)" style="opacity: 1;"><text class="legendtext" text-anchor="start" x="40" y="4.680000000000001" style="font-family: 'Open Sans', verdana, arial, sans-serif; font-size: 12px; fill: rgb(42, 63, 95); fill-opacity: 1; white-space: pre;">BS=32  </text><g class="layers" style="opacity: 1;"><g class="legendfill"/><g class="legendlines"><path class="js-line" d="M5,0h30" style="fill: none; stroke: rgb(99, 110, 250); stroke-opacity: 1; stroke-width: 2px;"/></g><g class="legendsymbols"><g class="legendpoints"/></g></g><rect class="legendtoggle" x="0" y="-9.5" width="83.03125" height="19" style="fill: rgb(0, 0, 0); fill-opacity: 0;"/></g><g class="traces" transform="translate(0,33.5)" style="opacity: 1;"><text class="legendtext" text-anchor="start" x="40" y="4.680000000000001" style="font-family: 'Open Sans', verdana, arial, sans-serif; font-size: 12px; fill: rgb(42, 63, 95); fill-opacity: 1; white-space: pre;">BS=16  </text><g class="layers" style="opacity: 1;"><g class="legendfill"/><g class="legendlines"><path class="js-line" d="M5,0h30" style="fill: none; stroke: rgb(239, 85, 59); stroke-opacity: 1; stroke-width: 2px;"/></g><g class="legendsymbols"><g class="legendpoints"/></g></g><rect class="legendtoggle" x="0" y="-9.5" width="83.03125" height="19" style="fill: rgb(0, 0, 0); fill-opacity: 0;"/></g></g></g><rect class="scrollbar" rx="20" ry="3" width="0" height="0" x="0" y="0" style="fill: rgb(128, 139, 164); fill-opacity: 1;"/></g><g class="g-gtitle"/><g class="g-xtitle"><text class="xtitle" x="355.5" y="487.8" text-anchor="middle" style="font-family: 'Open Sans', verdana, arial, sans-serif; font-size: 14px; fill: rgb(42, 63, 95); opacity: 1; font-weight: normal; white-space: pre;">Epochs</text></g><g class="g-ytitle" transform="translate(1.1591796875,0)"><text class="ytitle" transform="rotate(-90,11.840625000000003,253.5)" x="11.840625000000003" y="253.5" text-anchor="middle" style="font-family: 'Open Sans', verdana, arial, sans-serif; font-size: 14px; fill: rgb(42, 63, 95); opacity: 1; font-weight: normal; white-space: pre;">Training loss</text></g></g></svg>