<svg class="main-svg" xmlns="http://www.w3.org/2000/svg" xmlns:xlink="http://www.w3.org/1999/xlink" width="700" height="500" style="" viewBox="0 0 700 500"><rect x="0" y="0" width="700" height="500" style="fill: rgb(255, 255, 255); fill-opacity: 1;"/><defs id="defs-74ca4a"><g class="clips"><clipPath id="clip74ca4axyplot" class="plotclip"><rect width="596" height="387"/></clipPath><clipPath class="axesclip" id="clip74ca4ax"><rect x="54" y="0" width="596" height="500"/></clipPath><clipPath class="axesclip" id="clip74ca4ay"><rect x="0" y="60" width="700" height="387"/></clipPath><clipPath class="axesclip" id="clip74ca4axy"><rect x="54" y="60" width="596" height="387"/></clipPath></g><g class="gradients"/></defs><g class="bglayer"><rect class="bg" x="54" y="60" width="596" height="387" style="fill: rgb(229, 236, 246); fill-opacity: 1; stroke-width: 0;"/></g><g class="layer-below"><g class="imagelayer"/><g class="shapelayer"/></g><g class="cartesianlayer"><g class="subplot xy"><g class="layer-subplot"><g class="shapelayer"/><g class="imagelayer"/></g><g class="gridlayer"><g class="x"><path class="xgrid crisp" transform="translate(189.45,0)" d="M0,60v387" style="stroke: rgb(255, 255, 255); stroke-opacity: 1; stroke-width: 1px;"/><path class="xgrid crisp" transform="translate(297.82,0)" d="M0,60v387" style="stroke: rgb(255, 255, 255); stroke-opacity: 1; stroke-width: 1px;"/><path class="xgrid crisp" transform="translate(406.18,0)" d="M0,60v387" style="stroke: rgb(255, 255, 255); stroke-opacity: 1; stroke-width: 1px;"/><path class="xgrid crisp" transform="translate(514.55,0)" d="M0,60v387" style="stroke: rgb(255, 255, 255); stroke-opacity: 1; stroke-width: 1px;"/><path class="xgrid crisp" transform="translate(622.91,0)" d="M0,60v387" style="stroke: rgb(255, 255, 255); stroke-opacity: 1; stroke-width: 1px;"/></g><g class="y"><path class="ygrid crisp" transform="translate(0,374.44)" d="M54,0h596" style="stroke: rgb(255, 255, 255); stroke-opacity: 1; stroke-width: 1px;"/><path class="ygrid crisp" transform="translate(0,326.06)" d="M54,0h596" style="stroke: rgb(255, 255, 255); stroke-opacity: 1; stroke-width: 1px;"/><path class="ygrid crisp" transform="translate(0,277.69)" d="M54,0h596" style="stroke: rgb(255, 255, 255); stroke-opacity: 1; stroke-width: 1px;"/><path class="ygrid crisp" transform="translate(0,229.31)" d="M54,0h596" style="stroke: rgb(255, 255, 255); stroke-opacity: 1; stroke-width: 1px;"/><path class="ygrid crisp" transform="translate(0,180.94)" d="M54,0h596" style="stroke: rgb(255, 255, 255); stroke-opacity: 1; stroke-width: 1px;"/><path class="ygrid crisp" transform="translate(0,132.56)" d="M54,0h596" style="stroke: rgb(255, 255, 255); stroke-opacity: 1; stroke-width: 1px;"/><path class="ygrid crisp" transform="translate(0,84.19)" d="M54,0h596" style="stroke: rgb(255, 255, 255); stroke-opacity: 1; stroke-width: 1px;"/></g></g><g class="zerolinelayer"><path class="xzl zl crisp" transform="translate(81.09,0)" d="M0,60v387" style="stroke: rgb(255, 255, 255); stroke-opacity: 1; stroke-width: 2px;"/><path class="yzl zl crisp" transform="translate(0,422.81)" d="M54,0h596" style="stroke: rgb(255, 255, 255); stroke-opacity: 1; stroke-width: 2px;"/></g><path class="xlines-below"/><path class="ylines-below"/><g class="overlines-below"/><g class="xaxislayer-below"/><g class="yaxislayer-below"/><g class="overaxes-below"/><g class="plot" transform="translate(54,60)" clip-path="url('#clip74ca4axyplot')"><g class="scatterlayer mlayer"><g class="trace scatter traced7a644" style="stroke-miterlimit: 2; opacity: 1;"><g class="fills"/><g class="errorbars"/><g class="lines"><path class="js-line" d="M29.56,-1274.66L34.6,-58.43L37.12,36.35L39.64,72.98L42.16,91.67L47.2,98.04L49.72,110.72L54.76,116.7L57.28,118.61L59.8,120.37L62.32,123.45L64.85,137.02L67.37,134.35L69.89,131.59L72.41,136.11L74.93,131.94L77.45,138.83L79.97,132.77L82.49,140.48L85.01,143.54L87.53,137.65L90.05,150.67L92.57,141.61L95.09,151.97L97.61,146.39L100.13,139.2L102.65,141.19L105.17,145.96L107.69,148.2L110.21,150.53L112.73,150.51L117.77,137.13L120.29,129.66L122.81,147.86L125.33,159.23L127.85,157.36L130.37,143.45L132.89,161.51L135.41,160.37L137.93,157.25L140.45,147.21L142.98,159.66L145.5,154.49L148.02,153.49L150.54,144.35L155.58,174.37L158.1,173.9L160.62,169.53L163.14,174.76L165.66,149.59L168.18,167.21L170.7,173.26L173.22,155.89L175.74,168.6L178.26,168.19L180.78,158.12L183.3,158.76L185.82,166.08L188.34,159.76L190.86,181.05L193.38,174.52L195.9,170.24L198.42,170.36L200.94,177.02L203.46,162.36L205.98,175.15L208.5,169.87L211.02,170.39L213.54,164.13L216.06,181.98L218.58,177.27L221.11,163.9L223.63,174.8L226.15,174.91L228.67,165.81L231.19,161.28L233.71,184.98L236.23,159.5L238.75,175.91L241.27,175.82L243.79,217.42L246.31,185.33L248.83,169.99L251.35,152.25L253.87,184.07L256.39,164.4L258.91,161.22L261.43,183.87L263.95,182.05L266.47,177.47L268.99,175.02L271.51,171.08L274.03,182.94L276.55,175.9L279.07,178.05L281.59,167.51L284.11,187.86L286.63,180.48L289.15,183.22L291.67,180.6L294.19,182.58L296.71,182.54L299.23,183.97L301.76,195.43L304.28,179.53L306.8,169.58L309.32,184.57L311.84,184.87L314.36,201.93L316.88,179.61L319.4,193.54L321.92,181.81L324.44,180.23L326.96,176.57L329.48,182.29L332,180.68L334.52,180.12L337.04,180.55L339.56,182.43L342.08,191.97L344.6,197.39L347.12,195.09L349.64,189.59L352.16,169.03L354.68,195.46L357.2,202.37L359.72,215.89L362.24,210.28L364.76,194.07L367.28,196.71L369.8,215.12L372.32,212.07L374.84,216.1L377.36,202.37L379.89,199.25L382.41,219.53L384.93,198.25L387.45,205.59L389.97,220.97L392.49,223.83L395.01,228.5L397.53,213.69L400.05,204.56L402.57,204.07L405.09,207.53L407.61,229.03L410.13,243.25L412.65,226.98L415.17,235.24L417.69,227.82L420.21,233.16L422.73,233.15L425.25,230.23L427.77,232.89L430.29,238.02L432.81,229.86L435.33,237.59L437.85,222.59L440.37,232.14L442.89,219.69L445.41,228.92L450.45,222.28L452.97,227.14L455.49,229.11L458.02,242.35L460.54,236.7L463.06,246.33L465.58,250.01L468.1,251.21L470.62,247.3L473.14,255.8L475.66,251.36L478.18,258.92L480.7,248.78L483.22,256.65L485.74,264.54L488.26,268.76L490.78,237.09L493.3,240.29L498.34,263.86L500.86,251.46L503.38,248.99L505.9,255.11L508.42,249.24L510.94,264.19L513.46,260.21L515.98,254.78L518.5,259.9L521.02,252.26L523.54,267.54L526.06,259.88L528.58,268.35L531.1,268.91L533.62,271.22L536.14,250.13L541.19,262.46L543.71,267.79L546.23,269.81L548.75,255.14L551.27,255.77L553.79,248.98L556.31,261.81L558.83,259.78L561.35,268.69L563.87,264.85L566.39,256.43L568.91,234.46" style="vector-effect: non-scaling-stroke; fill: none; stroke: rgb(99, 110, 250); stroke-opacity: 1; stroke-width: 2px; opacity: 1;"/></g><g class="points"/><g class="text"/></g><g class="trace scatter trace19d786" style="stroke-miterlimit: 2; opacity: 1;"><g class="fills"/><g class="errorbars"/><g class="lines"><path class="js-line" d="M29.18,-822.39L31.31,-258.72L33.45,67.02L35.58,151.61L37.71,196.75L39.85,234.47L41.98,232.16L44.11,248.44L46.25,237.53L48.38,262.33L50.51,271.48L52.65,296.14L54.78,269.21L56.91,268.92L59.05,265.78L61.18,277.53L63.31,269.89L65.45,274.77L67.58,263.92L69.71,272.18L71.85,266.63L73.98,292.51L76.11,285.84L78.25,265.01L80.38,276.97L82.51,278.85L84.65,290.38L86.78,289.44L88.91,264.34L91.05,293.25L93.18,276.74L95.31,304.76L97.45,302.79L99.58,276.35L101.71,305.15L103.85,291.81L105.98,288.19L108.11,303.97L110.25,285.79L112.38,289.22L114.51,284.5L116.65,279.53L118.78,285.04L120.91,310.71L123.05,294.71L125.18,278.4L127.31,282.75L129.45,301.89L131.58,292.75L133.71,305.89L135.85,298.06L137.98,311.64L140.11,309.38L142.25,298.95L144.38,310.23L146.51,306.16L148.65,305.39L150.78,310.05L152.91,319.42L155.05,306.16L157.18,303.74L159.31,301.61L161.45,302.32L163.58,296.58L165.71,303.74L167.85,297.47L169.98,317.05L172.11,312.73L174.25,300.86L176.38,317.32L178.51,301.66L180.65,303.55L182.78,316.76L184.91,307.84L187.05,310.56L191.31,327.9L193.45,329.62L195.58,322.5L197.71,301.82L199.85,317.2L201.98,320.87L204.11,318.42L206.25,325.05L208.38,327.24L210.51,315.06L212.65,309.15L214.78,320.05L216.91,315.95L219.05,313.93L221.18,310.59L223.31,318.38L225.45,326.21L227.58,314.29L229.71,318.67L231.85,308.13L233.98,309.75L236.11,316.82L238.25,328.07L240.38,323.83L242.51,320.8L244.65,316.26L246.78,328.15L248.91,329.19L253.18,334.89L255.31,332.14L257.45,322.93L259.58,326.84L261.71,318.02L263.85,328.22L265.98,328.32L268.11,331.39L270.25,332.48L272.38,324.33L274.51,321.44L276.65,324.74L278.78,331.36L280.91,328.18L283.05,325.37L285.18,339.22L287.31,336.5L289.45,337.73L291.58,321.18L293.71,335.28L297.98,319.35L300.11,323.52L302.25,332.74L304.38,328.21L308.65,336.58L310.78,335.23L312.91,331.13L315.05,338L317.18,339.82L319.31,338.45L321.45,333.41L323.58,335.64L325.71,330.54L327.85,335.06L329.98,332.54L332.11,334.64L334.24,333.67L336.38,317.19L340.64,333.31L342.78,329.2L344.91,327.11L347.04,330.22L349.18,328.3L351.31,333.28L353.44,339.17L355.58,342.6L357.71,344.84L359.84,343.08L364.11,334.74L366.24,338.91L370.51,341.1L372.64,338.67L374.78,337.54L376.91,339.91L379.04,329.82L381.18,335.67L383.31,339.91L385.44,341.47L387.58,339.56L389.71,339.47L393.98,334.9L396.11,335.01L398.24,340.07L400.38,342.73L402.51,339.76L404.64,338.7L406.78,344.94L408.91,348.02L411.04,342.7L413.18,345.86L415.31,340.73L417.44,339.57L419.58,343.34L421.71,344.27L423.84,346.52L425.98,342.11L428.11,340.4L430.24,340.12L432.38,338.13L434.51,346.01L436.64,345.82L438.78,344.47L440.91,345.21L443.04,343.26L445.18,343.64L447.31,341.44L449.44,346.84L451.58,341.83L455.84,347.42L457.98,345.72L460.11,342.07L462.24,347.3L464.38,351.29L466.51,350.42L470.78,345.54L472.91,348.04L477.18,350.07L479.31,351.71L481.44,350.86L483.58,348.91L485.71,345.9L487.84,346.22L489.98,349.19L492.11,348.68L494.24,349.54L496.38,347.43L498.51,349.4L500.64,346.69L504.91,347.5L507.04,349.18L509.18,351.36L511.31,346.39L513.44,347.54L515.58,352.19L517.71,350.3L519.84,350.77L524.11,351.22L526.24,351.75L530.51,347.59L532.64,347.1L534.78,348.22L536.91,351.29L539.04,349.65L541.18,353.36L545.44,348.25L547.58,347.41L551.84,350.42L553.98,350.59L556.11,348.12L558.24,348.92L560.38,351.31L562.51,347.47L564.64,348.75L566.78,348.3L568.91,346.11" style="vector-effect: non-scaling-stroke; fill: none; stroke: rgb(239, 85, 59); stroke-opacity: 1; stroke-width: 2px; opacity: 1;"/></g><g class="points"/><g class="text"/></g></g></g><g class="overplot"/><path class="xlines-above crisp" d="M0,0" style="fill: none;"/><path class="ylines-above crisp" d="M0,0" style="fill: none;"/><g class="overlines-above"/><g class="xaxislayer-above"><g class="xtick"><text text-anchor="middle" x="0" y="460" transform="translate(81.09,0)" style="font-family: 'Open Sans', verdana, arial, sans-serif; font-size: 12px; fill: rgb(42, 63, 95); fill-opacity: 1; white-space: pre;">0</text></g><g class="xtick"><text text-anchor="middle" x="0" y="460" transform="translate(189.45,0)" style="font-family: 'Open Sans', verdana, arial, sans-serif; font-size: 12px; fill: rgb(42, 63, 95); fill-opacity: 1; white-space: pre;">2</text></g><g class="xtick"><text text-anchor="middle" x="0" y="460" transform="translate(297.82,0)" style="font-family: 'Open Sans', verdana, arial, sans-serif; font-size: 12px; fill: rgb(42, 63, 95); fill-opacity: 1; white-space: pre;">4</text></g><g class="xtick"><text text-anchor="middle" x="0" y="460" transform="translate(406.18,0)" style="font-family: 'Open Sans', verdana, arial, sans-serif; font-size: 12px; fill: rgb(42, 63, 95); fill-opacity: 1; white-space: pre;">6</text></g><g class="xtick"><text text-anchor="middle" x="0" y="460" transform="translate(514.55,0)" style="font-family: 'Open Sans', verdana, arial, sans-serif; font-size: 12px; fill: rgb(42, 63, 95); fill-opacity: 1; white-space: pre;">8</text></g><g class="xtick"><text text-anchor="middle" x="0" y="460" transform="translate(622.91,0)" style="font-family: 'Open Sans', verdana, arial, sans-serif; font-size: 12px; fill: rgb(42, 63, 95); fill-opacity: 1; white-space: pre;">10</text></g></g><g class="yaxislayer-above"><g class="ytick"><text text-anchor="end" x="53" y="4.199999999999999" transform="translate(0,422.81)" style="font-family: 'Open Sans', verdana, arial, sans-serif; font-size: 12px; fill: rgb(42, 63, 95); fill-opacity: 1; white-space: pre;">0</text></g><g class="ytick"><text text-anchor="end" x="53" y="4.199999999999999" transform="translate(0,374.44)" style="font-family: 'Open Sans', verdana, arial, sans-serif; font-size: 12px; fill: rgb(42, 63, 95); fill-opacity: 1; white-space: pre;">0.1</text></g><g class="ytick"><text text-anchor="end" x="53" y="4.199999999999999" transform="translate(0,326.06)" style="font-family: 'Open Sans', verdana, arial, sans-serif; font-size: 12px; fill: rgb(42, 63, 95); fill-opacity: 1; white-space: pre;">0.2</text></g><g class="ytick"><text text-anchor="end" x="53" y="4.199999999999999" transform="translate(0,277.69)" style="font-family: 'Open Sans', verdana, arial, sans-serif; font-size: 12px; fill: rgb(42, 63, 95); fill-opacity: 1; white-space: pre;">0.3</text></g><g class="ytick"><text text-anchor="end" x="53" y="4.199999999999999" transform="translate(0,229.31)" style="font-family: 'Open Sans', verdana, arial, sans-serif; font-size: 12px; fill: rgb(42, 63, 95); fill-opacity: 1; white-space: pre;">0.4</text></g><g class="ytick"><text text-anchor="end" x="53" y="4.199999999999999" transform="translate(0,180.94)" style="font-family: 'Open Sans', verdana, arial, sans-serif; font-size: 12px; fill: rgb(42, 63, 95); fill-opacity: 1; white-space: pre;">0.5</text></g><g class="ytick"><text text-anchor="end" x="53" y="4.199999999999999" transform="translate(0,132.56)" style="font-family: 'Open Sans', verdana, arial, sans-serif; font-size: 12px; fill: rgb(42, 63, 95); fill-opacity: 1; white-space: pre;">0.6</text></g><g class="ytick"><text text-anchor="end" x="53" y="4.199999999999999" transform="translate(0,84.19)" style="font-family: 'Open Sans', verdana, arial, sans-serif; font-size: 12px; fill: rgb(42, 63, 95); fill-opacity: 1; white-space: pre;">0.7</text></g></g><g class="overaxes-above"/></g></g><g class="polarlayer"/><g class="ternarylayer"/><g class="geolayer"/><g class="funnelarealayer"/><g class="pielayer"/><g class="treemaplayer"/><g class="sunburstlayer"/><g class="glimages"/><defs id="topdefs-74ca4a"><g class="clips"/><clipPath id="legend74ca4a"><rect width="71" height="48" x="0" y="0"/></clipPath></defs><g class="layer-above"><g class="imagelayer"/><g class="shapelayer"/></g><g class="infolayer"><g class="legend" pointer-events="all" transform="translate(560.5999999999999,79.35000000000002)"><rect class="bg" shape-rendering="crispEdges" width="71" height="48" x="0" y="0" style="stroke: rgb(68, 68, 68); stroke-opacity: 1; fill: rgb(255, 255, 255); fill-opacity: 1; stroke-width: 0px;"/><g class="scrollbox" transform="" clip-path="url('#legend74ca4a')"><g class="groups"><g class="traces" transform="translate(0,14.5)" style="opacity: 1;"><text class="legendtext" text-anchor="start" x="40" y="4.680000000000001" style="font-family: 'Open Sans', verdana, arial, sans-serif; font-size: 12px; fill: rgb(42, 63, 95); fill-opacity: 1; white-space: pre;">wid  </text><g class="layers" style="opacity: 1;"><g class="legendfill"/><g class="legendlines"><path class="js-line" d="M5,0h30" style="fill: none; stroke: rgb(99, 110, 250); stroke-opacity: 1; stroke-width: 2px;"/></g><g class="legendsymbols"><g class="legendpoints"/></g></g><rect class="legendtoggle" x="0" y="-9.5" width="65.6875" height="19" style="fill: rgb(0, 0, 0); fill-opacity: 0;"/></g><g class="traces" transform="translate(0,33.5)" style="opacity: 1;"><text class="legendtext" text-anchor="start" x="40" y="4.680000000000001" style="font-family: 'Open Sans', verdana, arial, sans-serif; font-size: 12px; fill: rgb(42, 63, 95); fill-opacity: 1; white-space: pre;">nle  </text><g class="layers" style="opacity: 1;"><g class="legendfill"/><g class="legendlines"><path class="js-line" d="M5,0h30" style="fill: none; stroke: rgb(239, 85, 59); stroke-opacity: 1; stroke-width: 2px;"/></g><g class="legendsymbols"><g class="legendpoints"/></g></g><rect class="legendtoggle" x="0" y="-9.5" width="65.6875" height="19" style="fill: rgb(0, 0, 0); fill-opacity: 0;"/></g></g></g><rect class="scrollbar" rx="20" ry="3" width="0" height="0" x="0" y="0" style="fill: rgb(128, 139, 164); fill-opacity: 1;"/></g><g class="g-gtitle"/><g class="g-xtitle"><text class="xtitle" x="352" y="487.8" text-anchor="middle" style="font-family: 'Open Sans', verdana, arial, sans-serif; font-size: 14px; fill: rgb(42, 63, 95); opacity: 1; font-weight: normal; white-space: pre;">Epochs</text></g><g class="g-ytitle" transform="translate(1.4873046875,0)"><text class="ytitle" transform="rotate(-90,11.512500000000003,253.5)" x="11.512500000000003" y="253.5" text-anchor="middle" style="font-family: 'Open Sans', verdana, arial, sans-serif; font-size: 14px; fill: rgb(42, 63, 95); opacity: 1; font-weight: normal; white-space: pre;">Training loss</text></g></g></svg>