<svg width="4176" height="2241" xmlns="http://www.w3.org/2000/svg" xmlns:xlink="http://www.w3.org/1999/xlink" xml:space="preserve" overflow="hidden"><defs><clipPath id="clip0"><rect x="224" y="0" width="4176" height="2241"/></clipPath><clipPath id="clip1"><rect x="224" y="0" width="4176" height="2241"/></clipPath></defs><g clip-path="url(#clip0)" transform="translate(-224 0)"><g clip-path="url(#clip1)"><rect x="234.5" y="723.5" width="842" height="174" stroke="#101A3E" stroke-width="4.58333" stroke-linecap="butt" stroke-linejoin="miter" stroke-miterlimit="8" stroke-opacity="1" fill="#344A9A" fill-opacity="1"/><text fill="#FFFFFF" fill-opacity="1" font-family="Arial,Arial_MSFontService,sans-serif" font-style="italic" font-variant="normal" font-weight="700" font-stretch="normal" font-size="83" text-anchor="start" direction="ltr" writing-mode="lr-tb" unicode-bidi="normal" text-decoration="none" transform="matrix(1 0 0 1 505.789 841)">convert</text><rect x="1779.5" y="1621.5" width="842" height="174" stroke="#101A3E" stroke-width="4.58333" stroke-linecap="butt" stroke-linejoin="miter" stroke-miterlimit="8" stroke-opacity="1" fill="#344A9A" fill-opacity="1"/><text fill="#FFFFFF" fill-opacity="1" font-family="Arial,Arial_MSFontService,sans-serif" font-style="italic" font-variant="normal" font-weight="700" font-stretch="normal" font-size="83" text-anchor="start" direction="ltr" writing-mode="lr-tb" unicode-bidi="normal" text-decoration="none" transform="matrix(1 0 0 1 2012.08 1738)">construct</text><path d="M661.875-3.4294e-06 661.875 689.115 648.125 689.115 648.125 3.4294e-06ZM675.625 682.239 655 723.489 634.375 682.239Z" fill="#344A9A" fill-rule="nonzero" fill-opacity="1"/><text fill="#344A9A" fill-opacity="1" font-family="Arial,Arial_MSFontService,sans-serif" font-style="normal" font-variant="normal" font-weight="400" font-stretch="normal" font-size="83" text-anchor="start" direction="ltr" writing-mode="lr-tb" unicode-bidi="normal" text-decoration="none" transform="matrix(1 0 0 1 687.747 392)">DICOM files</text><rect x="234" y="1621" width="842" height="174" stroke="#344A9A" stroke-width="10.3125" stroke-linecap="butt" stroke-linejoin="miter" stroke-miterlimit="8" stroke-opacity="1" fill="none"/><text fill="#344A9A" fill-opacity="1" font-family="Arial,Arial_MSFontService,sans-serif" font-style="normal" font-variant="normal" font-weight="400" font-stretch="normal" font-size="83" text-anchor="start" direction="ltr" writing-mode="lr-tb" unicode-bidi="normal" text-decoration="none" transform="matrix(1 0 0 1 375.164 1738)">build</text><text fill="#344A9A" fill-opacity="1" font-family="Arial,Arial_MSFontService,sans-serif" font-style="normal" font-variant="normal" font-weight="400" font-stretch="normal" font-size="83" text-anchor="start" direction="ltr" writing-mode="lr-tb" unicode-bidi="normal" text-decoration="none" transform="matrix(1 0 0 1 549.33 1738)">-</text><text fill="#344A9A" fill-opacity="1" font-family="Arial,Arial_MSFontService,sans-serif" font-style="normal" font-variant="normal" font-weight="400" font-stretch="normal" font-size="83" text-anchor="start" direction="ltr" writing-mode="lr-tb" unicode-bidi="normal" text-decoration="none" transform="matrix(1 0 0 1 576.83 1738)">raw</text><text fill="#344A9A" fill-opacity="1" font-family="Arial,Arial_MSFontService,sans-serif" font-style="normal" font-variant="normal" font-weight="400" font-stretch="normal" font-size="83" text-anchor="start" direction="ltr" writing-mode="lr-tb" unicode-bidi="normal" text-decoration="none" transform="matrix(1 0 0 1 709.747 1738)">-</text><text fill="#344A9A" fill-opacity="1" font-family="Arial,Arial_MSFontService,sans-serif" font-style="normal" font-variant="normal" font-weight="400" font-stretch="normal" font-size="83" text-anchor="start" direction="ltr" writing-mode="lr-tb" unicode-bidi="normal" text-decoration="none" transform="matrix(1 0 0 1 737.247 1738)">index</text><rect x="1779" y="723" width="842" height="174" stroke="#344A9A" stroke-width="10.3125" stroke-linecap="butt" stroke-linejoin="miter" stroke-miterlimit="8" stroke-opacity="1" fill="none"/><text fill="#344A9A" fill-opacity="1" font-family="Arial,Arial_MSFontService,sans-serif" font-style="normal" font-variant="normal" font-weight="400" font-stretch="normal" font-size="83" text-anchor="start" direction="ltr" writing-mode="lr-tb" unicode-bidi="normal" text-decoration="none" transform="matrix(1 0 0 1 1821.87 841)">build</text><text fill="#344A9A" fill-opacity="1" font-family="Arial,Arial_MSFontService,sans-serif" font-style="normal" font-variant="normal" font-weight="400" font-stretch="normal" font-size="83" text-anchor="start" direction="ltr" writing-mode="lr-tb" unicode-bidi="normal" text-decoration="none" transform="matrix(1 0 0 1 1996.04 841)">-</text><text fill="#344A9A" fill-opacity="1" font-family="Arial,Arial_MSFontService,sans-serif" font-style="normal" font-variant="normal" font-weight="400" font-stretch="normal" font-size="83" text-anchor="start" direction="ltr" writing-mode="lr-tb" unicode-bidi="normal" text-decoration="none" transform="matrix(1 0 0 1 2023.54 841)">semantic</text><text fill="#344A9A" fill-opacity="1" font-family="Arial,Arial_MSFontService,sans-serif" font-style="normal" font-variant="normal" font-weight="400" font-stretch="normal" font-size="83" text-anchor="start" direction="ltr" writing-mode="lr-tb" unicode-bidi="normal" text-decoration="none" transform="matrix(1 0 0 1 2353.54 841)">-</text><text fill="#344A9A" fill-opacity="1" font-family="Arial,Arial_MSFontService,sans-serif" font-style="normal" font-variant="normal" font-weight="400" font-stretch="normal" font-size="83" text-anchor="start" direction="ltr" writing-mode="lr-tb" unicode-bidi="normal" text-decoration="none" transform="matrix(1 0 0 1 2381.04 841)">index</text><rect x="3346" y="723" width="842" height="174" stroke="#344A9A" stroke-width="10.3125" stroke-linecap="butt" stroke-linejoin="miter" stroke-miterlimit="8" stroke-opacity="1" fill="none"/><text fill="#344A9A" fill-opacity="1" font-family="Arial,Arial_MSFontService,sans-serif" font-style="normal" font-variant="normal" font-weight="400" font-stretch="normal" font-size="83" text-anchor="start" direction="ltr" writing-mode="lr-tb" unicode-bidi="normal" text-decoration="none" transform="matrix(1 0 0 1 3654.51 841)">qlever</text><rect x="3346" y="1621" width="842" height="174" stroke="#344A9A" stroke-width="10.3125" stroke-linecap="butt" stroke-linejoin="miter" stroke-miterlimit="8" stroke-opacity="1" fill="none"/><text fill="#344A9A" fill-opacity="1" font-family="Arial,Arial_MSFontService,sans-serif" font-style="normal" font-variant="normal" font-weight="400" font-stretch="normal" font-size="83" text-anchor="start" direction="ltr" writing-mode="lr-tb" unicode-bidi="normal" text-decoration="none" transform="matrix(1 0 0 1 3608.67 1738)">qlever</text><text fill="#344A9A" fill-opacity="1" font-family="Arial,Arial_MSFontService,sans-serif" font-style="normal" font-variant="normal" font-weight="400" font-stretch="normal" font-size="83" text-anchor="start" direction="ltr" writing-mode="lr-tb" unicode-bidi="normal" text-decoration="none" transform="matrix(1 0 0 1 3833.26 1738)">-</text><text fill="#344A9A" fill-opacity="1" font-family="Arial,Arial_MSFontService,sans-serif" font-style="normal" font-variant="normal" font-weight="400" font-stretch="normal" font-size="83" text-anchor="start" direction="ltr" writing-mode="lr-tb" unicode-bidi="normal" text-decoration="none" transform="matrix(1 0 0 1 3860.76 1738)">ui</text><path d="M661.875 897 661.875 1586.11 648.125 1586.11 648.125 897ZM675.625 1579.24 655 1620.49 634.375 1579.24Z" fill="#344A9A" fill-rule="nonzero" fill-opacity="1"/><path d="M1076 1701.13 1744.88 1701.13 1744.88 1714.88 1076 1714.88ZM1738 1687.38 1779.25 1708 1738 1728.63Z" fill="#344A9A" fill-rule="nonzero" fill-opacity="1"/><path d="M6.875-3.4294e-06 6.87534 689.115-6.87466 689.115-6.875 3.4294e-06ZM20.6253 682.239 0.000360892 723.489-20.6247 682.239Z" fill="#344A9A" fill-rule="nonzero" fill-opacity="1" transform="matrix(1 0 0 -1 2200 1620.49)"/><path d="M2621 803.125 3311.42 803.125 3311.42 816.875 2621 816.875ZM3304.55 789.375 3345.8 810 3304.55 830.625Z" fill="#344A9A" fill-rule="nonzero" fill-opacity="1"/><path d="M3773.88 897 3773.88 1586.11 3760.13 1586.11 3760.13 897ZM3787.63 1579.24 3767 1620.49 3746.38 1579.24Z" fill="#344A9A" fill-rule="nonzero" fill-opacity="1"/><text fill="#344A9A" fill-opacity="1" font-family="Arial,Arial_MSFontService,sans-serif" font-style="normal" font-variant="normal" font-weight="400" font-stretch="normal" font-size="83" text-anchor="start" direction="ltr" writing-mode="lr-tb" unicode-bidi="normal" text-decoration="none" transform="matrix(1 0 0 1 687.747 1289)">Raw TTL</text><text fill="#344A9A" fill-opacity="1" font-family="Arial,Arial_MSFontService,sans-serif" font-style="normal" font-variant="normal" font-weight="400" font-stretch="normal" font-size="83" text-anchor="start" direction="ltr" writing-mode="lr-tb" unicode-bidi="normal" text-decoration="none" transform="matrix(1 0 0 1 1213.36 1671)">Raw index</text><text fill="#344A9A" fill-opacity="1" font-family="Arial,Arial_MSFontService,sans-serif" font-style="normal" font-variant="normal" font-weight="400" font-stretch="normal" font-size="83" text-anchor="start" direction="ltr" writing-mode="lr-tb" unicode-bidi="normal" text-decoration="none" transform="matrix(1 0 0 1 2233 1289)">Semantic TTL</text><text fill="#344A9A" fill-opacity="1" font-family="Arial,Arial_MSFontService,sans-serif" font-style="normal" font-variant="normal" font-weight="400" font-stretch="normal" font-size="83" text-anchor="start" direction="ltr" writing-mode="lr-tb" unicode-bidi="normal" text-decoration="none" transform="matrix(1 0 0 1 2698.45 776)">Semantic index</text><text fill="#344A9A" fill-opacity="1" font-family="Arial,Arial_MSFontService,sans-serif" font-style="normal" font-variant="normal" font-weight="400" font-stretch="normal" font-size="83" text-anchor="start" direction="ltr" writing-mode="lr-tb" unicode-bidi="normal" text-decoration="none" transform="matrix(1 0 0 1 3797 1267)">HTTP endpoint</text><g><g><g><path d="M3691.99 2084 3821.8 2084 3821.8 2088.75C3824.82 2089.19 3827.72 2089.99 3830.46 2091.09L3830.46 2075.33 3683.33 2075.33 3683.33 2179.33 3752.57 2179.33 3752.57 2188 3735.26 2188C3732.87 2188 3730.93 2189.94 3730.93 2192.33 3730.93 2194.73 3732.87 2196.67 3735.26 2196.67L3778.53 2196.67C3780.92 2196.67 3782.86 2194.73 3782.86 2192.33 3782.86 2189.94 3780.92 2188 3778.53 2188L3761.22 2188 3761.22 2179.33 3830.46 2179.33 3830.46 2159.22C3827.72 2160.32 3824.82 2161.12 3821.8 2161.57L3821.8 2170.67 3691.99 2170.67 3691.99 2124.62 3719.39 2124.62 3728.22 2110.27 3743.2 2140.6 3757.69 2117.04 3781.2 2117.04C3781.73 2114 3782.65 2111.09 3783.92 2108.37L3752.86 2108.37 3744.03 2122.73 3729.04 2092.4 3714.55 2115.96 3691.99 2115.96 3691.99 2084Z" fill="#344A9A" fill-rule="nonzero" fill-opacity="1"/><path d="M3816.83 2153.33C3823.59 2153.33 3829.79 2150.95 3834.64 2146.97L3850.55 2162.9 3856.67 2156.77 3840.42 2140.5C3843.29 2136.09 3844.95 2130.82 3844.95 2125.17 3844.95 2109.61 3832.36 2097 3816.83 2097 3801.29 2097 3788.7 2109.61 3788.7 2125.17 3788.7 2140.72 3801.29 2153.33 3816.83 2153.33ZM3816.83 2144.67C3827.58 2144.67 3836.3 2135.94 3836.3 2125.17 3836.3 2114.4 3827.58 2105.67 3816.83 2105.67 3806.07 2105.67 3797.35 2114.4 3797.35 2125.17 3797.35 2135.94 3806.07 2144.67 3816.83 2144.67Z" fill="#344A9A" fill-rule="evenodd" fill-opacity="1"/><path d="M3700.64 2144.67 3726.6 2144.67 3726.6 2136 3700.64 2136 3700.64 2144.67Z" fill="#344A9A" fill-rule="nonzero" fill-opacity="1"/><path d="M3700.64 2162 3700.64 2153.33 3752.57 2153.33 3752.57 2162 3700.64 2162Z" fill="#344A9A" fill-rule="nonzero" fill-opacity="1"/></g></g></g><g><g><g><path d="M3987.75 2100C3987.75 2124.16 3968.16 2143.75 3944 2143.75 3919.84 2143.75 3900.25 2124.16 3900.25 2100 3900.25 2075.84 3919.84 2056.25 3944 2056.25 3968.16 2056.25 3987.75 2075.84 3987.75 2100ZM3979 2100C3979 2119.33 3963.33 2135 3944 2135 3924.67 2135 3909 2119.33 3909 2100 3909 2080.67 3924.67 2065 3944 2065 3963.33 2065 3979 2080.67 3979 2100Z" fill="#344A9A" fill-rule="evenodd" fill-opacity="1"/><path d="M3917.37 2156.24C3917.39 2156.27 3917.41 2156.31 3917.42 2156.34 3917.53 2156.56 3917.64 2156.78 3917.75 2156.98L3935.53 2156.98C3939.5 2156.98 3941.48 2156.98 3943.46 2156.98L3943.57 2156.98C3945.51 2156.98 3947.49 2156.98 3951.37 2156.98L3969.15 2156.98C3970.15 2155.08 3972.43 2152.05 3974.62 2152.55 3979.57 2153.68 3984.55 2155.25 3989.33 2157.18L3989.48 2157.11 3989.52 2157.2 3989.56 2157.27C4007.56 2164.58 4022.75 2176.98 4022.75 2189.99L4022.75 2213.75 3865.25 2213.75 3865.25 2189.99C3865.25 2173.48 3889.73 2157.94 3913.38 2152.55 3915.31 2152.12 3916.45 2154.39 3917.37 2156.24ZM3982.08 2163.8C3980.2 2163.14 3978.3 2162.55 3976.39 2162.02L3974.44 2165.73 3951.37 2165.73C3947.41 2165.73 3945.45 2165.73 3943.52 2165.73 3941.54 2165.73 3939.59 2165.73 3935.53 2165.73L3912.47 2165.73 3910.66 2162.29C3910.13 2162.44 3909.6 2162.6 3909.08 2162.76 3909.05 2163.05 3909.03 2163.37 3909.01 2163.74 3908.96 2165.25 3909.07 2167.04 3909.32 2168.86 3909.57 2170.68 3909.94 2172.43 3910.35 2173.83 3910.41 2174.06 3910.48 2174.27 3910.54 2174.46 3917.06 2175.23 3922.12 2180.77 3922.12 2187.5 3922.12 2194.75 3916.25 2200.62 3909 2200.62 3901.75 2200.62 3895.88 2194.75 3895.88 2187.5 3895.88 2182.83 3898.31 2178.73 3901.98 2176.41L3901.95 2176.28C3901.4 2174.41 3900.95 2172.24 3900.65 2170.04 3900.47 2168.71 3900.34 2167.34 3900.28 2165.98 3894.87 2168.29 3889.83 2171.08 3885.6 2174.17 3877.19 2180.3 3874 2186.04 3874 2189.99L3874 2205 4014 2205 4014 2189.99C4014 2186.04 4010.81 2180.3 4002.4 2174.17 3998.96 2171.66 3995 2169.35 3990.73 2167.34 3990.66 2168.25 3990.57 2169.16 3990.44 2170.04 3990.24 2171.52 3989.97 2173 3989.65 2174.38L3992.12 2174.38C3993.78 2174.38 3995.3 2175.31 3996.04 2176.79L4000.41 2185.54C4000.72 2186.15 4000.88 2186.82 4000.88 2187.5L4000.88 2196.25C4000.88 2198.67 3998.92 2200.62 3996.5 2200.62L3987.75 2200.62 3987.75 2191.88 3992.12 2191.88 3992.12 2188.53 3989.42 2183.12 3977.33 2183.12 3974.62 2188.53 3974.62 2191.88 3979 2191.88 3979 2200.62 3970.25 2200.62C3967.83 2200.62 3965.88 2198.67 3965.88 2196.25L3965.88 2187.5C3965.88 2186.82 3966.03 2186.15 3966.34 2185.54L3970.71 2176.79C3971.45 2175.31 3972.97 2174.38 3974.62 2174.38L3980.58 2174.38C3980.64 2174.2 3980.69 2174.02 3980.75 2173.83 3981.16 2172.43 3981.53 2170.68 3981.77 2168.86 3982.02 2167.06 3982.13 2165.29 3982.08 2163.8ZM3913.38 2187.5C3913.38 2190.01 3911.36 2191.94 3909 2191.94 3906.64 2191.94 3904.62 2190.01 3904.62 2187.5 3904.62 2184.99 3906.64 2183.06 3909 2183.06 3911.36 2183.06 3913.38 2184.99 3913.38 2187.5Z" fill="#344A9A" fill-rule="evenodd" fill-opacity="1"/></g></g></g><path d="M3763.28 2031.97 3760.58 1829.46 3774.33 1829.28 3777.03 2031.79ZM3746.93 1836.52 3767 1795 3788.17 1835.97Z" fill="#344A9A" fill-rule="nonzero" fill-opacity="1"/><text fill="#344A9A" fill-opacity="1" font-family="Consolas,Consolas_MSFontService,sans-serif" font-style="normal" font-variant="normal" font-weight="400" font-stretch="normal" font-size="83" text-anchor="start" direction="ltr" writing-mode="lr-tb" unicode-bidi="normal" text-decoration="none" transform="matrix(1 0 0 1 2959.37 1983)">“SELECT * WHERE…”</text></g></g></svg>